<?xml version="1.0" encoding="UTF-8" standalone="no"?>
<!-- Created with Inkscape (http://www.inkscape.org/) -->

<svg
   width="1000"
   height="1000"
   viewBox="0 0 264.58333 264.58333"
   version="1.1"
   id="svg1"
   xml:space="preserve"
   inkscape:version="1.4 (86a8ad7, 2024-10-11)"
   sodipodi:docname="OBS.svg"
   xmlns:inkscape="http://www.inkscape.org/namespaces/inkscape"
   xmlns:sodipodi="http://sodipodi.sourceforge.net/DTD/sodipodi-0.dtd"
   xmlns="http://www.w3.org/2000/svg"
   xmlns:svg="http://www.w3.org/2000/svg"><sodipodi:namedview
     id="namedview1"
     pagecolor="#ffffff"
     bordercolor="#000000"
     borderopacity="0.25"
     inkscape:showpageshadow="2"
     inkscape:pageopacity="0.0"
     inkscape:pagecheckerboard="0"
     inkscape:deskcolor="#d1d1d1"
     inkscape:document-units="mm"
     inkscape:export-bgcolor="#ffffff00"
     inkscape:zoom="1.1433196"
     inkscape:cx="147.37786"
     inkscape:cy="561.08543"
     inkscape:window-width="3840"
     inkscape:window-height="2054"
     inkscape:window-x="-11"
     inkscape:window-y="-11"
     inkscape:window-maximized="1"
     inkscape:current-layer="layer1" /><defs
     id="defs1" /><g
     inkscape:label="Ebene 1"
     inkscape:groupmode="layer"
     id="layer1"><path
       style="fill:#e20074;fill-opacity:1;fill-rule:evenodd;stroke-width:3.85208"
       d="m 37.459188,264.11741 c -2.804935,-0.69267 -7.396382,-2.33347 -10.203158,-3.64626 l -5.103357,-2.38686 -7.209261,-7.17011 -7.2093155,-7.17008 -2.6303802,-5.59754 C 3.6569807,235.0679 1.9457341,230.12017 1.3008918,227.15164 L 0.12848811,221.75421 -0.14405819,132.8392 -0.41659097,43.924189 1.0858226,38.082736 C 1.912146,34.869944 3.7846371,29.862159 5.2469559,26.954376 l 2.6586927,-5.286822 5.5094584,-5.811629 5.509458,-5.811603 5.893645,-3.1645429 5.893672,-3.1645293 5.986671,-1.578964 5.986726,-1.57890997 88.915011,-0.27253277 88.91501,-0.27253278 5.40448,1.13930252 c 2.97243,0.6266347 7.93056,2.3075263 11.01803,3.7353507 l 5.61357,2.5960212 7.20924,7.1651903 7.20929,7.165243 2.63041,5.597507 c 1.44672,3.078661 3.15797,8.026355 3.80281,10.994924 l 1.17242,5.397423 0.27157,88.569368 0.27157,88.56936 -1.13929,5.40447 c -0.62666,2.97243 -2.30751,7.9306 -3.73536,11.01804 l -2.59599,5.61356 -7.16527,7.20925 -7.16518,7.20929 -5.59753,2.63039 c -3.07872,1.44674 -8.0264,3.15798 -10.99494,3.80283 l -5.39742,1.17241 -89.3842,0.18722 -89.384237,0.1872 z m 77.206912,-82.36276 -0.0517,-16.8167 -12.23182,-0.47211 -12.231867,-0.47207 -0.0041,-1.74951 -0.0041,-1.7495 18.796867,-19.04711 18.79685,-19.04713 2.08147,-2.18224 2.65702,-2.61349 2.54226,2.86407 1.892,1.90354 18.91322,18.93156 18.91326,18.93153 0.004,1.7495 0.004,1.7495 -12.22875,0.54707 -12.22874,0.54707 0.0517,16.81669 0.0517,16.81665 11.89011,0.25001 11.89004,0.24961 7.13282,-1.51006 7.13286,-1.51008 5.89973,-2.89307 5.89981,-2.89308 5.74339,-5.64006 5.74334,-5.64006 3.07266,-6.13349 c 1.68994,-3.37345 3.59868,-8.11132 4.24167,-10.5287 l 1.16908,-4.39511 -0.0392,-7.83198 -0.0392,-7.83198 -1.99554,-6.34303 -1.99553,-6.34307 -3.22224,-4.98771 -3.22226,-4.98776 -4.93282,-4.58583 -4.93286,-4.58578 -4.98414,-2.47936 c -4.85694,-2.41607 -9.37781,-3.996 -14.78706,-5.16768 l -2.66206,-0.57662 -2.23926,-6.083408 -2.23925,-6.083402 -3.93459,-4.946422 C 163.9952,78.718666 158.29622,74.227138 151.36463,71.101519 l -5.44588,-2.455626 -6.84658,-1.155856 -6.84658,-1.155816 -7.06799,1.214484 -7.068,1.214446 -5.951,2.843069 c -7.09447,3.38937 -11.49004,6.973349 -16.722905,13.635257 l -3.878861,4.938215 -2.20196,6.097 -2.201933,6.096998 -2.658476,0.59296 c -5.401971,1.20481 -9.913026,2.81244 -14.755092,5.25824 l -4.968844,2.50983 -4.904656,4.61595 -4.90463,4.61599 -3.191611,5.0074 -3.191597,5.0074 -1.95659,6.35516 -1.95663,6.35517 0.0041,7.83205 0.0041,7.83209 1.195995,4.38788 c 0.657775,2.41336 2.595535,7.13949 4.306159,10.5025 l 3.110177,6.11453 5.777811,5.60475 5.777852,5.60474 5.948241,2.87184 5.948308,2.87184 6.260016,1.3559 6.260096,1.35586 12.73931,-0.22728 12.73934,-0.22727 z"
       id="path1"
       sodipodi:nodetypes="cscccsscccsscccccccccsscccsscccsscccssccccccccccccccccccccccccccccccccsscccccccccsscccsscccccsscccsscccccccccsscccccccccc" /></g></svg>
