<svg xmlns="http://www.w3.org/2000/svg" viewBox="0 0 1002.12 840.76"><title>docker-27</title><path d="M149.24,753.44V689.31c0-8.43,5.26-15.19,14-15.19h2.41c8.72,0,14,6.77,14,15.19v135c0,32.93-16.27,59.12-44.61,75.81a83.69,83.69,0,0,1-42.9,11.7h-6c-32.93,0-59.09-16.27-75.81-44.6A83.56,83.56,0,0,1-1.43,824.32v-6c0-32.94,16.27-59.12,44.59-75.84a83.53,83.53,0,0,1,42.91-11.7h6c22.28,0,41.19,8.64,57.14,22.67ZM28.94,821.31c0,23.78,11.52,41.66,32.36,53.07a56.2,56.2,0,0,0,27.19,7.09c23.35,0,40.66-11,52.61-30.8a57,57,0,0,0,8.14-30c0-20.61-9.76-36.7-26.38-48.65a56.69,56.69,0,0,0-33.78-10.88c-25.44,0-43.75,12.86-54.74,35.69a55.76,55.76,0,0,0-5.4,24.46Zm256-90.54h4.21c35.19,0,61.95,17.07,78.91,47.79a81.63,81.63,0,0,1,10.41,39.75v6c0,32.93-16.24,59.16-44.62,75.82A84,84,0,0,1,291,911.83h-6c-32.93,0-59.1-16.27-75.81-44.6a83.58,83.58,0,0,1-11.71-42.91v-6c0-32.94,16.34-59,44.59-75.83A83.08,83.08,0,0,1,285,730.77Zm-57.15,90.54c0,23.09,11.33,40.07,30.83,52a56.26,56.26,0,0,0,29.94,8.15c22.81,0,39.67-11.57,51.4-30.82a56.47,56.47,0,0,0,8.13-30c0-21.46-10.34-37.86-28-49.74A56.49,56.49,0,0,0,288,761.16c-25.45,0-43.76,12.86-54.75,35.69a55.77,55.77,0,0,0-5.41,24.46Zm276.94-57.72c-4.59-2.15-13.17-2.86-18.13-3.05-25.37-1-43.73,13.33-54.5,35.72a55.51,55.51,0,0,0-5.42,24.43c0,26,13.66,44.23,36.88,55.34,8.48,4.05,19.43,4.82,28.7,4.82,8.15,0,19.68-5,26.91-8.43l1.26-.6h5.61l.62.13c6.91,1.43,12.12,5.81,12.12,13.24v3c0,18.49-33.79,22.72-46.69,23.63-45.5,3.14-79.53-21.85-92.51-65.25a78.78,78.78,0,0,1-3.27-22.88v-6c0-32.93,16.35-59,44.6-75.8a83.11,83.11,0,0,1,42.91-11.72h6a77.35,77.35,0,0,1,44.47,13.73l1.09.76.7,1.14a16,16,0,0,1,2.68,8v3c0,7.75-5.8,11.92-12.8,13.27l-.58.1h-1.79c-4.54,0-14.84-4.69-18.88-6.59Zm98.51,20.56c11.79-11.81,23.63-23.6,35.61-35.22,3.33-3.24,16-17,20.94-17h5.44l.62.13c6.93,1.44,12.11,5.83,12.11,13.27v3c0,5.08-5.94,11-9.23,14.46-7,7.39-14.32,14.54-21.46,21.79l-36.69,37.25q23.7,23.75,47.25,47.64,6.52,6.6,12.94,13.31c1.51,1.58,3.73,3.56,5,5.76a12.41,12.41,0,0,1,2.19,6.86v3.14l-.17.72c-1.71,6.93-6.1,12.52-13.78,12.52h-2.42c-5,0-10.7-5.68-14.14-8.93-7.1-6.69-13.94-13.72-20.9-20.55l-23.31-22.89v36.59c0,8.42-5.28,15.2-14,15.2h-2.39c-8.73,0-14-6.78-14-15.2V689.9c0-8.43,5.27-15.17,14-15.17h2.39c8.71,0,14,6.74,14,15.17v94.25ZM981.79,732h3c9.11,0,15.19,6.14,15.19,15.2,0,12.57-12,15.79-22.42,15.79-13.64,0-26.66,8.26-36.07,17.52-11.72,11.56-16.85,26.36-16.85,42.64v73.52c0,8.43-5.26,15.19-14,15.19h-2.4c-8.73,0-14-6.76-14-15.19V818.9c0-29.86,14.53-54.23,38.76-71.32A83.54,83.54,0,0,1,981.79,732ZM765.94,877.68c11,3.86,23.65,3.31,35,1.34,5.8-2.47,20.63-8.94,26.09-8l.85.14.78.39c3.33,1.61,6.51,3.9,8.21,7.29,4,7.94,2.07,15.93-5.74,20.44l-2.6,1.5c-28.81,16.63-59.45,14.32-88.17-1.21-13.73-7.42-24.23-18.44-32-31.87l-1.81-3.14c-18.5-32-16-65.72,4.86-96.18a83.19,83.19,0,0,1,27.61-25l4.16-2.4c27.13-15.66,56.21-14.59,84.08-.84A82.21,82.21,0,0,1,862.75,773l1.51,2.61c6.07,10.52-1.8,19.7-9.92,26-9.43,7.27-19,16-28,23.83q-30.23,26.1-60.41,52.24Zm-26.09-18.32q33.81-29,67.56-58.07c7.68-6.62,16.11-13.5,23.73-20.46-6.12-7.71-16.33-13.26-25-16.57-17.52-6.68-34.79-4.43-50.86,4.84-21,12.14-30,31.48-29.2,55.54A53.27,53.27,0,0,0,734,851.31,69.8,69.8,0,0,0,739.85,859.36ZM576,250.77h89.62v91.61h45.31a196.38,196.38,0,0,0,62.27-10.44,159.07,159.07,0,0,0,30.27-13.68c-12.65-16.51-19.11-37.37-21-57.93-2.59-28,3.05-64.36,22-86.24l9.42-10.9,11.22,9c28.27,22.7,52,54.43,56.23,90.61,34-10,74-7.65,104,9.67l12.3,7.1-6.47,12.64c-25.37,49.51-78.42,64.85-130.27,62.14C783.23,547.64,614.3,639.13,409.47,639.13c-105.82,0-202.91-39.55-258.2-133.44l-.9-1.53-8.06-16.39c-18.68-41.33-24.89-86.6-20.68-131.84l1.26-13.55h76.64V250.77h89.62V161.14H468.4V71.52H576V250.77" transform="translate(2.12 -71.52)" fill="#364548" fill-rule="evenodd"/><path d="M866.31,284.66c6-46.7-28.94-83.38-50.62-100.8-25,28.88-28.86,104.56,10.33,136.42-21.87,19.43-67.95,37-115.14,37H136.51c-4.59,49.25,4.06,94.61,23.81,133.43l6.53,12A222.12,222.12,0,0,0,180.4,523q35.41,2.26,65.3,1.59h0c39.14-.86,71.08-5.48,95.29-13.87a6.9,6.9,0,0,1,4.52,13c-3.22,1.12-6.58,2.16-10,3.15h0c-19.06,5.44-39.5,9.11-65.87,10.73,1.57,0-1.63.24-1.63.24-.9.06-2,.19-2.93.23-10.38.59-21.58.71-33,.71-12.52,0-24.86-.24-38.65-.94l-.35.23c47.85,53.79,122.68,86.05,216.48,86.05,198.52,0,366.89-88,441.46-285.55,52.89,5.42,103.73-8.07,126.86-53.21C941,264.17,893.58,271,866.31,284.66" transform="translate(2.12 -71.52)" fill="#22a0c8" fill-rule="evenodd"/><path d="M866.31,284.66c6-46.7-28.94-83.38-50.62-100.8-25,28.88-28.86,104.56,10.33,136.42-21.87,19.43-67.95,37-115.14,37H170.52c-2.34,75.43,25.65,132.69,75.18,167.3h0c39.14-.86,71.08-5.48,95.29-13.87a6.9,6.9,0,0,1,4.52,13c-3.22,1.12-6.58,2.16-10,3.15h0a314.82,314.82,0,0,1-67.62,11.2l-.65-.6c67.56,34.65,165.52,34.53,277.83-8.62C671,480.54,788.14,388.37,869.9,283c-1.23.56-2.43,1.13-3.59,1.71" transform="translate(2.12 -71.52)" fill="#37b1d9" fill-rule="evenodd"/><path d="M137.59,417.16a229.47,229.47,0,0,0,22.73,73.59l6.53,12A222.12,222.12,0,0,0,180.4,523q35.41,2.26,65.31,1.59c39.14-.86,71.08-5.48,95.29-13.87a6.9,6.9,0,0,1,4.52,13c-3.22,1.12-6.58,2.16-10,3.15h0c-19.06,5.44-41.13,9.34-67.5,11-.91.06-2.49.07-3.4.12-10.37.58-21.46.94-32.92.94-12.52,0-25.33-.24-39.11-1,47.85,53.8,123.14,86.17,216.94,86.17,169.95,0,317.81-64.5,403.62-207H137.59" transform="translate(2.12 -71.52)" fill="#1b81a5" fill-rule="evenodd"/><path d="M175.69,417.16c10.16,46.33,34.58,82.7,70,107.46,39.14-.86,71.08-5.48,95.29-13.87a6.9,6.9,0,0,1,4.52,13c-3.22,1.12-6.58,2.16-10,3.15h0c-19.06,5.44-41.6,9.34-68,11,67.55,34.65,165.23,34.15,277.53-9,67.94-26.1,133.33-65,192-111.76H175.69" transform="translate(2.12 -71.52)" fill="#1d91b4" fill-rule="evenodd"/><path d="M214.47,265.7h77.67v77.68H214.47Zm6.47,6.48h6.13v64.73h-6.13Zm11.52,0h6.38v64.73h-6.38V272.18Zm11.77,0h6.37v64.73h-6.37Zm11.77,0h6.37v64.73H256Zm11.77,0h6.37v64.73h-6.37V272.18Zm11.77,0h6.13v64.73h-6.13Zm24.55-96.1h77.68v77.67H304.08V176.08Zm6.47,6.48h6.13v64.72h-6.13Zm11.53,0h6.37v64.72h-6.37V182.56Zm11.76,0h6.38v64.72h-6.38Zm11.77,0H352v64.72h-6.38Zm11.77,0h6.38v64.72h-6.38Zm11.77,0h6.14v64.72h-6.14Z" transform="translate(2.12 -71.52)" fill="#23a3c2" fill-rule="evenodd"/><path d="M304.09,265.7h77.68v77.68H304.08V265.7Zm6.47,6.48h6.13v64.73h-6.13Zm11.53,0h6.37v64.73h-6.37V272.18Zm11.76,0h6.38v64.73h-6.38Zm11.77,0H352v64.73h-6.38Zm11.77,0h6.38v64.73h-6.38Zm11.77,0h6.14v64.73h-6.14Z" transform="translate(2.12 -71.52)" fill="#34bbde" fill-rule="evenodd"/><path d="M393.71,265.7h77.68v77.68H393.71Zm6.48,6.48h6.12v64.73h-6.12Zm11.52,0h6.37v64.73h-6.37Zm11.77,0h6.37v64.73h-6.37Zm11.77,0h6.37v64.73h-6.37Zm11.76,0h6.39v64.73H447Zm11.77,0h6.13v64.73h-6.13Z" transform="translate(2.12 -71.52)" fill="#23a3c2" fill-rule="evenodd"/><path d="M393.71,176.08h77.68v77.67H393.71Zm6.48,6.48h6.12v64.72h-6.12Zm11.52,0h6.37v64.72h-6.37Zm11.77,0h6.37v64.72h-6.37Zm11.77,0h6.37v64.72h-6.37Zm11.76,0h6.39v64.72H447Zm11.77,0h6.13v64.72h-6.13Zm24.56,83.14H561v77.68H483.34Zm6.47,6.48h6.13v64.73h-6.13Zm11.52,0h6.38v64.73h-6.38Zm11.77,0h6.37v64.73H513.1Zm11.77,0h6.38v64.73h-6.38Zm11.77,0H543v64.73h-6.38Zm11.77,0h6.13v64.73h-6.13Z" transform="translate(2.12 -71.52)" fill="#34bbde" fill-rule="evenodd"/><path d="M483.34,176.08H561v77.67H483.34Zm6.47,6.48h6.13v64.72h-6.13Zm11.52,0h6.38v64.72h-6.38Zm11.77,0h6.37v64.72H513.1Zm11.77,0h6.38v64.72h-6.38Zm11.77,0H543v64.72h-6.38Zm11.77,0h6.13v64.72h-6.13Z" transform="translate(2.12 -71.52)" fill="#23a3c2" fill-rule="evenodd"/><path d="M483.34,86.46H561v77.68H483.34Zm6.47,6.47h6.13v64.73h-6.13V92.92Zm11.52,0h6.38v64.73h-6.38V92.92Zm11.77,0h6.37v64.73H513.1V92.92Zm11.77,0h6.38v64.73h-6.38V92.92Zm11.77,0H543v64.73h-6.38V92.92Zm11.77,0h6.13v64.73h-6.13V92.92Z" transform="translate(2.12 -71.52)" fill="#34bbde" fill-rule="evenodd"/><path d="M573,265.7h77.67v77.68H573Zm6.47,6.48h6.13v64.73h-6.13V272.18Zm11.52,0h6.38v64.73H591V272.18Zm11.77,0h6.38v64.73h-6.38Zm11.77,0h6.38v64.73h-6.38Zm11.77,0h6.38v64.73h-6.38Zm11.77,0h6.13v64.73H638Z" transform="translate(2.12 -71.52)" fill="#23a3c2" fill-rule="evenodd"/><path d="M376.9,469.31a21.43,21.43,0,1,1,.57,42.86h-.57a21.43,21.43,0,0,1,0-42.86" transform="translate(2.12 -71.52)" fill="#d3ecec" fill-rule="evenodd"/><path d="M376.9,475.39a15.35,15.35,0,0,1,5.56,1,6.26,6.26,0,1,0,8.62,8.42,15.32,15.32,0,1,1-14.18-9.46m-379-50.48H994.7C973,419.4,926,412,933.77,383.52c-39.47,45.67-134.64,32-158.66,9.52-26.75,38.8-182.47,24-193.33-6.18-33.53,39.36-137.44,39.36-171,0-10.87,30.23-166.58,45-193.33,6.18-24,22.52-119.19,36.15-158.66-9.52C66.56,412,19.59,419.4-2.12,424.91" transform="translate(2.12 -71.52)" fill="#364548" fill-rule="evenodd"/><path d="M433.87,623.73c-53.07-25.18-82.2-59.42-98.41-96.79q-29.56,8.44-70.94,10.77-15.55.87-32.73.88-19.8,0-41.71-1.16c48.67,48.64,108.54,86.08,219.39,86.76q12.28,0,24.4-.46" transform="translate(2.12 -71.52)" fill="#bdd9d7" fill-rule="evenodd"/><path d="M355.17,561.43a186,186,0,0,1-19.69-34.49c-19.72,5.63-43.42,9.23-71,10.78,18.92,10.26,46,19.77,90.66,23.71" transform="translate(2.12 -71.52)" fill="#d3ecec" fill-rule="evenodd"/></svg>