<svg width="49" height="52" xmlns="http://www.w3.org/2000/svg" xmlns:xlink="http://www.w3.org/1999/xlink" overflow="hidden"><defs><clipPath id="clip0"><rect x="826" y="338" width="49" height="52"/></clipPath></defs><g clip-path="url(#clip0)" transform="translate(-826 -338)"><path d="M871.373 348.852C869.037 347.983 864.075 346.534 861.739 345.085 856.776 342.767 854.733 341.028 852.981 339.869 852.398 339.29 851.522 339 850.646 339 850.646 339 850.646 339 850.646 339 850.646 339 850.646 339 850.646 339 849.77 339 848.894 339.29 848.019 339.869 846.267 341.028 844.516 342.767 839.553 345.085 836.925 346.534 832.255 347.983 829.627 348.852 828.168 349.432 827 350.881 827.292 352.619 827.584 357.545 829.043 367.977 832.255 374.352 835.758 381.597 845.099 387.392 848.602 389.42 849.186 389.71 850.062 390 850.646 390 851.23 390 851.814 389.71 852.398 389.42 856.193 387.392 865.242 381.597 869.037 374.352 872.248 367.977 873.416 357.545 874 352.619 874 350.881 873.124 349.432 871.373 348.852ZM866.994 373.193C864.658 377.83 859.404 382.756 851.23 387.392 850.938 387.682 850.646 387.682 850.646 387.682 850.354 387.682 850.062 387.682 850.062 387.392 841.888 382.756 836.634 377.83 834.298 373.193 831.087 366.818 829.919 355.517 829.627 352.33 829.627 351.46 830.211 351.17 830.503 351.17 831.379 350.881 831.379 350.881 831.379 350.881 834.006 349.722 838.093 348.562 840.429 347.403 845.099 345.085 847.143 343.347 848.894 342.188 849.186 341.898 849.186 341.898 849.478 341.608 849.77 341.608 850.062 341.318 850.354 341.318 850.354 341.318 850.354 341.318 850.354 341.318 850.646 341.318 850.646 341.318 850.646 341.318 850.646 341.318 850.646 341.318 850.646 341.318 851.23 341.318 851.522 341.608 851.522 341.608 851.814 341.898 852.106 341.898 852.398 342.188 854.149 343.347 856.193 345.085 860.571 347.403 862.907 348.562 866.994 349.722 869.913 350.881 870.789 351.17 870.789 351.17 870.789 351.17 870.789 351.17 871.665 351.46 871.665 352.33 871.373 355.517 870.205 366.818 866.994 373.193ZM850.646 380.727C865.242 355.227 865.242 355.227 865.242 355.227 836.05 355.227 836.05 355.227 836.05 355.227L850.646 380.727ZM850.646 378.409C838.093 356.386 838.093 356.386 838.093 356.386 863.199 356.386 863.199 356.386 863.199 356.386L850.646 378.409Z" fill="#484848" fill-rule="evenodd"/></g></svg>