<svg width="48" height="53" xmlns="http://www.w3.org/2000/svg" xmlns:xlink="http://www.w3.org/1999/xlink" overflow="hidden"><defs><clipPath id="clip0"><rect x="975" y="337" width="48" height="53"/></clipPath></defs><g clip-path="url(#clip0)" transform="translate(-975 -337)"><path d="M991.64 360.455C990.472 360.455 990.472 360.455 990.472 360.455 990.472 362.818 990.472 362.818 990.472 362.818 988.137 362.818 988.137 362.818 988.137 362.818 988.137 364 988.137 364 988.137 364 990.472 364 990.472 364 990.472 364 990.472 366.364 990.472 366.364 990.472 366.364 991.64 366.364 991.64 366.364 991.64 366.364 991.64 364 991.64 364 991.64 364 993.975 364 993.975 364 993.975 364 993.975 362.818 993.975 362.818 993.975 362.818 991.64 362.818 991.64 362.818 991.64 362.818L991.64 360.455ZM1003.32 361.636C1002.44 361.636 1002.15 362.227 1002.15 362.818 1002.15 363.409 1002.44 364 1003.32 364 1003.9 364 1004.48 363.409 1004.48 362.818 1004.48 362.227 1003.9 361.636 1003.32 361.636ZM1007.99 361.636C1007.11 361.636 1006.82 362.227 1006.82 362.818 1006.82 363.409 1007.11 364 1007.99 364 1008.57 364 1009.16 363.409 1009.16 362.818 1009.16 362.227 1008.57 361.636 1007.99 361.636ZM1019.37 348.045C1017.04 347.159 1012.07 345.682 1009.74 344.5 1004.78 341.841 1003.02 340.364 1000.98 338.886 1000.4 338.295 999.522 338 998.646 338 998.646 338 998.646 338 998.646 338 998.646 338 998.646 338 998.646 338 997.77 338 996.894 338.295 996.019 338.591 994.267 340.068 992.516 341.841 987.553 344.205 984.925 345.386 980.255 347.159 977.627 348.045 976.168 348.636 975 349.818 975.292 351.591 975.584 356.909 977.043 367.545 980.255 374.045 983.758 381.432 993.099 387.341 996.602 389.409 997.186 390 997.77 390 998.646 390 999.23 390 999.814 390 1000.4 389.409 1004.19 387.341 1013.24 381.432 1017.04 374.045 1020.25 367.545 1021.42 356.909 1022 351.886 1022 350.114 1021.12 348.636 1019.37 348.045ZM1014.99 372.864C1012.66 377.591 1007.4 382.614 999.23 387.636 998.938 387.636 998.938 387.636 998.646 387.636 998.354 387.636 998.062 387.636 998.062 387.341 989.888 382.614 984.634 377.591 982.298 372.864 979.087 366.364 977.919 354.841 977.627 351.591 977.335 350.705 978.211 350.409 978.503 350.409 979.379 349.818 979.379 349.818 979.379 349.818 982.006 348.932 986.385 347.455 988.721 346.273 993.099 344.205 995.143 342.432 996.894 341.25 997.186 340.955 997.478 340.955 997.77 340.659 997.77 340.364 998.062 340.364 998.354 340.364 998.354 340.364 998.354 340.364 998.354 340.364 998.646 340.364 998.646 340.364 998.646 340.364 998.646 340.364 998.646 340.364 998.646 340.364 999.23 340.364 999.522 340.364 999.522 340.659 999.814 340.955 1000.11 340.955 1000.4 341.25 1001.86 342.432 1004.19 344.205 1008.57 346.273 1010.91 347.455 1014.99 348.932 1017.91 349.818 1018.79 350.409 1018.79 350.409 1018.79 350.409 1019.08 350.409 1019.66 350.705 1019.66 351.591 1019.37 354.841 1018.2 366.364 1014.99 372.864ZM1010.32 355.727C986.969 355.727 986.969 355.727 986.969 355.727 985.509 355.727 984.634 356.909 984.634 358.091 984.634 368.727 984.634 368.727 984.634 368.727 984.634 369.909 985.509 371.091 986.969 371.091 1010.32 371.091 1010.32 371.091 1010.32 371.091 1011.49 371.091 1012.66 369.909 1012.66 368.727 1012.66 358.091 1012.66 358.091 1012.66 358.091 1012.66 356.909 1011.49 355.727 1010.32 355.727ZM1011.49 368.727C1011.49 369.318 1010.91 369.909 1010.32 369.909 986.969 369.909 986.969 369.909 986.969 369.909 986.093 369.909 985.801 369.318 985.801 368.727 985.801 358.091 985.801 358.091 985.801 358.091 985.801 357.5 986.093 356.909 986.969 356.909 1010.32 356.909 1010.32 356.909 1010.32 356.909 1010.91 356.909 1011.49 357.5 1011.49 358.091L1011.49 368.727Z" fill="#404040" fill-rule="evenodd"/></g></svg>