<svg width="48" height="50" xmlns="http://www.w3.org/2000/svg" xmlns:xlink="http://www.w3.org/1999/xlink" overflow="hidden"><defs><clipPath id="clip0"><rect x="815" y="156" width="48" height="50"/></clipPath></defs><g clip-path="url(#clip0)" transform="translate(-815 -156)"><path d="M861.042 171.791C855.167 168.442 855.167 168.442 855.167 168.442 854.887 168.163 854.607 167.884 854.607 167.605 852.929 162.86 852.929 162.86 852.929 162.86 852.649 162.023 851.81 161.186 850.97 160.907 840.899 157.279 840.899 157.279 840.899 157.279 840.339 157 839.78 157 839.22 157 838.94 157 838.381 157 837.821 157.279 827.75 160.907 827.75 160.907 827.75 160.907 826.911 161.186 826.071 162.023 825.512 162.86 824.113 167.605 824.113 167.605 824.113 167.605 823.833 167.884 823.554 168.163 823.274 168.442 817.399 171.791 817.399 171.791 817.399 171.791 816.56 172.349 816 173.465 816 174.581 816 186.581 816 186.581 816 186.581 816 187.698 816.56 188.814 817.399 189.372 823.274 193.558 823.274 193.558 823.274 193.558 823.554 193.558 824.113 194.116 824.113 194.674 825.792 199.14 825.792 199.14 825.792 199.14 826.071 199.977 826.911 200.814 827.75 201.093 838.101 204.721 838.101 204.721 838.101 204.721 838.661 205 838.94 205 839.5 205 839.78 205 840.339 205 840.899 204.721 850.97 201.093 850.97 201.093 850.97 201.093 851.81 200.814 852.929 199.977 853.208 199.14 854.607 194.674 854.607 194.674 854.607 194.674 854.887 194.116 855.167 193.558 855.726 193.558 861.601 189.372 861.601 189.372 861.601 189.372 862.44 188.814 863 187.698 863 186.581 863 174.581 863 174.581 863 174.581 862.72 173.465 862.161 172.349 861.042 171.791ZM838.101 202.767C828.589 199.14 828.589 199.14 828.589 199.14 828.31 199.14 827.75 198.86 827.75 198.302 826.351 193.837 826.351 193.837 826.351 193.837 826.071 193 825.232 192.163 824.673 191.605 818.518 187.419 818.518 187.419 818.518 187.419 818.518 187.14 818.238 186.86 818.238 186.581 818.238 181 818.238 181 818.238 181 821.595 181 821.595 181 821.595 181 821.875 182.116 822.714 182.674 823.833 182.674 824.952 182.674 826.071 181.837 826.071 180.442 826.071 179.326 824.952 178.209 823.833 178.209 822.714 178.209 821.875 179.047 821.595 179.884 818.238 179.884 818.238 179.884 818.238 179.884 818.238 174.581 818.238 174.581 818.238 174.581 818.238 174.302 818.518 174.023 818.518 173.744 824.393 170.395 824.393 170.395 824.393 170.395 825.232 170.116 826.071 169.279 826.351 168.163 827.75 163.698 827.75 163.698 827.75 163.698 828.03 163.419 828.31 163.14 828.589 162.86 838.101 159.512 838.101 159.512 838.101 159.512L838.101 202.767ZM822.714 180.442C822.714 179.884 822.994 179.326 823.833 179.326 824.393 179.326 824.952 179.884 824.952 180.442 824.952 181.279 824.393 181.558 823.833 181.558 822.994 181.558 822.714 181.279 822.714 180.442ZM860.482 179.884C857.125 179.884 857.125 179.884 857.125 179.884 856.845 179.047 856.006 178.209 854.887 178.209 853.768 178.209 852.649 179.326 852.649 180.442 852.649 181.837 853.768 182.674 854.887 182.674 856.006 182.674 856.845 182.116 857.125 181 860.482 181 860.482 181 860.482 181 860.482 186.581 860.482 186.581 860.482 186.581 860.482 186.86 860.202 187.14 859.923 187.419 854.048 191.605 854.048 191.605 854.048 191.605 853.488 192.163 852.649 193 852.369 193.837 850.69 198.302 850.69 198.302 850.69 198.302 850.69 198.581 850.411 199.14 850.131 199.14 840.339 202.767 840.339 202.767 840.339 202.767 840.339 159.512 840.339 159.512 840.339 159.512 850.131 162.86 850.131 162.86 850.131 162.86 850.411 163.14 850.69 163.419 850.69 163.698 852.369 168.163 852.369 168.163 852.369 168.163 852.649 169.279 853.488 170.116 854.048 170.395 859.923 173.744 859.923 173.744 859.923 173.744 860.202 174.023 860.482 174.302 860.482 174.581L860.482 179.884ZM856.006 180.442C856.006 180.442 856.006 180.442 856.006 180.442 856.006 181.279 855.726 181.558 854.887 181.558 854.327 181.558 853.768 181.279 853.768 180.442 853.768 179.884 854.327 179.326 854.887 179.326 855.726 179.326 856.006 179.884 856.006 180.442ZM832.226 192.442C831.667 192.163 831.387 192.163 831.107 192.163 829.708 192.163 828.869 193 828.869 194.395 828.869 195.512 829.708 196.628 831.107 196.628 832.226 196.628 833.345 195.512 833.345 194.395 833.345 193.837 833.065 193.558 832.786 193.279 834.744 191.326 834.744 191.326 834.744 191.326 834.744 186.302 834.744 186.302 834.744 186.302 830.548 184.07 830.548 184.07 830.548 184.07 830.548 178.209 830.548 178.209 830.548 178.209 834.744 175.977 834.744 175.977 834.744 175.977 834.744 170.953 834.744 170.953 834.744 170.953 833.065 169 833.065 169 833.065 169 833.345 168.721 833.345 168.163 833.345 167.884 833.345 166.767 832.226 165.651 831.107 165.651 829.988 165.651 828.869 166.767 828.869 167.884 828.869 169 829.988 170.116 831.107 170.116 831.667 170.116 831.946 169.837 832.226 169.837 833.625 171.233 833.625 171.233 833.625 171.233 833.625 175.14 833.625 175.14 833.625 175.14 829.429 177.372 829.429 177.372 829.429 177.372 829.429 184.628 829.429 184.628 829.429 184.628 833.625 186.86 833.625 186.86 833.625 186.86 833.625 190.767 833.625 190.767 833.625 190.767L832.226 192.442ZM831.107 195.512C830.268 195.512 829.988 194.953 829.988 194.395 829.988 193.558 830.268 193.279 831.107 193.279 831.667 193.279 832.226 193.558 832.226 194.395 832.226 194.953 831.667 195.512 831.107 195.512ZM831.107 169C830.548 169 829.988 168.721 829.988 167.884 829.988 167.326 830.548 166.767 831.107 166.767 831.667 166.767 832.226 167.326 832.226 167.884 832.226 168.721 831.667 169 831.107 169ZM847.613 192.163C847.333 192.163 846.774 192.163 846.494 192.442 844.815 190.767 844.815 190.767 844.815 190.767 844.815 187.14 844.815 187.14 844.815 187.14 849.292 184.907 849.292 184.907 849.292 184.907 849.292 177.372 849.292 177.372 849.292 177.372 844.815 175.14 844.815 175.14 844.815 175.14 844.815 171.512 844.815 171.512 844.815 171.512 846.494 169.837 846.494 169.837 846.494 169.837 846.774 170.116 847.054 170.116 847.613 170.116 848.732 170.116 849.851 169.279 849.851 167.884 849.851 166.767 848.732 165.651 847.613 165.651 846.214 165.651 845.375 166.767 845.375 167.884 845.375 168.442 845.375 168.721 845.655 169 843.696 170.953 843.696 170.953 843.696 170.953 843.696 175.977 843.696 175.977 843.696 175.977 848.173 178.209 848.173 178.209 848.173 178.209 848.173 184.07 848.173 184.07 848.173 184.07 843.696 186.302 843.696 186.302 843.696 186.302 843.696 191.326 843.696 191.326 843.696 191.326 845.655 193.279 845.655 193.279 845.655 193.279 845.655 193.558 845.375 194.116 845.375 194.395 845.375 195.791 846.494 196.628 847.613 196.628 849.012 196.628 849.851 195.791 849.851 194.395 849.851 193.279 849.012 192.163 847.613 192.163ZM847.613 166.767C848.173 166.767 848.732 167.326 848.732 167.884 848.732 168.721 848.173 169 847.613 169 846.774 169 846.494 168.721 846.494 167.884 846.494 167.326 847.054 166.767 847.613 166.767ZM847.613 195.512C847.054 195.512 846.494 194.953 846.494 194.395 846.494 193.558 847.054 193.279 847.613 193.279 848.452 193.279 848.732 193.558 848.732 194.395 848.732 194.953 848.452 195.512 847.613 195.512Z" fill="#404040" fill-rule="evenodd"/></g></svg>