<svg width="42" height="46" xmlns="http://www.w3.org/2000/svg" xmlns:xlink="http://www.w3.org/1999/xlink" overflow="hidden"><defs><clipPath id="clip0"><rect x="1137" y="339" width="42" height="46"/></clipPath></defs><g clip-path="url(#clip0)" transform="translate(-1137 -339)"><path d="M1165.66 346.159C1164.54 346.159 1163.62 347.084 1163.62 348.205 1163.62 349.13 1164.23 349.946 1165.05 350.153 1164.54 353.927 1161.37 356.898 1157.5 356.898 1153.63 356.898 1150.36 353.927 1149.95 350.153 1150.77 349.946 1151.38 349.13 1151.38 348.205 1151.38 347.084 1150.46 346.159 1149.34 346.159 1148.22 346.159 1147.3 347.084 1147.3 348.205 1147.3 349.227 1148.02 349.946 1148.93 350.153 1149.44 354.438 1153.12 357.92 1157.5 357.92 1161.88 357.92 1165.66 354.548 1166.07 350.153 1166.98 349.946 1167.7 349.13 1167.7 348.205 1167.7 347.084 1166.78 346.159 1165.66 346.159ZM1148.32 348.205C1148.32 347.596 1148.73 347.182 1149.34 347.182 1149.95 347.182 1150.36 347.596 1150.36 348.205 1150.36 348.813 1149.95 349.227 1149.34 349.227 1148.73 349.227 1148.32 348.813 1148.32 348.205ZM1165.66 349.227C1165.05 349.227 1164.64 348.813 1164.64 348.205 1164.64 347.596 1165.05 347.182 1165.66 347.182 1166.27 347.182 1166.68 347.596 1166.68 348.205 1166.68 348.813 1166.27 349.227 1165.66 349.227ZM1175.15 341.971C1174.94 340.327 1173.52 339 1171.88 339 1143.12 339 1143.12 339 1143.12 339 1141.48 339 1140.06 340.327 1139.85 341.971 1137.1 380.518 1137.1 380.518 1137.1 380.518 1137 382.466 1138.42 384 1140.36 384 1174.64 384 1174.64 384 1174.64 384 1176.58 384 1178 382.466 1177.9 380.518L1175.15 341.971ZM1141.89 342.166C1141.99 341.557 1142.5 341.045 1143.12 341.045 1171.78 341.045 1171.78 341.045 1171.78 341.045 1172.39 341.045 1172.9 341.557 1173.01 342.166 1175.45 375.818 1175.45 375.818 1175.45 375.818 1139.55 375.818 1139.55 375.818 1139.55 375.818L1141.89 342.166ZM1175.56 381.541C1175.45 381.65 1175.15 381.955 1174.64 381.955 1140.36 381.955 1140.36 381.955 1140.36 381.955 1139.85 381.955 1139.55 381.748 1139.44 381.541 1139.34 381.443 1139.14 381.139 1139.14 380.725 1139.44 376.841 1139.44 376.841 1139.44 376.841 1175.56 376.841 1175.56 376.841 1175.56 376.841 1175.86 380.725 1175.86 380.725 1175.86 380.725 1175.86 381.139 1175.66 381.443 1175.56 381.541Z" fill="#454545" fill-rule="evenodd"/></g></svg>