<?xml version="1.0" standalone="no"?>
<!DOCTYPE svg PUBLIC "-//W3C//DTD SVG 1.1//EN" "http://www.w3.org/Graphics/SVG/1.1/DTD/svg11.dtd" >
<svg xmlns="http://www.w3.org/2000/svg" xmlns:xlink="http://www.w3.org/1999/xlink" version="1.1" viewBox="-10 0 1034 1024">
   <path fill="currentColor"
d="M394 569q0 50 35 85t85 35q49 0 84 -35t35 -85q0 -25 -18 -56q-19 -31 -41.5 -67.5t-41.5 -76.5q-18 -39 -18 -82q0 43 -19 83t-41 76t-41 67t-19 56v0zM570 474q18 27 32 52t14 43q0 42 -30 72t-72 30t-72 -30t-30 -72q0 -17 14 -42t31 -52q15 -24 30.5 -50t26.5 -54
q11 28 26 53.5t30 49.5v0zM889 231q-52 -10 -102 -28q-51 -18 -94.5 -39.5t-79.5 -44.5t-59 -44q-9 -7 -19.5 -9t-17.5 -2q-5 0 -17 2t-21 10q-24 21 -60 44t-80 44.5t-94 38.5q-50 18 -102 28q-17 4 -26.5 27t-7.5 37q1 11 2.5 23t2.5 25q4 37 9 82q6 45 18.5 94.5
t35.5 101.5q22 51 58 101q25 34 56 68t65 64.5t69 56.5q36 26 69 44q4 3 10 4t14 1t13 -1.5t7 -2.5q34 -19 69 -45q36 -26 70 -56.5t65 -64.5t55 -68q34 -46 54 -97q21 -51 33.5 -101.5t18.5 -97.5t10 -85q2 -13 3 -24t3 -22q1 -12 -5 -36t-25 -28v0zM876 290q-1 10 -2.5 22
t-2.5 24q-4 37 -10 82t-17.5 92.5t-30.5 95.5q-20 48 -51 91q-22 31 -51 63t-61 61t-66 54q-33 25 -64 42h-4h-3q-31 -17 -64 -42q-34 -25 -66 -54t-61 -61q-30 -32 -52 -63q-34 -46 -55 -94q-20 -48 -32 -94t-17 -90q-6 -43 -10 -80q-1 -13 -2 -25.5t-3 -23.5q0 -3 2 -8.5
t4 -9.5q55 -11 107 -30q51 -18 96.5 -40.5t82.5 -46.5t63 -46q1 -1 4 -1.5t7 -0.5h6.5t1.5 0q26 23 63 47t82 46.5t97 41.5q51 18 106 30q2 4 3 9t0 9v0z" />
</svg>
