<svg width="55" height="50" xmlns="http://www.w3.org/2000/svg" xmlns:xlink="http://www.w3.org/1999/xlink" overflow="hidden"><defs><clipPath id="clip0"><rect x="551" y="490" width="55" height="50"/></clipPath></defs><g clip-path="url(#clip0)" transform="translate(-551 -490)"><path d="M605 525.648C605 523.659 603.551 522.239 601.523 522.239 599.784 522.239 598.045 523.659 598.045 525.648 598.045 527.068 599.205 528.205 600.364 528.773 600.364 528.773 600.364 528.773 600.364 528.773 600.364 534.455 600.364 534.455 600.364 534.455 600.364 535.875 599.494 536.727 598.045 536.727 558.636 536.727 558.636 536.727 558.636 536.727 557.477 536.727 556.318 535.875 556.318 534.455 556.318 515.136 556.318 515.136 556.318 515.136 556.318 515.136 556.318 515.136 556.318 515.136 556.318 515.136 556.318 515.136 556.318 515.136 556.318 515.136 556.318 515.136 556.318 515.136 556.318 515.136 556.318 515.136 556.318 515.136 556.318 514.568 555.739 514 555.159 514 554.58 514 554 514.568 554 515.136 554 515.136 554 515.136 554 515.136 554 515.136 554 515.136 554 515.136 554 515.136 554 515.136 554 515.136 554 515.136 554 515.136 554 515.136 554 534.455 554 534.455 554 534.455 554 537.011 556.028 539 558.636 539 598.045 539 598.045 539 598.045 539 600.653 539 602.682 537.011 602.682 534.455 602.682 528.773 602.682 528.773 602.682 528.773 602.682 528.773 602.682 528.773 602.682 528.773 604.131 528.205 605 527.068 605 525.648ZM601.523 527.636C600.364 527.636 599.205 526.784 599.205 525.648 599.205 524.227 600.364 523.375 601.523 523.375 602.682 523.375 603.841 524.227 603.841 525.648 603.841 526.784 602.682 527.636 601.523 527.636Z" fill="#404040" fill-rule="evenodd"/><path d="M558.091 503.5C558.091 502.08 557.205 500.943 555.727 500.375 555.727 495.545 555.727 495.545 555.727 495.545 555.727 494.409 556.909 493.273 558.091 493.273 598.273 493.273 598.273 493.273 598.273 493.273 599.75 493.273 600.636 494.409 600.636 495.545 600.636 514.864 600.636 514.864 600.636 514.864 600.636 514.864 600.636 514.864 600.636 514.864 600.636 514.864 600.636 514.864 600.636 514.864 600.636 515.432 601.227 516 601.818 516 602.409 516 603 515.432 603 514.864 603 514.864 603 514.864 603 514.864 603 514.864 603 514.864 603 514.864 603 495.545 603 495.545 603 495.545 603 493.273 600.932 491 598.273 491 558.091 491 558.091 491 558.091 491 555.432 491 553.364 493.273 553.364 495.545 553.364 500.375 553.364 500.375 553.364 500.375 552.182 500.943 551 502.08 551 503.5 551 505.489 552.773 506.909 554.545 506.909 556.614 506.909 558.091 505.489 558.091 503.5ZM552.182 503.5C552.182 502.364 553.364 501.511 554.545 501.511 555.727 501.511 556.909 502.364 556.909 503.5 556.909 504.92 555.727 505.773 554.545 505.773 553.364 505.773 552.182 504.92 552.182 503.5Z" fill="#404040" fill-rule="evenodd"/><path d="M592 522 593 522 593 514.565 593 513.13 593 508.174 593 507 592.556 507 592 507 592 522Z" fill="#404040" fill-rule="evenodd"/><path d="M579.5 507C578.9 507 578.9 507 578.9 507 578 507 578 507 578 507 578 522 578 522 578 522 579.2 522 579.2 522 579.2 522 579.2 515.077 579.2 515.077 579.2 515.077 587 515.077 587 515.077 587 515.077 588.8 515.077 590 513.058 590 511.615 590 509.885 590 509.885 590 509.885 590 508.154 588.8 507 587 507L579.5 507ZM588.8 509.885C588.8 511.615 588.8 511.615 588.8 511.615 588.8 512.481 587.9 513.923 587 513.923 579.2 513.923 579.2 513.923 579.2 513.923 579.2 508.154 579.2 508.154 579.2 508.154 587 508.154 587 508.154 587 508.154 587.9 508.154 588.8 509.019 588.8 509.885Z" fill="#404040" fill-rule="evenodd"/><path d="M570.065 507C568.935 507 568.935 507 568.935 507 566.674 507 565.826 509.019 565.826 509.596 563 522 563 522 563 522 564.413 522 564.413 522 564.413 522 565.826 515.077 565.826 515.077 565.826 515.077 573.174 515.077 573.174 515.077 573.174 515.077 573.174 515.077 573.174 515.077 573.174 515.077 574.87 522 574.87 522 574.87 522 576 522 576 522 576 522 573.457 509.596 573.457 509.596 573.457 509.596 573.174 509.019 572.326 507 570.065 507ZM572.891 513.923C566.109 513.923 566.109 513.923 566.109 513.923 566.957 510.173 566.957 510.173 566.957 510.173 567.522 508.731 568.087 508.154 569.217 508.154 569.783 508.154 569.783 508.154 569.783 508.154 570.913 508.154 571.761 508.731 572.043 510.173L572.891 513.923Z" fill="#404040" fill-rule="evenodd"/></g></svg>