<svg width="51" height="48" xmlns="http://www.w3.org/2000/svg" xmlns:xlink="http://www.w3.org/1999/xlink" overflow="hidden"><defs><clipPath id="clip0"><rect x="658" y="491" width="51" height="48"/></clipPath></defs><g clip-path="url(#clip0)" transform="translate(-658 -491)"><path d="M660.965 508.1C661.558 508.1 662.151 507.812 662.151 506.95 662.151 495.45 662.151 495.45 662.151 495.45 662.151 494.875 662.744 494.3 663.337 494.3 675.198 494.3 675.198 494.3 675.198 494.3 675.791 494.3 676.384 494.013 676.384 493.15 676.384 492.575 675.791 492 675.198 492 663.337 492 663.337 492 663.337 492 661.558 492 659.779 493.725 659.779 495.45 659.779 506.95 659.779 506.95 659.779 506.95 659.779 507.812 660.372 508.1 660.965 508.1ZM675.198 535.7C663.337 535.7 663.337 535.7 663.337 535.7 662.744 535.7 662.151 535.125 662.151 534.55 662.151 523.05 662.151 523.05 662.151 523.05 662.151 522.475 661.558 521.9 660.965 521.9 660.372 521.9 659.779 522.475 659.779 523.05 659.779 534.55 659.779 534.55 659.779 534.55 659.779 536.562 661.558 538 663.337 538 675.198 538 675.198 538 675.198 538 675.791 538 676.384 537.713 676.384 536.85 676.384 536.275 675.791 535.7 675.198 535.7ZM691.802 494.3C703.663 494.3 703.663 494.3 703.663 494.3 704.256 494.3 704.849 494.875 704.849 495.45 704.849 506.95 704.849 506.95 704.849 506.95 704.849 507.812 705.442 508.1 706.035 508.1 706.628 508.1 707.221 507.812 707.221 506.95 707.221 495.45 707.221 495.45 707.221 495.45 707.221 493.725 705.442 492 703.663 492 691.802 492 691.802 492 691.802 492 691.209 492 690.616 492.575 690.616 493.15 690.616 494.013 691.209 494.3 691.802 494.3ZM708.407 513.85C698.326 513.85 698.326 513.85 698.326 513.85 698.326 513.85 698.029 514.138 697.733 514.138 694.767 520.75 694.767 520.75 694.767 520.75 689.43 502.925 689.43 502.925 689.43 502.925 689.43 502.638 689.134 502.35 688.837 502.35 688.541 502.35 688.244 502.638 688.244 502.638 684.093 515.862 684.093 515.862 684.093 515.862 681.721 510.688 681.721 510.688 681.721 510.688 681.424 510.688 681.128 510.4 681.128 510.4 680.831 510.4 680.535 510.688 680.535 510.688 675.791 522.475 675.791 522.475 675.791 522.475 670.75 506.375 670.75 506.375 670.75 506.375 670.75 506.087 670.453 506.087 670.157 506.087 669.86 506.087 669.86 506.087 669.564 506.375 667.488 515 667.488 515 667.488 515 658.593 515 658.593 515 658.593 515 658.297 515 658 515.287 658 515.575 658 515.862 658.297 516.15 658.593 516.15 668.081 516.15 668.081 516.15 668.081 516.15 668.378 516.15 668.674 516.15 668.674 515.862 670.453 508.962 670.453 508.962 670.453 508.962 675.198 524.775 675.198 524.775 675.198 524.775 675.198 525.062 675.494 525.35 675.791 525.35 675.791 525.35 675.791 525.35 675.791 525.35 676.087 525.35 676.384 525.062 676.384 524.775 681.128 512.7 681.128 512.7 681.128 512.7 683.5 517.588 683.5 517.588 683.5 517.588 683.5 517.875 683.797 518.162 684.093 518.162 684.39 518.162 684.686 517.875 684.686 517.588 688.837 504.938 688.837 504.938 688.837 504.938 694.174 522.475 694.174 522.475 694.174 522.475 694.174 522.763 694.471 522.763 694.767 522.763 694.767 522.763 695.064 522.763 695.36 522.475 698.919 515 698.919 515 698.919 515 708.407 515 708.407 515 708.407 515 708.703 515 709 514.713 709 514.425 709 514.138 708.703 513.85 708.407 513.85ZM706.035 521.9C705.442 521.9 704.849 522.475 704.849 523.05 704.849 534.55 704.849 534.55 704.849 534.55 704.849 535.125 704.256 535.7 703.663 535.7 691.802 535.7 691.802 535.7 691.802 535.7 691.209 535.7 690.616 536.275 690.616 536.85 690.616 537.713 691.209 538 691.802 538 703.663 538 703.663 538 703.663 538 705.442 538 707.221 536.562 707.221 534.55 707.221 523.05 707.221 523.05 707.221 523.05 707.221 522.475 706.628 521.9 706.035 521.9Z" fill="#404040" fill-rule="evenodd"/></g></svg>