<svg width="45" height="52" xmlns="http://www.w3.org/2000/svg" xmlns:xlink="http://www.w3.org/1999/xlink" overflow="hidden"><defs><clipPath id="clip0"><rect x="705" y="360" width="45" height="52"/></clipPath></defs><g clip-path="url(#clip0)" transform="translate(-705 -360)"><path d="M720.099 369.273C720.691 373.04 723.947 375.648 727.796 375.648 731.645 375.648 734.901 373.04 735.197 369.273 735.789 368.983 736.086 368.693 736.086 368.114 736.086 367.534 735.493 366.955 734.901 366.955 734.309 366.955 733.717 367.534 733.717 368.114 733.717 368.693 733.717 368.983 734.013 369.273 733.717 372.17 731.053 374.489 727.796 374.489 724.539 374.489 721.875 372.17 721.283 369.273 721.579 368.983 721.875 368.693 721.875 368.114 721.875 367.534 721.283 366.955 720.691 366.955 720.099 366.955 719.507 367.534 719.507 368.114 719.507 368.693 719.803 368.983 720.099 369.273ZM747.632 364.057C747.632 361.739 746.447 360 744.671 360 710.625 360 710.625 360 710.625 360 708.849 360 707.368 361.739 707.368 364.057 705 407.233 705 407.233 705 407.233 705 409.261 706.48 411 708.257 411 747.039 411 747.039 411 747.039 411 748.816 411 750 409.261 750 407.233L747.632 364.057ZM747.039 408.682C708.257 408.682 708.257 408.682 708.257 408.682 707.961 408.682 707.368 408.102 707.368 407.233 709.737 364.057 709.737 364.057 709.737 364.057 709.737 363.188 710.329 362.318 710.625 362.318 744.671 362.318 744.671 362.318 744.671 362.318 744.967 362.318 745.263 363.188 745.263 364.057 747.632 407.233 747.632 407.233 747.632 407.233 747.632 408.102 747.336 408.682 747.039 408.682ZM733.717 387.528C732.829 384.92 730.461 383.182 727.5 383.182 724.836 383.182 722.467 384.92 721.579 387.528 718.322 387.818 715.658 390.426 715.658 393.324 715.658 396.801 718.618 399.409 722.171 399.409 733.125 399.409 733.125 399.409 733.125 399.409 736.678 399.409 739.342 396.801 739.342 393.324 739.342 390.426 736.974 387.818 733.717 387.528ZM733.125 397.96C722.171 397.96 722.171 397.96 722.171 397.96 719.507 397.96 717.434 395.932 717.434 393.324 717.434 391.295 719.211 389.267 721.579 388.977 722.467 388.977 723.059 388.398 723.059 387.818 723.947 386.08 725.724 384.92 727.5 384.92 729.572 384.92 731.349 386.08 732.237 387.818 732.237 388.398 732.829 388.977 733.421 388.977 735.789 389.267 737.862 391.295 737.862 393.324 737.862 395.932 735.493 397.96 733.125 397.96Z" fill="#454545" fill-rule="evenodd"/></g></svg>