<svg width="49" height="54" xmlns="http://www.w3.org/2000/svg" xmlns:xlink="http://www.w3.org/1999/xlink" overflow="hidden"><defs><clipPath id="clip0"><rect x="971" y="503" width="49" height="54"/></clipPath></defs><g clip-path="url(#clip0)" transform="translate(-971 -503)"><path d="M994.13 529.409C988.957 529.409 988.957 529.409 988.957 529.409 985.913 529.409 983.174 532.068 983.174 535.023 983.174 538.273 985.913 540.636 988.957 540.636 992.304 540.636 994.739 538.273 994.739 535.023 994.739 530 994.739 530 994.739 530 994.739 529.705 994.435 529.409 994.13 529.409ZM993.522 535.023C993.522 537.386 991.391 539.455 988.957 539.455 986.522 539.455 984.391 537.386 984.391 535.023 984.391 532.659 986.522 530.591 988.957 530.591 993.522 530.591 993.522 530.591 993.522 530.591L993.522 535.023ZM1001.74 529.409C996.565 529.409 996.565 529.409 996.565 529.409 996.261 529.409 995.957 529.705 995.957 530 995.957 535.023 995.957 535.023 995.957 535.023 995.957 538.273 998.696 540.636 1001.74 540.636 1005.09 540.636 1007.52 538.273 1007.52 535.023 1007.52 532.068 1005.09 529.409 1001.74 529.409ZM1001.74 539.455C999.304 539.455 997.174 537.386 997.174 535.023 997.174 530.591 997.174 530.591 997.174 530.591 1001.74 530.591 1001.74 530.591 1001.74 530.591 1004.17 530.591 1006.3 532.659 1006.3 535.023 1006.3 537.386 1004.17 539.455 1001.74 539.455ZM1017.26 514.045C1014.52 513.159 1009.35 511.682 1006.91 510.5 1001.74 507.841 999.913 506.068 998.087 504.886 997.174 504.295 996.261 504 995.348 504 995.348 504 995.348 504 995.348 504 995.348 504 995.348 504 995.348 504 994.435 504 993.522 504.295 992.913 504.886 990.783 506.068 988.957 507.841 983.783 510.5 981.348 511.682 976.174 513.159 973.739 514.045 971.913 514.636 971 516.114 971 517.886 971.609 522.909 972.826 533.545 976.174 540.045 980.13 547.432 989.565 553.341 993.522 555.409 994.13 556 994.739 556 995.348 556 995.957 556 996.565 556 997.174 555.409 1001.13 553.341 1010.87 547.432 1014.52 540.045 1017.87 533.545 1019.39 522.909 1019.7 517.886 1020 516.114 1018.78 514.636 1017.26 514.045ZM1012.39 538.864C1009.96 543.591 1004.48 548.614 995.957 553.341 995.957 553.636 995.652 553.636 995.348 553.636 995.043 553.636 995.043 553.636 994.739 553.341 986.217 548.614 980.739 543.591 978.304 538.864 974.957 532.364 973.739 520.841 973.435 517.591 973.435 516.705 974.348 516.409 974.348 516.409 975.261 516.114 975.261 516.114 975.261 516.114 978.304 514.932 982.565 513.75 985 512.568 989.565 510.205 991.696 508.432 993.522 507.25 993.826 506.955 994.13 506.955 994.435 506.659 994.435 506.659 994.739 506.364 995.348 506.364 995.348 506.364 995.348 506.364 995.348 506.364 995.348 506.364 995.348 506.364 995.348 506.364 995.348 506.364 995.348 506.364 995.348 506.364 995.957 506.364 996.261 506.659 996.565 506.659 996.87 506.955 996.87 506.955 997.174 507.25 999 508.432 1001.13 510.205 1005.7 512.568 1008.13 513.75 1012.7 514.932 1015.43 516.114 1016.35 516.409 1016.35 516.409 1016.35 516.409 1016.65 516.409 1017.26 516.705 1017.26 517.591 1016.96 520.841 1015.74 532.364 1012.39 538.864ZM1001.74 517C998.696 517 995.957 519.659 995.957 522.614 995.957 527.636 995.957 527.636 995.957 527.636 995.957 527.932 996.261 528.227 996.565 528.227 1001.74 528.227 1001.74 528.227 1001.74 528.227 1005.09 528.227 1007.52 525.864 1007.52 522.614 1007.52 519.659 1005.09 517 1001.74 517ZM1001.74 527.045C997.174 527.045 997.174 527.045 997.174 527.045 997.174 522.614 997.174 522.614 997.174 522.614 997.174 520.25 999.304 518.182 1001.74 518.182 1004.17 518.182 1006.3 520.25 1006.3 522.614 1006.3 524.977 1004.17 527.045 1001.74 527.045ZM988.957 517C985.913 517 983.174 519.659 983.174 522.614 983.174 525.864 985.913 528.227 988.957 528.227 994.13 528.227 994.13 528.227 994.13 528.227 994.435 528.227 994.739 527.932 994.739 527.636 994.739 522.614 994.739 522.614 994.739 522.614 994.739 519.659 992.304 517 988.957 517ZM993.522 527.045C988.957 527.045 988.957 527.045 988.957 527.045 986.522 527.045 984.391 524.977 984.391 522.614 984.391 520.25 986.522 518.182 988.957 518.182 991.391 518.182 993.522 520.25 993.522 522.614L993.522 527.045Z" fill="#484848" fill-rule="evenodd"/></g></svg>