<svg width="55" height="40" xmlns="http://www.w3.org/2000/svg" xmlns:xlink="http://www.w3.org/1999/xlink" overflow="hidden"><defs><clipPath id="clip0"><rect x="529" y="168" width="55" height="40"/></clipPath></defs><g clip-path="url(#clip0)" transform="translate(-529 -168)"><path d="M570.645 182.943C570.68 183.28 570.962 183.516 571.314 183.482 575.572 183.28 575.572 183.28 575.572 183.28 562.586 193.655 562.586 193.655 562.586 193.655 556.78 187.693 556.78 187.693 556.78 187.693 556.569 187.491 556.252 187.457 556.006 187.625 542.352 196.956 542.352 196.956 542.352 196.956 542.07 197.124 542 197.495 542.211 197.764 542.317 197.933 542.528 198 542.704 198 542.845 198 542.95 197.966 543.056 197.899 556.252 188.872 556.252 188.872 556.252 188.872 562.094 194.867 562.094 194.867 562.094 194.867 562.305 195.103 562.692 195.103 562.938 194.901 576.381 184.156 576.381 184.156 576.381 184.156 575.396 188.164 575.396 188.164 575.396 188.164 575.326 188.501 575.537 188.804 575.853 188.872 575.889 188.905 575.959 188.905 575.994 188.905 576.276 188.905 576.522 188.703 576.592 188.434 577.965 182.741 577.965 182.741 577.965 182.741 578 182.539 577.965 182.371 577.859 182.236 577.718 182.067 577.543 182 577.331 182 571.243 182.337 571.243 182.337 571.243 182.337 570.891 182.337 570.645 182.606 570.645 182.943Z" fill="#454545" fill-rule="evenodd"/><path d="M581.34 185.326C581.058 184.729 580.316 184.484 579.716 184.799 579.115 185.115 578.868 185.852 579.186 186.448 580.069 188.201 580.563 190.095 580.563 192.059 580.563 198.969 574.806 204.545 567.708 204.545 544.292 204.545 544.292 204.545 544.292 204.545 537.194 204.545 531.472 198.969 531.472 192.059 531.472 185.711 536.346 180.345 542.844 179.644 543.339 179.609 543.727 179.293 543.869 178.837 545.67 173.822 550.544 170.42 556.018 170.42 561.456 170.42 566.33 173.822 568.131 178.837 568.343 179.504 569.05 179.819 569.685 179.609 570.321 179.363 570.674 178.662 570.427 178.031 568.308 172.033 562.516 168 556.018 168 549.767 168 544.151 171.718 541.855 177.329 534.474 178.487 529 184.694 529 192.059 529 200.301 535.852 207 544.292 207 567.708 207 567.708 207 567.708 207 576.148 207 583 200.301 583 192.059 583 189.71 582.435 187.43 581.34 185.326Z" fill="#454545" fill-rule="evenodd"/></g></svg>