<svg xmlns="http://www.w3.org/2000/svg" viewBox="0 0 48 48"><path d="M31.5,19.1a10.59,10.59,0,0,0-20,0A10.44,10.44,0,0,0,2,29.5,10.58,10.58,0,0,0,12.6,40H30.3A10.61,10.61,0,0,0,41,29.5,10.44,10.44,0,0,0,31.5,19.1ZM30.4,38H12.6A8.58,8.58,0,0,1,4,29.5a8.46,8.46,0,0,1,7.7-8.4,2.1,2.1,0,0,0,1.7-1.3,8.75,8.75,0,0,1,16.4,0,2.1,2.1,0,0,0,1.7,1.3,8.54,8.54,0,0,1,7.7,8.4A8.89,8.89,0,0,1,30.4,38Z"></path><path d="M36.4,15.1A11.06,11.06,0,0,0,26,8a10.07,10.07,0,0,0-2.5.3,12.14,12.14,0,0,0-4.7,2.3.62.62,0,0,0-.1.7.62.62,0,0,0,.7.1,9.64,9.64,0,0,1,4.3-2.1A8.52,8.52,0,0,1,26,9a10.17,10.17,0,0,1,9.6,6.7c.1.2.2.3.4.3a9.92,9.92,0,0,1,5.3,17.6.62.62,0,0,0-.1.7.52.52,0,0,0,.4.2.37.37,0,0,0,.3-.1A10.91,10.91,0,0,0,46,25.9,11.05,11.05,0,0,0,36.4,15.1Z"></path></svg>
