<?xml version="1.0" encoding="UTF-8" standalone="no"?><!DOCTYPE svg PUBLIC "-//W3C//DTD SVG 1.1//EN" "http://www.w3.org/Graphics/SVG/1.1/DTD/svg11.dtd"><svg width="100%" height="100%" viewBox="0 0 121 93" version="1.1" xmlns="http://www.w3.org/2000/svg" xmlns:xlink="http://www.w3.org/1999/xlink" xml:space="preserve" xmlns:serif="http://www.serif.com/" style="fill-rule:evenodd;clip-rule:evenodd;stroke-linejoin:round;stroke-miterlimit:2;"><rect id="logo-colors" serif:id="logo colors" x="-10.8" y="-24.72" width="141.732" height="141.732" style="fill:none;"/><g><g id="Cloud"><path id="Cloud-with-cutout" serif:id="Cloud with cutout" d="M107.286,33.746c2.904,2.658 5.335,5.853 7.064,9.447c4.652,9.67 3.938,21.724 -2.024,30.838c-5.687,8.693 -15.852,14.238 -26.278,14.288c-17.321,0.027 -34.642,0.027 -51.964,0c-10.442,-0.05 -20.629,-5.597 -26.329,-14.367c-5.811,-8.942 -6.683,-20.933 -1.989,-30.722c4.578,-9.55 14.105,-16.477 24.844,-17.709c2.938,-9.158 10.405,-16.869 19.725,-19.981c3.183,-1.063 6.521,-1.591 9.893,-1.587c10.102,0.039 20.019,5.292 25.709,13.803c0.815,1.219 1.542,2.496 2.176,3.818l-3.901,3.905c-3.801,-9.515 -13.59,-16.4 -24.133,-16.387c-10.72,0.041 -21.111,7.292 -24.554,17.932c0,0 -0.199,0.586 -0.409,0.968c-0.631,1.151 -1.71,2.037 -2.962,2.431c-0.742,0.234 -1.509,0.261 -2.265,0.385c-10.986,1.802 -20.347,11.11 -21.841,22.573c-1.232,9.456 3.067,19.443 11.017,25.027c4.363,3.064 9.676,4.746 15.036,4.771c17.31,0.027 34.621,0.027 51.931,0c10.28,-0.048 20.236,-6.568 24.266,-16.255c3.381,-8.126 2.377,-17.97 -2.824,-25.312c-1.103,-1.557 -2.376,-2.986 -3.786,-4.264l3.598,-3.602Z" style="fill:#454545;"/></g><g id="Network"><path id="horizontal-with-cutout" serif:id="horizontal with cutout" d="M34.06,58.309l-2.57,0l0,-7.327c0.016,-2.571 2.202,-4.926 4.919,-4.977c10.523,-0.065 21.046,-0.088 31.569,-0.07l-0.778,2.568c-10.253,-0.015 -20.506,0.008 -30.759,0.071c-1.254,0.024 -2.373,1.117 -2.381,2.416l0,7.319Zm56.733,-8.052c0.034,0.22 0.052,0.444 0.053,0.67l0,7.318l-2.569,0c0,-1.825 0.008,-3.65 0.006,-5.475l2.51,-2.513Z" style="fill:#454545;"/><rect x="59.933" y="39.181" width="2.57" height="8.108" style="fill:#454545;"/><rect x="59.935" y="50.897" width="2.57" height="3.433" style="fill:#e20074;"/></g><path d="M36.221,56.743c3.018,0.058 5.7,2.576 5.855,5.636c0.124,2.444 0.008,4.848 0.008,7.271c-0.019,3.004 -2.502,5.765 -5.636,5.924c-2.369,0.12 -4.701,0.008 -7.051,0.008c-2.982,-0.019 -5.764,-2.5 -5.923,-5.636c-0.124,-2.444 -0.008,-4.849 -0.008,-7.272c0.019,-3.003 2.5,-5.764 5.636,-5.923c2.369,-0.121 4.746,-0.023 7.119,-0.008Zm-6.816,2.569c-1.75,0.012 -3.335,1.511 -3.369,3.327c-0.015,2.334 0,4.669 0,7.003c0.011,1.751 1.51,3.335 3.326,3.37c2.261,0.014 4.522,0 6.783,0c1.75,-0.011 3.334,-1.51 3.369,-3.326c0.015,-2.335 0,-4.669 0,-7.004c-0.011,-1.75 -1.51,-3.335 -3.326,-3.369c-2.261,-0.015 -4.522,-0.001 -6.783,-0.001Z" style="fill:#454545;"/><path d="M64.664,21.985c3.004,0.057 5.7,2.566 5.856,5.635c0.123,2.441 0.007,4.849 0.007,7.272c-0.019,2.998 -2.503,5.765 -5.636,5.924c-2.367,0.12 -4.701,0.007 -7.051,0.007c-2.999,-0.019 -5.764,-2.503 -5.923,-5.636c-0.124,-2.44 -0.008,-4.848 -0.008,-7.272c0.019,-3.004 2.501,-5.764 5.636,-5.923c2.368,-0.12 4.746,-0.022 7.119,-0.007Zm-6.815,2.569c-1.751,0.011 -3.335,1.51 -3.37,3.326c-0.015,2.335 0,4.669 0,7.004c0.011,1.75 1.51,3.335 3.326,3.369c2.261,0.015 4.522,0.001 6.783,0.001c1.75,-0.011 3.335,-1.511 3.369,-3.327c0.015,-2.334 0.001,-4.669 0.001,-7.003c-0.012,-1.75 -1.511,-3.335 -3.327,-3.37c-2.261,-0.014 -4.521,0 -6.782,0Z" style="fill:#454545;"/><path d="M93.007,56.743c3.002,0.058 5.7,2.567 5.856,5.636c0.124,2.447 0.007,4.848 0.007,7.272c-0.019,2.997 -2.501,5.764 -5.635,5.923c-2.369,0.12 -4.702,0.008 -7.051,0.008c-2.982,-0.019 -5.765,-2.503 -5.924,-5.636c-0.124,-2.44 -0.007,-4.849 -0.007,-7.272c0.019,-3.005 2.5,-5.764 5.635,-5.923c2.369,-0.121 4.746,-0.023 7.119,-0.008Zm-6.815,2.569c-1.75,0.012 -3.335,1.511 -3.37,3.327c-0.014,2.334 0,4.669 0,7.003c0.011,1.751 1.51,3.335 3.326,3.37c2.261,0.014 4.522,0 6.783,0c1.75,-0.011 3.335,-1.51 3.37,-3.326c0.014,-2.335 0,-4.669 0,-7.004c-0.011,-1.75 -1.51,-3.335 -3.326,-3.369c-2.261,-0.015 -4.522,-0.001 -6.783,-0.001Z" style="fill:#454545;"/><path id="Fresh-Node" serif:id="Fresh Node" d="M62.424,73.015l1.076,2.606c-1.528,0.027 -3.045,-0.015 -4.565,-0.032l1.065,-2.571c0.808,0 1.616,-0.001 2.424,-0.003Zm5.405,-2.491l2.371,0.983c-0.59,1.676 -1.927,3.084 -3.621,3.717l-0.984,-2.384c1.049,-0.356 1.917,-1.232 2.234,-2.316Zm-13.217,0.006c0.315,1.057 1.156,1.948 2.217,2.309l-0.98,2.366c-1.653,-0.626 -3.028,-1.982 -3.623,-3.684l2.386,-0.991Zm-2.711,-6.606l2.572,1.066c0,0.783 0.001,1.567 0.003,2.35l-2.608,1.084c-0.025,-1.506 0.015,-3.002 0.033,-4.5Zm18.668,-0.023c0.024,1.506 -0.015,3.001 -0.033,4.5l-2.572,-1.066c0,-0.783 -0.002,-1.567 -0.003,-2.351l2.608,-1.083Zm-14.712,-6.8l0.984,2.383c-1.049,0.356 -1.916,1.232 -2.233,2.317l-2.371,-0.983c0.589,-1.676 1.926,-3.085 3.62,-3.717Zm10.731,0.019c1.662,0.63 3.027,1.998 3.62,3.685l-2.384,0.99c-0.315,-1.057 -1.156,-1.948 -2.216,-2.31l0.98,-2.365Zm-7.652,-0.417c1.522,-0.03 3.045,0.006 4.568,0.028l-1.067,2.575c-0.809,0 -1.617,0.002 -2.425,0.004l-1.076,-2.607Z" style="fill:#e20074;"/><g id="Pen"><g><path d="M75.192,40.615c0.471,0.056 0.93,0.207 1.309,0.483c0.146,0.105 0.175,0.14 0.307,0.262l7.177,7.177c0.837,0.905 0.981,2.336 0.263,3.326c-0.266,0.367 -0.299,0.35 -0.414,0.449c-0.095,0.082 -0.195,0.157 -0.301,0.224c-0.212,0.135 -0.445,0.229 -0.685,0.306l-10.042,2.819c-0.174,0.042 -0.217,0.058 -0.396,0.078c-1.525,0.179 -3.043,-1.271 -2.849,-2.863c0.022,-0.179 0.038,-0.222 0.081,-0.396l2.86,-9.992c0.135,-0.414 0.354,-0.787 0.653,-1.109c0,0 1.116,-0.8 2.037,-0.764Zm0.909,11.448l6.067,-1.709l-7.177,-7.177c-0.006,0.006 -0.012,0.012 -0.018,0.018l-1.723,6.017l2.851,2.851Zm30.555,-42.559c0.993,0.018 1.957,0.417 2.673,1.106c1.831,1.808 3.642,3.637 5.462,5.456c1.363,1.378 1.419,3.826 0.007,5.257l-25.311,25.549c-0.907,0.845 -2.342,0.992 -3.335,0.271c-0.146,-0.106 -0.176,-0.141 -0.308,-0.262l-7.177,-7.178c-0.837,-0.905 -0.981,-2.328 -0.268,-3.318c0.104,-0.145 0.139,-0.175 0.259,-0.307l25.196,-25.432c0.737,-0.73 1.75,-1.148 2.802,-1.142Zm-0.064,2.57c-0.344,0.006 -0.678,0.148 -0.922,0.389l-25.186,25.423l7.177,7.178c8.443,-8.523 17.011,-16.924 25.33,-25.568c0.402,-0.429 0.408,-1.163 -0.001,-1.597c-1.788,-1.854 -3.611,-3.674 -5.466,-5.46c-0.25,-0.234 -0.588,-0.367 -0.932,-0.365Z" style="fill:#e20074;"/></g></g></g></svg>