<svg width="46" height="45" xmlns="http://www.w3.org/2000/svg" xmlns:xlink="http://www.w3.org/1999/xlink" overflow="hidden"><defs><clipPath id="clip0"><rect x="798" y="165" width="46" height="45"/></clipPath></defs><g clip-path="url(#clip0)" transform="translate(-798 -165)"><path d="M43.9773 29.1477C43.4659 29.1477 42.9545 29.6591 42.9545 30.1705 42.9545 39.6307 42.9545 39.6307 42.9545 39.6307 42.9545 41.1648 41.9318 42.9545 40.142 42.9545 30.9375 42.9545 30.9375 42.9545 30.9375 42.9545 30.4261 42.9545 29.9148 43.4659 29.9148 43.9773 29.9148 44.4886 30.4261 45 30.9375 45 40.142 45 40.142 45 40.142 45 42.9545 45 45 42.4432 45 39.6307 45 30.1705 45 30.1705 45 30.1705 45 29.6591 44.4886 29.1477 43.9773 29.1477ZM1.02273 14.8295C1.53409 14.8295 2.04545 14.5739 2.04545 13.8068 2.04545 4.60227 2.04545 4.60227 2.04545 4.60227 2.04545 3.06818 3.57955 2.04545 5.36932 2.04545 14.5739 2.04545 14.5739 2.04545 14.5739 2.04545 15.0852 2.04545 15.5966 1.53409 15.5966 1.02273 15.5966 0.511364 15.0852 0 14.5739 0 5.36932 0 5.36932 0 5.36932 0 2.55682 0 0 1.78977 0 4.60227 0 13.8068 0 13.8068 0 13.8068 0 14.5739 0.511364 14.8295 1.02273 14.8295ZM14.5739 42.9545C5.36932 42.9545 5.36932 42.9545 5.36932 42.9545 3.57955 42.9545 2.04545 41.1648 2.04545 39.6307 2.04545 30.1705 2.04545 30.1705 2.04545 30.1705 2.04545 29.6591 1.53409 29.1477 1.02273 29.1477 0.511364 29.1477 0 29.6591 0 30.1705 0 39.6307 0 39.6307 0 39.6307 0 42.4432 2.55682 45 5.36932 45 14.5739 45 14.5739 45 14.5739 45 15.0852 45 15.5966 44.4886 15.5966 43.9773 15.5966 43.4659 15.0852 42.9545 14.5739 42.9545ZM40.142 0C30.9375 0 30.9375 0 30.9375 0 30.4261 0 29.9148 0.511364 29.9148 1.02273 29.9148 1.53409 30.4261 2.04545 30.9375 2.04545 40.142 2.04545 40.142 2.04545 40.142 2.04545 41.9318 2.04545 42.9545 3.06818 42.9545 4.60227 42.9545 13.8068 42.9545 13.8068 42.9545 13.8068 42.9545 14.5739 43.4659 14.8295 43.9773 14.8295 44.4886 14.8295 45 14.5739 45 13.8068 45 4.60227 45 4.60227 45 4.60227 45 1.78977 42.9545 0 40.142 0ZM38.8636 20.1989C24.8011 6.13636 24.8011 6.13636 24.8011 6.13636 24.2898 5.625 23.5227 5.11364 22.7557 5.11364 21.9886 5.11364 21.2216 5.625 20.7102 6.13636 6.64773 20.1989 6.64773 20.1989 6.64773 20.1989 5.625 21.2216 5.625 22.7557 6.64773 24.0341 20.9659 38.0966 20.9659 38.0966 20.9659 38.0966 21.4773 38.608 21.9886 38.8636 22.7557 38.8636 23.5227 38.8636 24.0341 38.608 24.5455 38.0966 38.8636 24.0341 38.8636 24.0341 38.8636 24.0341 39.8864 22.7557 39.8864 21.2216 38.8636 20.1989ZM37.8409 22.7557C23.5227 37.0739 23.5227 37.0739 23.5227 37.0739 23.267 37.3295 23.0114 37.5852 22.7557 37.5852 22.5 37.5852 22.2443 37.3295 21.9886 37.0739 7.67045 22.7557 7.67045 22.7557 7.67045 22.7557 7.15909 22.5 7.15909 21.733 7.67045 21.2216 21.733 7.15909 21.733 7.15909 21.733 7.15909 21.9886 6.90341 22.2443 6.64773 22.7557 6.64773 23.267 6.64773 23.5227 6.90341 23.7784 7.15909 37.8409 21.2216 37.8409 21.2216 37.8409 21.2216 38.3523 21.733 38.3523 22.5 37.8409 22.7557Z" fill="#454545" fill-rule="evenodd" transform="matrix(-1 0 0 1 843 165)"/></g></svg>