<svg version="1.1" id="图层_1" xmlns="http://www.w3.org/2000/svg" xmlns:xlink="http://www.w3.org/1999/xlink" x="0px" y="0px" viewBox="0 0 48 48" style="enable-background:new 0 0 48 48;" xml:space="preserve" width="132px" height="132px">
<path d="M42,21.1c-0.6,0-1,0.4-1,1v10c0,1.5-1.2,3.4-2.6,4.2l-12.8,7.1c-1.4,0.8-3.8,0.8-5.2,0L7.6,36.3C6.2,35.5,5,33.6,5,32.1&#10;&#9;V17.9c0-1.5,1.2-3.4,2.6-4.2l12.8-7.1c1.4-0.8,3.8-0.8,5.2,0c0.5,0.3,1.1,0.1,1.4-0.4s0.1-1.1-0.4-1.4c-2-1.1-5.2-1.1-7.2,0&#10;&#9;L6.6,11.9C4.5,13,3,15.6,3,17.9v14.2c0,2.3,1.5,4.8,3.6,6l12.8,7.1c1,0.6,2.3,0.8,3.6,0.8s2.6-0.3,3.6-0.8l12.8-7.1&#10;&#9;c2.1-1.1,3.6-3.7,3.6-6v-10C43,21.6,42.6,21.1,42,21.1z M44.9,10.6l-2-2c-0.2-0.2-0.5-0.2-0.7,0l-2,2c-0.2,0.2-0.2,0.5,0,0.7l2,2&#10;&#9;c0.1,0.1,0.2,0.1,0.4,0.1c0.2,0,0.3,0,0.4-0.1l2-2C45,11.2,45,10.8,44.9,10.6z M30.5,14.2c0.1,0.1,0.2,0.1,0.4,0.1&#10;&#9;c0.2,0,0.3-0.1,0.4-0.1l1.1-1.1l2.1,2.1l-1.2,1.2c-0.2,0.2-0.2,0.5,0,0.7l1.1,1.1l-2.9,1.6l-8.3-4.7c-0.2-0.1-0.3-0.1-0.5,0&#10;&#9;l-8.5,4.8c-0.2,0.1-0.3,0.3-0.3,0.4v9.5c0,0.2,0.1,0.3,0.3,0.4l8.5,4.8c0.1,0,0.2,0.1,0.2,0.1s0.2,0,0.2-0.1l8.5-4.8&#10;&#9;c0.2-0.1,0.3-0.3,0.3-0.4v-9.2l3.1-1.7l1,1c0.1,0.1,0.2,0.1,0.4,0.1c0.2,0,0.3,0,0.4-0.1l2.8-2.8c0.2-0.2,0.2-0.5,0-0.7l-2.8-2.8&#10;&#9;c-0.2-0.2-0.5-0.2-0.7,0l-0.9,0.9L33,12.4l1.1-1.1c0.1-0.1,0.1-0.2,0.1-0.4c0-0.1-0.1-0.3-0.1-0.4l-1-1l2-2l1.1,1.1&#10;&#9;c0.1,0.1,0.2,0.1,0.4,0.1c0.2,0,0.3-0.1,0.4-0.1l2.8-2.8c0.2-0.2,0.2-0.5,0-0.7L37,2.3c-0.2-0.2-0.5-0.2-0.7,0l-3,2.7&#10;&#9;c-0.2,0.2-0.2,0.5,0,0.7l1.1,1.1l-2,2l-1.1-1.1c-0.2-0.2-0.5-0.2-0.7,0l-2.8,2.8c-0.2,0.2-0.2,0.5,0,0.7L30.5,14.2z M22.5,33.6&#10;&#9;L15,29.5v-8.3l7.5,4.2V33.6z M23,24.4l-7.5-4.2L23,16l7.5,4.2L23,24.4z M31,29.5l-7.5,4.2v-8.3l7.5-4.2V29.5z M36.5,14.6l2.1,2.1&#10;&#9;l-2.1,2.1l-2.1-2.1L36.5,14.6z M36.5,3.2l2.1,2.1l-2.1,2.1L35.1,6l-0.7-0.7L36.5,3.2z M30.8,8.9L33,11l-2.1,2.1L28.7,11L30.8,8.9z"/>
</svg>