<svg width="45" height="47" xmlns="http://www.w3.org/2000/svg" xmlns:xlink="http://www.w3.org/1999/xlink" overflow="hidden"><defs><clipPath id="clip0"><rect x="1154" y="489" width="45" height="47"/></clipPath></defs><g clip-path="url(#clip0)" transform="translate(-1154 -489)"><path d="M1178.07 532.589C1158.57 532.589 1158.57 532.589 1158.57 532.589 1158.02 532.589 1157.47 532.054 1157.47 531.518 1157.47 493.482 1157.47 493.482 1157.47 493.482 1157.47 492.946 1158.02 492.411 1158.57 492.411 1190.43 492.411 1190.43 492.411 1190.43 492.411 1190.98 492.411 1191.53 492.946 1191.53 493.482 1191.53 512.5 1191.53 512.5 1191.53 512.5 1191.53 513.304 1192.08 513.839 1192.9 513.839 1193.45 513.839 1194 513.304 1194 512.5 1194 493.482 1194 493.482 1194 493.482 1194 491.607 1192.35 490 1190.43 490 1158.57 490 1158.57 490 1158.57 490 1156.65 490 1155 491.607 1155 493.482 1155 531.518 1155 531.518 1155 531.518 1155 533.393 1156.65 535 1158.57 535 1178.07 535 1178.07 535 1178.07 535 1178.89 535 1179.44 534.464 1179.44 533.929 1179.44 533.125 1178.89 532.589 1178.07 532.589Z" fill="#454545" fill-rule="evenodd"/><path d="M1197.34 522.467C1196.24 522.467 1196.24 522.467 1196.24 522.467 1195.96 522.2 1195.96 521.933 1195.68 521.667 1196.51 520.867 1196.51 520.867 1196.51 520.867 1197.34 520.067 1197.34 519.267 1196.51 518.467 1195.13 517.133 1195.13 517.133 1195.13 517.133 1194.58 516.6 1193.47 516.6 1192.92 517.133 1192.09 518.2 1192.09 518.2 1192.09 518.2 1191.82 517.933 1191.54 517.933 1191.26 517.667 1191.26 516.6 1191.26 516.6 1191.26 516.6 1191.26 515.8 1190.43 515 1189.61 515 1187.67 515 1187.67 515 1187.67 515 1186.57 515 1186.01 515.8 1186.01 516.6 1186.01 517.667 1186.01 517.667 1186.01 517.667 1185.74 517.933 1185.46 517.933 1185.18 518.2 1184.08 517.133 1184.08 517.133 1184.08 517.133 1183.53 516.6 1182.42 516.6 1181.87 517.133 1180.49 518.467 1180.49 518.467 1180.49 518.467 1179.93 519.267 1179.93 520.067 1180.49 520.867 1181.32 521.667 1181.32 521.667 1181.32 521.667 1181.32 521.933 1181.04 522.2 1181.04 522.467 1179.66 522.467 1179.66 522.467 1179.66 522.467 1178.83 522.467 1178 523.267 1178 524.067 1178 525.933 1178 525.933 1178 525.933 1178 526.733 1178.83 527.533 1179.66 527.533 1181.04 527.533 1181.04 527.533 1181.04 527.533 1181.04 527.8 1181.32 528.067 1181.32 528.333 1180.49 529.4 1180.49 529.4 1180.49 529.4 1179.93 529.933 1179.93 530.733 1180.49 531.533 1181.87 532.867 1181.87 532.867 1181.87 532.867 1182.42 533.4 1183.53 533.4 1184.08 532.867 1185.18 531.8 1185.18 531.8 1185.18 531.8 1185.46 532.067 1185.74 532.067 1186.01 532.333 1186.01 533.4 1186.01 533.4 1186.01 533.4 1186.01 534.467 1186.57 535 1187.67 535 1189.61 535 1189.61 535 1189.61 535 1190.43 535 1191.26 534.467 1191.26 533.4 1191.26 532.333 1191.26 532.333 1191.26 532.333 1191.54 532.067 1191.82 532.067 1192.09 531.8 1192.92 532.867 1192.92 532.867 1192.92 532.867 1193.47 533.4 1194.58 533.4 1195.13 532.867 1196.51 531.533 1196.51 531.533 1196.51 531.533 1197.34 530.733 1197.34 529.933 1196.51 529.4 1195.68 528.333 1195.68 528.333 1195.68 528.333 1195.96 528.067 1195.96 527.8 1196.24 527.533 1197.34 527.533 1197.34 527.533 1197.34 527.533 1198.17 527.533 1199 526.733 1199 525.933 1199 524.067 1199 524.067 1199 524.067 1199 523.267 1198.17 522.467 1197.34 522.467ZM1197.89 525.933C1197.89 526.2 1197.62 526.2 1197.34 526.2 1195.13 526.2 1195.13 526.2 1195.13 526.2 1195.13 526.733 1195.13 526.733 1195.13 526.733 1194.86 527.267 1194.58 527.8 1194.3 528.333 1194.3 528.6 1194.3 528.6 1194.3 528.6 1195.68 530.2 1195.68 530.2 1195.68 530.2 1195.96 530.2 1195.96 530.467 1195.68 530.733 1194.3 532.067 1194.3 532.067 1194.3 532.067 1194.3 532.067 1194.03 532.067 1193.75 532.067 1192.37 530.467 1192.37 530.467 1192.37 530.467 1191.82 530.733 1191.82 530.733 1191.82 530.733 1191.54 531 1190.99 531 1190.43 531.267 1189.88 531.267 1189.88 531.267 1189.88 531.267 1189.88 533.4 1189.88 533.4 1189.88 533.4 1189.88 533.667 1189.88 533.933 1189.61 533.933 1187.67 533.933 1187.67 533.933 1187.67 533.933 1187.39 533.933 1187.12 533.667 1187.12 533.4 1187.12 531.267 1187.12 531.267 1187.12 531.267 1186.84 531.267 1186.84 531.267 1186.84 531.267 1186.29 531 1185.74 531 1185.18 530.733 1184.91 530.467 1184.91 530.467 1184.91 530.467 1183.25 532.067 1183.25 532.067 1183.25 532.067 1183.25 532.067 1182.97 532.067 1182.7 532.067 1181.32 530.467 1181.32 530.467 1181.32 530.467 1181.32 530.467 1181.32 530.2 1181.32 530.2 1182.97 528.6 1182.97 528.6 1182.97 528.6 1182.7 528.333 1182.7 528.333 1182.7 528.333 1182.42 527.8 1182.14 527.267 1182.14 526.733 1181.87 526.2 1181.87 526.2 1181.87 526.2 1179.66 526.2 1179.66 526.2 1179.66 526.2 1179.66 526.2 1179.38 526.2 1179.38 525.933 1179.38 524.067 1179.38 524.067 1179.38 524.067 1179.38 523.8 1179.66 523.8 1179.66 523.8 1181.87 523.8 1181.87 523.8 1181.87 523.8 1182.14 523.267 1182.14 523.267 1182.14 523.267 1182.14 522.733 1182.42 522.2 1182.7 521.933 1182.97 521.4 1182.97 521.4 1182.97 521.4 1181.32 519.8 1181.32 519.8 1181.32 519.8 1181.32 519.8 1181.32 519.533 1181.32 519.533 1182.7 518.2 1182.7 518.2 1182.7 518.2 1182.97 517.933 1183.25 517.933 1183.25 518.2 1184.91 519.533 1184.91 519.533 1184.91 519.533 1185.18 519.267 1185.18 519.267 1185.18 519.267 1185.74 519 1186.29 519 1186.84 518.733 1187.12 518.733 1187.12 518.733 1187.12 518.733 1187.12 516.6 1187.12 516.6 1187.12 516.6 1187.12 516.333 1187.39 516.067 1187.67 516.067 1189.61 516.067 1189.61 516.067 1189.61 516.067 1189.88 516.067 1189.88 516.333 1189.88 516.6 1189.88 518.733 1189.88 518.733 1189.88 518.733 1190.43 518.733 1190.43 518.733 1190.43 518.733 1190.99 519 1191.54 519 1191.82 519.267 1192.37 519.533 1192.37 519.533 1192.37 519.533 1193.75 518.2 1193.75 518.2 1193.75 518.2 1194.03 517.933 1194.3 517.933 1194.3 518.2 1195.68 519.533 1195.68 519.533 1195.68 519.533 1195.96 519.533 1195.96 519.8 1195.68 519.8 1194.3 521.4 1194.3 521.4 1194.3 521.4 1194.58 521.933 1194.58 521.933 1194.58 521.933 1194.58 522.2 1194.86 522.733 1195.13 523.267 1195.13 523.8 1195.13 523.8 1195.13 523.8 1197.34 523.8 1197.34 523.8 1197.34 523.8 1197.62 523.8 1197.89 523.8 1197.89 524.067L1197.89 525.933Z" fill="#454545" fill-rule="evenodd"/><path d="M1188.35 521C1186.03 521 1184 522.806 1184 525.129 1184 527.194 1186.03 529 1188.35 529 1190.97 529 1193 527.194 1193 525.129 1193 522.806 1190.97 521 1188.35 521ZM1188.35 527.968C1186.61 527.968 1185.16 526.677 1185.16 525.129 1185.16 523.323 1186.61 522.29 1188.35 522.29 1190.1 522.29 1191.55 523.323 1191.55 525.129 1191.55 526.677 1190.1 527.968 1188.35 527.968Z" fill="#454545" fill-rule="evenodd"/><path d="M1186.17 500C1167.83 500 1167.83 500 1167.83 500 1167.28 500 1167 500 1167 500.5 1167 500.75 1167.28 501 1167.83 501 1186.17 501 1186.17 501 1186.17 501 1186.72 501 1187 500.75 1187 500.5 1187 500 1186.72 500 1186.17 500Z" fill="#454545" fill-rule="evenodd"/><path d="M1164 500C1162.67 500 1162.67 500 1162.67 500 1162.33 500 1162 500 1162 500.5 1162 500.75 1162.33 501 1162.67 501 1164 501 1164 501 1164 501 1164.67 501 1165 500.75 1165 500.5 1165 500 1164.67 500 1164 500Z" fill="#454545" fill-rule="evenodd"/><path d="M1187 506.5C1187 506.25 1186.72 506 1186.17 506 1167.83 506 1167.83 506 1167.83 506 1167.28 506 1167 506.25 1167 506.5 1167 506.75 1167.28 507 1167.83 507 1186.17 507 1186.17 507 1186.17 507 1186.72 507 1187 506.75 1187 506.5Z" fill="#454545" fill-rule="evenodd"/><path d="M1164 506C1162.67 506 1162.67 506 1162.67 506 1162.33 506 1162 506.25 1162 506.5 1162 506.75 1162.33 507 1162.67 507 1164 507 1164 507 1164 507 1164.67 507 1165 506.75 1165 506.5 1165 506.25 1164.67 506 1164 506Z" fill="#454545" fill-rule="evenodd"/><path d="M1183 512.5C1183 512.25 1182.72 512 1182.45 512 1167.83 512 1167.83 512 1167.83 512 1167.28 512 1167 512.25 1167 512.5 1167 512.75 1167.28 513 1167.83 513 1182.45 513 1182.45 513 1182.45 513 1182.72 513 1183 512.75 1183 512.5Z" fill="#454545" fill-rule="evenodd"/><path d="M1164 512C1162.67 512 1162.67 512 1162.67 512 1162.33 512 1162 512.25 1162 512.5 1162 512.75 1162.33 513 1162.67 513 1164 513 1164 513 1164 513 1164.67 513 1165 512.75 1165 512.5 1165 512.25 1164.67 512 1164 512Z" fill="#454545" fill-rule="evenodd"/><path d="M1167.83 518C1167.28 518 1167 518.25 1167 518.5 1167 518.75 1167.28 519 1167.83 519 1176.44 519 1176.44 519 1176.44 519 1176.72 519 1177 518.75 1177 518.5 1177 518.25 1176.72 518 1176.44 518L1167.83 518Z" fill="#454545" fill-rule="evenodd"/><path d="M1162.67 518C1162.33 518 1162 518.25 1162 518.5 1162 518.75 1162.33 519 1162.67 519 1164 519 1164 519 1164 519 1164.67 519 1165 518.75 1165 518.5 1165 518.25 1164.67 518 1164 518L1162.67 518Z" fill="#454545" fill-rule="evenodd"/></g></svg>