<svg width="44" height="49" xmlns="http://www.w3.org/2000/svg" xmlns:xlink="http://www.w3.org/1999/xlink" overflow="hidden"><defs><clipPath id="clip0"><rect x="710" y="325" width="44" height="49"/></clipPath></defs><g clip-path="url(#clip0)" transform="translate(-710 -325)"><path d="M742.38 352.424C720.573 352.424 720.573 352.424 720.573 352.424 720.286 352.424 720.048 352.668 720.048 352.962 720.048 353.255 720.286 353.549 720.573 353.549 740.853 353.549 740.853 353.549 740.853 353.549 736.606 357.022 736.606 357.022 736.606 357.022 736.367 357.217 736.32 357.56 736.51 357.804 736.606 357.951 736.797 358 736.94 358 737.035 358 737.178 357.951 737.274 357.902 742.714 353.402 742.714 353.402 742.714 353.402 742.905 353.255 743 353.011 742.905 352.766 742.809 352.571 742.618 352.424 742.38 352.424ZM720.573 345.674C742.38 345.674 742.38 345.674 742.38 345.674 742.714 345.674 742.952 345.429 742.952 345.136 742.952 344.793 742.666 344.549 742.38 344.549 722.147 344.549 722.147 344.549 722.147 344.549 726.394 341.076 726.394 341.076 726.394 341.076 726.633 340.88 726.68 340.538 726.49 340.293 726.299 340.049 725.965 340 725.726 340.196 720.239 344.696 720.239 344.696 720.239 344.696 720.095 344.842 720 345.087 720.095 345.283 720.143 345.527 720.382 345.674 720.573 345.674Z" fill="#454545" fill-rule="evenodd"/><path d="M750.532 335.028C734.468 325.779 734.468 325.779 734.468 325.779 733.113 325 730.887 325 729.532 325.779 713.468 335.028 713.468 335.028 713.468 335.028 712.065 335.807 711 337.706 711 339.312 711 358.834 711 358.834 711 358.834 711 360.489 712.065 362.339 713.468 363.166 729.532 372.416 729.532 372.416 729.532 372.416 730.21 372.805 731.081 373 732 373 732.919 373 733.79 372.805 734.468 372.416 750.532 363.166 750.532 363.166 750.532 363.166 751.887 362.339 753 360.489 753 358.834 753 339.312 753 339.312 753 339.312 753 337.706 751.887 335.807 750.532 335.028ZM750.774 358.834C750.774 359.661 750.145 360.83 749.419 361.219 733.355 370.469 733.355 370.469 733.355 370.469 732.677 370.858 731.323 370.858 730.645 370.469 714.581 361.219 714.581 361.219 714.581 361.219 713.855 360.83 713.226 359.661 713.226 358.834 713.226 339.312 713.226 339.312 713.226 339.312 713.226 338.485 713.855 337.365 714.581 336.976 730.645 327.726 730.645 327.726 730.645 327.726 730.984 327.531 731.468 327.385 732 327.385 732.532 327.385 733.016 327.531 733.355 327.726 749.419 336.976 749.419 336.976 749.419 336.976 750.145 337.365 750.774 338.485 750.774 339.312L750.774 358.834Z" fill="#454545" fill-rule="evenodd"/></g></svg>