<svg width="56" height="43" xmlns="http://www.w3.org/2000/svg" xmlns:xlink="http://www.w3.org/1999/xlink" overflow="hidden"><defs><clipPath id="clip0"><rect x="1051" y="491" width="56" height="43"/></clipPath></defs><g clip-path="url(#clip0)" transform="translate(-1051 -491)"><path d="M1079 499C1071.22 499 1065 505.136 1065 512.5 1065 519.864 1071.22 526 1079 526 1086.78 526 1093 519.864 1093 512.5 1093 505.136 1086.78 499 1079 499ZM1079 524.773C1071.84 524.773 1066.24 519.25 1066.24 512.5 1066.24 505.75 1071.84 500.227 1079 500.227 1086.16 500.227 1091.76 505.75 1091.76 512.5 1091.76 519.25 1086.16 524.773 1079 524.773Z" fill="#454545" fill-rule="evenodd"/><path d="M1079.5 492C1066.06 492 1054.81 500.956 1052 513 1054.81 525.044 1066.06 534 1079.5 534 1092.94 534 1104.19 525.044 1107 513 1104.19 500.956 1092.94 492 1079.5 492ZM1079.5 531.529C1067.62 531.529 1057.62 523.809 1054.5 513 1057.62 501.882 1067.62 494.471 1079.5 494.471 1091.38 494.471 1101.38 501.882 1104.5 513 1101.38 523.809 1091.38 531.529 1079.5 531.529Z" fill="#454545" fill-rule="evenodd"/><path d="M1084.74 506C1080.97 509.529 1080.97 509.529 1080.97 509.529 1080.34 509.235 1079.71 508.941 1078.77 508.941 1076.57 508.941 1075 510.412 1075 512.471 1075 514.235 1076.57 516 1078.77 516 1080.97 516 1082.54 514.235 1082.54 512.471 1082.54 511.588 1082.23 511 1081.91 510.412 1085.69 506.882 1085.69 506.882 1085.69 506.882 1086 506.588 1086 506.294 1085.69 506 1085.37 506 1085.06 506 1084.74 506Z" fill="#454545" fill-rule="evenodd"/></g></svg>