<svg width="47" height="48" xmlns="http://www.w3.org/2000/svg" xmlns:xlink="http://www.w3.org/1999/xlink" overflow="hidden"><defs><clipPath id="clip0"><rect x="1174" y="508" width="47" height="48"/></clipPath></defs><g clip-path="url(#clip0)" transform="translate(-1174 -508)"><path d="M1211.12 521.085C1210.85 521.085 1205.78 519.216 1201.77 521.085 1199.9 522.153 1198.57 523.756 1197.77 525.358 1197.5 526.426 1197.5 527.761 1197.5 529.364 1197.5 530.699 1197.5 530.699 1197.5 530.699 1196.43 529.364 1195.36 528.295 1194.03 527.494 1188.95 525.091 1182.81 527.227 1182.55 527.227 1182.28 527.494 1182.01 527.761 1182.28 528.028 1182.28 528.028 1183.88 533.102 1188.95 535.506 1190.56 536.307 1192.43 536.574 1194.03 536.574 1194.3 536.574 1194.56 536.307 1194.56 536.04 1194.56 535.773 1194.3 535.506 1194.03 535.506 1192.69 535.506 1190.82 535.506 1189.22 534.438 1185.75 532.835 1183.88 529.364 1183.35 528.028 1184.95 527.494 1189.76 526.426 1193.49 528.295 1195.36 529.097 1196.43 530.699 1197.5 532.301 1197.5 544.318 1197.5 544.318 1197.5 544.318 1197.5 544.585 1197.77 544.852 1198.03 544.852 1198.3 544.852 1198.57 544.585 1198.57 544.318 1198.57 529.364 1198.57 529.364 1198.57 529.364 1198.57 528.028 1198.57 526.693 1198.84 525.892 1199.37 524.557 1200.7 523.222 1202.31 522.153 1205.24 520.818 1208.98 521.619 1210.32 522.153 1209.78 523.222 1208.45 526.96 1205.51 528.295 1203.91 529.364 1202.31 529.631 1201.24 529.631 1200.7 529.631 1200.7 529.898 1200.7 530.165 1200.7 530.432 1200.7 530.699 1201.24 530.699 1202.84 530.699 1204.98 529.898 1206.31 529.097 1210.32 526.96 1211.39 521.886 1211.39 521.619 1211.39 521.352 1211.39 521.085 1211.12 521.085ZM1197.5 508C1184.41 508 1174 518.415 1174 531.5 1174 544.585 1184.41 555 1197.5 555 1210.59 555 1221 544.585 1221 531.5 1221 518.415 1210.59 508 1197.5 508ZM1197.5 552.864C1185.75 552.864 1176.14 543.25 1176.14 531.5 1176.14 519.75 1185.75 510.136 1197.5 510.136 1209.25 510.136 1218.86 519.75 1218.86 531.5 1218.86 543.25 1209.25 552.864 1197.5 552.864Z" fill="#595959" fill-rule="evenodd"/></g></svg>