<svg width="53" height="39" xmlns="http://www.w3.org/2000/svg" xmlns:xlink="http://www.w3.org/1999/xlink" overflow="hidden"><defs><clipPath id="clip0"><rect x="300" y="341" width="53" height="39"/></clipPath></defs><g clip-path="url(#clip0)" transform="translate(-300 -341)"><path d="M340.591 351.5C338.523 345.859 333.205 342 327 342 320.795 342 315.477 345.859 313.705 351.5 306.614 352.391 301 358.328 301 365.75 301 373.469 307.5 380 315.182 380 338.818 380 338.818 380 338.818 380 346.795 380 353 373.469 353 365.75 353 358.328 347.682 352.391 340.591 351.5ZM338.818 377.625C315.182 377.625 315.182 377.625 315.182 377.625 308.682 377.625 303.364 372.281 303.364 365.75 303.364 359.516 308.091 354.469 314 353.875 314.886 353.875 315.477 353.281 315.773 352.391 317.545 347.641 321.977 344.375 327 344.375 332.023 344.375 336.455 347.641 338.227 352.391 338.523 353.281 339.409 353.875 340.295 353.875 346.205 354.469 350.636 359.516 350.636 365.75 350.636 372.281 345.318 377.625 338.818 377.625Z" fill="#595959" fill-rule="evenodd"/><path d="M327 354C321.938 354 318 358.453 318 363.5 318 368.844 321.938 373 327 373 332.062 373 336 368.844 336 363.5 336 358.453 332.062 354 327 354ZM327 371.812C322.5 371.812 319.125 368.25 319.125 363.5 319.125 359.047 322.5 355.188 327 355.188 331.219 355.188 334.875 359.047 334.875 363.5 334.875 368.25 331.219 371.812 327 371.812Z" fill="#595959" fill-rule="evenodd"/><path d="M327 361C324.714 361 323 363 323 365 323 367.286 324.714 369 327 369 329.286 369 331 367.286 331 365 331 363 329.286 361 327 361ZM327 367.857C325.286 367.857 324.143 366.714 324.143 365 324.143 363.571 325.286 362.143 327 362.143 328.429 362.143 329.857 363.571 329.857 365 329.857 366.714 328.429 367.857 327 367.857Z" fill="#595959" fill-rule="evenodd"/><path d="M326 358.5C326 357.672 326.448 357 327 357 327.552 357 328 357.672 328 358.5 328 359.328 327.552 360 327 360 326.448 360 326 359.328 326 358.5Z" fill="#595959" fill-rule="evenodd"/></g></svg>