<svg width="45" height="45" xmlns="http://www.w3.org/2000/svg" xmlns:xlink="http://www.w3.org/1999/xlink" overflow="hidden"><defs><clipPath id="clip0"><rect x="466" y="174" width="45" height="45"/></clipPath></defs><g clip-path="url(#clip0)" transform="translate(-466 -174)"><path d="M493.308 211.989C493.077 212.066 492.923 212.066 492.692 212.066 492.077 210.371 490.462 209.138 488.462 209.138 486.077 209.138 484 211.142 484 213.53 484 215.996 486.077 218 488.462 218 490.846 218 492.692 216.228 492.923 213.993 493.154 213.839 493.462 213.839 493.769 213.762 502.385 211.373 508.462 203.59 508.462 194.651 506.462 194.651 506.462 194.651 506.462 194.651 506.538 202.819 501.077 209.832 493.308 211.989ZM488.462 216.073C487.154 216.073 485.923 214.995 485.923 213.685 485.923 212.297 487.154 211.219 488.462 211.219 489.846 211.219 491 212.297 491 213.685 491 214.995 489.846 216.073 488.462 216.073ZM470.385 194.805C470.385 193.572 470.538 192.339 470.846 191.183 470.923 190.875 471 190.566 471 190.258 471.077 190.258 471.308 190.258 471.385 190.258 473.846 190.258 475.923 188.332 475.923 185.866 475.923 183.4 473.923 181.473 471.462 181.473 469.077 181.473 467 183.4 467 185.866 467 187.561 467.846 188.871 469.154 189.719 469.077 190.104 468.923 190.489 468.923 190.875 468.692 192.108 468.538 193.495 468.538 194.882 468.538 202.434 472.769 209.138 479.615 212.606 480.462 210.833 480.462 210.833 480.462 210.833 474.231 207.674 470.385 201.586 470.385 194.805ZM468.923 185.866C468.923 184.479 470.154 183.4 471.462 183.4 472.846 183.4 474 184.479 474 185.866 474 187.253 472.846 188.409 471.462 188.409 471.308 188.409 471.077 188.409 470.923 188.332 470.308 188.1 470.308 188.1 470.308 188.1 469.538 187.638 468.923 186.867 468.923 185.866ZM495.538 194.805C495.538 190.952 492.385 187.792 488.462 187.792 484.615 187.792 481.462 190.952 481.462 194.805 481.462 198.581 484.615 201.74 488.462 201.74 492.385 201.74 495.538 198.581 495.538 194.805ZM482.462 194.805C482.462 191.414 485.154 188.794 488.462 188.794 491.846 188.794 494.538 191.414 494.538 194.805 494.538 198.118 491.846 200.738 488.462 200.738 485.154 200.738 482.462 198.118 482.462 194.805ZM505.462 181.473C504.846 181.473 504.231 181.627 503.615 181.858 499.846 177.543 494.385 175 488.462 175 484.231 175 480.077 176.387 476.538 178.93 477.769 180.471 477.769 180.471 477.769 180.471 480.846 178.16 484.615 176.927 488.462 176.927 493.692 176.927 498.692 179.238 502.077 183.014 501.385 183.785 501 184.787 501 185.866 501 188.332 503.077 190.258 505.462 190.258 507.923 190.258 510 188.332 510 185.866 510 183.4 507.923 181.473 505.462 181.473ZM505.462 188.409C504.154 188.409 502.923 187.33 502.923 185.943 502.923 185.249 503.231 184.787 503.615 184.324 504.538 183.708 504.538 183.708 504.538 183.708 504.846 183.631 505.231 183.554 505.462 183.554 506.846 183.554 508 184.556 508 185.943 508 187.33 506.846 188.409 505.462 188.409Z" fill="#454545" fill-rule="evenodd"/></g></svg>