<svg width="43" height="43" xmlns="http://www.w3.org/2000/svg" xmlns:xlink="http://www.w3.org/1999/xlink" overflow="hidden"><defs><clipPath id="clip0"><rect x="818" y="511" width="43" height="43"/></clipPath></defs><g clip-path="url(#clip0)" transform="translate(-818 -511)"><path d="M843.333 519C840 522.982 840 522.982 840 522.982 836.667 519 836.667 519 836.667 519 825 525.09 825 525.09 825 525.09 828.81 529.541 828.81 529.541 828.81 529.541 826.667 534.694 826.667 534.694 826.667 534.694 829.048 535.865 829.048 535.865 829.048 535.865 829.048 538.91 829.048 538.91 829.048 538.91 829.048 539.144 829.048 539.378 829.286 539.613 839.524 545 839.524 545 839.524 545 839.524 545 839.762 545 839.762 545 839.762 545 839.762 545 839.762 545 839.762 545 839.762 545 839.762 545 840 545 840 545 840 545 840 545 840 545 840 545 840 545 840 545 840 545 840 545 840 545 840.238 545 840.238 545 840.238 545 840.238 545 840.238 545 840.238 545 840.238 545 840.238 545 840.476 545 840.476 545 850.714 539.613 850.714 539.613 850.714 539.613 850.952 539.378 850.952 539.144 850.952 538.91 850.952 535.865 850.952 535.865 850.952 535.865 853.333 534.694 853.333 534.694 853.333 534.694 851.19 529.541 851.19 529.541 851.19 529.541 855 525.09 855 525.09 855 525.09L843.333 519ZM827.143 525.559C836.429 520.64 836.429 520.64 836.429 520.64 839.048 523.685 839.048 523.685 839.048 523.685 829.762 528.604 829.762 528.604 829.762 528.604L827.143 525.559ZM828.333 533.991C830 530.477 830 530.477 830 530.477 839.286 534.694 839.286 534.694 839.286 534.694 837.619 538.441 837.619 538.441 837.619 538.441L828.333 533.991ZM839.286 543.36C830.238 538.441 830.238 538.441 830.238 538.441 830.238 536.568 830.238 536.568 830.238 536.568 838.333 540.081 838.333 540.081 838.333 540.081 839.286 537.505 839.286 537.505 839.286 537.505L839.286 543.36ZM840 533.523C831.19 529.306 831.19 529.306 831.19 529.306 840 524.622 840 524.622 840 524.622 848.81 529.306 848.81 529.306 848.81 529.306L840 533.523ZM840.714 543.36C840.714 537.505 840.714 537.505 840.714 537.505 841.667 540.081 841.667 540.081 841.667 540.081 849.762 536.568 849.762 536.568 849.762 536.568 849.762 538.441 849.762 538.441 849.762 538.441L840.714 543.36ZM851.667 533.991C842.381 538.441 842.381 538.441 842.381 538.441 840.714 534.694 840.714 534.694 840.714 534.694 850 530.477 850 530.477 850 530.477L851.667 533.991ZM850.238 528.604C840.952 523.685 840.952 523.685 840.952 523.685 843.571 520.64 843.571 520.64 843.571 520.64 852.857 525.559 852.857 525.559 852.857 525.559L850.238 528.604Z" fill="#454545" fill-rule="evenodd"/><path d="M857.659 512C822.341 512 822.341 512 822.341 512 820.432 512 819 513.398 819 515.261 819 539.256 819 539.256 819 539.256 819 540.886 819.955 542.517 821.386 543.449 837.614 552.301 837.614 552.301 837.614 552.301 838.091 552.767 839.045 553 840 553 840.955 553 841.909 552.767 842.386 552.301 858.614 543.449 858.614 543.449 858.614 543.449 860.045 542.517 861 540.886 861 539.256 861 515.261 861 515.261 861 515.261 861 513.398 859.568 512 857.659 512ZM858.852 539.256C858.852 539.955 858.136 541.119 857.42 541.585 841.432 550.438 841.432 550.438 841.432 550.438 840.716 550.903 839.284 550.903 838.568 550.438 822.58 541.585 822.58 541.585 822.58 541.585 821.864 541.119 821.148 539.955 821.148 539.256 821.148 515.261 821.148 515.261 821.148 515.261 821.148 514.562 821.625 514.097 822.341 514.097 857.659 514.097 857.659 514.097 857.659 514.097 858.375 514.097 858.852 514.562 858.852 515.261L858.852 539.256Z" fill="#454545" fill-rule="evenodd"/></g></svg>