<svg width="48" height="43" xmlns="http://www.w3.org/2000/svg" xmlns:xlink="http://www.w3.org/1999/xlink" overflow="hidden"><defs><clipPath id="clip0"><rect x="354" y="175" width="48" height="43"/></clipPath></defs><g clip-path="url(#clip0)" transform="translate(-354 -175)"><path d="M395.927 179.657C391.743 177.129 382.026 176 377.933 176 373.299 176 364.482 177.219 360.388 179.567 359.533 180.109 358.724 180.651 357.959 181.328 355.08 184.083 354 187.74 355.305 190.314 355.979 191.533 356.969 192.752 359.533 192.752 360.838 192.752 362.502 192.391 364.482 191.849 365.157 191.623 365.921 191.398 366.596 190.72 367.451 189.862 367.676 188.959 367.901 187.74 368.036 187.289 368.126 186.747 368.351 185.979 368.8 185.844 369.88 185.663 372.219 185.437 372.534 185.437 372.759 185.302 372.894 185.302 373.434 185.211 376.628 184.85 377.933 184.85 379.282 184.85 383.016 185.302 383.376 185.437 383.466 185.437 383.691 185.437 383.916 185.528 386.03 185.753 387.02 185.979 387.425 186.069 387.56 186.747 387.649 187.289 387.649 187.74 387.874 189.411 388.234 191.172 390.978 191.939 392.868 192.526 394.397 192.752 395.747 192.752 397.816 192.752 399.256 191.939 400.156 190.404 402 187.514 400.695 182.547 395.927 179.657ZM398.356 189.275C398.041 189.953 397.366 190.494 395.837 190.494 394.847 190.494 393.408 190.314 391.743 189.727 390.304 189.275 390.304 188.869 390.079 187.289 389.989 186.747 389.854 185.979 389.764 184.986 389.539 183.992 388.639 183.631 384.366 183.225 384.141 183.225 383.916 183.225 383.916 183.225 383.691 183.225 379.597 182.638 378.067 182.638 376.538 182.638 372.759 183.225 372.669 183.225 372.534 183.225 372.309 183.225 372.084 183.315 367.811 183.767 366.821 184.083 366.461 185.076 366.236 186.069 366.011 186.747 365.921 187.424 365.696 188.508 365.606 188.959 365.246 189.275 365.022 189.501 364.572 189.727 364.167 189.862 362.277 190.404 360.838 190.63 359.758 190.63 358.094 190.63 357.869 190.088 357.419 189.411 356.519 187.876 357.509 185.076 359.623 183.089 360.163 182.547 360.838 182.006 361.603 181.554 365.157 179.432 373.434 178.348 378.067 178.213 382.791 178.213 391.518 179.432 394.847 181.554 398.491 183.857 399.391 187.65 398.356 189.275ZM387.784 193.068C386.435 190.856 385.22 190.404 383.466 190.404 372.444 190.404 372.444 190.404 372.444 190.404 371.095 190.404 368.44 190.404 367.001 193.068 366.461 193.971 361.963 201.602 361.378 204.583 360.973 206.569 360.298 213.343 360.298 213.659 360.298 213.794 360.298 213.794 360.298 213.794 360.298 215.555 361.738 217 363.582 217 392.283 217 392.283 217 392.283 217 394.172 217 395.612 215.555 395.612 213.659 395.612 213.343 394.937 206.479 394.532 204.492 393.723 201.467 388.324 193.836 387.784 193.068ZM392.283 214.787C363.582 214.787 363.582 214.787 363.582 214.787 363.042 214.787 362.502 214.336 362.502 213.794 362.592 213.117 363.267 206.795 363.582 205.034 364.032 202.822 367.676 196.5 369.025 194.152 369.79 192.752 371.005 192.617 372.444 192.617 383.466 192.617 383.466 192.617 383.466 192.617 384.366 192.617 384.905 192.617 385.895 194.287 387.425 196.5 391.743 202.912 392.283 205.124 392.733 206.705 393.183 212.033 393.408 213.794 393.408 214.336 392.958 214.787 392.283 214.787ZM377.933 197.042C374.289 197.042 371.32 200.067 371.32 203.725 371.32 207.337 374.289 210.362 377.933 210.362 381.576 210.362 384.59 207.337 384.59 203.725 384.59 200.067 381.576 197.042 377.933 197.042ZM377.933 209.233C374.873 209.233 372.444 206.795 372.444 203.725 372.444 200.609 374.873 198.171 377.933 198.171 381.037 198.171 383.466 200.609 383.466 203.725 383.466 206.795 381.037 209.233 377.933 209.233Z" fill="#454545" fill-rule="evenodd"/></g></svg>