<svg width="43" height="43" xmlns="http://www.w3.org/2000/svg" xmlns:xlink="http://www.w3.org/1999/xlink" overflow="hidden"><defs><clipPath id="clip0"><rect x="716" y="511" width="43" height="43"/></clipPath></defs><g clip-path="url(#clip0)" transform="translate(-716 -511)"><path d="M754.659 512C719.341 512 719.341 512 719.341 512 717.432 512 716 513.398 716 515.261 716 539.256 716 539.256 716 539.256 716 540.886 717.193 542.75 718.386 543.449 734.614 552.534 734.614 552.534 734.614 552.534 735.091 552.767 736.045 553 737 553 737.955 553 738.909 552.767 739.386 552.534 755.614 543.449 755.614 543.449 755.614 543.449 756.807 542.75 758 540.886 758 539.256 758 515.261 758 515.261 758 515.261 758 513.398 756.568 512 754.659 512ZM755.852 539.256C755.852 540.188 755.136 541.119 754.42 541.585 738.432 550.67 738.432 550.67 738.432 550.67 737.716 550.903 736.284 550.903 735.568 550.67 719.58 541.585 719.58 541.585 719.58 541.585 718.864 541.119 718.148 540.188 718.148 539.256 718.148 515.261 718.148 515.261 718.148 515.261 718.148 514.795 718.625 514.097 719.341 514.097 754.659 514.097 754.659 514.097 754.659 514.097 755.375 514.097 755.852 514.795 755.852 515.261L755.852 539.256Z" fill="#454545" fill-rule="evenodd"/><path d="M751.092 528.133C750.138 528.133 749.423 529.067 749.423 530 749.423 530.7 749.662 531.4 750.377 531.633 749.662 534.2 747.277 536.067 744.415 536.067 741.554 536.067 738.931 534.2 738.215 531.633 738.931 531.4 739.408 530.7 739.408 530 739.408 529.067 738.692 528.367 737.738 528.133 736.785 525.1 733.923 523 730.585 523 727.246 523 724.385 525.1 723.669 528.133 722.715 528.367 722 529.067 722 530 722 530.933 722.954 531.633 723.908 531.633 724.862 531.633 725.577 530.933 725.577 530 725.577 529.3 725.338 528.6 724.623 528.367 725.338 525.8 727.723 523.933 730.585 523.933 733.446 523.933 736.069 525.8 736.785 528.367 736.069 528.6 735.592 529.3 735.592 530 735.592 530.933 736.308 531.633 737.262 531.633 738.215 534.9 741.077 537 744.415 537 747.754 537 750.615 534.9 751.331 531.633 752.285 531.633 753 530.933 753 530 753 529.067 752.046 528.133 751.092 528.133ZM723.908 530.933C723.431 530.933 722.954 530.467 722.954 530 722.954 529.533 723.431 529.067 723.908 529.067 724.385 529.067 724.862 529.533 724.862 530 724.862 530.467 724.385 530.933 723.908 530.933ZM736.546 530C736.546 529.533 737.023 529.067 737.5 529.067 737.977 529.067 738.454 529.533 738.454 530 738.454 530.467 737.977 530.933 737.5 530.933 737.023 530.933 736.546 530.467 736.546 530ZM751.092 530.933C750.615 530.933 750.138 530.467 750.138 530 750.138 529.533 750.615 529.067 751.092 529.067 751.569 529.067 752.046 529.533 752.046 530 752.046 530.467 751.569 530.933 751.092 530.933Z" fill="#454545" fill-rule="evenodd"/><path d="M749.5 526.889C749.5 527.111 749.75 527.333 750 527.556 750.25 528 750.25 528 750.25 528 751 527.556 751 527.556 751 527.556 750.75 527.111 750.75 527.111 750.75 527.111 750.5 526.889 750.5 526.667 750.25 526.222 750 526 750 526 750 526 749 526.444 749 526.444 749 526.444L749.5 526.889Z" fill="#454545" fill-rule="evenodd"/><path d="M739.818 525.778C740.364 525.333 740.909 525.111 741.455 524.889 742 524.889 742 524.889 742 524.889 741.727 524 741.727 524 741.727 524 741.182 524.222 741.182 524.222 741.182 524.222 740.636 524.444 739.818 524.667 739.273 525.111 739 525.333 739 525.333 739 525.333 739.545 526 739.545 526 739.545 526L739.818 525.778Z" fill="#454545" fill-rule="evenodd"/><path d="M743.364 524C743.727 523.75 744.273 523.75 744.636 524 745 524 745 524 745 524 745 523 745 523 745 523 744.818 523 744.818 523 744.818 523 744.273 523 743.727 523 743.364 523 743 523 743 523 743 523 743 524 743 524 743 524L743.364 524Z" fill="#454545" fill-rule="evenodd"/><path d="M748 525.778C748.25 526 748.25 526 748.25 526 749 525.333 749 525.333 749 525.333 748.5 525.111 748.5 525.111 748.5 525.111 748 524.667 747.5 524.444 746.75 524.222 746.25 524 746.25 524 746.25 524 746 524.889 746 524.889 746 524.889 746.5 524.889 746.5 524.889 746.5 524.889 747 525.111 747.5 525.556 748 525.778Z" fill="#454545" fill-rule="evenodd"/><path d="M738 527.556C738.25 527.333 738.5 527.111 738.75 526.889 739 526.444 739 526.444 739 526.444 738.25 526 738.25 526 738.25 526 737.75 526.222 737.75 526.222 737.75 526.222 737.75 526.667 737.5 526.889 737.25 527.111 737 527.556 737 527.556 737 527.556 737.75 528 737.75 528 737.75 528L738 527.556Z" fill="#454545" fill-rule="evenodd"/><path d="M725.5 534.111C725.5 533.889 725.25 533.667 725 533.444 724.75 533 724.75 533 724.75 533 724 533.444 724 533.444 724 533.444 724.25 533.889 724.25 533.889 724.25 533.889 724.5 534.111 724.5 534.333 724.75 534.556 725 535 725 535 725 535 726 534.556 726 534.556 726 534.556L725.5 534.111Z" fill="#454545" fill-rule="evenodd"/><path d="M734.455 535.222C734.091 535.444 733.727 535.667 733.364 535.889 733 536.111 733 536.111 733 536.111 733.182 537 733.182 537 733.182 537 733.545 536.778 733.545 536.778 733.545 536.778 733.909 536.556 734.455 536.111 734.818 535.889 735 535.667 735 535.667 735 535.667 734.636 535 734.636 535 734.636 535L734.455 535.222Z" fill="#454545" fill-rule="evenodd"/><path d="M731.455 537C730.909 537 730.091 537 729.545 537 729 537 729 537 729 537 729 538 729 538 729 538 729.273 538 729.273 538 729.273 538 729.818 538 730.091 538 730.364 538 730.909 538 731.182 538 731.455 538 732 538 732 538 732 538 732 537 732 537 732 537L731.455 537Z" fill="#454545" fill-rule="evenodd"/><path d="M727 535.25C726.75 535 726.75 535 726.75 535 726 535.75 726 535.75 726 535.75 726.5 536 726.5 536 726.5 536 727 536.25 727.5 536.75 728.25 537 728.75 537 728.75 537 728.75 537 729 536.25 729 536.25 729 536.25 728.5 536 728.5 536 728.5 536 728 535.75 727.5 535.5 727 535.25Z" fill="#454545" fill-rule="evenodd"/><path d="M736 533.444C735.75 533.667 735.5 533.889 735.25 534.111 735 534.556 735 534.556 735 534.556 735.75 535 735.75 535 735.75 535 736 534.556 736 534.556 736 534.556 736.25 534.333 736.5 534.111 736.75 533.889 737 533.444 737 533.444 737 533.444 736.25 533 736.25 533 736.25 533L736 533.444Z" fill="#454545" fill-rule="evenodd"/></g></svg>