<svg width="51" height="37" xmlns="http://www.w3.org/2000/svg" xmlns:xlink="http://www.w3.org/1999/xlink" overflow="hidden"><defs><clipPath id="clip0"><rect x="1003" y="514" width="51" height="37"/></clipPath></defs><g clip-path="url(#clip0)" transform="translate(-1003 -514)"><path d="M1039.44 540.556C1039.16 540.556 1038.94 540.781 1038.94 541.08 1038.94 542.278 1038.94 542.278 1038.94 542.278 1038.94 542.578 1038.66 542.877 1038.38 542.877 1018.62 542.877 1018.62 542.877 1018.62 542.877 1018.34 542.877 1018.06 542.578 1018.06 542.278 1018.06 541.08 1018.06 541.08 1018.06 541.08 1018.06 540.781 1017.84 540.556 1017.56 540.556 1017.21 540.556 1017 540.781 1017 541.08 1017 542.278 1017 542.278 1017 542.278 1017 543.251 1017.7 544 1018.62 544 1038.38 544 1038.38 544 1038.38 544 1039.3 544 1040 543.251 1040 542.278 1040 541.08 1040 541.08 1040 541.08 1040 540.781 1039.79 540.556 1039.44 540.556ZM1038.38 530C1018.62 530 1018.62 530 1018.62 530 1017.7 530 1017 530.824 1017 531.797 1017 532.92 1017 532.92 1017 532.92 1017 533.219 1017.21 533.519 1017.56 533.519 1017.84 533.519 1018.06 533.219 1018.06 532.92 1018.06 531.797 1018.06 531.797 1018.06 531.797 1018.06 531.422 1018.34 531.198 1018.62 531.198 1038.38 531.198 1038.38 531.198 1038.38 531.198 1038.66 531.198 1038.94 531.422 1038.94 531.797 1038.94 532.92 1038.94 532.92 1038.94 532.92 1038.94 533.219 1039.16 533.519 1039.44 533.519 1039.79 533.519 1040 533.219 1040 532.92 1040 531.797 1040 531.797 1040 531.797 1040 530.824 1039.3 530 1038.38 530Z" fill="#454545" fill-rule="evenodd"/><path d="M1041.07 523.838C1039.29 518.717 1034.29 515 1028.5 515 1022.64 515 1017.64 518.717 1015.86 523.838 1009.14 524.539 1004 530.08 1004 536.884 1004 544.108 1009.93 550 1017.36 550 1039.57 550 1039.57 550 1039.57 550 1047 550 1053 544.108 1053 536.884 1053 530.08 1047.79 524.539 1041.07 523.838ZM1039.57 547.826C1017.36 547.826 1017.36 547.826 1017.36 547.826 1011.21 547.826 1006.21 542.916 1006.21 536.884 1006.21 531.273 1010.43 526.643 1016.07 526.012 1016.93 525.942 1017.64 525.311 1017.93 524.539 1019.5 520.12 1023.71 517.174 1028.5 517.174 1033.21 517.174 1037.43 520.12 1039 524.539 1039.29 525.311 1040 525.942 1040.86 526.012 1046.5 526.643 1050.71 531.273 1050.71 536.884 1050.71 542.916 1045.71 547.826 1039.57 547.826Z" fill="#454545" fill-rule="evenodd"/></g></svg>