<svg width="44" height="43" xmlns="http://www.w3.org/2000/svg" xmlns:xlink="http://www.w3.org/1999/xlink" overflow="hidden"><defs><clipPath id="clip0"><rect x="615" y="511" width="44" height="43"/></clipPath></defs><g clip-path="url(#clip0)" transform="translate(-615 -511)"><path d="M654.659 512C619.341 512 619.341 512 619.341 512 617.432 512 616 513.398 616 515.261 616 539.256 616 539.256 616 539.256 616 540.886 617.193 542.75 618.386 543.449 634.614 552.534 634.614 552.534 634.614 552.534 635.091 552.767 636.045 553 637 553 637.955 553 638.909 552.767 639.386 552.534 655.614 543.449 655.614 543.449 655.614 543.449 656.807 542.75 658 540.886 658 539.256 658 515.261 658 515.261 658 515.261 658 513.398 656.568 512 654.659 512ZM655.852 539.256C655.852 540.188 655.136 541.119 654.42 541.585 638.432 550.67 638.432 550.67 638.432 550.67 637.716 550.903 636.284 550.903 635.568 550.67 619.58 541.585 619.58 541.585 619.58 541.585 618.864 541.119 618.148 540.188 618.148 539.256 618.148 515.261 618.148 515.261 618.148 515.261 618.148 514.562 618.625 514.097 619.341 514.097 654.659 514.097 654.659 514.097 654.659 514.097 655.375 514.097 655.852 514.562 655.852 515.261L655.852 539.256Z" fill="#454545" fill-rule="evenodd"/><path d="M631.176 517C624.588 517 624.588 517 624.588 517 623.176 517 622 518.173 622 519.816 622 537.184 622 537.184 622 537.184 622 538.592 623.176 540 624.588 540 631.176 540 631.176 540 631.176 540 632.588 540 634 538.592 634 537.184 634 519.816 634 519.816 634 519.816 634 518.173 632.588 517 631.176 517ZM632.824 537.184C632.824 538.122 632.118 538.827 631.176 538.827 624.588 538.827 624.588 538.827 624.588 538.827 623.647 538.827 622.941 538.122 622.941 537.184 622.941 519.816 622.941 519.816 622.941 519.816 622.941 518.878 623.647 518.173 624.588 518.173 631.176 518.173 631.176 518.173 631.176 518.173 632.118 518.173 632.824 518.878 632.824 519.816L632.824 537.184Z" fill="#454545" fill-rule="evenodd"/><path d="M648.2 517C639.567 517 639.567 517 639.567 517 638.167 517 637 518.19 637 519.857 637 524.143 637 524.143 637 524.143 637 525.81 638.167 527 639.567 527 648.2 527 648.2 527 648.2 527 649.833 527 651 525.81 651 524.143 651 519.857 651 519.857 651 519.857 651 518.19 649.833 517 648.2 517ZM649.833 524.143C649.833 525.095 649.133 525.81 648.2 525.81 639.567 525.81 639.567 525.81 639.567 525.81 638.867 525.81 637.933 525.095 637.933 524.143 637.933 519.857 637.933 519.857 637.933 519.857 637.933 518.905 638.867 518.19 639.567 518.19 648.2 518.19 648.2 518.19 648.2 518.19 649.133 518.19 649.833 518.905 649.833 519.857L649.833 524.143Z" fill="#454545" fill-rule="evenodd"/><path d="M648.2 529C639.567 529 639.567 529 639.567 529 638.167 529 637 530.17 637 531.809 637 537.191 637 537.191 637 537.191 637 538.596 638.167 540 639.567 540 648.2 540 648.2 540 648.2 540 649.833 540 651 538.596 651 537.191 651 531.809 651 531.809 651 531.809 651 530.17 649.833 529 648.2 529ZM649.833 537.191C649.833 538.128 649.133 538.83 648.2 538.83 639.567 538.83 639.567 538.83 639.567 538.83 638.867 538.83 637.933 538.128 637.933 537.191 637.933 531.809 637.933 531.809 637.933 531.809 637.933 530.872 638.867 530.17 639.567 530.17 648.2 530.17 648.2 530.17 648.2 530.17 649.133 530.17 649.833 530.872 649.833 531.809L649.833 537.191Z" fill="#454545" fill-rule="evenodd"/></g></svg>