<svg width="50" height="44" xmlns="http://www.w3.org/2000/svg" xmlns:xlink="http://www.w3.org/1999/xlink" overflow="hidden"><defs><clipPath id="clip0"><rect x="558" y="364" width="50" height="44"/></clipPath></defs><g clip-path="url(#clip0)" transform="translate(-558 -364)"><path d="M599.926 394.553C577.932 394.553 577.932 394.553 577.932 394.553 577.932 394.553 577.932 394.553 577.932 394.553 577.932 393.987 577.653 393.421 576.818 393.421 576.261 393.421 575.705 393.987 575.705 394.553 575.705 394.553 575.705 394.553 575.705 394.553 572.92 394.553 572.92 394.553 572.92 394.553 572.642 394.553 572.364 394.836 572.364 395.118 572.364 395.401 572.642 395.684 572.92 395.684 575.705 395.684 575.705 395.684 575.705 395.684 575.705 396.25 576.261 396.816 576.818 396.816 577.653 396.816 577.932 396.25 577.932 395.684 599.926 395.684 599.926 395.684 599.926 395.684 600.205 395.684 600.205 395.401 600.205 395.118 600.205 394.836 600.205 394.553 599.926 394.553ZM568.466 393.421C567.631 393.421 566.795 394.27 566.795 395.118 566.795 395.967 567.631 396.816 568.466 396.816 569.58 396.816 570.136 395.967 570.136 395.118 570.136 394.27 569.58 393.421 568.466 393.421ZM568.466 384.368C567.631 384.368 566.795 385.217 566.795 386.066 566.795 386.914 567.631 387.763 568.466 387.763 569.58 387.763 570.136 386.914 570.136 386.066 570.136 385.217 569.58 384.368 568.466 384.368ZM568.466 375.316C567.631 375.316 566.795 376.164 566.795 377.013 566.795 377.862 567.631 378.711 568.466 378.711 569.58 378.711 570.136 377.862 570.136 377.013 570.136 376.164 569.58 375.316 568.466 375.316ZM599.926 385.5C596.864 385.5 596.864 385.5 596.864 385.5 596.864 385.5 596.864 385.5 596.864 385.5 596.864 384.934 596.585 384.368 595.75 384.368 595.193 384.368 594.636 384.934 594.636 385.5 594.636 385.5 594.636 385.5 594.636 385.5 572.92 385.5 572.92 385.5 572.92 385.5 572.642 385.5 572.364 385.783 572.364 386.066 572.364 386.349 572.642 386.632 572.92 386.632 594.636 386.632 594.636 386.632 594.636 386.632 594.636 387.197 595.193 387.763 595.75 387.763 596.585 387.763 596.864 387.197 596.864 386.632 599.926 386.632 599.926 386.632 599.926 386.632 600.205 386.632 600.205 386.349 600.205 386.066 600.205 385.783 600.205 385.5 599.926 385.5ZM602.432 364C564.568 364 564.568 364 564.568 364 561.506 364 559 366.546 559 369.658 559 401.342 559 401.342 559 401.342 559 404.454 561.506 407 564.568 407 602.432 407 602.432 407 602.432 407 605.494 407 608 404.454 608 401.342 608 369.658 608 369.658 608 369.658 608 366.546 605.494 364 602.432 364ZM605.773 401.342C605.773 403.322 604.381 404.737 602.432 404.737 564.568 404.737 564.568 404.737 564.568 404.737 562.898 404.737 561.227 403.322 561.227 401.342 561.227 369.658 561.227 369.658 561.227 369.658 561.227 367.961 562.898 366.263 564.568 366.263 602.432 366.263 602.432 366.263 602.432 366.263 604.381 366.263 605.773 367.961 605.773 369.658L605.773 401.342ZM599.926 376.447C577.932 376.447 577.932 376.447 577.932 376.447 577.932 376.447 577.932 376.447 577.932 376.447 577.932 375.882 577.653 375.316 576.818 375.316 576.261 375.316 575.705 375.882 575.705 376.447 575.705 376.447 575.705 376.447 575.705 376.447 572.92 376.447 572.92 376.447 572.92 376.447 572.642 376.447 572.364 376.73 572.364 377.013 572.364 377.296 572.642 377.579 572.92 377.579 575.705 377.579 575.705 377.579 575.705 377.579 575.705 378.145 576.261 378.711 576.818 378.711 577.653 378.711 577.932 378.145 577.932 377.579 599.926 377.579 599.926 377.579 599.926 377.579 600.205 377.579 600.205 377.296 600.205 377.013 600.205 376.73 600.205 376.447 599.926 376.447Z" fill="#454545" fill-rule="evenodd"/></g></svg>