<svg width="44" height="50" xmlns="http://www.w3.org/2000/svg" xmlns:xlink="http://www.w3.org/1999/xlink" overflow="hidden"><defs><clipPath id="clip0"><rect x="847" y="361" width="44" height="50"/></clipPath></defs><g clip-path="url(#clip0)" transform="translate(-847 -361)"><path d="M887.171 366.011C884.908 366.011 884.908 366.011 884.908 366.011 884.908 367.125 884.908 367.125 884.908 367.125 887.171 367.125 887.171 367.125 887.171 367.125 888.303 367.125 888.868 367.682 888.868 368.517 888.868 402.761 888.868 402.761 888.868 402.761 888.868 403.597 888.303 403.875 887.171 403.875 884.908 403.875 884.908 403.875 884.908 403.875 884.908 404.989 884.908 404.989 884.908 404.989 887.171 404.989 887.171 404.989 887.171 404.989 888.868 404.989 890 404.153 890 402.761 890 368.517 890 368.517 890 368.517 890 367.125 888.868 366.011 887.171 366.011ZM886.605 374.92C886.605 374.642 886.605 374.364 886.039 374.364 884.908 374.364 884.908 374.364 884.908 374.364 884.908 375.477 884.908 375.477 884.908 375.477 886.039 375.477 886.039 375.477 886.039 375.477 886.605 375.477 886.605 375.477 886.605 374.92ZM862.842 392.182C860.579 392.182 858.316 394.409 858.316 396.636 858.316 399.142 860.579 401.091 862.842 401.091 865.388 401.091 867.368 399.142 867.368 396.636 867.368 394.409 865.388 392.182 862.842 392.182ZM862.842 399.977C861.145 399.977 859.73 398.585 859.73 396.636 859.73 394.966 861.145 393.574 862.842 393.574 864.822 393.574 866.237 394.966 866.237 396.636 866.237 398.585 864.822 399.977 862.842 399.977ZM870.197 371.023C855.487 371.023 855.487 371.023 855.487 371.023 855.204 371.023 854.921 371.301 854.921 371.58 854.921 372.136 855.204 372.136 855.487 372.136 870.197 372.136 870.197 372.136 870.197 372.136 870.48 372.136 870.763 372.136 870.763 371.58 870.763 371.301 870.48 371.023 870.197 371.023ZM875.289 361C850.395 361 850.395 361 850.395 361 848.697 361 847 362.67 847 364.341 847 406.659 847 406.659 847 406.659 847 408.608 848.697 410 850.395 410 875.289 410 875.289 410 875.289 410 877.27 410 878.684 408.608 878.684 406.659 878.684 364.341 878.684 364.341 878.684 364.341 878.684 362.67 877.27 361 875.289 361ZM876.421 406.659C876.421 407.494 876.138 407.773 875.289 407.773 850.395 407.773 850.395 407.773 850.395 407.773 849.829 407.773 849.263 407.494 849.263 406.659 849.263 364.341 849.263 364.341 849.263 364.341 849.263 363.784 849.829 363.227 850.395 363.227 875.289 363.227 875.289 363.227 875.289 363.227 876.138 363.227 876.421 363.784 876.421 364.341L876.421 406.659ZM880.947 373.807C880.947 373.528 880.664 373.25 880.382 373.25 879.25 373.25 879.25 373.25 879.25 373.25 879.25 374.364 879.25 374.364 879.25 374.364 880.382 374.364 880.382 374.364 880.382 374.364 880.664 374.364 880.947 374.364 880.947 373.807ZM881.513 363.784C879.25 363.784 879.25 363.784 879.25 363.784 879.25 364.898 879.25 364.898 879.25 364.898 881.513 364.898 881.513 364.898 881.513 364.898 882.645 364.898 883.211 365.733 883.211 366.568 883.211 404.71 883.211 404.71 883.211 404.71 883.211 405.545 882.645 406.102 881.513 406.102 879.25 406.102 879.25 406.102 879.25 406.102 879.25 407.216 879.25 407.216 879.25 407.216 881.513 407.216 881.513 407.216 881.513 407.216 883.211 407.216 884.342 406.102 884.342 404.71 884.342 366.568 884.342 366.568 884.342 366.568 884.342 365.176 883.211 363.784 881.513 363.784Z" fill="#454545" fill-rule="evenodd"/></g></svg>