<svg width="44" height="43" xmlns="http://www.w3.org/2000/svg" xmlns:xlink="http://www.w3.org/1999/xlink" overflow="hidden"><defs><clipPath id="clip0"><rect x="296" y="511" width="44" height="43"/></clipPath></defs><g clip-path="url(#clip0)" transform="translate(-296 -511)"><path d="M323.294 534.071C318.353 534.071 318.353 534.071 318.353 534.071 318.353 528.729 318.353 528.729 318.353 528.729 318.353 528.243 318.118 528 317.882 528 317.412 528 317.176 528.243 317.176 528.729 317.176 534.071 317.176 534.071 317.176 534.071 312.471 534.071 312.471 534.071 312.471 534.071 312.235 534.071 312 534.314 312 534.557 312 535.043 312.235 535.286 312.471 535.286 317.176 535.286 317.176 535.286 317.176 535.286 317.176 544.271 317.176 544.271 317.176 544.271 317.176 544.757 317.412 545 317.882 545 318.118 545 318.353 544.757 318.353 544.271 318.353 535.286 318.353 535.286 318.353 535.286 323.294 535.286 323.294 535.286 323.294 535.286 323.765 535.286 324 535.043 324 534.557 324 534.314 323.765 534.071 323.294 534.071Z" fill="#454545" fill-rule="evenodd"/><path d="M330.037 528.176C325.463 527.471 321.13 525.118 319.204 523.235 318.722 523 318.241 523 318 523 317.759 523 317.278 523 316.796 523.235 314.87 525.118 310.537 527.471 305.963 528.176 305.481 528.412 305 529.588 305 530.059 305 530.529 305.241 531.235 305.241 531.706 305.481 535 305.963 540.176 309.093 544.176 310.778 546.529 313.426 548.647 317.278 550.765 317.519 550.765 317.759 551 318 551 318.481 551 318.481 550.765 318.722 550.765 322.574 548.647 325.222 546.529 326.907 544.176 329.796 540.412 330.278 535.235 330.759 531.706 330.759 531 330.759 530.529 330.759 530.059 331 529.588 330.759 528.412 330.037 528.176ZM329.556 531.706C329.315 535 328.593 539.941 325.944 543.471 324.5 545.824 321.852 547.941 318.241 549.824 318.241 549.824 318.241 549.824 318 549.824 318 549.824 317.759 549.824 318 549.824 314.148 547.941 311.741 545.824 310.056 543.471 307.167 539.706 306.685 534.765 306.204 531.706 306.204 531 306.204 530.529 306.204 530.059 306.204 529.824 306.204 529.353 306.444 529.353 311.019 528.412 315.352 526.059 317.519 524.176 317.759 524.176 317.759 523.941 318 523.941 318.241 523.941 318.481 524.176 318.481 524.176 320.648 526.059 324.981 528.412 329.556 529.353 329.796 529.353 329.796 529.824 329.796 530.059 329.796 530.529 329.556 531 329.556 531.706Z" fill="#454545" fill-rule="evenodd"/><path d="M335.659 512C300.341 512 300.341 512 300.341 512 298.432 512 297 513.398 297 515.261 297 539.256 297 539.256 297 539.256 297 540.886 298.193 542.75 299.386 543.449 315.614 552.301 315.614 552.301 315.614 552.301 316.091 552.767 317.045 553 318 553 318.955 553 319.909 552.767 320.386 552.301 336.614 543.449 336.614 543.449 336.614 543.449 337.807 542.75 339 540.886 339 539.256 339 515.261 339 515.261 339 515.261 339 513.398 337.568 512 335.659 512ZM300.341 514.097C335.659 514.097 335.659 514.097 335.659 514.097 336.375 514.097 336.852 514.562 336.852 515.261 336.852 518.057 336.852 518.057 336.852 518.057 336.614 518.057 336.136 517.824 335.898 517.824 300.58 517.824 300.58 517.824 300.58 517.824 300.102 517.824 299.625 518.057 299.148 518.29 299.148 515.261 299.148 515.261 299.148 515.261 299.148 514.562 299.625 514.097 300.341 514.097ZM335.42 541.585C319.432 550.438 319.432 550.438 319.432 550.438 318.716 550.903 317.284 550.903 316.568 550.438 300.58 541.585 300.58 541.585 300.58 541.585 299.864 541.119 299.148 539.955 299.148 539.256 299.148 519.688 299.148 519.688 299.148 519.688 299.625 519.222 300.102 518.989 300.58 518.989 335.898 518.989 335.898 518.989 335.898 518.989 336.375 518.989 336.614 518.989 336.852 519.222 336.852 539.256 336.852 539.256 336.852 539.256 336.852 539.955 336.136 541.119 335.42 541.585Z" fill="#454545" fill-rule="evenodd"/></g></svg>