<svg width="43" height="43" xmlns="http://www.w3.org/2000/svg" xmlns:xlink="http://www.w3.org/1999/xlink" overflow="hidden"><defs><clipPath id="clip0"><rect x="375" y="511" width="43" height="43"/></clipPath></defs><g clip-path="url(#clip0)" transform="translate(-375 -511)"><path d="M400.325 525C392.675 525 392.675 525 392.675 525 392.225 525 392 525.25 392 525.5 392 525.75 392.225 526 392.675 526 400.325 526 400.325 526 400.325 526 400.775 526 401 525.75 401 525.5 401 525.25 400.775 525 400.325 525Z" fill="#454545" fill-rule="evenodd"/><path d="M406.406 520C386.594 520 386.594 520 386.594 520 385.179 520 384 521.203 384 522.886 384 536.114 384 536.114 384 536.114 384 537.797 385.179 539 386.594 539 406.406 539 406.406 539 406.406 539 407.821 539 409 537.797 409 536.114 409 522.886 409 522.886 409 522.886 409 521.203 407.821 520 406.406 520ZM408.057 536.114C408.057 537.076 407.349 537.797 406.406 537.797 386.594 537.797 386.594 537.797 386.594 537.797 385.651 537.797 384.943 537.076 384.943 536.114 384.943 522.886 384.943 522.886 384.943 522.886 384.943 521.924 385.651 521.203 386.594 521.203 406.406 521.203 406.406 521.203 406.406 521.203 407.349 521.203 408.057 521.924 408.057 522.886L408.057 536.114Z" fill="#454545" fill-rule="evenodd"/><path d="M413.659 512C378.341 512 378.341 512 378.341 512 376.432 512 375 513.398 375 515.261 375 539.256 375 539.256 375 539.256 375 540.886 376.193 542.75 377.386 543.449 393.614 552.534 393.614 552.534 393.614 552.534 394.091 552.767 395.045 553 396 553 396.955 553 397.909 552.767 398.386 552.534 414.614 543.449 414.614 543.449 414.614 543.449 415.807 542.75 417 540.886 417 539.256 417 515.261 417 515.261 417 515.261 417 513.398 415.568 512 413.659 512ZM414.852 539.256C414.852 540.188 414.136 541.119 413.42 541.585 397.432 550.67 397.432 550.67 397.432 550.67 396.716 550.903 395.284 550.903 394.568 550.67 378.58 541.585 378.58 541.585 378.58 541.585 377.864 541.119 377.148 540.188 377.148 539.256 377.148 515.261 377.148 515.261 377.148 515.261 377.148 514.795 377.625 514.097 378.341 514.097 413.659 514.097 413.659 514.097 413.659 514.097 414.375 514.097 414.852 514.795 414.852 515.261L414.852 539.256Z" fill="#454545" fill-rule="evenodd"/></g></svg>