<svg width="43" height="43" xmlns="http://www.w3.org/2000/svg" xmlns:xlink="http://www.w3.org/1999/xlink" overflow="hidden"><defs><clipPath id="clip0"><rect x="459" y="511" width="43" height="43"/></clipPath></defs><g clip-path="url(#clip0)" transform="translate(-459 -511)"><path d="M471 523.5C471 522.672 471.672 522 472.5 522 473.328 522 474 522.672 474 523.5 474 524.328 473.328 525 472.5 525 471.672 525 471 524.328 471 523.5Z" fill="#454545" fill-rule="evenodd"/><path d="M480.5 517C473.052 517 467 523.052 467 530.5 467 537.948 473.052 544 480.5 544 487.948 544 494 537.948 494 530.5 494 523.052 487.948 517 480.5 517ZM492.836 530.034C490.043 530.034 490.043 530.034 490.043 530.034 489.81 529.103 489.112 528.405 488.181 528.405 487.483 525.147 484.457 522.586 480.966 522.353 480.966 518.164 480.966 518.164 480.966 518.164 487.483 518.397 492.603 523.517 492.836 530.034ZM473.517 530.966C479.336 530.966 479.336 530.966 479.336 530.966 476.078 535.853 476.078 535.853 476.078 535.853 474.681 534.69 473.75 533.06 473.517 530.966ZM485.853 530.034C480.966 530.034 480.966 530.034 480.966 530.034 480.966 523.517 480.966 523.517 480.966 523.517 483.991 523.75 486.319 525.845 487.25 528.405 486.552 528.871 486.086 529.336 485.853 530.034ZM480.034 530.034C473.517 530.034 473.517 530.034 473.517 530.034 473.75 526.543 476.543 523.75 480.034 523.517L480.034 530.034ZM480.034 532.129C480.034 537.483 480.034 537.483 480.034 537.483 478.871 537.483 477.707 537.017 476.776 536.552L480.034 532.129ZM480.034 538.647C480.034 542.836 480.034 542.836 480.034 542.836 477.707 542.836 475.612 542.138 473.75 540.974 476.31 537.483 476.31 537.483 476.31 537.483 477.241 538.181 478.638 538.414 480.034 538.647ZM480.966 530.966C485.853 530.966 485.853 530.966 485.853 530.966 486.086 531.664 486.552 532.362 487.25 532.595 486.319 535.155 483.991 537.25 480.966 537.483L480.966 530.966ZM480.034 518.164C480.034 522.353 480.034 522.353 480.034 522.353 475.845 522.819 472.819 525.845 472.353 530.034 468.164 530.034 468.164 530.034 468.164 530.034 468.397 523.517 473.517 518.397 480.034 518.164ZM468.164 530.966C472.353 530.966 472.353 530.966 472.353 530.966 472.586 533.293 473.75 535.388 475.379 536.784 472.819 540.276 472.819 540.276 472.819 540.276 470.026 538.181 468.397 534.69 468.164 530.966ZM480.966 542.836C480.966 538.647 480.966 538.647 480.966 538.647 484.457 538.414 487.483 535.853 488.181 532.595 489.112 532.595 489.81 531.897 490.043 530.966 492.836 530.966 492.836 530.966 492.836 530.966 492.603 537.483 487.483 542.603 480.966 542.836Z" fill="#454545" fill-rule="evenodd"/><path d="M497.659 512C462.341 512 462.341 512 462.341 512 460.432 512 459 513.398 459 515.261 459 539.256 459 539.256 459 539.256 459 540.886 460.193 542.75 461.386 543.449 477.614 552.534 477.614 552.534 477.614 552.534 478.091 552.767 479.045 553 480 553 480.955 553 481.909 552.767 482.386 552.534 498.614 543.449 498.614 543.449 498.614 543.449 499.807 542.75 501 540.886 501 539.256 501 515.261 501 515.261 501 515.261 501 513.398 499.568 512 497.659 512ZM498.852 539.256C498.852 540.188 498.136 541.119 497.42 541.585 481.432 550.67 481.432 550.67 481.432 550.67 480.716 550.903 479.284 550.903 478.568 550.67 462.58 541.585 462.58 541.585 462.58 541.585 461.864 541.119 461.148 540.188 461.148 539.256 461.148 515.261 461.148 515.261 461.148 515.261 461.148 514.795 461.625 514.097 462.341 514.097 497.659 514.097 497.659 514.097 497.659 514.097 498.375 514.097 498.852 514.795 498.852 515.261L498.852 539.256Z" fill="#454545" fill-rule="evenodd"/></g></svg>