<svg width="46" height="47" xmlns="http://www.w3.org/2000/svg" xmlns:xlink="http://www.w3.org/1999/xlink" overflow="hidden"><defs><clipPath id="clip0"><rect x="915" y="509" width="46" height="47"/></clipPath></defs><g clip-path="url(#clip0)" transform="translate(-915 -509)"><path d="M956.818 537.358C954.727 537.358 953.159 538.636 952.636 540.682 943.75 540.682 943.75 540.682 943.75 540.682 946.625 539.659 948.193 536.08 948.455 532.756 948.455 532.756 948.455 532.756 948.455 532.756 948.455 517.926 948.455 517.926 948.455 517.926 950.284 517.67 951.591 515.881 951.591 514.091 951.591 511.79 949.761 510 947.409 510 945.057 510 943.227 511.79 943.227 514.091 943.227 515.881 944.534 517.67 946.364 517.926 946.364 526.364 946.364 526.364 946.364 526.364 944.534 523.807 941.398 522.017 938 522.017 937.216 522.017 936.432 522.273 935.648 522.273 923.364 522.273 923.364 522.273 923.364 522.273 922.841 520.227 921.273 518.949 919.182 518.949 916.83 518.949 915 520.994 915 523.295 915 525.341 916.83 527.131 919.182 527.131 921.011 527.131 922.58 526.364 923.102 524.318 931.466 524.318 931.466 524.318 931.466 524.318 929.114 526.364 927.545 529.176 927.545 532.244 927.545 532.5 927.545 532.5 927.545 532.756 927.545 532.756 927.545 532.756 927.545 532.756 927.545 546.818 927.545 546.818 927.545 546.818 925.716 547.33 924.409 548.864 924.409 550.909 924.409 553.21 926.239 555 928.591 555 930.943 555 932.773 553.21 932.773 550.909 932.773 548.864 931.466 547.33 929.636 546.818 929.636 538.636 929.636 538.636 929.636 538.636 931.466 540.938 934.08 542.216 937.216 542.472 937.477 542.727 937.739 542.727 938 542.727 952.898 542.727 952.898 542.727 952.898 542.727 953.42 544.773 954.989 545.54 956.818 545.54 959.17 545.54 961 543.75 961 541.449 961 539.403 959.17 537.358 956.818 537.358ZM945.318 514.091C945.318 513.068 946.364 512.045 947.409 512.045 948.455 512.045 949.5 513.068 949.5 514.091 949.5 515.114 948.455 516.136 947.409 516.136 946.364 516.136 945.318 515.114 945.318 514.091ZM919.182 525.341C918.136 525.341 917.091 524.318 917.091 523.295 917.091 522.273 918.136 521.25 919.182 521.25 920.227 521.25 921.273 522.273 921.273 523.295 921.273 524.318 920.227 525.341 919.182 525.341ZM930.682 550.909C930.682 551.932 929.636 552.955 928.591 552.955 927.545 552.955 926.5 551.932 926.5 550.909 926.5 550.398 926.761 549.886 927.023 549.375 927.284 549.119 927.545 549.119 928.068 548.864 928.068 549.119 928.33 549.119 928.591 549.119 928.852 549.119 929.114 549.119 929.114 548.864 930.159 549.119 930.682 549.886 930.682 550.909ZM929.636 532.244C929.636 528.665 932.25 525.341 935.909 524.318 938 524.318 938 524.318 938 524.318 938.261 524.318 938.523 524.318 938.784 524.318 942.966 524.574 946.364 528.153 946.364 532.5 946.364 536.847 942.705 540.682 938 540.682 933.295 540.682 929.636 536.847 929.636 532.244ZM956.818 543.75C955.773 543.75 954.727 542.727 954.727 541.705 954.727 540.682 955.773 539.659 956.818 539.659 957.864 539.659 958.909 540.682 958.909 541.705 958.909 542.727 957.864 543.75 956.818 543.75Z" fill="#454545" fill-rule="evenodd"/></g></svg>