<svg width="57" height="42" xmlns="http://www.w3.org/2000/svg" xmlns:xlink="http://www.w3.org/1999/xlink" overflow="hidden"><defs><clipPath id="clip0"><rect x="143" y="166" width="57" height="42"/></clipPath></defs><g clip-path="url(#clip0)" transform="translate(-143 -166)"><path d="M185.318 177.25C183.409 171.484 177.682 167 171 167 164.318 167 158.591 171.484 156.682 177.25 149.045 178.211 143 184.617 143 192.625 143 201.273 149.682 208 158.273 208 183.727 208 183.727 208 183.727 208 192.318 208 199 201.273 199 192.625 199 184.617 192.955 178.211 185.318 177.25ZM183.727 205.438C158.273 205.438 158.273 205.438 158.273 205.438 151.273 205.438 145.545 199.672 145.545 192.625 145.545 186.219 150.318 180.773 157 179.812 157.955 179.812 158.591 179.172 158.909 178.211 160.818 173.086 165.591 169.562 171 169.562 176.409 169.562 181.182 173.086 183.091 178.211 183.409 179.172 184.045 179.812 185 179.812 191.682 180.773 196.455 186.219 196.455 192.625 196.455 199.672 190.727 205.438 183.727 205.438ZM162.727 199.031C158.591 199.031 158.591 199.031 158.591 199.031 157.636 199.031 157 198.391 157 197.43 157 187.82 157 187.82 157 187.82 157 186.859 157.636 186.219 158.591 186.219 162.727 186.219 162.727 186.219 162.727 186.219 163.045 186.219 163.364 185.898 163.364 185.578 163.364 185.258 163.045 184.938 162.727 184.938 158.591 184.938 158.591 184.938 158.591 184.938 157 184.938 155.727 186.219 155.727 187.82 155.727 197.43 155.727 197.43 155.727 197.43 155.727 199.031 157 200.312 158.591 200.312 162.727 200.312 162.727 200.312 162.727 200.312 163.045 200.312 163.364 199.992 163.364 199.672 163.364 199.352 163.045 199.031 162.727 199.031ZM184.682 184.938C180.545 184.938 180.545 184.938 180.545 184.938 180.227 184.938 179.909 185.258 179.909 185.578 179.909 185.898 180.227 186.219 180.545 186.219 184.682 186.219 184.682 186.219 184.682 186.219 185.636 186.219 186.273 186.859 186.273 187.82 186.273 197.43 186.273 197.43 186.273 197.43 186.273 198.391 185.636 199.031 184.682 199.031 180.545 199.031 180.545 199.031 180.545 199.031 180.227 199.031 179.909 199.352 179.909 199.672 179.909 199.992 180.227 200.312 180.545 200.312 184.682 200.312 184.682 200.312 184.682 200.312 186.273 200.312 187.545 199.031 187.545 197.43 187.545 187.82 187.545 187.82 187.545 187.82 187.545 186.219 186.273 184.938 184.682 184.938ZM160.818 193.266C160.818 193.586 161.136 193.906 161.455 193.906 180.545 193.906 180.545 193.906 180.545 193.906 180.864 193.906 181.182 193.586 181.182 193.266 181.182 192.945 180.864 192.625 180.545 192.625 161.455 192.625 161.455 192.625 161.455 192.625 161.136 192.625 160.818 192.945 160.818 193.266Z" fill="#4B4B4B" fill-rule="evenodd"/></g></svg>