<svg width="48" height="47" xmlns="http://www.w3.org/2000/svg" xmlns:xlink="http://www.w3.org/1999/xlink" overflow="hidden"><defs><clipPath id="clip0"><rect x="761" y="492" width="48" height="47"/></clipPath></defs><g clip-path="url(#clip0)" transform="translate(-761 -492)"><path d="M767.463 513.562C767.463 513.85 767.756 514.138 768.05 514.138 800.95 514.138 800.95 514.138 800.95 514.138 801.244 514.138 801.537 513.85 801.537 513.562 801.537 513.275 801.244 512.987 800.95 512.987 768.05 512.987 768.05 512.987 768.05 512.987 767.756 512.987 767.463 513.275 767.463 513.562ZM788.025 533.688C765.994 533.688 765.994 533.688 765.994 533.688 764.525 533.688 763.35 532.537 763.35 530.812 763.35 499.188 763.35 499.188 763.35 499.188 763.35 497.75 764.819 496.888 765.994 496.888 769.519 496.888 769.519 496.888 769.519 496.888 770.106 498.038 771.281 498.9 772.75 498.9 774.806 498.9 776.275 497.462 776.275 495.737 776.275 493.725 774.806 492 772.75 492 770.987 492 769.519 493.438 769.225 494.587 765.994 494.587 765.994 494.587 765.994 494.587 763.056 494.587 761 496.888 761 499.188 761 530.812 761 530.812 761 530.812 761 533.688 763.056 535.987 765.994 535.987 788.025 535.987 788.025 535.987 788.025 535.987 788.612 535.987 789.2 535.412 789.2 534.838 789.2 534.263 788.612 533.688 788.025 533.688ZM772.75 493.438C773.925 493.438 775.1 494.587 775.1 495.737 775.1 496.888 773.925 498.038 772.75 498.038 771.281 498.038 770.4 496.888 770.4 495.737 770.4 494.587 771.281 493.438 772.75 493.438ZM785.381 510.688C786.556 506.663 787.731 504.938 789.787 504.938 791.256 504.938 792.431 506.663 793.019 510.688 793.019 510.975 793.606 511.263 793.606 511.263 793.9 511.263 793.9 511.263 793.9 511.263 794.194 511.263 794.487 510.975 794.194 510.688 793.606 506.95 792.725 503.788 789.787 503.788 786.556 503.788 785.088 507.525 784.206 510.688 784.206 510.975 784.5 511.263 784.794 511.263 785.088 511.263 785.381 511.263 785.381 510.688ZM803.594 494.587C780.975 494.587 780.975 494.587 780.975 494.587 780.094 494.587 779.8 495.163 779.8 495.737 779.8 496.312 780.094 496.888 780.975 496.888 803.594 496.888 803.594 496.888 803.594 496.888 805.062 496.888 805.65 498.038 805.65 499.188 805.65 530.812 805.65 530.812 805.65 530.812 805.65 532.25 804.769 533.688 803.594 533.688 799.775 533.688 799.775 533.688 799.775 533.688 799.481 532.537 798.013 531.1 796.25 531.1 794.194 531.1 792.725 532.825 792.725 534.838 792.725 536.562 794.194 538 796.25 538 797.719 538 798.894 537.138 799.481 535.987 803.594 535.987 803.594 535.987 803.594 535.987 806.531 535.987 808 533.688 808 530.812 808 499.188 808 499.188 808 499.188 808 496.6 806.237 494.587 803.594 494.587ZM796.25 537.138C794.781 537.138 793.9 535.987 793.9 534.838 793.9 533.688 794.781 532.537 796.25 532.537 797.425 532.537 798.6 533.688 798.6 534.838 798.6 535.987 797.425 537.138 796.25 537.138ZM782.737 516.438C781.856 520.463 779.213 522.475 776.275 521.9 772.75 521.037 771.869 522.475 770.987 523.912 770.4 524.775 769.519 525.638 767.756 526.213 767.463 526.5 767.463 526.787 767.463 527.075 767.463 527.362 767.756 527.362 768.05 527.362 768.05 527.362 768.05 527.362 768.05 527.362 770.4 526.787 771.281 525.638 771.869 524.487 772.75 523.338 773.044 522.475 775.981 523.05 779.506 523.912 782.737 521.325 783.619 516.725 783.912 516.438 783.619 516.15 783.325 515.862 783.031 515.862 782.737 515.862 782.737 516.438ZM800.656 520.463C799.775 520.75 798.894 521.037 798.013 520.463 797.131 519.888 795.956 518.45 795.369 516.15 795.369 515.862 795.075 515.862 794.781 515.862 794.487 515.862 794.194 516.15 794.194 516.438 795.075 519.025 795.956 520.75 797.425 521.325 798.013 521.612 798.6 521.612 799.188 521.612 799.775 521.612 800.362 521.612 800.95 521.325 801.244 521.325 801.537 521.037 801.244 520.75 801.244 520.463 800.95 520.463 800.656 520.463Z" fill="#404040" fill-rule="evenodd"/></g></svg>