<svg width="41" height="48" xmlns="http://www.w3.org/2000/svg" xmlns:xlink="http://www.w3.org/1999/xlink" overflow="hidden"><defs><clipPath id="clip0"><rect x="290" y="153" width="41" height="48"/></clipPath></defs><g clip-path="url(#clip0)" transform="translate(-290 -153)"><path d="M326.323 154C294.677 154 294.677 154 294.677 154 292.62 154 291 155.644 291 157.687 291 197.268 291 197.268 291 197.268 291 199.312 292.62 201 294.677 201 326.323 201 326.323 201 326.323 201 328.337 201 330 199.312 330 197.268 330 157.687 330 157.687 330 157.687 330 155.644 328.337 154 326.323 154ZM327.549 197.268C327.549 197.979 327.024 198.512 326.323 198.512 294.677 198.512 294.677 198.512 294.677 198.512 293.976 198.512 293.451 197.979 293.451 197.268 293.451 157.687 293.451 157.687 293.451 157.687 293.451 157.021 293.976 156.488 294.677 156.488 326.323 156.488 326.323 156.488 326.323 156.488 327.024 156.488 327.549 157.021 327.549 157.687L327.549 197.268Z" fill="#454545" fill-rule="evenodd"/><path d="M324.283 192.786C323.744 192.786 323.744 192.786 323.744 192.786 323.744 173.447 323.744 173.447 323.744 173.447 323.744 172.797 323.161 172.276 322.489 172.276 319.978 172.276 319.978 172.276 319.978 172.276 319.305 172.276 318.722 172.797 318.722 173.447 318.722 192.786 318.722 192.786 318.722 192.786 316.256 192.786 316.256 192.786 316.256 192.786 316.256 180.688 316.256 180.688 316.256 180.688 316.256 180.038 315.673 179.518 315 179.518 312.489 179.518 312.489 179.518 312.489 179.518 311.816 179.518 311.233 180.038 311.233 180.688 311.233 192.786 311.233 192.786 311.233 192.786 308.767 192.786 308.767 192.786 308.767 192.786 308.767 177.089 308.767 177.089 308.767 177.089 308.767 176.439 308.184 175.875 307.511 175.875 305 175.875 305 175.875 305 175.875 304.327 175.875 303.744 176.439 303.744 177.089 303.744 192.786 303.744 192.786 303.744 192.786 301.278 192.786 301.278 192.786 301.278 192.786 301.278 183.117 301.278 183.117 301.278 183.117 301.278 182.466 300.695 181.902 300.022 181.902 297.511 181.902 297.511 181.902 297.511 181.902 296.839 181.902 296.256 182.466 296.256 183.117 296.256 192.786 296.256 192.786 296.256 192.786 295.717 192.786 295.717 192.786 295.717 192.786 295.314 192.786 295 193.046 295 193.393 295 193.74 295.314 194 295.717 194 324.283 194 324.283 194 324.283 194 324.686 194 325 193.74 325 193.393 325 193.046 324.686 192.786 324.283 192.786ZM300.022 192.786C297.511 192.786 297.511 192.786 297.511 192.786 297.511 183.117 297.511 183.117 297.511 183.117 300.022 183.117 300.022 183.117 300.022 183.117L300.022 192.786ZM307.511 192.786C305 192.786 305 192.786 305 192.786 305 177.089 305 177.089 305 177.089 307.511 177.089 307.511 177.089 307.511 177.089L307.511 192.786ZM315 192.786C312.489 192.786 312.489 192.786 312.489 192.786 312.489 180.688 312.489 180.688 312.489 180.688 315 180.688 315 180.688 315 180.688L315 192.786ZM322.489 192.786C319.978 192.786 319.978 192.786 319.978 192.786 319.978 173.447 319.978 173.447 319.978 173.447 322.489 173.447 322.489 173.447 322.489 173.447L322.489 192.786ZM298.767 173.751C299.798 173.751 300.65 172.97 300.65 171.973 300.65 171.843 300.605 171.713 300.605 171.626 305.045 169.111 305.045 169.111 305.045 169.111 305.359 169.371 305.807 169.545 306.256 169.545 306.883 169.545 307.466 169.241 307.825 168.721 311.906 169.718 311.906 169.718 311.906 169.718 311.996 170.629 312.758 171.366 313.744 171.366 314.776 171.366 315.628 170.542 315.628 169.545 315.628 169.328 315.583 169.154 315.493 168.981 320.247 165.339 320.247 165.339 320.247 165.339 320.516 165.512 320.874 165.599 321.233 165.599 322.265 165.599 323.117 164.818 323.117 163.821 323.117 162.824 322.265 162 321.233 162 320.202 162 319.35 162.824 319.35 163.821 319.35 163.995 319.395 164.211 319.484 164.385 314.731 168.027 314.731 168.027 314.731 168.027 314.462 167.854 314.103 167.724 313.744 167.724 313.072 167.724 312.534 168.07 312.175 168.547 308.094 167.55 308.094 167.55 308.094 167.55 308.004 166.64 307.242 165.902 306.256 165.902 305.224 165.902 304.372 166.726 304.372 167.724 304.372 167.854 304.372 167.94 304.417 168.07 299.978 170.585 299.978 170.585 299.978 170.585 299.619 170.325 299.215 170.152 298.767 170.152 297.735 170.152 296.883 170.976 296.883 171.973 296.883 172.97 297.735 173.751 298.767 173.751Z" fill="#454545" fill-rule="evenodd"/></g></svg>