<svg style="" viewBox="0 0 50 50" x="0px" y="0px" xml:space="preserve" xmlns:xlink="http://www.w3.org/1999/xlink" xmlns="http://www.w3.org/2000/svg" version="1.1"><path d="M 31.1 17.1 c -1 -3 -3.8 -5.1 -7.1 -5.1 s -6.1 2.1 -7.1 5.1 C 13.6 17.6 11 20.5 11 24 c 0 3.8 3.2 7 7 7 h 12 c 3.8 0 7 -3.2 7 -7 C 37 20.5 34.4 17.6 31.1 17.1 Z M 30 30 H 18 c -3.3 0 -6 -2.7 -6 -6 c 0 -2.9 2.2 -5.5 5.1 -5.9 c 0.4 -0.1 0.7 -0.3 0.8 -0.7 c 0.9 -2.6 3.4 -4.4 6.2 -4.4 s 5.3 1.8 6.2 4.4 c 0.1 0.4 0.4 0.6 0.8 0.7 c 2.9 0.5 5.1 3 5.1 5.9 C 36 27.3 33.3 30 30 30 Z M 45.7 43.3 l -6.2 -6.2 C 42.9 33.4 45 28.4 45 23 c 0 -11.6 -9.4 -21 -21 -21 S 3 11.4 3 23 s 9.4 21 21 21 c 5.4 0 10.4 -2.1 14.1 -5.5 l 6.2 6.2 c 0.2 0.2 0.5 0.3 0.7 0.3 s 0.5 -0.1 0.7 -0.3 C 46.1 44.3 46.1 43.7 45.7 43.3 Z M 24 42 C 13.5 42 5 33.5 5 23 S 13.5 4 24 4 s 19 8.5 19 19 S 34.5 42 24 42 Z"> </path></svg>
