<svg width="41" height="41" xmlns="http://www.w3.org/2000/svg" xmlns:xlink="http://www.w3.org/1999/xlink" overflow="hidden"><defs><clipPath id="clip0"><rect x="1077" y="329" width="41" height="41"/></clipPath></defs><g clip-path="url(#clip0)" transform="translate(-1077 -329)"><path d="M1099.48 349C1099.22 349 1098.96 349.263 1098.96 349.526 1098.96 349.789 1099.22 350.053 1099.48 350.053 1102.62 350.053 1102.62 350.053 1102.62 350.053 1102.88 350.053 1103.14 349.789 1103.14 349.526 1103.14 349.263 1102.88 349 1102.62 349L1099.48 349ZM1092.16 349C1091.9 349 1091.64 349.263 1091.64 349.526 1091.64 349.789 1091.9 350.053 1092.16 350.053 1095.3 350.053 1095.3 350.053 1095.3 350.053 1095.56 350.053 1095.82 349.789 1095.82 349.526 1095.82 349.263 1095.56 349 1095.3 349L1092.16 349ZM1079.09 338.474C1079.88 338.474 1080.14 337.947 1080.14 337.421 1080.14 332.684 1080.14 332.684 1080.14 332.684 1080.14 331.105 1082.23 331.105 1082.75 331.105 1112.03 331.105 1112.03 331.105 1112.03 331.105 1112.29 331.105 1113.6 331.105 1113.6 332.684 1113.6 337.421 1113.6 337.421 1113.6 337.421 1113.6 337.947 1114.12 338.474 1114.65 338.474 1115.43 338.474 1115.69 337.947 1115.69 337.421 1115.69 332.684 1115.69 332.684 1115.69 332.684 1115.69 330.579 1114.39 329 1112.03 329 1082.75 329 1082.75 329 1082.75 329 1080.14 329 1078.05 330.579 1078.05 332.684 1078.05 337.421 1078.05 337.421 1078.05 337.421 1078.05 337.947 1078.57 338.474 1079.09 338.474ZM1109.42 341.105C1109.42 340.842 1109.16 340.579 1108.9 340.579 1085.89 340.579 1085.89 340.579 1085.89 340.579 1085.63 340.579 1085.37 340.842 1085.37 341.105 1085.37 341.368 1085.63 341.632 1085.89 341.632 1108.9 341.632 1108.9 341.632 1108.9 341.632 1109.16 341.632 1109.42 341.368 1109.42 341.105ZM1084.32 349.526C1084.32 349.789 1084.58 350.053 1084.84 350.053 1087.98 350.053 1087.98 350.053 1087.98 350.053 1088.24 350.053 1088.5 349.789 1088.5 349.526 1088.5 349.263 1088.24 349 1087.98 349 1084.84 349 1084.84 349 1084.84 349 1084.58 349 1084.32 349.263 1084.32 349.526ZM1081.44 356.895C1081.97 356.895 1082.49 356.368 1082.49 355.842 1082.49 355.316 1081.97 354.789 1081.44 354.789 1080.4 354.789 1079.35 353.737 1079.35 352.684 1079.35 344.263 1079.35 344.263 1079.35 344.263 1079.35 343.211 1080.4 342.158 1081.44 342.158 1082.23 342.158 1082.75 341.632 1082.75 341.105 1082.75 340.579 1081.97 340.053 1081.44 340.053 1079.35 340.053 1077.26 341.895 1077.26 344.263 1077.26 352.684 1077.26 352.684 1077.26 352.684 1077 355.053 1079.09 356.895 1081.44 356.895ZM1112.82 340.053C1112.29 340.053 1111.77 340.579 1111.77 341.105 1111.77 341.632 1112.29 342.158 1112.82 342.158 1113.86 342.158 1114.91 343.211 1114.91 344.263 1114.91 352.684 1114.91 352.684 1114.91 352.684 1114.91 353.737 1114.12 354.789 1112.82 354.789 1112.29 354.789 1112.03 355.316 1112.03 355.842 1112.03 356.368 1112.29 356.895 1112.82 356.895 1115.17 356.895 1117 355.053 1117 352.684 1117 344.263 1117 344.263 1117 344.263 1116.74 341.895 1115.17 340.053 1112.82 340.053ZM1085.89 357.421C1092.95 357.421 1092.95 357.421 1092.95 357.421 1097.13 361.632 1097.13 361.632 1097.13 361.632 1097.13 361.632 1097.13 361.632 1097.39 361.632 1097.39 361.632 1097.39 361.632 1097.39 361.632 1097.65 361.632 1097.65 361.632 1097.92 361.632 1101.84 357.421 1101.84 357.421 1101.84 357.421 1108.9 357.421 1108.9 357.421 1108.9 357.421 1109.16 357.421 1109.42 357.158 1109.42 356.895 1109.42 356.632 1109.16 356.368 1108.9 356.368 1101.58 356.368 1101.58 356.368 1101.58 356.368 1101.31 356.368 1101.31 356.368 1101.05 356.368 1097.39 360.316 1097.39 360.316 1097.39 360.316 1093.47 356.368 1093.47 356.368 1093.47 356.368 1093.47 356.368 1093.47 356.368 1093.21 356.368 1085.89 356.368 1085.89 356.368 1085.89 356.368 1085.63 356.368 1085.37 356.632 1085.37 356.895 1085.37 357.158 1085.63 357.421 1085.89 357.421ZM1114.65 359.526C1114.12 359.526 1113.6 360.053 1113.6 360.579 1113.6 364.263 1113.6 364.263 1113.6 364.263 1113.6 365.316 1113.08 366.895 1112.03 366.895 1082.75 366.895 1082.75 366.895 1082.75 366.895 1081.44 366.895 1080.14 365.316 1080.14 364.263 1080.14 360.579 1080.14 360.579 1080.14 360.579 1080.14 360.053 1079.88 359.526 1079.09 359.526 1078.57 359.526 1078.05 360.053 1078.05 360.579 1078.05 364.263 1078.05 364.263 1078.05 364.263 1078.05 366.368 1080.4 369 1082.75 369 1112.03 369 1112.03 369 1112.03 369 1114.39 369 1115.69 366.368 1115.69 364.263 1115.69 360.579 1115.69 360.579 1115.69 360.579 1115.69 360.053 1115.43 359.526 1114.65 359.526ZM1110.46 349.526C1110.46 349.263 1110.2 349 1109.94 349 1106.8 349 1106.8 349 1106.8 349 1106.54 349 1106.28 349.263 1106.28 349.526 1106.28 349.789 1106.54 350.053 1106.8 350.053 1109.94 350.053 1109.94 350.053 1109.94 350.053 1110.2 350.053 1110.46 349.789 1110.46 349.526Z" fill="#404040" fill-rule="evenodd"/></g></svg>