<svg xmlns="http://www.w3.org/2000/svg" viewBox="0 0 42 46.01"><title>DAS</title><path d="M28.29,42.86a1.25,1.25,0,0,1-.94-.52,1.06,1.06,0,0,1,.39-1.46l0,0,9.43-5.45a5.4,5.4,0,0,0,2.62-4.5V15.19a5.29,5.29,0,0,0-2.62-4.5L23.58,2.86a5.17,5.17,0,0,0-5.24,0L4.72,10.69a5,5,0,0,0-2.62,4.4V30.8a5.28,5.28,0,0,0,2.62,4.51l9.43,5.45a1.08,1.08,0,0,1-.9,2l-.15-.08L3.67,37.2A7.25,7.25,0,0,1,0,30.91V15.19A7.39,7.39,0,0,1,3.67,8.8L17.29.94a7.6,7.6,0,0,1,7.34,0L38.25,8.8A7.26,7.26,0,0,1,42,15.19V30.91a7.4,7.4,0,0,1-3.67,6.39l-9.43,5.45C28.61,42.75,28.5,42.86,28.29,42.86ZM21.48,46h-1a2.59,2.59,0,0,1-2.62-2.58V27.66a8.93,8.93,0,0,1-6.29-8.38,9,9,0,0,1,4.71-7.76,1,1,0,0,1,1,0,1.11,1.11,0,0,1,.53,1v5.24a1.51,1.51,0,0,0,1.57,1.46h3.14a1.51,1.51,0,0,0,1.57-1.46V12.47a1.11,1.11,0,0,1,.53-1,1,1,0,0,1,1,0,8.78,8.78,0,0,1,4.71,7.76A8.93,8.93,0,0,1,24,27.66V43.38A2.6,2.6,0,0,1,21.48,46ZM16.77,12.57a7.67,7.67,0,0,0-4.19,6.81,8,8,0,0,0,5.87,7.55.68.68,0,0,1,.41.52v16A1.61,1.61,0,0,0,20.44,45h1A1.61,1.61,0,0,0,23,43.45V27.35a.55.55,0,0,1,.41-.53,7.89,7.89,0,0,0,5.87-7.54,7.76,7.76,0,0,0-4.19-6.81v5.39a2.58,2.58,0,0,1-2.62,2.52h-3.1a2.58,2.58,0,0,1-2.62-2.52Z" transform="translate(0.04 0)"></path></svg>
