<svg width="47" height="51" xmlns="http://www.w3.org/2000/svg" xmlns:xlink="http://www.w3.org/1999/xlink" overflow="hidden"><defs><clipPath id="clip0"><rect x="129" y="151" width="47" height="51"/></clipPath></defs><g clip-path="url(#clip0)" transform="translate(-129 -151)"><path d="M171.344 161.466C156.156 152.835 156.156 152.835 156.156 152.835 155.312 152.278 153.906 152 152.5 152 151.375 152 149.969 152.278 148.844 152.835 133.656 161.466 133.656 161.466 133.656 161.466 131.688 162.58 130 165.364 130 167.869 130 185.131 130 185.131 130 185.131 130 187.636 131.688 190.142 133.656 191.534 148.844 200.165 148.844 200.165 148.844 200.165 149.969 200.722 151.375 201 152.5 201 153.906 201 155.312 200.722 156.156 200.165 171.344 191.534 171.344 191.534 171.344 191.534 173.594 190.142 175 187.636 175 185.131 175 167.869 175 167.869 175 167.869 175 165.364 173.594 162.58 171.344 161.466ZM172.75 185.131C172.75 186.801 171.625 188.75 170.219 189.585 155.031 198.216 155.031 198.216 155.031 198.216 154.469 198.494 153.625 198.773 152.5 198.773 151.656 198.773 150.812 198.494 149.969 198.216 134.781 189.585 134.781 189.585 134.781 189.585 133.656 188.75 132.25 186.801 132.25 185.131 132.25 167.869 132.25 167.869 132.25 167.869 132.25 166.199 133.656 164.25 134.781 163.415 149.969 154.784 149.969 154.784 149.969 154.784 150.812 154.506 151.656 154.227 152.5 154.227 153.625 154.227 154.469 154.506 155.031 154.784 170.219 163.415 170.219 163.415 170.219 163.415 171.625 164.25 172.75 166.199 172.75 167.869L172.75 185.131ZM159.812 169.261C158.688 166.477 155.875 164.25 152.5 164.25 149.125 164.25 146.312 166.477 145.469 169.261 141.531 169.818 138.438 172.881 138.438 176.778 138.438 180.955 142.094 184.295 146.312 184.295 158.969 184.295 158.969 184.295 158.969 184.295 163.188 184.295 166.562 180.955 166.562 176.778 166.562 172.881 163.75 169.818 159.812 169.261ZM158.969 183.182C146.312 183.182 146.312 183.182 146.312 183.182 142.656 183.182 139.562 180.398 139.562 176.778 139.562 173.438 142.094 170.653 145.469 170.375 146.312 170.375 146.312 170.375 146.312 170.375 146.312 169.54 146.312 169.54 146.312 169.54 147.438 167.034 149.969 165.364 152.5 165.364 155.312 165.364 157.844 167.034 158.688 169.54 158.969 170.375 158.969 170.375 158.969 170.375 159.812 170.375 159.812 170.375 159.812 170.375 163.188 170.653 165.438 173.438 165.438 176.778 165.438 180.398 162.625 183.182 158.969 183.182Z" fill="#404040" fill-rule="evenodd"/></g></svg>