<svg version="1.1" id="图层_1" xmlns="http://www.w3.org/2000/svg" xmlns:xlink="http://www.w3.org/1999/xlink" x="0px" y="0px" viewBox="0 0 44 44" style="enable-background:new 0 0 44 44;" xml:space="preserve" width="132px" height="132px">
<g>
	<path d="M28.5,21.3c0.3,0,0.5-0.2,0.5-0.5v-9.5c0-2.2,1.8-4,4-4c0,0,0,0,0.1,0c0.2,0.9,1,1.5,1.9,1.5c1.1,0,2-0.9,2-2&#10;&#9;&#9;c0-1.1-0.9-2-2-2c-0.9,0-1.7,0.6-1.9,1.5c0,0,0,0-0.1,0c-2.8,0-5,2.2-5,5v9.5C28,21.1,28.2,21.3,28.5,21.3z M35,5.8&#10;&#9;&#9;c0.6,0,1,0.4,1,1c0,0.6-0.4,1-1,1s-1-0.4-1-1C34,6.3,34.4,5.8,35,5.8z"/>
	<path d="M16,34.8v-5c0-0.3-0.2-0.5-0.5-0.5S15,29.5,15,29.8v5c0,0.3,0.2,0.5,0.5,0.5S16,35,16,34.8z"/>
	<path d="M29,34.8v-5c0-0.3-0.2-0.5-0.5-0.5S28,29.5,28,29.8v5c0,0.3,0.2,0.5,0.5,0.5S29,35,29,34.8z"/>
	<path d="M22.5,37.5v-5c0-0.3-0.2-0.5-0.5-0.5s-0.5,0.2-0.5,0.5v5c0,0.3,0.2,0.5,0.5,0.5S22.5,37.7,22.5,37.5z"/>
	<path d="M21.5,7.9v15.5c0,0.3,0.2,0.5,0.5,0.5s0.5-0.2,0.5-0.5V7.9c1.1-0.2,2-1.2,2-2.4C24.5,4.1,23.4,3,22,3s-2.5,1.1-2.5,2.5&#10;&#9;&#9;C19.5,6.7,20.4,7.7,21.5,7.9z M22,4c0.8,0,1.5,0.7,1.5,1.5S22.8,7,22,7s-1.5-0.7-1.5-1.5S21.2,4,22,4z"/>
	<path d="M9.5,8.8c0.9,0,1.7-0.6,1.9-1.5c2,0.2,3.6,1.9,3.6,4v9.5c0,0.3,0.2,0.5,0.5,0.5s0.5-0.2,0.5-0.5v-9.5c0-2.6-2-4.7-4.6-5&#10;&#9;&#9;c-0.2-0.9-1-1.5-1.9-1.5c-1.1,0-2,0.9-2,2C7.5,7.9,8.4,8.8,9.5,8.8z M9.5,5.8c0.6,0,1,0.4,1,1c0,0.6-0.4,1-1,1s-1-0.4-1-1&#10;&#9;&#9;C8.5,6.3,8.9,5.8,9.5,5.8z"/>
	<path d="M39,17.3l-6.3-3.7l0,0c-0.2-0.1-0.4-0.2-0.6-0.2c-0.6,0-1,0.4-1,1c0,0.4,0.2,0.6,0.5,0.8l0,0l5.9,3.5l-14,8.2&#10;&#9;&#9;c-0.7,0.4-2.1,0.4-2.8,0l-14-8.2l5.7-3.3l0,0c0.3-0.2,0.5-0.5,0.5-0.8c0-0.6-0.4-1-1-1c-0.2,0-0.4,0.1-0.6,0.2l0,0L5,17.3&#10;&#9;&#9;c-1.3,0.8-1.3,2.1,0,2.8l14.6,8.5c1.3,0.8,3.5,0.8,4.9,0L39,20.2C40.3,19.4,40.3,18.1,39,17.3z"/>
	<path d="M31.5,31.1C31.4,31,31.3,31,31.2,31c-0.3,0-0.5,0.2-0.5,0.5c0,0.2,0.1,0.3,0.2,0.4c1.3,1,2.1,2.1,2.1,3.3&#10;&#9;&#9;c0,3.1-4.9,5.8-11,5.8s-11-2.7-11-5.8c0-1.2,0.8-2.4,2.1-3.3c0.1-0.1,0.2-0.2,0.2-0.4c0-0.3-0.2-0.5-0.5-0.5c-0.1,0-0.2,0-0.3,0.1&#10;&#9;&#9;c-1.6,1.1-2.5,2.6-2.5,4.1C10,39,15.4,42,22,42s12-3,12-6.8C34,33.7,33.1,32.2,31.5,31.1z"/>
</g>
</svg>