<svg width="44" height="50" xmlns="http://www.w3.org/2000/svg" xmlns:xlink="http://www.w3.org/1999/xlink" overflow="hidden"><defs><clipPath id="clip0"><rect x="599" y="157" width="44" height="50"/></clipPath></defs><g clip-path="url(#clip0)" transform="translate(-599 -157)"><path d="M632.382 173.349C627.855 172.512 623.895 170.279 621.632 168.326 621.349 168.047 620.783 168.047 620.5 168.047 620.217 168.047 619.934 168.047 619.651 168.326 617.388 170.279 613.145 172.512 608.901 173.349 608.336 173.349 607.487 174.744 607.77 175.302 607.77 175.86 607.77 176.14 607.77 176.698 608.053 179.767 608.618 184.791 611.447 188.698 613.711 191.488 617.105 194.279 619.934 195.953 620.217 195.953 620.5 195.953 620.5 195.953 620.783 195.953 621.066 195.953 621.066 195.953 623.895 194.558 627.289 191.488 629.553 188.698 632.664 184.791 633.23 180.047 633.513 176.977 633.513 176.419 633.513 175.86 633.513 175.302 633.513 174.744 632.947 173.349 632.382 173.349ZM632.099 176.977C631.816 180.047 631.533 184.233 628.704 187.86 626.441 190.651 623.046 193.442 620.5 194.837 620.5 194.837 620.5 194.837 620.5 194.837 620.5 194.837 620.5 194.837 620.5 194.837 617.671 193.442 614.276 190.651 612.296 187.86 609.75 184.233 609.184 179.767 608.901 176.698 608.618 176.14 608.618 175.581 608.618 175.302 608.618 175.023 608.901 174.744 608.901 174.465 613.711 173.628 617.954 171.116 620.217 169.163 620.217 169.163 620.783 169.163 620.783 169.163 622.763 171.116 627.007 173.349 632.099 174.465 632.099 174.744 632.382 175.023 632.382 175.302 632.382 175.581 632.382 176.14 632.099 176.977ZM628.138 176.419C625.309 175.86 622.763 174.465 621.349 173.349 621.066 173.07 620.783 173.07 620.5 173.07 620.217 173.07 619.934 173.07 619.651 173.349 618.237 174.465 615.691 175.86 612.862 176.419 612.579 176.419 612.013 177.256 612.013 177.814 612.013 178.093 612.013 178.372 612.013 178.651 612.296 180.605 612.579 183.674 614.559 186.186 615.974 187.86 618.237 189.814 619.934 190.93 620.217 190.93 620.217 190.93 620.5 190.93 620.783 190.93 621.066 190.93 621.066 190.93 622.763 189.814 625.026 188.14 626.441 186.186 628.421 183.674 628.704 180.884 628.704 178.93 628.704 178.372 628.987 178.093 628.987 177.814 628.987 177.256 628.421 176.419 628.138 176.419ZM627.855 178.651C627.572 180.605 627.289 183.395 625.592 185.628 624.178 187.302 622.197 188.977 620.5 189.814 620.5 189.814 620.5 189.814 620.5 189.814 620.5 189.814 620.5 189.814 620.5 189.814 618.803 188.977 616.822 187.302 615.408 185.628 613.711 183.395 613.428 180.605 613.428 178.651 613.428 178.372 613.145 178.093 613.145 177.814 613.145 177.535 613.428 177.535 613.428 177.535 616.539 176.698 619.086 175.302 620.5 174.186 620.5 174.186 620.5 174.186 620.783 174.186 622.197 175.302 624.743 176.698 627.855 177.535 627.855 177.535 627.855 177.535 627.855 177.535 627.855 178.093 627.855 178.372 627.855 178.651ZM639.454 168.047C623.046 158.558 623.046 158.558 623.046 158.558 621.632 158 619.368 158 617.954 158.558 601.546 168.047 601.546 168.047 601.546 168.047 600.132 168.605 599 170.558 599 172.233 599 191.767 599 191.767 599 191.767 599 193.442 600.132 195.116 601.546 195.953 617.954 205.442 617.954 205.442 617.954 205.442 618.52 205.721 619.368 206 620.5 206 621.349 206 622.197 205.721 622.763 205.442 639.171 195.953 639.171 195.953 639.171 195.953 640.868 195.395 641.717 193.442 641.717 191.767 641.717 172.233 641.717 172.233 641.717 172.233 642 170.558 640.868 168.605 639.454 168.047ZM639.737 191.767C639.737 192.605 639.171 193.721 638.322 194 621.914 203.209 621.914 203.209 621.914 203.209 621.349 203.767 619.934 203.767 619.086 203.209 602.678 194.279 602.678 194.279 602.678 194.279 601.829 193.721 601.263 192.605 601.263 191.767 601.263 172.233 601.263 172.233 601.263 172.233 601.263 171.395 601.829 170.279 602.678 169.721 619.086 160.512 619.086 160.512 619.086 160.512 619.368 160.233 619.934 160.233 620.5 160.233 620.783 160.233 621.349 160.233 621.632 160.512 638.039 169.721 638.039 169.721 638.039 169.721 638.888 170.279 639.454 171.395 639.454 172.233 639.454 191.767 639.454 191.767 639.454 191.767L639.737 191.767Z" fill="#454545" fill-rule="evenodd"/></g></svg>