<svg version="1.1" id="图层_1" xmlns="http://www.w3.org/2000/svg" xmlns:xlink="http://www.w3.org/1999/xlink" x="0px" y="0px" viewBox="0 0 48 48" style="enable-background:new 0 0 48 48;" xml:space="preserve" width="132px" height="132px">
<style type="text/css">
	.st0{fill:#060001;}
	.st1{fill:#040000;}
	.st2{fill:none;stroke:#000000;stroke-miterlimit:10;}
	.st3{fill:#221815;}
	.st4{fill:#080102;}
	.st5{fill:none;stroke:#000000;stroke-width:2;stroke-linecap:round;stroke-linejoin:round;stroke-miterlimit:10;}
	.st6{fill:#070001;}
</style>
<path d="M45.4,16L37.6,3.9c-0.7-1.2-2-1.9-3.5-1.9H20.2c-1.4,0-2.9,0.8-3.6,2L2.5,27.9c-0.7,1.3-0.7,2.9,0.1,4.1l7.8,12.1&#10;&#9;c0.7,1.2,2,1.9,3.5,1.9h13.9c1.4,0,2.9-0.8,3.6-2l14.1-23.9C46.2,18.8,46.2,17.2,45.4,16z M29.6,43c-0.4,0.6-1,1-1.7,1h-14&#10;&#9;c-0.7,0-1.3-0.4-1.7-0.9L4.4,31c-0.4-0.6-0.4-1.4,0-2.1l5.6-9.6c0.1,0.5,0.3,1,0.5,1.5L17.6,32c0.7,1.2,2,1.9,3.6,1.9c0,0,0,0,0.1,0&#10;&#9;l12.7-0.2c0.5,0,1-0.1,1.4-0.3L29.6,43z M36.6,30.7l-0.2,0.4c-0.5,0.9-1.5,1.6-2.7,1.6L21,32.9h-0.1c-1.1,0-2-0.6-2.7-1.5l-7-11.2&#10;&#9;c-0.6-0.9-0.6-2-0.1-3l0.2-0.4c0.5-0.9,1.5-1.6,2.7-1.6L26.8,15h0.1c1.1,0,2,0.6,2.7,1.5l7,11.2C37.1,28.7,37.2,29.8,36.6,30.7z&#10;&#9; M43.6,19.1L38,28.7c-0.1-0.5-0.3-1-0.5-1.5L30.4,16c-0.7-1.2-2-1.9-3.6-1.9c0,0,0,0-0.1,0l-12.7,0.2c-0.5,0-1,0.1-1.4,0.3L18.4,5&#10;&#9;c0.4-0.6,1-1,1.7-1H34c0.7,0,1.3,0.4,1.7,0.9L43.6,17C44,17.7,44,18.4,43.6,19.1z"/>
</svg>