<svg version="1.1" id="图层_1" xmlns="http://www.w3.org/2000/svg" xmlns:xlink="http://www.w3.org/1999/xlink" x="0px" y="0px" viewBox="0 0 48 48" style="enable-background:new 0 0 48 48;" xml:space="preserve" width="132px" height="132px">
<style type="text/css">
	.st0{fill:#454545;}
	.st1{fill:#454545;}
	.st2{fill:#454545;}
	.st3{fill:#454545;}
	.st4{fill:#454545;}
</style>
<path class="st3" d="M20.4,17.6l3.2,1.8c0.1,0.1,0.3,0.1,0.4,0.1c0.2,0,0.3,0,0.4-0.1l3.2-1.8c0.3-0.1,0.4-0.5,0.4-0.7v-3.7&#10;&#9;c0-0.3-0.2-0.6-0.4-0.7l-3.2-1.8c-0.2-0.1-0.6-0.1-0.8,0l-3.2,1.8c-0.3,0.1-0.4,0.5-0.4,0.7v3.7C20,17.2,20.2,17.5,20.4,17.6z&#10;&#9; M21,13.3l3-1.8l3,1.8v3.5l-3,1.8l-3-1.8V13.3z M14.9,28.3h-2.8c-1.2,0-2.1,1-2.1,2.1v2.9c0,1.2,0.9,2.1,2.1,2.1h2.8&#10;&#9;c1.2,0,2.1-1,2.1-2.1v-2.9C17,29.3,16.1,28.3,14.9,28.3z M16,33.4L16,33.4c0,0.6-0.5,1.1-1.1,1.1h-2.8c-0.6,0-1.1-0.5-1.1-1.1v-2.9&#10;&#9;c0-0.6,0.5-1.1,1.1-1.1h2.8c0.6,0,1.1,0.5,1.1,1.1V33.4z M24,20.7c-0.3,0-0.5,0.2-0.5,0.5v5.7c0,0.3,0.2,0.5,0.5,0.5&#10;&#9;s0.5-0.2,0.5-0.5v-5.7C24.5,20.9,24.3,20.7,24,20.7z M41.6,11L26.3,2.5c-1.3-0.7-3.4-0.7-4.7,0L6.4,11C5,11.8,4,13.5,4,15v18&#10;&#9;c0,1.5,1,3.2,2.4,4l15.3,8.5c0.6,0.4,1.5,0.6,2.3,0.6s1.7-0.2,2.3-0.6l15.3-8.5c1.3-0.7,2.4-2.5,2.4-4V15C44,13.5,43,11.8,41.6,11z&#10;&#9; M41.9,33c0,0.8-0.6,1.8-1.3,2.2l-15.3,8.5c-0.7,0.4-2,0.4-2.6,0L7.4,35.2c-0.7-0.4-1.3-1.4-1.3-2.2V15c0-0.8,0.6-1.8,1.3-2.2&#10;&#9;l15.3-8.5C23,4.1,23.5,4,24,4s1,0.1,1.3,0.3l15.3,8.5c0.7,0.4,1.3,1.4,1.3,2.2V33z M35.9,28.3h-2.8c-1.2,0-2.1,1-2.1,2.1v2.9&#10;&#9;c0,1.2,0.9,2.1,2.1,2.1h2.8c1.2,0,2.1-1,2.1-2.1v-2.9C38,29.3,37.1,28.3,35.9,28.3z M37,33.4c0,0.6-0.5,1.1-1.1,1.1h-2.8&#10;&#9;c-0.6,0-1.1-0.5-1.1-1.1v-2.9c0-0.6,0.5-1.1,1.1-1.1h2.8c0.6,0,1.1,0.5,1.1,1.1V33.4z M34.5,27.3c0.1,0,0.2,0,0.2-0.1&#10;&#9;c0.2-0.1,0.3-0.5,0.2-0.7c-0.1-0.2-2.5-4.5-6.7-6.8c-0.2-0.1-0.5,0-0.7,0.2c-0.1,0.2,0,0.6,0.2,0.7c3.9,2.2,6.3,6.4,6.3,6.5&#10;&#9;C34.2,27.2,34.3,27.3,34.5,27.3z M25.4,28.3h-2.8c-1.2,0-2.1,1-2.1,2.1v2.9c0,1.2,0.9,2.1,2.1,2.1h2.8c1.2,0,2.1-1,2.1-2.1v-2.9&#10;&#9;C27.5,29.3,26.6,28.3,25.4,28.3z M26.5,33.4L26.5,33.4c0,0.6-0.5,1.1-1.1,1.1h-2.8c-0.6,0-1.1-0.5-1.1-1.1v-2.9&#10;&#9;c0-0.6,0.5-1.1,1.1-1.1h2.8c0.6,0,1.1,0.5,1.1,1.1V33.4z M19.8,19.7c-4.1,2.3-6.6,6.7-6.7,6.8c-0.1,0.2-0.1,0.6,0.2,0.7&#10;&#9;c0.1,0,0.2,0.1,0.2,0.1c0.2,0,0.3-0.1,0.4-0.3c0,0,2.4-4.3,6.3-6.5c0.2-0.1,0.3-0.4,0.2-0.7C20.3,19.7,20,19.6,19.8,19.7z"/>
</svg>