<svg width="46" height="46" xmlns="http://www.w3.org/2000/svg" xmlns:xlink="http://www.w3.org/1999/xlink" overflow="hidden"><defs><clipPath id="clip0"><rect x="987" y="497" width="46" height="46"/></clipPath></defs><g clip-path="url(#clip0)" transform="translate(-987 -497)"><path d="M1028.91 532C1028.91 508 1028.91 508 1028.91 508 1028.91 506.298 1027.58 505 1025.84 505 995.159 505 995.159 505 995.159 505 993.418 505 992.091 506.298 992.091 508 992.091 532 992.091 532 992.091 532 992.091 533.702 993.418 535 995.159 535 1025.84 535 1025.84 535 1025.84 535 1027.58 535 1028.91 533.702 1028.91 532ZM994.136 508C994.136 507.405 994.55 507 995.159 507 1025.84 507 1025.84 507 1025.84 507 1026.45 507 1026.86 507.405 1026.86 508 1026.86 516.095 1026.86 516.095 1026.86 516.095 1022.98 512.405 1022.98 512.405 1022.98 512.405 1022.87 512.298 1022.77 512.202 1022.57 512.298 1022.47 512.298 1022.26 512.405 1022.16 512.5 1008.76 527.298 1008.76 527.298 1008.76 527.298 1000.88 521.298 1000.88 521.298 1000.88 521.298 1000.69 521.095 1000.37 521.202 1000.18 521.298 994.136 527.5 994.136 527.5 994.136 527.5L994.136 508ZM994.136 532C994.136 528.905 994.136 528.905 994.136 528.905 1000.58 522.298 1000.58 522.298 1000.58 522.298 1008.45 528.298 1008.45 528.298 1008.45 528.298 1008.66 528.5 1008.97 528.405 1009.17 528.202 1022.68 513.405 1022.68 513.405 1022.68 513.405 1026.86 517.405 1026.86 517.405 1026.86 517.405 1026.86 532 1026.86 532 1026.86 532 1026.86 532.595 1026.45 533 1025.84 533 995.159 533 995.159 533 995.159 533 994.55 533 994.136 532.595 994.136 532ZM993.625 539C993.211 539 992.907 539.095 992.602 539.405 990.045 537.595 990.045 537.595 990.045 537.595 989.327 537.095 989.023 536.405 989.023 535.595 989.023 504.5 989.023 504.5 989.023 504.5 989.023 503.702 989.437 503 990.045 502.5 992.602 500.595 992.602 500.595 992.602 500.595 992.907 500.905 993.211 501 993.625 501 994.441 501 995.159 500.298 995.159 499.5 995.159 498.702 994.441 498 993.625 498 992.809 498 992.091 498.702 992.091 499.5 992.091 499.595 992.091 499.702 992.091 499.702 989.437 501.702 989.437 501.702 989.437 501.702 988.511 502.405 988 503.405 988 504.5 988 535.595 988 535.595 988 535.595 988 536.702 988.511 537.798 989.534 538.405 992.091 540.298 992.091 540.298 992.091 540.298 992.091 540.405 992.091 540.405 992.091 540.5 992.091 541.298 992.809 542 993.625 542 994.441 542 995.159 541.298 995.159 540.5 995.159 539.702 994.441 539 993.625 539ZM1031.47 501.595C1028.91 499.702 1028.91 499.702 1028.91 499.702 1028.91 499.595 1028.91 499.595 1028.91 499.5 1028.91 498.702 1028.19 498 1027.38 498 1026.56 498 1025.84 498.702 1025.84 499.5 1025.84 500.298 1026.56 501 1027.38 501 1027.79 501 1028.09 500.905 1028.4 500.595 1030.95 502.405 1030.95 502.405 1030.95 502.405 1031.67 502.905 1031.98 503.595 1031.98 504.405 1031.98 535.5 1031.98 535.5 1031.98 535.5 1031.98 536.298 1031.56 537 1030.95 537.5 1028.4 539.405 1028.4 539.405 1028.4 539.405 1028.09 539.202 1027.79 539 1027.38 539 1026.56 539 1025.84 539.702 1025.84 540.5 1025.84 541.298 1026.56 542 1027.38 542 1028.19 542 1028.91 541.298 1028.91 540.5 1028.91 540.405 1028.91 540.298 1028.91 540.298 1031.56 538.298 1031.56 538.298 1031.56 538.298 1032.49 537.595 1033 536.595 1033 535.5 1033 504.405 1033 504.405 1033 504.405 1033 503.298 1032.49 502.202 1031.47 501.595ZM1003.34 519.095C1005.29 519.095 1006.92 517.5 1006.92 515.595 1006.92 513.702 1005.29 512.095 1003.34 512.095 1001.39 512.095 999.761 513.702 999.761 515.595 999.761 517.5 1001.3 519.095 1003.34 519.095ZM1003.34 513.095C1004.78 513.095 1005.9 514.202 1005.9 515.595 1005.9 517 1004.78 518.095 1003.34 518.095 1001.9 518.095 1000.78 517 1000.78 515.595 1000.78 514.202 1001.9 513.095 1003.34 513.095Z" fill="#454545" fill-rule="evenodd"/></g></svg>