<svg width="53" height="39" xmlns="http://www.w3.org/2000/svg" xmlns:xlink="http://www.w3.org/1999/xlink" overflow="hidden"><defs><clipPath id="clip0"><rect x="961" y="168" width="53" height="39"/></clipPath></defs><g clip-path="url(#clip0)" transform="translate(-961 -168)"><path d="M1014 189.523C1014 189.523 1014 189.523 1014 189.234 1014 189.234 1014 189.234 1014 188.945 1014 188.945 1014 188.945 1014 188.945 1014 188.945 1014 188.945 1014 188.945 1014 188.945 1014 188.945 1014 188.945 1012.82 183.164 1007.8 178.828 1001.89 177.961 999.523 172.469 994.205 169 988.295 169 982.091 169 976.773 172.469 974.409 177.961 967.318 179.117 962 184.898 962 191.836 962 199.641 968.795 206 976.773 206 992.727 206 992.727 206 992.727 206 992.727 206 993.023 206 993.023 206 993.023 206 993.318 206 993.318 206 993.614 206 993.909 206 994.205 205.711 1013.7 190.102 1013.7 190.102 1013.7 190.102 1013.7 190.102 1013.7 190.102 1013.7 189.812 1013.7 189.812 1013.7 189.812 1014 189.812 1014 189.523 1014 189.523 1014 189.523ZM964.364 191.836C964.364 185.766 969.091 180.852 975.591 179.984 975.886 179.984 976.182 179.695 976.477 179.406 978.25 174.492 982.977 171.312 988.295 171.312 993.614 171.312 998.341 174.492 999.818 179.406 1000.11 179.695 1000.41 179.984 1001 179.984 1006.02 180.562 1009.86 184.031 1011.34 188.367 1006.02 188.367 1006.02 188.367 1006.02 188.367 998.045 188.367 992.136 194.727 992.136 202.82 992.136 203.109 992.136 203.398 992.136 203.688 976.773 203.688 976.773 203.688 976.773 203.688 969.977 203.688 964.364 198.484 964.364 191.836ZM993.318 203.398C993.318 203.109 993.318 203.109 993.318 202.82 993.318 195.305 998.636 189.523 1006.02 189.523 1010.45 189.523 1010.45 189.523 1010.45 189.523L993.318 203.398Z" fill="#454545" fill-rule="evenodd"/></g></svg>