<svg width="58" height="42" xmlns="http://www.w3.org/2000/svg" xmlns:xlink="http://www.w3.org/1999/xlink" overflow="hidden"><defs><clipPath id="clip0"><rect x="995" y="333" width="58" height="42"/></clipPath></defs><g clip-path="url(#clip0)" transform="translate(-995 -333)"><path d="M1052 358.625C1052 350.617 1045.85 344.211 1038.07 343.25 1035.81 337.484 1030.3 333 1023.5 333 1016.7 333 1010.87 337.484 1008.6 343.25 1000.83 344.211 995 350.617 995 358.625 995 367.273 1001.8 374 1010.55 374 1028.03 374 1028.03 374 1028.03 374 1028.03 374 1028.03 374 1028.03 374 1036.45 374 1036.45 374 1036.45 374 1036.45 374 1036.45 374 1036.45 374 1044.88 374 1052 367.273 1052 358.625ZM1036.45 371.438C1010.55 371.438 1010.55 371.438 1010.55 371.438 1005.36 371.438 1000.83 368.555 998.886 364.391 1020.91 364.391 1020.91 364.391 1020.91 364.391 1020.91 364.391 1021.23 364.391 1021.23 364.391 1021.23 364.391 1021.23 364.391 1021.23 364.391 1021.23 364.391 1021.23 364.391 1021.23 364.391 1021.23 364.391 1021.23 364.391 1021.23 364.391 1021.23 364.391 1021.23 364.391 1021.23 364.391 1032.89 353.18 1032.89 353.18 1032.89 353.18 1032.89 359.906 1032.89 359.906 1032.89 359.906 1032.89 360.227 1032.89 360.547 1033.54 360.547 1033.86 360.547 1034.19 360.227 1034.19 359.906 1034.19 351.898 1034.19 351.898 1034.19 351.898 1034.19 351.898 1034.19 351.578 1034.19 351.578 1033.86 351.578 1033.86 351.578 1033.86 351.578 1033.86 351.578 1033.86 351.578 1033.86 351.258 1033.86 351.258 1033.86 351.258 1033.86 351.258 1033.86 351.258 1033.86 351.258 1033.86 351.258 1033.86 351.258 1033.86 351.258 1033.54 351.258 1033.54 351.258 1033.54 351.258 1033.54 351.258 1033.54 351.258 1033.54 351.258 1033.54 351.258 1025.77 351.258 1025.77 351.258 1025.77 351.258 1025.12 351.258 1025.12 351.578 1025.12 351.898 1025.12 352.219 1025.12 352.539 1025.77 352.539 1031.92 352.539 1031.92 352.539 1031.92 352.539 1020.59 363.109 1020.59 363.109 1020.59 363.109 998.239 363.109 998.239 363.109 998.239 363.109 997.915 361.828 997.591 360.227 997.591 358.625 997.591 357.664 997.591 356.383 997.915 355.422 1017.35 355.422 1017.35 355.422 1017.35 355.422 1017.67 355.422 1017.99 355.102 1017.99 354.781 1017.99 354.461 1017.67 354.141 1017.35 354.141 998.239 354.141 998.239 354.141 998.239 354.141 999.858 349.656 1004.07 346.453 1008.93 345.812 1009.9 345.812 1010.87 345.172 1011.19 344.211 1012.81 339.086 1017.99 335.562 1023.5 335.562 1029.01 335.562 1033.86 339.086 1035.48 344.211 1035.81 345.172 1036.78 345.812 1037.75 345.812 1044.23 346.773 1049.41 352.219 1049.41 358.625 1049.41 365.672 1043.58 371.438 1036.45 371.438Z" fill="#484848" fill-rule="evenodd"/></g></svg>