<svg width="33" height="45" xmlns="http://www.w3.org/2000/svg" xmlns:xlink="http://www.w3.org/1999/xlink" overflow="hidden"><defs><clipPath id="clip0"><rect x="325" y="503" width="33" height="45"/></clipPath></defs><g clip-path="url(#clip0)" transform="translate(-325 -503)"><path d="M348.5 533C333.5 533 333.5 533 333.5 533 333.202 533 333 533.202 333 533.5 333 533.798 333.202 534 333.5 534 348.5 534 348.5 534 348.5 534 348.798 534 349 533.798 349 533.5 349 533.202 348.798 533 348.5 533ZM351.298 520.095C346.202 522.905 346.202 522.905 346.202 522.905 341.5 516.298 341.5 516.298 341.5 516.298 341.298 516 340.905 516 340.702 516.298 336 522.905 336 522.905 336 522.905 330.905 520.095 330.905 520.095 330.905 520.095 330.702 520 330.5 520 330.298 520.202 330 520.202 330 520.405 330 520.595 333 530.595 333 530.595 333 530.595 333.095 530.798 333.298 531 333.5 531 348.5 531 348.5 531 348.5 531 348.702 531 348.905 530.905 349 530.595 352 520.595 352 520.595 352 520.595 352.095 520.405 352 520.202 351.798 520.095 351.702 520 351.405 520 351.298 520.095ZM348.095 530C333.905 530 333.905 530 333.905 530 331.405 521.5 331.405 521.5 331.405 521.5 335.798 523.905 335.798 523.905 335.798 523.905 336 524 336.298 524 336.405 523.798 341 517.405 341 517.405 341 517.405 345.595 523.798 345.595 523.798 345.595 523.798 345.702 524 346 524.095 346.202 523.905 350.595 521.5 350.595 521.5 350.595 521.5L348.095 530ZM352.298 503C329.702 503 329.702 503 329.702 503 327.095 503 325 505.202 325 508 325 542 325 542 325 542 325 544.798 327.095 547 329.702 547 352.202 547 352.202 547 352.202 547 354.798 547 356.905 544.798 356.905 542 356.905 508 356.905 508 356.905 508 357 505.202 354.905 503 352.298 503ZM355 542C355 543.702 353.798 545 352.298 545 329.702 545 329.702 545 329.702 545 328.202 545 327 543.702 327 542 327 508 327 508 327 508 327 506.298 328.202 505 329.702 505 352.202 505 352.202 505 352.202 505 353.798 505 355 506.298 355 508L355 542Z" fill="#454545" fill-rule="evenodd"/></g></svg>