<svg width="48" height="51" xmlns="http://www.w3.org/2000/svg" xmlns:xlink="http://www.w3.org/1999/xlink" overflow="hidden"><defs><clipPath id="clip0"><rect x="368" y="324" width="48" height="51"/></clipPath></defs><g clip-path="url(#clip0)" transform="translate(-368 -324)"><path d="M412.413 334.452C394.875 324.847 394.875 324.847 394.875 324.847 393.15 324 390.85 324 389.413 324.847 371.875 334.452 371.875 334.452 371.875 334.452 370.15 335.299 369 337.277 369 338.972 369 359.311 369 359.311 369 359.311 369 361.006 370.15 362.983 371.875 363.831 389.413 373.435 389.413 373.435 389.413 373.435 389.987 373.717 391.138 374 392 374 393.15 374 394.013 373.717 394.875 373.435 412.413 363.831 412.413 363.831 412.413 363.831 413.85 362.983 415 361.006 415 359.311 415 338.972 415 338.972 415 338.972 415 337.277 413.85 335.299 412.413 334.452ZM412.7 359.311C412.7 360.158 411.837 361.288 411.263 361.853 393.438 371.458 393.438 371.458 393.438 371.458 392.862 371.74 391.425 371.74 390.562 371.458 373.025 361.853 373.025 361.853 373.025 361.853 372.163 361.288 371.587 360.158 371.587 359.311 371.587 338.972 371.587 338.972 371.587 338.972 371.587 338.124 372.163 336.994 373.025 336.429 390.562 326.825 390.562 326.825 390.562 326.825 390.85 326.825 391.425 326.542 392 326.542 392.575 326.542 393.15 326.825 393.438 326.825 411.263 336.429 411.263 336.429 411.263 336.429 411.837 336.994 412.7 338.124 412.7 338.972L412.7 359.311Z" fill="#484848" fill-rule="evenodd"/><path d="M386 349C386 348.44 385.704 348.16 385.407 347.88 379.185 342 379.185 342 379.185 342 378.889 342 378.593 342 378.296 342 378 342.28 378 342.56 378.296 342.84 384.519 348.72 384.519 348.72 384.519 348.72 384.519 348.72 384.815 349 384.815 349 384.815 349.28 384.519 349.28 384.519 349.56 378.296 355.16 378.296 355.16 378.296 355.16 378 355.44 378 355.72 378.296 356 378.296 356 378.593 356 378.889 356 378.889 356 379.185 356 379.185 356 385.407 350.12 385.407 350.12 385.407 350.12 385.704 349.84 386 349.56 386 349Z" fill="#484848" fill-rule="evenodd"/><path d="M392.942 355.778C392.077 355 390.923 355 390.346 355.778 384.288 360.963 384.288 360.963 384.288 360.963 384 361.222 384 361.481 384.288 361.741 384.577 362 384.865 362 385.154 361.741 391.212 356.556 391.212 356.556 391.212 356.556 391.5 356.296 391.788 356.296 392.077 356.556 398.135 361.741 398.135 361.741 398.135 361.741 398.135 362 398.135 362 398.423 362 398.712 362 398.712 362 399 361.741 399 361.481 399 361.222 399 360.963L392.942 355.778Z" fill="#484848" fill-rule="evenodd"/><path d="M404.741 342.84C405 342.84 405 342.28 404.741 342 404.741 342 404.222 342 403.963 342 398.778 347.88 398.778 347.88 398.778 347.88 398 348.44 398 349.56 398.778 350.12 403.963 356 403.963 356 403.963 356 404.222 356 404.222 356 404.481 356 404.481 356 404.741 356 404.741 356 405 355.72 405 355.44 404.741 355.16 399.296 349.56 399.296 349.56 399.296 349.56 399.296 349.28 399.296 348.72 399.296 348.72L404.741 342.84Z" fill="#484848" fill-rule="evenodd"/><path d="M390.346 343.385C390.635 343.692 391.212 344 391.5 344 392.077 344 392.365 343.692 392.942 343.385 399 337.231 399 337.231 399 337.231 399 336.923 399 336.615 399 336.308 398.712 336 398.135 336 398.135 336.308 392.077 342.462 392.077 342.462 392.077 342.462 391.788 342.769 391.5 342.769 391.212 342.462 385.154 336.308 385.154 336.308 385.154 336.308 384.865 336 384.577 336 384.288 336.308 384 336.615 384 336.923 384.288 337.231L390.346 343.385Z" fill="#484848" fill-rule="evenodd"/></g></svg>