<svg width="46" height="50" xmlns="http://www.w3.org/2000/svg" xmlns:xlink="http://www.w3.org/1999/xlink" overflow="hidden"><defs><clipPath id="clip0"><rect x="912" y="156" width="46" height="50"/></clipPath></defs><g clip-path="url(#clip0)" transform="translate(-912 -156)"><path d="M954.395 166.148C937.605 156.87 937.605 156.87 937.605 156.87 936.447 156 934.132 156 932.684 156.87 915.605 166.148 915.605 166.148 915.605 166.148 914.158 167.018 913 169.047 913 170.497 913 190.503 913 190.503 913 190.503 913 191.953 914.158 193.982 915.605 194.852 932.684 204.13 932.684 204.13 932.684 204.13 933.263 204.71 934.132 205 935.289 205 936.158 205 937.026 204.71 937.895 204.13 954.395 194.852 954.395 194.852 954.395 194.852 955.842 193.982 957 191.953 957 190.503 957 170.497 957 170.497 957 170.497 957 169.047 955.842 167.018 954.395 166.148ZM954.684 190.503C954.684 191.373 954.105 192.533 953.237 192.822 936.737 202.391 936.737 202.391 936.737 202.391 935.868 202.68 934.421 202.68 933.842 202.391 916.763 192.822 916.763 192.822 916.763 192.822 916.184 192.533 915.316 191.373 915.316 190.503 915.316 170.497 915.316 170.497 915.316 170.497 915.316 169.627 916.184 168.467 916.763 168.178 933.842 158.609 933.842 158.609 933.842 158.609 934.132 158.609 934.711 158.32 935.289 158.32 935.868 158.32 936.158 158.609 936.737 158.609 953.237 168.178 953.237 168.178 953.237 168.178 954.105 168.467 954.684 169.627 954.684 170.497L954.684 190.503Z" fill="#404040" fill-rule="evenodd"/><path d="M940.389 182.744C940.389 182.744 940.694 182.744 940.694 182.442 941 182.14 941 181.837 940.694 181.535 935.806 177 935.806 177 935.806 177 935.5 177 935.194 177 934.889 177 930 181.535 930 181.535 930 181.535 930 181.837 930 182.14 930 182.442 930.306 182.744 930.917 182.744 931.222 182.442 935.194 178.814 935.194 178.814 935.194 178.814 935.194 189.395 935.194 189.395 935.194 189.395 935.194 189.698 935.5 190 935.806 190 936.111 190 936.417 189.698 936.417 189.395 936.417 178.814 936.417 178.814 936.417 178.814 940.083 182.442 940.083 182.442 940.083 182.442 940.083 182.744 940.083 182.744 940.389 182.744Z" fill="#404040" fill-rule="evenodd"/><path d="M946.375 174C925.083 174 925.083 174 925.083 174 923.917 174 923.917 174 923.917 174 922.458 174 921 175.167 921 176.917 921 179.542 921 179.542 921 179.542 921 181.583 921 181.583 921 181.583 921 184.208 921 184.208 921 184.208 921 185.958 922.458 188 923.917 188 931.208 188 931.208 188 931.208 188 931.5 188 931.792 187.708 931.792 187.417 931.792 186.833 931.5 186.833 931.208 186.833 923.917 186.833 923.917 186.833 923.917 186.833 923.042 186.833 922.167 185.375 922.167 184.208 922.167 181.583 922.167 181.583 922.167 181.583 922.167 179.542 922.167 179.542 922.167 179.542 922.167 176.917 922.167 176.917 922.167 176.917 922.167 176.042 923.042 175.167 923.917 175.167 925.083 175.167 925.083 175.167 925.083 175.167 946.375 175.167 946.375 175.167 946.375 175.167 947.542 175.167 947.833 176.042 947.833 176.917 947.833 181 947.833 181 947.833 181 947.833 181.583 947.833 181.583 947.833 181.583 947.833 184.208 947.833 184.208 947.833 184.208 947.833 185.375 947.542 186.833 946.375 186.833 939.083 186.833 939.083 186.833 939.083 186.833 938.792 186.833 938.5 186.833 938.5 187.417 938.5 187.708 938.792 188 939.083 188 946.375 188 946.375 188 946.375 188 948.125 188 949 185.958 949 184.208 949 181.583 949 181.583 949 181.583 949 181 949 181 949 181 949 176.917 949 176.917 949 176.917 949 175.167 948.125 174 946.375 174Z" fill="#404040" fill-rule="evenodd"/></g></svg>