<svg width="40" height="50" xmlns="http://www.w3.org/2000/svg" xmlns:xlink="http://www.w3.org/1999/xlink" overflow="hidden"><defs><clipPath id="clip0"><rect x="987" y="361" width="40" height="50"/></clipPath></defs><g clip-path="url(#clip0)" transform="translate(-987 -361)"><path d="M1012.03 361C992.471 361 992.471 361 992.471 361 989.956 361 988 362.949 988 365.455 988 405.545 988 405.545 988 405.545 988 408.051 989.956 410 992.471 410 1021.81 410 1021.81 410 1021.81 410 1024.32 410 1026 408.051 1026 405.545 1026 374.92 1026 374.92 1026 374.92L1012.03 361ZM1012.03 364.341C1022.93 374.92 1022.93 374.92 1022.93 374.92 1014.82 374.92 1014.82 374.92 1014.82 374.92 1013.43 374.92 1012.03 373.807 1012.03 372.136L1012.03 364.341ZM1021.81 407.773C992.471 407.773 992.471 407.773 992.471 407.773 991.353 407.773 990.235 406.659 990.235 405.545 990.235 365.455 990.235 365.455 990.235 365.455 990.235 364.341 991.353 363.227 992.471 363.227 1011.19 363.227 1011.19 363.227 1011.19 363.227 1011.19 363.227 1011.19 363.227 1011.19 363.227 1010.91 363.227 1010.91 363.227 1010.91 363.227 1010.91 372.136 1010.91 372.136 1010.91 372.136 1010.91 374.364 1012.59 376.034 1014.82 376.034 1023.76 376.034 1023.76 376.034 1023.76 376.034 1023.76 405.545 1023.76 405.545 1023.76 405.545 1023.76 406.659 1022.93 407.773 1021.81 407.773Z" fill="#454545" fill-rule="evenodd"/></g></svg>