<svg width="52" height="43" xmlns="http://www.w3.org/2000/svg" xmlns:xlink="http://www.w3.org/1999/xlink" overflow="hidden"><defs><clipPath id="clip0"><rect x="1012" y="158" width="52" height="43"/></clipPath></defs><g clip-path="url(#clip0)" transform="translate(-1012 -158)"><path d="M1056.75 173.236C1053.34 173.236 1050.5 176.083 1050.5 179.5 1050.5 180.639 1051.07 182.062 1051.64 182.917 1043.4 189.465 1043.4 189.465 1043.4 189.465 1042.55 188.896 1041.41 188.611 1040.27 188.611 1039.14 188.611 1038.28 188.896 1037.43 189.465 1034.59 185.479 1034.59 185.479 1034.59 185.479 1035.44 184.91 1035.73 184.056 1035.73 182.917 1035.73 181.208 1034.31 179.5 1032.32 179.5 1030.33 179.5 1028.91 181.208 1028.91 182.917 1028.91 184.91 1030.33 186.333 1032.32 186.333 1032.89 186.333 1033.45 186.333 1033.74 186.049 1036.58 190.035 1036.58 190.035 1036.58 190.035 1035.44 190.889 1034.59 192.597 1034.59 194.306 1034.59 197.438 1037.15 200 1040.27 200 1043.4 200 1045.95 197.438 1045.95 194.306 1045.95 193.167 1045.67 192.028 1045.1 191.174 1053.34 184.625 1053.34 184.625 1053.34 184.625 1054.19 185.479 1055.61 185.764 1056.75 185.764 1060.16 185.764 1063 182.917 1063 179.5 1063 176.083 1060.16 173.236 1056.75 173.236ZM1032.32 185.194C1031.18 185.194 1030.05 184.056 1030.05 182.917 1030.05 181.778 1031.18 180.639 1032.32 180.639 1033.45 180.639 1034.59 181.778 1034.59 182.917 1034.59 184.056 1033.45 185.194 1032.32 185.194ZM1040.27 197.722C1038.28 197.722 1036.86 196.299 1036.86 194.306 1036.86 192.312 1038.28 190.889 1040.27 190.889 1042.26 190.889 1043.68 192.312 1043.68 194.306 1043.68 196.299 1042.26 197.722 1040.27 197.722ZM1056.75 183.486C1054.48 183.486 1052.77 181.778 1052.77 179.5 1052.77 177.222 1054.48 175.514 1056.75 175.514 1059.02 175.514 1060.73 177.222 1060.73 179.5 1060.73 181.778 1059.02 183.486 1056.75 183.486ZM1032.6 169.535C1033.45 170.104 1034.59 170.389 1035.73 170.389 1036.86 170.389 1037.72 170.104 1038.57 169.535 1041.41 173.521 1041.41 173.521 1041.41 173.521 1040.56 174.375 1040.27 175.229 1040.27 176.083 1040.27 178.076 1041.69 179.5 1043.68 179.5 1045.67 179.5 1047.09 178.076 1047.09 176.083 1047.09 174.09 1045.67 172.667 1043.68 172.667 1043.11 172.667 1042.55 172.667 1042.26 172.951 1039.42 168.965 1039.42 168.965 1039.42 168.965 1040.56 168.111 1041.41 166.403 1041.41 164.694 1041.41 161.562 1038.85 159 1035.73 159 1032.6 159 1030.05 161.562 1030.05 164.694 1030.05 165.833 1030.33 166.972 1030.9 167.826 1022.66 174.375 1022.66 174.375 1022.66 174.375 1021.81 173.521 1020.39 173.236 1019.25 173.236 1015.84 173.236 1013 176.083 1013 179.5 1013 182.917 1015.84 185.764 1019.25 185.764 1022.66 185.764 1025.5 182.917 1025.5 179.5 1025.5 178.361 1024.93 176.938 1024.36 176.083L1032.6 169.535ZM1043.68 173.806C1044.82 173.806 1045.95 174.944 1045.95 176.083 1045.95 177.222 1044.82 178.361 1043.68 178.361 1042.55 178.361 1041.41 177.222 1041.41 176.083 1041.41 174.944 1042.55 173.806 1043.68 173.806ZM1035.73 161.278C1037.72 161.278 1039.14 162.701 1039.14 164.694 1039.14 166.688 1037.72 168.111 1035.73 168.111 1033.74 168.111 1032.32 166.688 1032.32 164.694 1032.32 162.701 1033.74 161.278 1035.73 161.278ZM1019.25 183.486C1016.98 183.486 1015.27 181.778 1015.27 179.5 1015.27 177.222 1016.98 175.514 1019.25 175.514 1021.52 175.514 1023.23 177.222 1023.23 179.5 1023.23 181.778 1021.52 183.486 1019.25 183.486Z" fill="#404040" fill-rule="evenodd"/></g></svg>