<svg width="40" height="44" xmlns="http://www.w3.org/2000/svg" xmlns:xlink="http://www.w3.org/1999/xlink" overflow="hidden"><defs><clipPath id="clip0"><rect x="645" y="335" width="40" height="44"/></clipPath></defs><g clip-path="url(#clip0)" transform="translate(-645 -335)"><path d="M680.958 344.432C668.133 337.038 668.133 337.038 668.133 337.038 666.425 336 663.665 336 661.958 337.038 649.042 344.432 649.042 344.432 649.042 344.432 647.335 345.38 646 347.75 646 349.748 646 364.534 646 364.534 646 364.534 646 366.532 647.335 368.801 649.042 369.851 661.867 377.244 661.867 377.244 661.867 377.244 662.715 377.718 663.858 378 665 378 666.142 378 667.183 377.718 668.133 377.244 680.958 369.851 680.958 369.851 680.958 369.851 682.665 368.801 684 366.532 684 364.534 684 349.748 684 349.748 684 349.748 684 347.75 682.665 345.38 680.958 344.432ZM650.083 346.147C662.908 338.743 662.908 338.743 662.908 338.743 663.484 338.461 664.242 338.269 665 338.269 665.758 338.269 666.516 338.461 667.092 338.743 679.917 346.147 679.917 346.147 679.917 346.147 680.29 346.328 680.585 346.712 680.958 347.095 672.51 352.118 672.51 352.118 672.51 352.118 657.49 352.118 657.49 352.118 657.49 352.118 649.133 347.095 649.133 347.095 649.133 347.095 649.415 346.712 649.71 346.328 650.083 346.147ZM664.525 376.013C663.96 375.912 663.383 375.822 662.908 375.539 650.083 368.135 650.083 368.135 650.083 368.135 648.94 367.48 647.99 365.765 647.99 364.534 647.99 349.748 647.99 349.748 647.99 349.748 647.99 349.172 648.183 348.518 648.567 347.852 656.925 352.875 656.925 352.875 656.925 352.875 664.525 365.482 664.525 365.482 664.525 365.482L664.525 376.013ZM658.158 353.066C671.933 353.066 671.933 353.066 671.933 353.066 665 364.444 665 364.444 665 364.444L658.158 353.066ZM682.01 364.534C682.01 365.765 681.06 367.48 679.917 368.135 667.092 375.539 667.092 375.539 667.092 375.539 666.617 375.822 666.04 375.912 665.475 376.013 665.475 365.584 665.475 365.584 665.475 365.584 673.075 352.875 673.075 352.875 673.075 352.875 681.433 347.852 681.433 347.852 681.433 347.852 681.817 348.518 682.01 349.172 682.01 349.748L682.01 364.534Z" fill="#454545" fill-rule="evenodd"/></g></svg>