<svg width="47" height="34" xmlns="http://www.w3.org/2000/svg" xmlns:xlink="http://www.w3.org/1999/xlink" overflow="hidden"><defs><clipPath id="clip0"><rect x="727" y="337" width="47" height="34"/></clipPath></defs><g clip-path="url(#clip0)" transform="translate(-727 -337)"><path d="M746 356C746 354.895 746.895 354 748 354 749.105 354 750 354.895 750 356 750 357.105 749.105 358 748 358 746.895 358 746 357.105 746 356Z" fill="#454545" fill-rule="evenodd"/><path d="M738 356C738 354.895 738.895 354 740 354 741.105 354 742 354.895 742 356 742 357.105 741.105 358 740 358 738.895 358 738 357.105 738 356Z" fill="#454545" fill-rule="evenodd"/><path d="M754 356C754 354.895 755.119 354 756.5 354 757.881 354 759 354.895 759 356 759 357.105 757.881 358 756.5 358 755.119 358 754 357.105 754 356Z" fill="#454545" fill-rule="evenodd"/><path d="M770.18 337C735.82 337 735.82 337 735.82 337 734.282 337 733 338.296 733 339.852 733 340.111 733 340.111 733 340.111 734.026 340.111 734.026 340.111 734.026 340.111 734.026 339.852 734.026 339.852 734.026 339.852 734.026 338.815 734.795 338.037 735.82 338.037 770.18 338.037 770.18 338.037 770.18 338.037 771.205 338.037 771.974 338.815 771.974 339.852 771.974 362.148 771.974 362.148 771.974 362.148 771.974 363.185 771.205 363.963 770.18 363.963 769.923 363.963 769.923 363.963 769.923 363.963 769.923 365 769.923 365 769.923 365 770.18 365 770.18 365 770.18 365 771.718 365 773 363.704 773 362.148 773 339.852 773 339.852 773 339.852 773 338.296 771.718 337 770.18 337Z" fill="#454545" fill-rule="evenodd"/><path d="M765.925 342C731.075 342 731.075 342 731.075 342 729.537 342 728 343.25 728 345 728 367 728 367 728 367 728 368.5 729.537 370 731.075 370 765.925 370 765.925 370 765.925 370 767.719 370 769 368.5 769 367 769 345 769 345 769 345 769 343.25 767.719 342 765.925 342ZM766.95 367C766.95 367.5 766.694 368 765.925 368 731.075 368 731.075 368 731.075 368 730.562 368 730.05 367.5 730.05 367 730.05 345 730.05 345 730.05 345 730.05 344.5 730.562 344 731.075 344 765.925 344 765.925 344 765.925 344 766.694 344 766.95 344.5 766.95 345L766.95 367Z" fill="#454545" fill-rule="evenodd"/></g></svg>