<svg width="51" height="49" xmlns="http://www.w3.org/2000/svg" xmlns:xlink="http://www.w3.org/1999/xlink" overflow="hidden"><defs><clipPath id="clip0"><rect x="712" y="163" width="51" height="49"/></clipPath></defs><g clip-path="url(#clip0)" transform="translate(-712 -163)"><path d="M721.111 194C727.5 194 727.5 194 727.5 194 728.889 194 730 192.917 730 191.562 730 183.708 730 183.708 730 183.708 730 182.354 728.889 181 727.5 181 721.111 181 721.111 181 721.111 181 720 181 720 181 720 181 720 182.083 720 182.083 720 182.083 720 192.917 720 192.917 720 192.917 720 194 720 194 720 194L721.111 194ZM721.111 182.083C727.5 182.083 727.5 182.083 727.5 182.083 728.333 182.083 728.889 182.896 728.889 183.708 728.889 191.562 728.889 191.562 728.889 191.562 728.889 192.375 728.333 192.917 727.5 192.917 721.111 192.917 721.111 192.917 721.111 192.917L721.111 182.083Z" fill="#484848" fill-rule="evenodd"/><path d="M737.5 163C723.858 163 713 173.909 713 187 713 200.364 723.858 211 737.5 211 750.864 211 762 200.364 762 187 762 173.909 750.864 163 737.5 163ZM756.989 176.636C749.193 176.636 749.193 176.636 749.193 176.636 747.801 171.182 745.017 167.364 741.398 165.727 748.358 166.818 753.926 171.182 756.989 176.636ZM748.08 176.636C726.92 176.636 726.92 176.636 726.92 176.636 728.869 169.818 732.767 165.727 737.5 165.727 742.233 165.727 746.131 169.818 748.08 176.636ZM733.324 165.727C729.983 167.364 727.199 171.182 725.807 176.636 717.733 176.636 717.733 176.636 717.733 176.636 721.074 171.182 726.642 166.818 733.324 165.727ZM717.176 177.727C757.545 177.727 757.545 177.727 757.545 177.727 758.938 180.727 759.773 183.727 759.773 187 759.773 190.545 758.938 193.545 757.545 196.273 717.176 196.273 717.176 196.273 717.176 196.273 716.062 193.545 715.227 190.545 715.227 187 715.227 183.727 716.062 180.727 717.176 177.727ZM726.92 197.364C747.801 197.364 747.801 197.364 747.801 197.364 746.131 204.455 742.233 208.273 737.5 208.273 732.489 208.273 728.591 204.455 726.92 197.364ZM717.733 197.364C725.807 197.364 725.807 197.364 725.807 197.364 727.199 203.091 729.705 206.909 733.324 208.545 726.642 207.455 721.074 203.091 717.733 197.364ZM741.398 208.545C745.017 206.909 747.523 203.091 749.193 197.364 756.989 197.364 756.989 197.364 756.989 197.364 753.926 203.091 748.08 207.455 741.398 208.545Z" fill="#484848" fill-rule="evenodd"/><path d="M733.1 182.083C733.375 182.083 733.375 182.083 733.375 182.083 734.2 182.083 735.025 182.625 735.3 183.708 738.325 192.104 738.325 192.104 738.325 192.104 738.875 191.833 738.875 191.833 738.875 191.833 738.325 192.104 738.325 192.104 738.325 192.104 738.875 193.458 739.7 194 741.35 194 743 194 743 194 743 194 743 192.917 743 192.917 743 192.917 743 192.917 743 192.917 743 192.917 743 181 743 181 743 181 741.9 181 741.9 181 741.9 181 741.9 192.917 741.9 192.917 741.9 192.917 741.35 192.917 741.35 192.917 741.35 192.917 740.25 192.917 739.7 192.646 739.425 191.833 739.425 191.833 739.425 191.833 739.425 191.833 736.4 183.438 736.4 183.438 736.4 183.438 736.125 182.896 735.575 181 733.375 181 732.55 181 732.55 181 732.55 181 732.55 181 732.55 181 732.55 181 732 181 732 181 732 181 732 194 732 194 732 194 733.1 194 733.1 194 733.1 194L733.1 182.083Z" fill="#484848" fill-rule="evenodd"/><path d="M747.222 187.5C748.333 187.5 748.333 187.5 748.333 187.5 748.333 187.5 748.333 187.5 748.333 187.5 752.5 187.5 752.5 187.5 752.5 187.5 753.333 187.5 753.889 188.312 753.889 189.125 753.889 191.562 753.889 191.562 753.889 191.562 753.889 192.375 753.333 192.917 752.5 192.917 745 192.917 745 192.917 745 192.917 745 194 745 194 745 194 752.5 194 752.5 194 752.5 194 753.889 194 755 192.917 755 191.562 755 189.125 755 189.125 755 189.125 755 187.771 753.889 186.417 752.5 186.417 751.389 186.417 751.389 186.417 751.389 186.417 751.389 186.417 751.389 186.417 751.389 186.417 747.222 186.417 747.222 186.417 747.222 186.417 746.667 186.417 746.111 185.875 746.111 185.062 746.111 183.708 746.111 183.708 746.111 183.708 746.111 182.896 746.667 182.083 747.222 182.083 755 182.083 755 182.083 755 182.083 755 181 755 181 755 181 747.222 181 747.222 181 747.222 181 746.111 181 745 182.354 745 183.708 745 185.062 745 185.062 745 185.062 745 186.417 746.111 187.5 747.222 187.5Z" fill="#484848" fill-rule="evenodd"/></g></svg>