<svg width="48" height="49" xmlns="http://www.w3.org/2000/svg" xmlns:xlink="http://www.w3.org/1999/xlink" overflow="hidden"><defs><clipPath id="clip0"><rect x="166" y="502" width="48" height="49"/></clipPath></defs><g clip-path="url(#clip0)" transform="translate(-166 -502)"><path d="M212.2 517.863C204.2 505.009 204.2 505.009 204.2 505.009 203.4 503.803 202.2 503 200.6 503 186.2 503 186.2 503 186.2 503 184.6 503 183 503.803 182.6 505.009 167.8 530.718 167.8 530.718 167.8 530.718 167 531.923 167 533.932 167.8 535.137 175.8 547.991 175.8 547.991 175.8 547.991 176.6 549.197 178.2 550 179.4 550 194.2 550 194.2 550 194.2 550 195.4 550 197 549.197 197.8 547.991 212.6 522.282 212.6 522.282 212.6 522.282 213 521.077 213 519.068 212.2 517.863ZM195.8 546.786C195.4 547.59 195 547.991 194.2 547.991 179.4 547.991 179.4 547.991 179.4 547.991 179 547.991 178.2 547.59 177.8 546.786 169.8 533.932 169.8 533.932 169.8 533.932 169.4 533.53 169.4 532.325 169.8 531.923 175.4 521.479 175.4 521.479 175.4 521.479 175.8 521.88 175.8 522.684 176.2 523.085 183.4 535.137 183.4 535.137 183.4 535.137 184.2 536.342 185.4 537.145 187 537.145 187 537.145 187 537.145 187.4 537.145 200.6 536.744 200.6 536.744 200.6 536.744 201 536.744 201.4 536.744 201.8 536.744L195.8 546.786ZM203 533.53C203 533.932 203 533.932 203 533.932 202.6 535.137 201.4 535.94 200.2 535.94 187 535.94 187 535.94 187 535.94 187 535.94 187 535.94 187 535.94 185.8 535.94 184.6 535.538 184.2 534.333 177 522.282 177 522.282 177 522.282 176.2 521.479 176.2 520.273 176.6 519.068 177 518.667 177 518.667 177 518.667 177.4 517.863 178.6 517.06 179.8 517.06 193 517.06 193 517.06 193 517.06 193 517.06 193 517.06 193 517.06 194.2 517.06 195.4 517.462 195.8 518.667 203 530.316 203 530.316 203 530.316 203.8 531.521 203.8 532.727 203 533.53ZM210.6 521.479C204.6 531.521 204.6 531.521 204.6 531.521 204.6 531.12 204.2 530.316 204.2 529.915 197 517.863 197 517.863 197 517.863 196.2 516.658 194.6 515.855 193 515.855 193 515.855 193 515.855 193 515.855 179.8 516.256 179.8 516.256 179.8 516.256 179.4 516.256 178.6 516.256 178.2 516.658 184.2 506.214 184.2 506.214 184.2 506.214 184.6 505.41 185.4 505.009 186.2 505.009 200.6 505.009 200.6 505.009 200.6 505.009 201.4 505.009 201.8 505.41 202.2 506.214 210.6 519.068 210.6 519.068 210.6 519.068 211 519.872 211 520.675 210.6 521.479Z" fill="#454545" fill-rule="evenodd"/></g></svg>