<svg width="47" height="52" xmlns="http://www.w3.org/2000/svg" xmlns:xlink="http://www.w3.org/1999/xlink" overflow="hidden"><defs><clipPath id="clip0"><rect x="1124" y="326" width="47" height="52"/></clipPath></defs><g clip-path="url(#clip0)" transform="translate(-1124 -326)"><path d="M1167.28 336.821C1149.42 326.902 1149.42 326.902 1149.42 326.902 1148.21 326 1145.79 326 1144.28 326.902 1126.72 336.821 1126.72 336.821 1126.72 336.821 1125.21 337.723 1124 339.827 1124 341.63 1124 362.671 1124 362.671 1124 362.671 1124 364.474 1125.21 366.578 1126.72 367.48 1144.28 377.399 1144.28 377.399 1144.28 377.399 1144.88 377.699 1145.79 378 1147 378 1147.91 378 1148.82 377.699 1149.42 377.399 1167.28 367.48 1167.28 367.48 1167.28 367.48 1168.79 366.578 1170 364.474 1170 362.671 1170 341.63 1170 341.63 1170 341.63 1170 339.827 1168.79 337.723 1167.28 336.821ZM1167.58 362.671C1167.58 363.572 1166.67 364.775 1166.07 365.376 1148.51 375.295 1148.51 375.295 1148.51 375.295 1147.61 375.595 1146.09 375.595 1145.49 375.295 1127.63 365.376 1127.63 365.376 1127.63 365.376 1127.03 364.775 1126.42 363.572 1126.42 362.671 1126.42 341.63 1126.42 341.63 1126.42 341.63 1126.42 340.728 1127.03 339.526 1127.63 338.925 1145.49 329.006 1145.49 329.006 1145.49 329.006 1145.79 328.705 1146.39 328.705 1147 328.705 1147.3 328.705 1147.91 328.705 1148.51 329.006 1166.07 338.925 1166.07 338.925 1166.07 338.925 1166.67 339.526 1167.58 340.728 1167.58 341.63L1167.58 362.671Z" fill="#404040" fill-rule="evenodd"/><path d="M1138.6 347.111C1153.9 347.111 1153.9 347.111 1153.9 347.111 1150.3 351.083 1150.3 351.083 1150.3 351.083 1150 351.083 1150 351.694 1150.3 351.694 1150.3 352 1150.6 352 1150.6 352 1150.9 352 1150.9 352 1151.2 351.694 1155.7 346.806 1155.7 346.806 1155.7 346.806 1156 346.806 1156 346.194 1155.7 346.194 1151.2 341 1151.2 341 1151.2 341 1150.9 341 1150.6 341 1150.3 341 1150 341.306 1150 341.611 1150.3 341.917 1153.9 345.889 1153.9 345.889 1153.9 345.889 1138.6 345.889 1138.6 345.889 1138.6 345.889 1138 345.889 1138 346.194 1138 346.5 1138 346.806 1138 347.111 1138.6 347.111Z" fill="#404040" fill-rule="evenodd"/><path d="M1135.5 346C1133.5 346 1133.5 346 1133.5 346 1133 346 1133 346.25 1133 346.5 1133 346.75 1133 347 1133.5 347 1135.5 347 1135.5 347 1135.5 347 1135.75 347 1136 346.75 1136 346.5 1136 346.25 1135.75 346 1135.5 346Z" fill="#404040" fill-rule="evenodd"/><path d="M1141.33 357C1138.67 357 1138.67 357 1138.67 357 1138 357 1138 357.25 1138 357.5 1138 357.75 1138 358 1138.67 358 1141.33 358 1141.33 358 1141.33 358 1141.67 358 1142 357.75 1142 357.5 1142 357.25 1141.67 357 1141.33 357Z" fill="#404040" fill-rule="evenodd"/><path d="M1157.2 352.306C1156.9 352 1156.6 352 1156.3 352.306 1156 352.306 1156 352.917 1156.3 352.917 1159.9 356.889 1159.9 356.889 1159.9 356.889 1144.6 356.889 1144.6 356.889 1144.6 356.889 1144 356.889 1144 357.194 1144 357.5 1144 357.806 1144 358.111 1144.6 358.111 1159.9 358.111 1159.9 358.111 1159.9 358.111 1156.3 362.083 1156.3 362.083 1156.3 362.083 1156 362.389 1156 362.694 1156.3 363 1156.3 363 1156.6 363 1156.6 363 1156.9 363 1156.9 363 1157.2 363 1161.7 357.806 1161.7 357.806 1161.7 357.806 1162 357.806 1162 357.194 1161.7 357.194L1157.2 352.306Z" fill="#404040" fill-rule="evenodd"/></g></svg>