<svg width="54" height="41" xmlns="http://www.w3.org/2000/svg" xmlns:xlink="http://www.w3.org/1999/xlink" overflow="hidden"><defs><clipPath id="clip0"><rect x="1013" y="167" width="54" height="41"/></clipPath></defs><g clip-path="url(#clip0)" transform="translate(-1013 -167)"><path d="M1015.24 194C1015.86 194 1016.17 193.386 1016.17 192.773 1016.17 179.886 1027 169.148 1040 169.148 1053 169.148 1063.52 179.886 1063.52 192.773 1063.52 193.386 1064.14 194 1064.76 194 1065.38 194 1066 193.386 1066 192.773 1066 178.352 1054.24 167 1040 167 1025.45 167 1014 178.352 1014 192.773 1014 193.386 1014.31 194 1015.24 194Z" fill="#404040" fill-rule="evenodd"/><path d="M1050.55 192.385C1050.55 192.692 1050.91 193 1051.27 193 1051.64 193 1052 192.692 1052 192.385 1052 189.923 1051.27 187.462 1049.45 185.308 1049.09 185 1048.73 185 1048.36 185.308 1048 185.308 1048 185.923 1048.36 186.231 1049.82 187.769 1050.55 189.923 1050.55 192.385Z" fill="#404040" fill-rule="evenodd"/><path d="M1043.35 182.756C1043.67 182.756 1044 182.463 1044 182.171 1044 181.878 1044 181.585 1043.67 181.585 1042.37 181.293 1041.06 181 1040.08 181 1032.88 181 1027 186.268 1027 192.415 1027 193 1027.33 193 1027.65 193 1028.31 193 1028.31 193 1028.31 192.415 1028.31 186.854 1033.54 182.171 1040.08 182.171 1041.06 182.171 1042.04 182.463 1043.35 182.756Z" fill="#404040" fill-rule="evenodd"/><path d="M1037.93 194.121C1039.18 195 1040.42 194.707 1041.04 193.828 1051 178 1051 178 1051 178 1051 178 1037.62 191.19 1037.62 191.19 1037.62 191.19 1037.62 191.19 1037.62 191.19 1037 192.362 1037 193.534 1037.93 194.121Z" fill="#404040" fill-rule="evenodd"/><path d="M1064.76 199C1015.24 199 1015.24 199 1015.24 199 1014.31 199 1014 199.25 1014 200 1014 200.5 1014.31 201 1015.24 201 1064.76 201 1064.76 201 1064.76 201 1065.38 201 1066 200.5 1066 200 1066 199.25 1065.38 199 1064.76 199Z" fill="#404040" fill-rule="evenodd"/><path d="M1059.76 205C1020.24 205 1020.24 205 1020.24 205 1019.62 205 1019 205.25 1019 206 1019 206.5 1019.62 207 1020.24 207 1059.76 207 1059.76 207 1059.76 207 1060.38 207 1061 206.5 1061 206 1061 205.25 1060.38 205 1059.76 205Z" fill="#404040" fill-rule="evenodd"/></g></svg>