<svg version="1.1" id="图层_1" xmlns="http://www.w3.org/2000/svg" xmlns:xlink="http://www.w3.org/1999/xlink" x="0px" y="0px" viewBox="0 0 48 48" style="enable-background:new 0 0 48 48;" xml:space="preserve" width="132px" height="132px">
<style type="text/css">
	.st0{fill:#252B3A;}
</style>
<path class="st0" d="M18.1,39c0,0.6-0.4,1-1,1h-2.8C7.5,40,2,34.5,2,27.8c0-6,4.4-11.1,10.3-12.1C14.1,11.1,18.6,8,23.6,8&#10;&#9;c4.8,0,9.1,2.8,11.1,7.1c0.2,0.5,0,1.1-0.5,1.3c-0.5,0.2-1.1,0-1.3-0.5c-1.7-3.6-5.3-6-9.3-6c-4.4,0-8.2,2.8-9.7,6.9&#10;&#9;c-0.1,0.4-0.5,0.6-0.8,0.7C7.9,18.1,4,22.5,4,27.8C4,33.4,8.6,38,14.2,38H17C17.6,38,18.1,38.4,18.1,39z M46,32.4v5.2&#10;&#9;c0,1.3-1.1,2.4-2.4,2.4H23.4c-1.3,0-2.4-1.1-2.4-2.4v-5.2c0-1.3,1.1-2.4,2.4-2.4H38v-1.6c0-0.8,0.6-1.4,1.4-1.4h0.1v-2.5&#10;&#9;c0-0.3,0.2-0.5,0.5-0.5s0.5,0.2,0.5,0.5V27h0.1c0.8,0,1.4,0.6,1.4,1.4V30h1.6C44.9,30,46,31.1,46,32.4z M39,30h2v-1.6&#10;&#9;c0-0.2-0.2-0.4-0.4-0.4h-1.3c-0.2,0-0.4,0.2-0.4,0.4V30H39z M45,32.4c0-0.8-0.6-1.4-1.4-1.4H23.4c-0.8,0-1.4,0.6-1.4,1.4v5.2&#10;&#9;c0,0.8,0.6,1.4,1.4,1.4h20.2c0.8,0,1.4-0.6,1.4-1.4V32.4z M40,34c-0.6,0-1,0.4-1,1s0.4,1,1,1s1-0.4,1-1S40.6,34,40,34z M25.5,33&#10;&#9;c-0.3,0-0.5,0.2-0.5,0.5v3c0,0.3,0.2,0.5,0.5,0.5s0.5-0.2,0.5-0.5v-3C26,33.2,25.8,33,25.5,33z M28.5,33c-0.3,0-0.5,0.2-0.5,0.5v3&#10;&#9;c0,0.3,0.2,0.5,0.5,0.5s0.5-0.2,0.5-0.5v-3C29,33.2,28.8,33,28.5,33z M31.5,33c-0.3,0-0.5,0.2-0.5,0.5v3c0,0.3,0.2,0.5,0.5,0.5&#10;&#9;s0.5-0.2,0.5-0.5v-3C32,33.2,31.8,33,31.5,33z M36.5,20.1c2-2,5.1-2,7.1,0c0.2,0.2,0.5,0.2,0.7,0s0.2-0.5,0-0.7&#10;&#9;c-2.4-2.3-6.1-2.3-8.5,0c-0.2,0.2-0.2,0.5,0,0.7C36,20.3,36.2,20.3,36.5,20.1z M38.7,21.5c-0.2,0.2-0.2,0.5,0,0.7s0.5,0.2,0.7,0&#10;&#9;c0.4-0.4,1-0.4,1.4,0c0.2,0.2,0.5,0.2,0.7,0s0.2-0.5,0-0.7C40.7,20.6,39.3,20.6,38.7,21.5z"/>
</svg>