<svg width="55" height="41" xmlns="http://www.w3.org/2000/svg" xmlns:xlink="http://www.w3.org/1999/xlink" overflow="hidden"><defs><clipPath id="clip0"><rect x="148" y="344" width="55" height="41"/></clipPath></defs><g clip-path="url(#clip0)" transform="translate(-148 -344)"><path d="M188.312 363.281C175.188 363.281 175.188 363.281 175.188 363.281 172.375 363.281 169.875 365.719 169.875 368.766 169.875 369.07 170.188 369.375 170.5 369.375 170.812 369.375 171.125 369.07 171.125 368.766 171.125 366.328 173 364.5 175.188 364.5 188.312 364.5 188.312 364.5 188.312 364.5 190.5 364.5 192.375 366.328 192.375 368.766 192.375 371.203 190.5 373.031 188.312 373.031 182.375 373.031 182.375 373.031 182.375 373.031 182.062 373.031 181.75 373.336 181.75 373.641 181.75 373.945 182.062 374.25 182.375 374.25 188.312 374.25 188.312 374.25 188.312 374.25 191.125 374.25 193.625 371.812 193.625 368.766 193.625 365.719 191.125 363.281 188.312 363.281ZM180.5 368.156C180.188 368.156 179.875 368.461 179.875 368.766 179.875 371.203 178 373.031 175.812 373.031 162.688 373.031 162.688 373.031 162.688 373.031 160.5 373.031 158.625 371.203 158.625 368.766 158.625 366.328 160.5 364.5 162.688 364.5 168.625 364.5 168.625 364.5 168.625 364.5 168.938 364.5 169.25 364.195 169.25 363.891 169.25 363.586 168.938 363.281 168.625 363.281 162.688 363.281 162.688 363.281 162.688 363.281 159.875 363.281 157.375 365.719 157.375 368.766 157.375 371.812 159.875 374.25 162.688 374.25 175.812 374.25 175.812 374.25 175.812 374.25 178.625 374.25 181.125 371.812 181.125 368.766 181.125 368.461 180.812 368.156 180.5 368.156ZM189.562 354.75C187.688 349.266 182.062 345 175.5 345 168.938 345 163.312 349.266 161.438 354.75 153.938 355.664 148 361.758 148 369.375 148 377.297 154.875 384 163 384 188 384 188 384 188 384 196.125 384 203 377.297 203 369.375 203 361.758 197.062 355.664 189.562 354.75ZM188 381.562C163 381.562 163 381.562 163 381.562 156.125 381.562 150.5 376.078 150.5 369.375 150.5 363.281 155.188 357.797 161.75 357.188 162.688 357.188 163.312 356.578 163.625 355.664 165.5 350.789 170.188 347.438 175.5 347.438 180.812 347.438 185.5 350.789 187.375 355.664 187.688 356.578 188.312 357.188 189.25 357.188 195.812 358.102 200.5 363.281 200.5 369.375 200.5 376.078 194.875 381.562 188 381.562Z" fill="#454545" fill-rule="evenodd"/></g></svg>