<svg width="48" height="44" xmlns="http://www.w3.org/2000/svg" xmlns:xlink="http://www.w3.org/1999/xlink" overflow="hidden"><defs><clipPath id="clip0"><rect x="1124" y="364" width="48" height="44"/></clipPath></defs><g clip-path="url(#clip0)" transform="translate(-1124 -364)"><path d="M25.0909 20.425C25.0909 20.425 25.0909 20.425 25.0909 20.425 25.0909 1.075 25.0909 1.075 25.0909 1.075 25.0909 0.5375 24.8182 0 24 0 23.4545 0 22.9091 0.5375 22.9091 1.075 22.9091 20.425 22.9091 20.425 22.9091 20.425 22.9091 20.425 22.9091 20.425 22.9091 20.425 19.9091 20.9625 17.4545 23.65 17.4545 26.875 17.4545 30.3687 20.4545 33.325 24 33.325 27.8182 33.325 30.5455 30.3687 30.5455 26.875 30.5455 23.65 28.3636 20.9625 25.0909 20.425ZM24 31.175C21.8182 31.175 19.6364 29.2937 19.6364 26.875 19.6364 24.4562 21.8182 22.575 24 22.575 26.4545 22.575 28.3636 24.4562 28.3636 26.875 28.3636 29.2937 26.4545 31.175 24 31.175ZM6.54545 6.45C7.36364 6.45 7.63636 5.9125 7.63636 5.375 7.63636 1.075 7.63636 1.075 7.63636 1.075 7.63636 0.5375 7.36364 0 6.54545 0 6 0 5.45455 0.5375 5.45455 1.075 5.45455 5.375 5.45455 5.375 5.45455 5.375 5.45455 5.9125 6 6.45 6.54545 6.45ZM41.4545 6.45C42.2727 6.45 42.5455 5.9125 42.5455 5.375 42.5455 1.075 42.5455 1.075 42.5455 1.075 42.5455 0.5375 42.2727 0 41.4545 0 40.9091 0 40.3636 0.5375 40.3636 1.075 40.3636 5.375 40.3636 5.375 40.3636 5.375 40.3636 5.9125 40.9091 6.45 41.4545 6.45ZM48 16.125C48 12.6312 45.2727 9.675 41.4545 9.675 37.9091 9.675 34.9091 12.6312 34.9091 16.125 34.9091 19.35 37.3636 22.0375 40.3636 22.575 40.3636 22.575 40.3636 22.575 40.3636 22.575 40.3636 41.925 40.3636 41.925 40.3636 41.925 40.3636 42.4625 40.9091 43 41.4545 43 42.2727 43 42.5455 42.4625 42.5455 41.925 42.5455 22.575 42.5455 22.575 42.5455 22.575 42.5455 22.575 42.5455 22.575 42.5455 22.575 45.8182 22.0375 48 19.35 48 16.125ZM41.4545 20.425C39.2727 20.425 37.0909 18.5437 37.0909 16.125 37.0909 13.7062 39.2727 11.825 41.4545 11.825 43.9091 11.825 45.8182 13.7062 45.8182 16.125 45.8182 18.5437 43.9091 20.425 41.4545 20.425ZM24 36.55C23.4545 36.55 22.9091 37.0875 22.9091 37.625 22.9091 41.925 22.9091 41.925 22.9091 41.925 22.9091 42.4625 23.4545 43 24 43 24.8182 43 25.0909 42.4625 25.0909 41.925 25.0909 37.625 25.0909 37.625 25.0909 37.625 25.0909 37.0875 24.8182 36.55 24 36.55ZM6.54545 9.675C3 9.675 0 12.6312 0 16.125 0 19.35 2.45455 22.0375 5.45455 22.575 5.45455 22.575 5.45455 22.575 5.45455 22.575 5.45455 41.925 5.45455 41.925 5.45455 41.925 5.45455 42.4625 6 43 6.54545 43 7.36364 43 7.63636 42.4625 7.63636 41.925 7.63636 22.575 7.63636 22.575 7.63636 22.575 7.63636 22.575 7.63636 22.575 7.63636 22.575 10.9091 22.0375 13.0909 19.35 13.0909 16.125 13.0909 12.6312 10.3636 9.675 6.54545 9.675ZM6.54545 20.425C4.36364 20.425 2.18182 18.5437 2.18182 16.125 2.18182 13.7062 4.36364 11.825 6.54545 11.825 9 11.825 10.9091 13.7062 10.9091 16.125 10.9091 18.5437 9 20.425 6.54545 20.425Z" fill="#595959" fill-rule="evenodd" transform="matrix(-1 0 0 1 1172 364)"/></g></svg>