<svg width="51" height="38" xmlns="http://www.w3.org/2000/svg" xmlns:xlink="http://www.w3.org/1999/xlink" overflow="hidden"><defs><clipPath id="clip0"><rect x="995" y="337" width="51" height="38"/></clipPath></defs><g clip-path="url(#clip0)" transform="translate(-995 -337)"><path d="M1026.06 355.5C1026.06 352.782 1024.17 350.55 1021.59 349.982 1021.59 344.587 1021.59 344.587 1021.59 344.587 1023.16 344.14 1024.37 342.599 1024.37 340.895 1024.37 338.785 1022.6 337 1020.5 337 1018.36 337 1016.59 338.785 1016.59 340.895 1016.59 342.68 1017.8 344.14 1019.37 344.587 1019.37 349.982 1019.37 349.982 1019.37 349.982 1016.79 350.55 1014.9 352.782 1014.9 355.5 1014.9 358.178 1016.79 360.409 1019.37 360.977 1019.37 366.373 1019.37 366.373 1019.37 366.373 1017.8 366.819 1016.59 368.361 1016.59 370.065 1016.59 372.174 1018.36 374 1020.5 374 1022.6 374 1024.37 372.174 1024.37 370.065 1024.37 368.28 1023.16 366.819 1021.59 366.373 1021.59 360.977 1021.59 360.977 1021.59 360.977 1024.17 360.409 1026.06 358.178 1026.06 355.5M1018.81 340.895C1018.81 340.002 1019.61 339.231 1020.5 339.231 1021.39 339.231 1022.15 340.002 1022.15 340.895 1022.15 341.787 1021.39 342.599 1020.5 342.599 1019.61 342.599 1018.81 341.787 1018.81 340.895M1022.15 370.065C1022.15 370.957 1021.39 371.728 1020.5 371.728 1019.61 371.728 1018.81 370.957 1018.81 370.065 1018.81 369.172 1019.61 368.361 1020.5 368.361 1021.39 368.361 1022.15 369.172 1022.15 370.065M1020.5 358.827C1018.61 358.827 1017.16 357.407 1017.16 355.5 1017.16 353.593 1018.61 352.133 1020.5 352.133 1022.39 352.133 1023.84 353.593 1023.84 355.5 1023.84 357.407 1022.39 358.827 1020.5 358.827M999.345 352.133C997.451 352.133 996 353.593 996 355.5 996 357.407 997.451 358.827 999.345 358.827 1001.24 358.827 1002.65 357.407 1002.65 355.5 1002.65 353.593 1001.24 352.133 999.345 352.133M999.345 357.731C998.095 357.731 997.088 356.717 997.088 355.5 997.088 354.242 998.095 353.228 999.345 353.228 1000.55 353.228 1001.56 354.242 1001.56 355.5 1001.56 356.717 1000.55 357.731 999.345 357.731M1009.34 357.853C1009.34 354.364 1009.34 354.364 1009.34 354.364 1008.25 354.364 1008.25 354.364 1008.25 354.364 1008.25 357.853 1008.25 357.853 1008.25 357.853 1006.68 358.056 1005.47 359.516 1005.47 361.099 1005.47 363.005 1006.88 364.466 1008.77 364.466 1010.67 364.466 1012.12 363.005 1012.12 361.099 1012.12 359.395 1010.91 358.056 1009.34 357.853M1008.77 363.33C1007.56 363.33 1006.56 362.316 1006.56 361.099 1006.56 359.841 1007.56 358.827 1008.77 358.827 1010.02 358.827 1011.03 359.841 1011.03 361.099 1011.03 362.316 1010.02 363.33 1008.77 363.33M1041.66 352.133C1039.76 352.133 1038.31 353.593 1038.31 355.5 1038.31 357.407 1039.76 358.827 1041.66 358.827 1043.55 358.827 1045 357.407 1045 355.5 1045 353.593 1043.55 352.133 1041.66 352.133M1041.66 357.731C1040.41 357.731 1039.4 356.717 1039.4 355.5 1039.4 354.242 1040.41 353.228 1041.66 353.228 1042.86 353.228 1043.87 354.242 1043.87 355.5 1043.87 356.717 1042.86 357.731 1041.66 357.731M1032.19 358.827C1030.29 358.827 1028.84 360.287 1028.84 362.194 1028.84 364.101 1030.29 365.561 1032.19 365.561 1034.08 365.561 1035.53 364.101 1035.53 362.194 1035.53 360.287 1034.08 358.827 1032.19 358.827M1032.19 364.466C1030.94 364.466 1029.97 363.452 1029.97 362.194 1029.97 360.977 1030.94 359.963 1032.19 359.963 1033.39 359.963 1034.4 360.977 1034.4 362.194 1034.4 363.452 1033.39 364.466 1032.19 364.466M1008.77 345.398C1006.88 345.398 1005.47 346.859 1005.47 348.765 1005.47 350.672 1006.88 352.133 1008.77 352.133 1010.67 352.133 1012.12 350.672 1012.12 348.765 1012.12 346.859 1010.67 345.398 1008.77 345.398M1008.77 350.997C1007.56 350.997 1006.56 349.982 1006.56 348.765 1006.56 347.508 1007.56 346.493 1008.77 346.493 1010.02 346.493 1011.03 347.508 1011.03 348.765 1011.03 349.982 1010.02 350.997 1008.77 350.997M1032.19 345.398C1030.29 345.398 1028.84 346.859 1028.84 348.765 1028.84 350.429 1030.05 351.768 1031.62 352.011 1031.62 355.5 1031.62 355.5 1031.62 355.5 1032.75 355.5 1032.75 355.5 1032.75 355.5 1032.75 352.133 1032.75 352.133 1032.75 352.133 1034.28 351.889 1035.53 350.429 1035.53 348.846 1035.53 346.859 1034.08 345.398 1032.19 345.398M1032.19 350.997C1030.94 350.997 1029.97 349.982 1029.97 348.765 1029.97 347.508 1030.94 346.493 1032.19 346.493 1033.39 346.493 1034.4 347.508 1034.4 348.765 1034.4 349.982 1033.39 350.997 1032.19 350.997" fill="#454545" fill-rule="evenodd"/></g></svg>