<svg width="55" height="46" xmlns="http://www.w3.org/2000/svg" xmlns:xlink="http://www.w3.org/1999/xlink" overflow="hidden"><defs><clipPath id="clip0"><rect x="802" y="167" width="55" height="46"/></clipPath></defs><g clip-path="url(#clip0)" transform="translate(-802 -167)"><path d="M843.241 176.266C840.951 170.64 835.716 167 829.5 167 823.284 167 818.049 170.64 815.759 176.266 808.562 177.59 803 183.547 803 191.158 803 199.101 809.87 205.719 818.049 205.719 818.704 205.719 819.358 205.388 819.358 204.727 819.358 203.734 818.704 203.403 818.049 203.403 811.179 203.403 805.617 197.777 805.617 191.158 805.617 184.87 810.198 179.245 816.741 178.583 817.395 178.583 817.395 178.583 817.395 178.583 817.722 177.921 817.722 177.921 817.722 177.921 819.358 172.957 824.265 169.317 829.5 169.317 834.735 169.317 839.642 172.957 841.278 177.921 841.605 178.583 841.605 178.583 841.605 178.583 842.259 178.583 842.259 178.583 842.259 178.583 848.802 179.245 853.383 184.87 853.383 191.158 853.383 197.777 847.821 203.403 840.951 203.403 840.296 203.403 839.642 203.734 839.642 204.727 839.642 205.388 840.296 205.719 840.951 205.719 849.13 205.719 856 199.101 856 191.158 856 183.547 850.438 177.59 843.241 176.266ZM824.265 191.158C824.265 191.158 824.265 191.158 824.265 191.158 814.451 191.158 814.451 191.158 814.451 191.158 814.123 191.158 813.796 191.489 813.796 191.82 813.796 192.151 814.123 192.482 814.451 192.482 814.451 192.482 814.451 192.482 814.451 192.482 824.265 192.482 824.265 192.482 824.265 192.482 824.265 192.482 824.265 192.482 824.265 192.482 825.247 192.482 825.901 193.144 825.901 194.137 825.901 210.683 825.901 210.683 825.901 210.683 822.302 206.05 822.302 206.05 822.302 206.05 822.302 206.05 821.975 205.719 821.648 206.05 821.321 206.381 821.321 206.712 821.321 207.043 825.901 212.669 825.901 212.669 825.901 212.669 826.228 213 826.228 213 826.556 213 826.556 213 826.556 213 826.883 213 826.883 213 827.21 212.669 827.21 212.338 827.21 194.137 827.21 194.137 827.21 194.137 827.21 192.482 825.901 191.158 824.265 191.158ZM836.698 206.381C833.099 210.683 833.099 210.683 833.099 210.683 833.099 194.137 833.099 194.137 833.099 194.137 833.099 193.144 833.753 192.482 834.735 192.482 834.735 192.482 834.735 192.482 834.735 192.482 844.549 192.482 844.549 192.482 844.549 192.482 844.549 192.482 844.549 192.482 844.549 192.482 844.877 192.482 845.204 192.151 845.204 191.82 845.204 191.489 844.877 191.158 844.549 191.158 834.735 191.158 834.735 191.158 834.735 191.158 834.735 191.158 834.735 191.158 834.735 191.158 833.099 191.158 831.79 192.482 831.79 194.137 831.79 212.669 831.79 212.669 831.79 212.669 831.79 212.669 832.117 213 832.117 213 832.444 213 832.444 213 832.444 213 832.772 213 832.772 213 833.099 213 837.679 207.043 837.679 207.043 837.679 207.043 837.679 206.712 837.679 206.381 837.352 206.05 837.025 206.05 836.698 206.05 836.698 206.381Z" fill="#454545" fill-rule="evenodd"/></g></svg>