<svg width="50" height="54" xmlns="http://www.w3.org/2000/svg" xmlns:xlink="http://www.w3.org/1999/xlink" overflow="hidden"><defs><clipPath id="clip0"><rect x="282" y="155" width="50" height="54"/></clipPath></defs><g clip-path="url(#clip0)" transform="translate(-282 -155)"><path d="M306.851 184.364C305.062 184.364 303.273 186.136 303.273 187.909 303.273 189.977 305.062 191.455 306.851 191.455 308.938 191.455 310.429 189.977 310.429 187.909 310.429 186.136 308.938 184.364 306.851 184.364ZM306.851 190.273C305.658 190.273 304.466 189.386 304.466 187.909 304.466 186.727 305.658 185.545 306.851 185.545 308.342 185.545 309.236 186.727 309.236 187.909 309.236 189.386 308.342 190.273 306.851 190.273ZM299.696 178.455C314.006 178.455 314.006 178.455 314.006 178.455 314.006 177.273 314.006 177.273 314.006 177.273 299.696 177.273 299.696 177.273 299.696 177.273L299.696 178.455ZM299.696 174.909C314.006 174.909 314.006 174.909 314.006 174.909 314.006 173.727 314.006 173.727 314.006 173.727 299.696 173.727 299.696 173.727 299.696 173.727L299.696 174.909ZM328.317 166.045C325.634 165.159 320.565 163.682 318.18 162.205 313.112 159.841 311.323 158.068 309.534 156.886 308.64 156.295 307.745 156 306.851 156 306.851 156 306.851 156 306.851 156 306.851 156 306.851 156 306.851 156 305.957 156 305.062 156.295 304.466 156.886 302.379 158.068 300.59 159.841 295.522 162.205 293.137 163.682 288.068 165.159 285.683 166.045 283.894 166.636 283 168.114 283 169.886 283.596 174.909 284.789 185.545 288.068 192.045 291.944 199.432 301.186 205.341 305.062 207.409 305.658 207.705 306.255 208 306.851 208 307.447 208 308.043 207.705 308.64 207.409 312.516 205.341 322.056 199.432 325.634 192.045 328.913 185.545 330.404 174.909 330.702 169.886 331 168.114 329.807 166.636 328.317 166.045ZM323.547 190.864C321.161 195.591 315.795 200.614 307.447 205.341 307.447 205.636 307.149 205.636 306.851 205.636 306.553 205.636 306.553 205.636 306.255 205.341 297.907 200.614 292.54 195.591 290.155 190.864 286.876 184.364 285.683 172.841 285.385 169.591 285.385 168.705 286.28 168.409 286.28 168.409 287.174 168.114 287.174 168.114 287.174 168.114 290.155 166.932 294.329 165.75 296.714 164.568 301.186 162.205 303.273 160.432 305.062 159.25 305.36 158.955 305.658 158.955 305.957 158.659 305.957 158.659 306.255 158.364 306.851 158.364 306.851 158.364 306.851 158.364 306.851 158.364 306.851 158.364 306.851 158.364 306.851 158.364 306.851 158.364 306.851 158.364 306.851 158.364 307.447 158.364 307.745 158.659 308.043 158.659 308.342 158.955 308.342 158.955 308.64 159.25 310.429 160.432 312.516 162.205 316.988 164.568 319.373 165.75 323.845 166.932 326.528 168.114 327.422 168.409 327.422 168.409 327.422 168.409 327.72 168.409 328.317 168.705 328.317 169.591 328.019 172.841 326.826 184.364 323.547 190.864ZM315.199 167.818C298.503 167.818 298.503 167.818 298.503 167.818 297.311 167.818 296.118 169 296.118 170.182 296.118 193.818 296.118 193.818 296.118 193.818 296.118 195 297.311 196.182 298.503 196.182 315.199 196.182 315.199 196.182 315.199 196.182 316.689 196.182 317.584 195 317.584 193.818 317.584 170.182 317.584 170.182 317.584 170.182 317.584 169 316.689 167.818 315.199 167.818ZM316.391 193.818C316.391 194.409 315.795 195 315.199 195 298.503 195 298.503 195 298.503 195 297.907 195 297.311 194.409 297.311 193.818 297.311 170.182 297.311 170.182 297.311 170.182 297.311 169.591 297.907 169 298.503 169 315.199 169 315.199 169 315.199 169 315.795 169 316.391 169.591 316.391 170.182L316.391 193.818Z" fill="#484848" fill-rule="evenodd"/></g></svg>