<svg width="49" height="54" xmlns="http://www.w3.org/2000/svg" xmlns:xlink="http://www.w3.org/1999/xlink" overflow="hidden"><defs><clipPath id="clip0"><rect x="328" y="503" width="49" height="54"/></clipPath></defs><g clip-path="url(#clip0)" transform="translate(-328 -503)"><path d="M356.323 529.114C355.727 531.182 355.727 531.182 355.727 531.182 353.342 524.682 353.342 524.682 353.342 524.682 352.447 524.682 352.447 524.682 352.447 524.682 350.658 527.932 350.658 527.932 350.658 527.932 348.571 527.932 348.571 527.932 348.571 527.932 347.975 529.114 347.975 529.114 347.975 529.114 346.484 531.773 346.484 531.773 346.484 531.773 344.994 527.636 344.994 527.636 344.994 527.636 344.099 528.227 344.099 528.227 344.099 528.227 346.186 533.25 346.186 533.25 346.186 533.25 347.081 533.25 347.081 533.25 347.081 533.25 349.168 529.114 349.168 529.114 349.168 529.114 350.658 529.114 350.658 529.114 350.658 529.114 351.255 529.114 351.255 529.114 351.255 529.114 352.745 526.159 352.745 526.159 352.745 526.159 355.429 533.25 355.429 533.25 355.429 533.25 356.621 533.25 356.621 533.25 356.621 533.25 357.217 529.114 357.217 529.114 357.217 529.114 360.199 529.114 360.199 529.114 360.199 529.114 360.199 527.932 360.199 527.932 360.199 527.932 356.621 527.932 356.621 527.932 356.621 527.932L356.323 529.114ZM352.149 517.295C345.59 517.295 340.224 522.614 340.224 529.114 340.224 535.614 345.59 540.636 352.149 540.636 358.708 540.636 364.075 535.614 364.075 529.114 364.075 522.614 358.708 517.295 352.149 517.295ZM352.149 539.455C346.186 539.455 341.416 534.727 341.416 529.114 341.416 523.205 346.186 518.477 352.149 518.477 357.814 518.477 362.882 523.205 362.882 529.114 362.882 534.727 357.814 539.455 352.149 539.455ZM373.317 514.045C370.932 513.159 365.863 511.386 363.478 510.205 358.41 507.841 356.323 506.068 354.534 504.591 353.938 504.295 353.043 504 352.149 504 352.149 504 352.149 504 352.149 504 352.149 504 352.149 504 352.149 504 351.255 504 350.36 504.295 349.466 504.591 347.677 506.068 345.888 507.841 340.82 510.205 338.137 511.386 333.366 513.159 330.683 514.045 329.193 514.636 328 515.818 328.298 517.591 328.596 522.909 330.087 533.545 333.366 540.045 336.944 547.432 346.484 553.045 350.062 555.409 350.658 555.705 351.553 556 352.149 556 352.745 556 353.342 555.705 353.938 555.409 357.814 553.045 367.056 547.432 370.932 540.045 374.211 533.545 375.404 522.909 376 517.591 376 515.818 375.106 514.636 373.317 514.045ZM368.845 538.864C366.46 543.591 361.093 548.318 352.745 553.341 352.447 553.636 352.149 553.636 352.149 553.636 351.851 553.636 351.553 553.636 351.553 553.341 343.205 548.318 337.839 543.591 335.453 538.864 332.174 532.364 330.981 520.841 330.683 517.591 330.683 516.705 331.28 516.409 331.578 516.114 332.472 515.818 332.472 515.818 332.472 515.818 335.155 514.932 339.329 513.455 341.714 512.273 346.484 510.205 348.571 508.432 350.36 507.25 350.658 506.955 350.658 506.659 350.957 506.659 351.255 506.364 351.553 506.364 351.851 506.364 351.851 506.364 351.851 506.364 351.851 506.364 352.149 506.364 352.149 506.364 352.149 506.364 352.149 506.364 352.149 506.364 352.149 506.364 352.745 506.364 353.043 506.364 353.043 506.659 353.342 506.659 353.64 506.955 353.938 507.25 355.727 508.432 357.814 510.205 362.286 512.273 364.671 513.455 368.845 514.932 371.826 515.818 372.72 516.114 372.72 516.114 372.72 516.114 372.72 516.409 373.615 516.705 373.615 517.591 373.317 520.841 372.124 532.364 368.845 538.864Z" fill="#484848" fill-rule="evenodd"/></g></svg>