<svg width="49" height="52" xmlns="http://www.w3.org/2000/svg" xmlns:xlink="http://www.w3.org/1999/xlink" overflow="hidden"><defs><clipPath id="clip0"><rect x="497" y="335" width="49" height="52"/></clipPath></defs><g clip-path="url(#clip0)" transform="translate(-497 -335)"><path d="M542.373 344.852C540.037 343.983 535.075 342.534 532.739 341.375 527.776 338.767 525.733 337.028 523.981 335.869 523.398 335.29 522.522 335 521.646 335 521.646 335 521.646 335 521.646 335 521.646 335 521.646 335 521.646 335 520.77 335 519.894 335.29 519.019 335.869 517.267 337.028 515.516 338.767 510.553 341.375 507.925 342.534 503.255 343.983 500.627 344.852 499.168 345.432 498 346.881 498.292 348.619 498.584 353.545 500.043 363.977 503.255 370.352 506.758 377.597 516.099 383.392 519.602 385.42 520.186 386 521.062 386 521.646 386 522.23 386 522.814 386 523.398 385.42 527.193 383.392 536.242 377.597 540.037 370.352 543.248 363.977 544.416 353.545 545 348.619 545 346.881 544.124 345.432 542.373 344.852ZM537.994 369.193C535.658 373.83 530.404 378.756 522.23 383.392 521.938 383.682 521.646 383.682 521.646 383.682 521.354 383.682 521.062 383.682 521.062 383.392 512.888 378.756 507.634 373.83 505.298 369.193 502.087 362.818 500.919 351.517 500.627 348.33 500.627 347.46 501.211 347.17 501.503 347.17 502.379 346.881 502.379 346.881 502.379 346.881 505.006 345.722 509.093 344.562 511.429 343.403 516.099 341.085 518.143 339.347 519.894 338.188 520.186 337.898 520.186 337.898 520.478 337.608 520.77 337.608 521.062 337.318 521.354 337.318 521.354 337.318 521.354 337.318 521.354 337.318 521.646 337.318 521.646 337.318 521.646 337.318 521.646 337.318 521.646 337.318 521.646 337.318 522.23 337.318 522.522 337.608 522.522 337.608 522.814 337.898 523.106 337.898 523.398 338.188 525.149 339.347 527.193 341.085 531.571 343.403 533.907 344.562 537.994 345.722 540.913 346.881 541.789 347.17 541.789 347.17 541.789 347.17 541.789 347.17 542.665 347.46 542.665 348.33 542.373 351.517 541.205 362.818 537.994 369.193ZM533.031 352.097C528.652 351.227 524.565 349.199 522.814 347.46 522.522 347.17 521.938 347.17 521.646 347.17 521.354 347.17 520.77 347.17 520.478 347.46 518.435 349.199 514.64 351.227 510.261 352.097 509.677 352.097 509.093 353.256 509.093 354.125 509.385 354.415 509.385 354.994 509.385 355.574 509.677 358.472 509.969 362.818 513.18 366.875 515.224 369.483 518.143 372.381 521.062 373.83 521.062 374.119 521.354 374.119 521.646 374.119 521.938 374.119 522.23 374.119 522.23 373.83 525.149 372.381 528.36 369.483 530.112 366.875 533.031 363.108 533.323 358.472 533.907 355.284 533.907 354.994 533.907 354.415 533.907 354.125 533.907 353.545 533.907 352.097 533.031 352.097ZM529.236 366.295C527.484 368.614 524.273 371.511 521.938 372.96 521.646 372.96 521.646 372.96 521.646 372.96 521.646 372.96 521.646 372.96 521.646 372.96 519.019 371.511 516.099 368.614 514.056 366.295 513.18 364.847 512.304 363.398 511.72 361.949 521.646 366.006 521.646 366.006 521.646 366.006 531.279 361.949 531.279 361.949 531.279 361.949 530.696 363.398 530.112 364.847 529.236 366.295ZM531.863 360.5C521.646 364.847 521.646 364.847 521.646 364.847 511.429 360.5 511.429 360.5 511.429 360.5 511.137 359.051 510.845 357.892 510.845 356.733 521.646 361.08 521.646 361.08 521.646 361.08 532.447 356.733 532.447 356.733 532.447 356.733 532.155 357.892 532.155 359.051 531.863 360.5ZM532.447 355.284C532.447 355.284 532.447 355.284 532.447 355.284 521.646 359.92 521.646 359.92 521.646 359.92 510.553 355.284 510.553 355.284 510.553 355.284 510.553 354.705 510.553 354.415 510.553 353.835 510.553 353.835 510.553 353.545 510.553 353.256 515.224 352.386 519.311 350.068 521.354 348.33 521.354 348.33 521.354 348.33 521.646 348.33 521.938 348.33 521.938 348.33 521.938 348.33 523.981 350.068 528.068 352.386 532.739 353.256 532.739 353.545 532.739 353.545 532.739 353.835 532.739 354.125 532.739 354.705 532.447 355.284Z" fill="#484848" fill-rule="evenodd"/></g></svg>