<svg width="43" height="43" xmlns="http://www.w3.org/2000/svg" xmlns:xlink="http://www.w3.org/1999/xlink" overflow="hidden"><defs><clipPath id="clip0"><rect x="674" y="167" width="43" height="43"/></clipPath></defs><g clip-path="url(#clip0)" transform="translate(-674 -167)"><path d="M696.255 178.154 696.025 177 688 177.808 705.083 195 706 194.192 690.522 178.615 696.255 178.154Z" fill="#454545" fill-rule="evenodd"/><path d="M685 183.584 700.478 199.247 694.975 199.831 694.975 201 703 200.416 685.917 183 685 183.584Z" fill="#454545" fill-rule="evenodd"/><path d="M712.493 180.711C703.592 180.711 703.592 180.711 703.592 180.711 703.592 171.592 703.592 171.592 703.592 171.592 703.592 169.658 701.974 168 700.086 168 678.507 168 678.507 168 678.507 168 676.618 168 675 169.658 675 171.592 675 193.697 675 193.697 675 193.697 675 195.632 676.618 197.289 678.507 197.289 687.408 197.289 687.408 197.289 687.408 197.289 687.408 206.408 687.408 206.408 687.408 206.408 687.408 208.342 689.026 210 690.914 210 712.493 210 712.493 210 712.493 210 714.382 210 716 208.342 716 206.408 716 184.303 716 184.303 716 184.303 716 182.368 714.382 180.711 712.493 180.711ZM713.842 206.408C713.842 207.237 713.303 207.789 712.493 207.789 690.914 207.789 690.914 207.789 690.914 207.789 690.105 207.789 689.566 207.237 689.566 206.408 689.566 195.079 689.566 195.079 689.566 195.079 678.507 195.079 678.507 195.079 678.507 195.079 677.697 195.079 677.158 194.526 677.158 193.697 677.158 171.592 677.158 171.592 677.158 171.592 677.158 170.763 677.697 170.211 678.507 170.211 700.086 170.211 700.086 170.211 700.086 170.211 700.895 170.211 701.434 170.763 701.434 171.592 701.434 182.921 701.434 182.921 701.434 182.921 712.493 182.921 712.493 182.921 712.493 182.921 713.303 182.921 713.842 183.474 713.842 184.303L713.842 206.408Z" fill="#454545" fill-rule="evenodd"/></g></svg>