<svg width="52" height="47" xmlns="http://www.w3.org/2000/svg" xmlns:xlink="http://www.w3.org/1999/xlink" overflow="hidden"><defs><clipPath id="clip0"><rect x="1036" y="163" width="52" height="47"/></clipPath></defs><g clip-path="url(#clip0)" transform="translate(-1036 -163)"><path d="M1062.79 190.738C1062.79 190.738 1062.21 190.738 1062.21 190.738 1055.26 196.488 1055.26 196.488 1055.26 196.488 1054.97 196.775 1054.97 197.062 1054.97 197.35 1055.26 197.637 1055.55 197.637 1055.84 197.35 1061.92 192.462 1061.92 192.462 1061.92 192.462 1061.92 203.962 1061.92 203.962 1061.92 203.962 1061.92 204.25 1062.21 204.538 1062.5 204.538 1062.79 204.538 1063.08 204.25 1063.08 203.962 1063.08 192.462 1063.08 192.462 1063.08 192.462 1069.16 197.35 1069.16 197.35 1069.16 197.35 1069.16 197.637 1069.45 197.637 1069.45 197.637 1069.74 197.637 1069.74 197.637 1070.03 197.35 1070.03 197.062 1070.03 196.775 1069.74 196.488L1062.79 190.738ZM1072.35 189.875C1064.53 185.562 1064.53 185.562 1064.53 185.562 1063.95 185.275 1063.08 184.988 1062.5 184.988 1061.92 184.988 1061.05 185.275 1060.47 185.562 1052.94 189.875 1052.94 189.875 1052.94 189.875 1051.78 190.45 1050.91 191.887 1050.91 193.038 1050.91 201.95 1050.91 201.95 1050.91 201.95 1050.91 203.1 1051.78 204.538 1052.94 205.113 1060.47 209.712 1060.47 209.712 1060.47 209.712 1061.05 210 1061.92 210 1062.5 210 1063.08 210 1063.95 210 1064.53 209.712 1072.35 205.113 1072.35 205.113 1072.35 205.113 1073.22 204.538 1074.09 203.1 1074.09 201.95 1074.09 193.038 1074.09 193.038 1074.09 193.038 1074.09 191.887 1073.22 190.45 1072.35 189.875ZM1072.93 201.95C1072.93 202.812 1072.35 203.962 1071.77 204.25 1063.95 208.562 1063.95 208.562 1063.95 208.562 1063.37 208.85 1063.08 209.137 1062.5 209.137 1061.92 209.137 1061.63 208.85 1061.05 208.562 1053.52 204.25 1053.52 204.25 1053.52 204.25 1052.65 203.962 1052.07 202.812 1052.07 201.95 1052.07 193.038 1052.07 193.038 1052.07 193.038 1052.07 192.462 1052.65 191.312 1053.52 191.025 1061.34 186.425 1061.34 186.425 1061.34 186.425 1061.63 186.137 1061.92 186.137 1062.5 186.137 1063.08 186.137 1063.37 186.137 1063.95 186.425 1071.77 191.025 1071.77 191.025 1071.77 191.025 1072.35 191.312 1072.93 192.462 1072.93 193.038L1072.93 201.95ZM1075.83 172.913C1073.8 167.738 1068.3 164 1062.5 164 1056.7 164 1051.2 167.738 1049.17 172.913 1042.22 174.062 1037 180.1 1037 187 1037 192.462 1041.35 197.35 1045.69 199.65 1046.27 199.938 1046.85 199.938 1047.43 199.363 1047.72 198.788 1047.43 197.925 1046.85 197.637 1043.09 195.625 1039.32 191.6 1039.32 187 1039.32 180.962 1043.95 175.788 1050.04 175.212 1050.62 175.212 1050.91 174.925 1051.2 174.35 1052.65 169.75 1057.28 166.3 1062.5 166.3 1067.72 166.3 1072.35 169.75 1074.09 174.35 1074.09 174.925 1074.38 175.212 1074.96 175.212 1081.05 175.788 1085.68 180.962 1085.68 187 1085.68 191.887 1082.78 195.913 1078.44 197.637 1077.57 197.925 1077.28 198.5 1077.57 199.075 1077.86 199.65 1078.15 199.938 1078.73 199.938 1079.02 199.938 1079.02 199.938 1079.02 199.65 1084.81 197.637 1088 192.75 1088 187 1088 180.1 1082.78 174.062 1075.83 172.913Z" fill="#404040" fill-rule="evenodd"/></g></svg>