<svg width="44" height="43" xmlns="http://www.w3.org/2000/svg" xmlns:xlink="http://www.w3.org/1999/xlink" overflow="hidden"><defs><clipPath id="clip0"><rect x="244" y="175" width="44" height="43"/></clipPath></defs><g clip-path="url(#clip0)" transform="translate(-244 -175)"><path d="M271.627 191.765C246.56 191.765 246.56 191.765 246.56 191.765 245.191 191.765 244 192.92 244 194.306 244 210.186 244 210.186 244 210.186 244 211.514 245.191 212.669 246.56 212.669 271.627 212.669 271.627 212.669 271.627 212.669 273.055 212.669 274.246 211.514 274.246 210.186 274.246 194.306 274.246 194.306 274.246 194.306 274.306 192.92 273.115 191.765 271.627 191.765ZM272.162 210.186C272.162 210.359 271.924 210.59 271.746 210.59 246.56 210.59 246.56 210.59 246.56 210.59 246.382 210.59 246.143 210.359 246.143 210.186 246.143 194.306 246.143 194.306 246.143 194.306 246.143 194.075 246.382 193.844 246.56 193.844 271.627 193.844 271.627 193.844 271.627 193.844 271.805 193.844 272.043 194.075 272.043 194.306 272.043 210.186 272.043 210.186 272.043 210.186L272.162 210.186ZM282.999 192.804C286.154 192.804 286.154 192.804 286.154 192.804 286.154 191.765 286.154 191.765 286.154 191.765 282.999 191.765 282.999 191.765 282.999 191.765L282.999 192.804ZM281.927 197.424C281.927 185.066 281.927 185.066 281.927 185.066 281.927 184.085 281.153 183.334 280.081 183.334 259.778 183.334 259.778 183.334 259.778 183.334 258.825 183.334 257.932 184.085 257.932 185.066 257.932 190.321 257.932 190.321 257.932 190.321 259.064 190.321 259.064 190.321 259.064 190.321 259.064 185.066 259.064 185.066 259.064 185.066 259.064 184.72 259.361 184.431 259.778 184.431 280.081 184.431 280.081 184.431 280.081 184.431 280.498 184.431 280.855 184.72 280.855 185.066 280.855 197.424 280.855 197.424 280.855 197.424 280.855 197.77 280.498 198.059 280.081 198.059 276.509 198.059 276.509 198.059 276.509 198.059 276.509 199.156 276.509 199.156 276.509 199.156 280.081 199.156 280.081 199.156 280.081 199.156 281.034 199.156 281.927 198.406 281.927 197.424ZM270.019 178.541C270.019 178.31 270.198 178.079 270.436 178.079 285.797 178.079 285.797 178.079 285.797 178.079 286.035 178.079 286.273 178.31 286.273 178.541 286.273 188.185 286.273 188.185 286.273 188.185 286.273 188.415 286.035 188.589 285.797 188.589 282.999 188.589 282.999 188.589 282.999 188.589 282.999 189.686 282.999 189.686 282.999 189.686 285.797 189.686 285.797 189.686 285.797 189.686 286.69 189.686 287.345 189.051 287.345 188.185 287.345 178.541 287.345 178.541 287.345 178.541 287.345 177.675 286.69 177.039 285.797 177.039 270.317 177.039 270.317 177.039 270.317 177.039 269.424 177.039 268.769 177.675 268.769 178.541 268.769 182.006 268.769 182.006 268.769 182.006 269.9 182.006 269.9 182.006 269.9 182.006 269.9 178.541 269.9 178.541 269.9 178.541L270.019 178.541ZM276.509 202.275C279.664 202.275 279.664 202.275 279.664 202.275 279.664 201.235 279.664 201.235 279.664 201.235 276.509 201.235 276.509 201.235 276.509 201.235L276.509 202.275ZM246.917 188.935C247.453 188.935 248.763 188.531 252.455 186.741 252.633 186.625 252.752 186.279 252.633 185.99 252.514 185.759 252.217 185.644 251.919 185.759 250.371 186.51 248.763 187.261 247.632 187.665 250.788 181.255 257.396 177.155 264.898 177.155 265.018 177.155 265.018 177.155 265.137 177.155 265.434 177.039 265.792 176.866 265.792 176.52 265.792 176.231 265.553 176 265.196 176 265.137 176 265.137 176 265.018 176 256.742 176 249.478 180.735 246.382 188.069 246.263 188.3 246.382 188.589 246.441 188.704 246.679 188.82 246.679 188.935 246.917 188.935ZM287.226 196.904C286.809 196.789 286.452 196.731 282.701 201.235 282.463 201.466 282.582 201.755 282.76 201.986 282.999 202.159 283.296 202.044 283.535 201.87 284.606 200.6 285.797 199.214 286.571 198.521 286.452 205.624 282.046 212.034 275.199 214.979 274.842 215.094 274.782 215.441 274.842 215.73 274.961 215.961 275.199 216.076 275.437 216.076 275.497 216.076 275.497 216.076 275.616 216.076 283.237 212.9 288 205.566 287.643 197.539 287.524 197.251 287.464 196.904 287.226 196.904ZM270.019 214.921C248.287 214.921 248.287 214.921 248.287 214.921 247.632 214.921 247.215 215.325 247.215 215.961 247.215 216.596 247.632 217 248.287 217 270.019 217 270.019 217 270.019 217 270.614 217 271.091 216.596 271.091 215.961 271.091 215.325 270.555 214.921 270.019 214.921Z" fill="#454545" fill-rule="evenodd"/></g></svg>