<svg width="41" height="42" xmlns="http://www.w3.org/2000/svg" xmlns:xlink="http://www.w3.org/1999/xlink" overflow="hidden"><defs><clipPath id="clip0"><rect x="437" y="499" width="41" height="42"/></clipPath></defs><g clip-path="url(#clip0)" transform="translate(-437 -499)"><path d="M452.091 517.273C453.368 517.273 454.364 516.277 454.364 515 454.364 513.723 453.368 512.727 452.091 512.727 450.814 512.727 449.818 513.723 449.818 515 449.818 516.277 450.814 517.273 452.091 517.273ZM452.091 513.636C452.816 513.636 453.455 514.275 453.455 515 453.455 515.725 452.816 516.364 452.091 516.364 451.366 516.364 450.727 515.725 450.727 515 450.727 514.275 451.366 513.636 452.091 513.636ZM438.909 513.636C439.45 513.636 439.818 513.268 439.818 512.727 439.818 504.459 439.818 504.459 439.818 504.459 439.818 502.998 440.998 501.818 442.459 501.818 450.727 501.818 450.727 501.818 450.727 501.818 451.268 501.818 451.636 501.45 451.636 500.909 451.636 500.368 451.268 500 450.727 500 442.459 500 442.459 500 442.459 500 440.002 500 438 502.002 438 504.459 438 512.727 438 512.727 438 512.727 438 513.268 438.368 513.636 438.909 513.636ZM473.541 500C465.273 500 465.273 500 465.273 500 464.732 500 464.364 500.368 464.364 500.909 464.364 501.45 464.732 501.818 465.273 501.818 473.541 501.818 473.541 501.818 473.541 501.818 475.002 501.818 476.182 502.998 476.182 504.459 476.182 512.727 476.182 512.727 476.182 512.727 476.182 513.268 476.55 513.636 477.091 513.636 477.632 513.636 478 513.268 478 512.727 478 504.459 478 504.459 478 504.459 478 502.002 475.998 500 473.541 500ZM477.091 526.364C476.55 526.364 476.182 526.732 476.182 527.273 476.182 535.541 476.182 535.541 476.182 535.541 476.182 537.002 475.002 538.182 473.541 538.182 465.273 538.182 465.273 538.182 465.273 538.182 464.732 538.182 464.364 538.55 464.364 539.091 464.364 539.632 464.732 540 465.273 540 473.541 540 473.541 540 473.541 540 475.998 540 478 537.998 478 535.541 478 527.273 478 527.273 478 527.273 478 526.732 477.632 526.364 477.091 526.364ZM443.455 510.909C443.455 529.091 443.455 529.091 443.455 529.091 443.455 530.087 444.277 530.909 445.273 530.909 470.727 530.909 470.727 530.909 470.727 530.909 471.723 530.909 472.545 530.087 472.545 529.091 472.545 510.909 472.545 510.909 472.545 510.909 472.545 509.913 471.723 509.091 470.727 509.091 445.273 509.091 445.273 509.091 445.273 509.091 444.277 509.091 443.455 509.913 443.455 510.909ZM471.636 529.091C471.636 529.632 471.268 530 470.727 530 445.273 530 445.273 530 445.273 530 444.732 530 444.364 529.632 444.364 529.091 444.364 528.366 444.364 528.366 444.364 528.366 450.814 521.548 450.814 521.548 450.814 521.548 456.82 525.823 456.82 525.823 456.82 525.823 457.004 525.909 457.275 525.909 457.459 525.725 467.816 515 467.816 515 467.816 515 471.723 518.82 471.723 518.82 471.723 518.82 471.723 529.091 471.723 529.091 471.723 529.091L471.636 529.091ZM471.636 510.909C471.636 517.543 471.636 517.543 471.636 517.543 468.087 514.091 468.087 514.091 468.087 514.091 468 514.004 467.913 514.004 467.729 514.004 467.632 514.004 467.459 514.091 467.361 514.177 457.004 524.816 457.004 524.816 457.004 524.816 450.998 520.541 450.998 520.541 450.998 520.541 450.814 520.455 450.543 520.455 450.359 520.639 444.364 527.002 444.364 527.002 444.364 527.002 444.364 510.909 444.364 510.909 444.364 510.909 444.364 510.368 444.732 510 445.273 510 470.727 510 470.727 510 470.727 510 471.268 510 471.636 510.368 471.636 510.909ZM450.727 538.182C442.459 538.182 442.459 538.182 442.459 538.182 440.998 538.182 439.818 537.002 439.818 535.541 439.818 527.273 439.818 527.273 439.818 527.273 439.818 526.732 439.45 526.364 438.909 526.364 438.368 526.364 438 526.732 438 527.273 438 535.541 438 535.541 438 535.541 438 537.998 440.002 540 442.459 540 450.727 540 450.727 540 450.727 540 451.268 540 451.636 539.632 451.636 539.091 451.636 538.55 451.268 538.182 450.727 538.182Z" fill="#454545" fill-rule="evenodd"/></g></svg>