<svg width="48" height="27" xmlns="http://www.w3.org/2000/svg" xmlns:xlink="http://www.w3.org/1999/xlink" overflow="hidden"><defs><clipPath id="clip0"><rect x="1071" y="192" width="48" height="27"/></clipPath></defs><g clip-path="url(#clip0)" transform="translate(-1071 -192)"><path d="M1091.73 212.974C1089.74 215.002 1087.13 216.016 1084.34 216.016 1081.55 216.016 1078.99 215.002 1077 212.974 1074.96 210.945 1073.99 208.344 1073.99 205.522 1073.99 202.7 1074.96 200.055 1077 198.026 1078.99 196.042 1081.55 195.028 1084.34 195.028 1087.13 195.028 1089.74 196.042 1091.73 198.026 1102.25 208.917 1102.25 208.917 1102.25 208.917 1104.07 210.769 1107.25 210.769 1109.02 208.917 1109.82 207.947 1110.44 206.713 1110.44 205.522 1110.44 204.287 1110.04 203.097 1109.02 202.083 1108.05 201.069 1106.85 200.672 1105.66 200.672 1105.04 200.672 1104.64 201.069 1104.64 201.686 1104.64 202.259 1105.04 202.7 1105.66 202.7 1106.46 202.7 1107.03 202.877 1107.65 203.494 1108.22 204.111 1108.45 204.684 1108.45 205.522 1108.45 206.316 1108.22 206.933 1107.65 207.506 1106.46 208.52 1104.64 208.52 1103.67 207.506 1093.1 196.616 1093.1 196.616 1093.1 196.616 1090.71 194.19 1087.75 193 1084.34 193 1080.98 193 1077.97 194.19 1075.58 196.616 1073.19 199.041 1072 202.083 1072 205.522 1072 208.917 1073.19 211.959 1075.58 214.384 1077.97 216.81 1080.98 218 1084.34 218 1087.53 218 1090.71 216.81 1093.1 214.384 1093.5 213.988 1093.5 213.37 1093.1 212.974 1092.7 212.577 1092.12 212.577 1091.73 212.974ZM1088.94 200.848C1099.47 211.563 1099.47 211.563 1099.47 211.563 1101.06 213.37 1103.05 214.164 1105.44 214.164 1107.83 214.164 1110.04 213.37 1111.41 211.739 1113.22 210.152 1114.02 207.947 1114.02 205.698 1114.02 203.494 1113 201.289 1111.41 199.658 1109.02 197.233 1105.26 196.616 1102.08 197.85 1101.46 198.247 1101.28 198.644 1101.46 199.261 1101.86 199.878 1102.25 200.055 1102.87 199.878 1105.26 198.864 1108.22 199.437 1110.04 201.289 1111.41 202.48 1112.03 204.287 1112.03 205.919 1112.03 207.506 1111.23 209.358 1110.04 210.548 1107.43 212.974 1103.05 212.974 1100.66 210.548 1090.13 199.658 1090.13 199.658 1090.13 199.658 1088.54 197.85 1086.33 197.056 1084.16 197.056 1081.95 197.056 1079.78 198.026 1078.19 199.658 1076.38 201.289 1075.58 203.494 1075.58 205.698 1075.58 207.947 1076.6 210.152 1078.19 211.739 1080.58 214.164 1084.34 214.781 1087.53 213.591 1088.14 213.15 1088.32 212.753 1088.14 212.18 1087.75 211.563 1087.35 211.342 1086.73 211.563 1084.34 212.577 1081.38 211.959 1079.56 210.152 1078.19 208.917 1077.57 207.33 1077.57 205.522 1077.57 203.891 1078.37 202.083 1079.56 200.848 1082.17 198.467 1086.55 198.467 1088.94 200.848ZM1114.42 196.616C1112.03 194.19 1109.02 193 1105.66 193 1102.25 193 1099.29 194.19 1096.9 196.616 1096.5 197.012 1096.5 197.63 1096.9 198.026 1097.3 198.467 1097.88 198.467 1098.27 198.026 1100.26 196.042 1102.87 195.028 1105.66 195.028 1108.45 195.028 1111.01 196.042 1113 198.026 1114.99 200.055 1116.01 202.7 1116.01 205.522 1116.01 208.344 1114.99 210.945 1113 212.974 1111.01 215.002 1108.45 216.016 1105.66 216.016 1102.87 216.016 1100.26 215.002 1098.27 212.974 1087.75 202.083 1087.75 202.083 1087.75 202.083 1085.93 200.275 1082.75 200.275 1080.98 202.083 1080.18 203.097 1079.56 204.287 1079.56 205.522 1079.56 206.713 1079.96 208.123 1080.98 208.917 1081.95 209.755 1083.15 210.328 1084.34 210.328 1084.96 210.328 1085.36 209.931 1085.36 209.358 1085.36 208.741 1084.96 208.344 1084.34 208.344 1083.54 208.344 1082.97 208.123 1082.35 207.506 1081.78 206.933 1081.55 206.316 1081.55 205.522 1081.55 204.684 1081.78 204.111 1082.35 203.494 1083.37 202.48 1085.36 202.48 1086.33 203.494 1096.68 214.384 1096.68 214.384 1096.68 214.384 1099.07 216.81 1102.08 218 1105.44 218 1108.84 218 1111.81 216.81 1114.42 214.384 1116.81 211.959 1118 208.917 1118 205.522 1118 202.083 1116.81 199.041 1114.42 196.616Z" fill="#454545" fill-rule="evenodd"/></g></svg>