<svg width="39" height="45" xmlns="http://www.w3.org/2000/svg" xmlns:xlink="http://www.w3.org/1999/xlink" overflow="hidden"><defs><clipPath id="clip0"><rect x="935" y="163" width="39" height="45"/></clipPath></defs><g clip-path="url(#clip0)" transform="translate(-935 -163)"><path d="M943.516 175.579C955.078 175.579 955.078 175.579 955.078 175.579 955.367 175.579 955.656 175.289 955.656 175 955.656 174.711 955.367 174.421 955.078 174.421 943.516 174.421 943.516 174.421 943.516 174.421 943.227 174.421 942.938 174.711 942.938 175 942.938 175.289 943.227 175.579 943.516 175.579ZM955.945 199.316C957.102 198.158 957.969 196.132 957.969 194.105 957.969 189.763 954.211 186 949.875 186 945.539 186 941.781 189.763 941.781 194.105 941.781 198.447 945.539 202.211 949.875 202.211 951.898 202.211 953.633 201.342 955.078 200.184 958.258 203.079 958.258 203.079 958.258 203.079 958.258 203.368 958.258 203.368 958.547 203.368 958.836 203.368 958.836 203.368 958.836 203.079 959.125 203.079 959.125 202.5 958.836 202.5L955.945 199.316ZM949.875 201.053C946.117 201.053 942.938 197.868 942.938 194.105 942.938 190.342 946.117 187.158 949.875 187.158 953.633 187.158 956.812 190.342 956.812 194.105 956.812 197.868 953.633 201.053 949.875 201.053ZM942.938 183.105C942.938 183.395 943.227 183.684 943.516 183.684 965.484 183.684 965.484 183.684 965.484 183.684 965.773 183.684 966.062 183.395 966.062 183.105 966.062 182.816 965.773 182.526 965.484 182.526 943.516 182.526 943.516 182.526 943.516 182.526 943.227 182.526 942.938 182.816 942.938 183.105ZM959.703 164C940.336 164 940.336 164 940.336 164 938.023 164 936 166.026 936 168.632 936 203.368 936 203.368 936 203.368 936 205.974 938.023 208 940.336 208 968.664 208 968.664 208 968.664 208 970.977 208 973 205.974 973 203.368 973 177.316 973 177.316 973 177.316L959.703 164ZM959.125 166.895C970.109 177.895 970.109 177.895 970.109 177.895 961.727 177.895 961.727 177.895 961.727 177.895 960.281 177.895 959.125 176.447 959.125 175L959.125 166.895ZM970.688 203.368C970.688 204.526 969.82 205.684 968.664 205.684 940.336 205.684 940.336 205.684 940.336 205.684 939.18 205.684 938.312 204.526 938.312 203.368 938.312 168.632 938.312 168.632 938.312 168.632 938.312 167.474 939.18 166.316 940.336 166.316 957.969 166.316 957.969 166.316 957.969 166.316 957.969 175 957.969 175 957.969 175 957.969 177.316 959.703 179.053 961.727 179.053 970.688 179.053 970.688 179.053 970.688 179.053L970.688 203.368Z" fill="#454545" fill-rule="evenodd"/></g></svg>