<svg width="43" height="43" xmlns="http://www.w3.org/2000/svg" xmlns:xlink="http://www.w3.org/1999/xlink" overflow="hidden"><defs><clipPath id="clip0"><rect x="263" y="333" width="43" height="43"/></clipPath></defs><g clip-path="url(#clip0)" transform="translate(-263 -333)"><path d="M301.182 333C266.818 333 266.818 333 266.818 333 264.716 333 263 334.716 263 336.818 263 364.5 263 364.5 263 364.5 263 366.602 264.716 368.318 266.818 368.318 301.182 368.318 301.182 368.318 301.182 368.318 303.284 368.318 305 366.602 305 364.5 305 336.818 305 336.818 305 336.818 305 334.716 303.284 333 301.182 333ZM303.091 364.5C303.091 365.545 302.227 366.409 301.182 366.409 266.818 366.409 266.818 366.409 266.818 366.409 265.773 366.409 264.909 365.545 264.909 364.5 264.909 336.818 264.909 336.818 264.909 336.818 264.909 335.773 265.773 334.909 266.818 334.909 301.182 334.909 301.182 334.909 301.182 334.909 302.227 334.909 303.091 335.773 303.091 336.818L303.091 364.5ZM274.455 338.25C274.455 337.966 274.261 337.773 273.977 337.773 268.25 337.773 268.25 337.773 268.25 337.773 268.159 337.773 268.159 337.773 268.057 337.773 267.966 337.864 267.864 337.966 267.773 338.057 267.773 338.159 267.773 338.159 267.773 338.25 267.773 343.977 267.773 343.977 267.773 343.977 267.773 344.261 267.966 344.455 268.25 344.455 268.534 344.455 268.727 344.261 268.727 343.977 268.727 339.398 268.727 339.398 268.727 339.398 273.591 344.261 273.591 344.261 273.591 344.261 273.693 344.364 273.784 344.364 273.977 344.364 274.17 344.364 274.261 344.364 274.364 344.261 274.545 344.068 274.545 343.784 274.364 343.591 269.398 338.727 269.398 338.727 269.398 338.727 273.977 338.727 273.977 338.727 273.977 338.727 274.261 338.727 274.455 338.534 274.455 338.25ZM301.182 373.091C266.818 373.091 266.818 373.091 266.818 373.091 266.25 373.091 265.864 373.477 265.864 374.045 265.864 374.614 266.25 375 266.818 375 301.182 375 301.182 375 301.182 375 301.75 375 302.136 374.614 302.136 374.045 302.136 373.477 301.75 373.091 301.182 373.091ZM299.75 356.864C299.466 356.864 299.273 357.057 299.273 357.341 299.273 361.92 299.273 361.92 299.273 361.92 294.409 357.057 294.409 357.057 294.409 357.057 294.216 356.864 293.932 356.864 293.739 357.057 293.545 357.25 293.545 357.534 293.739 357.727 298.602 362.591 298.602 362.591 298.602 362.591 294.023 362.591 294.023 362.591 294.023 362.591 293.739 362.591 293.545 362.784 293.545 363.068 293.545 363.352 293.739 363.545 294.023 363.545 299.75 363.545 299.75 363.545 299.75 363.545 299.841 363.545 299.841 363.545 299.943 363.545 300.034 363.455 300.136 363.455 300.227 363.261 300.227 363.159 300.227 363.159 300.227 363.068 300.227 357.341 300.227 357.341 300.227 357.341 300.227 357.057 300.034 356.864 299.75 356.864Z" fill="#454545" fill-rule="evenodd"/></g></svg>