<svg width="43" height="48" xmlns="http://www.w3.org/2000/svg" xmlns:xlink="http://www.w3.org/1999/xlink" overflow="hidden"><defs><clipPath id="clip0"><rect x="916" y="325" width="43" height="48"/></clipPath></defs><g clip-path="url(#clip0)" transform="translate(-916 -325)"><path d="M956.513 335.047C940.487 325.837 940.487 325.837 940.487 325.837 939.105 325 936.895 325 935.513 325.837 919.487 335.047 919.487 335.047 919.487 335.047 918.105 335.884 917 337.558 917 339.233 917 358.767 917 358.767 917 358.767 917 360.442 918.105 362.395 919.487 363.233 935.513 372.442 935.513 372.442 935.513 372.442 936.066 372.721 936.895 373 938 373 938.829 373 939.658 372.721 940.487 372.442 956.513 363.233 956.513 363.233 956.513 363.233 957.895 362.395 959 360.442 959 358.767 959 339.233 959 339.233 959 339.233 959 337.558 957.895 335.884 956.513 335.047ZM956.789 358.767C956.789 359.605 955.961 360.721 955.408 361.279 939.382 370.488 939.382 370.488 939.382 370.488 938.553 370.767 937.171 370.767 936.618 370.488 920.592 361.279 920.592 361.279 920.592 361.279 919.763 360.721 919.211 359.605 919.211 358.767 919.211 339.233 919.211 339.233 919.211 339.233 919.211 338.395 919.763 337.279 920.592 337 936.618 327.791 936.618 327.791 936.618 327.791 936.895 327.512 937.447 327.512 938 327.512 938.553 327.512 939.105 327.512 939.382 327.791 955.408 337 955.408 337 955.408 337 955.961 337.279 956.789 338.395 956.789 339.233L956.789 358.767Z" fill="#404040" fill-rule="evenodd"/><path d="M937.5 359C936.111 359 935 359.706 935 360.882 935 362.059 936.111 363 937.5 363 938.889 363 940 362.059 940 360.882 940 359.706 938.889 359 937.5 359ZM937.5 362.059C936.667 362.059 936.111 361.588 936.111 360.882 936.111 360.412 936.667 359.941 937.5 359.941 938.056 359.941 938.889 360.412 938.889 360.882 938.889 361.588 938.056 362.059 937.5 362.059Z" fill="#404040" fill-rule="evenodd"/><path d="M948.611 353.229C948.056 352.699 947.222 352.964 946.389 353.494 940.278 350.048 940.278 350.048 940.278 350.048 940.556 349.783 940.556 349.518 940.556 348.988 940.556 348.723 940.556 348.458 940.278 348.193 945.833 345.012 945.833 345.012 945.833 345.012 945.278 344.217 945.278 344.217 945.278 344.217 939.722 347.133 939.722 347.133 939.722 347.133 939.444 346.602 938.611 346.337 938.056 346.072 938.056 339.446 938.056 339.446 938.056 339.446 938.889 339.181 939.444 338.386 939.444 337.59 939.444 336.795 938.333 336 937.5 336 936.389 336 935.556 336.795 935.556 337.59 935.556 338.386 936.111 339.181 936.944 339.446 936.944 346.072 936.944 346.072 936.944 346.072 936.111 346.337 935.556 346.602 935 347.133 929.444 344.217 929.444 344.217 929.444 344.217 928.889 345.012 928.889 345.012 928.889 345.012 934.444 348.193 934.444 348.193 934.444 348.193 934.444 348.458 934.167 348.723 934.167 348.988 934.167 349.518 934.444 349.783 934.444 350.048 928.333 353.494 928.333 353.494 928.333 353.494 927.778 352.964 926.944 352.699 926.111 353.229 925.278 353.759 925 354.819 925.556 355.614 926.111 356.41 927.222 356.94 928.056 356.41 928.889 355.88 929.167 355.084 928.889 354.289 935 351.108 935 351.108 935 351.108 935.556 351.639 936.111 351.904 936.944 351.904 936.944 358 936.944 358 936.944 358 938.056 358 938.056 358 938.056 358 938.056 351.904 938.056 351.904 938.056 351.904 938.611 351.904 939.444 351.639 939.722 351.108 945.833 354.289 945.833 354.289 945.833 354.289 945.833 355.084 946.111 355.88 946.944 356.41 947.778 356.94 948.889 356.41 949.444 355.614 950 354.819 949.722 353.759 948.611 353.229Z" fill="#404040" fill-rule="evenodd"/><path d="M925.714 345.368C926 345.684 926.571 346 927.143 346 928 346 928.857 345.368 929.143 344.421 930 343.158 929.429 341.579 928.286 340.632 927.143 340 925.429 340.316 924.857 341.579 924 343.158 924.571 344.737 925.714 345.368ZM925.714 342.211C926 341.895 926.571 341.579 927.143 341.579 927.143 341.579 927.429 341.579 927.714 341.895 928.286 342.211 928.571 343.158 928.286 343.789 927.714 344.421 926.857 344.737 926.286 344.421 925.714 344.105 925.429 343.158 925.714 342.211Z" fill="#404040" fill-rule="evenodd"/><path d="M946.389 340.632C945.833 340.947 945.278 341.579 945 342.526 945 343.158 945 343.789 945.278 344.421 945.833 345.368 946.667 346 947.5 346 948.056 346 948.333 345.684 948.611 345.368 949.167 345.053 949.722 344.421 949.722 343.789 950 343.158 950 342.526 949.722 341.579 948.889 340.316 947.5 340 946.389 340.632ZM948.889 343.474C948.611 343.789 948.333 344.105 948.056 344.421 947.5 344.737 946.667 344.421 946.389 343.789 946.111 343.474 946.111 343.158 946.111 342.842 946.389 342.211 946.389 341.895 946.944 341.895 946.944 341.579 947.222 341.579 947.5 341.579 948.056 341.579 948.333 341.895 948.611 342.211 948.889 342.842 948.889 343.158 948.889 343.474Z" fill="#404040" fill-rule="evenodd"/></g></svg>