<svg width="50" height="36" xmlns="http://www.w3.org/2000/svg" xmlns:xlink="http://www.w3.org/1999/xlink" overflow="hidden"><defs><clipPath id="clip0"><rect x="272" y="368" width="50" height="36"/></clipPath></defs><g clip-path="url(#clip0)" transform="translate(-272 -368)"><path d="M318 368C276.273 368 276.273 368 276.273 368 274.364 368 273 369.094 273 370.461 273 400.539 273 400.539 273 400.539 273 401.906 274.364 403 276.273 403 302.455 403 302.455 403 302.455 403 302.455 403 302.455 403 302.727 403 319.364 403 319.364 403 319.364 403 320.455 403 321 402.18 321 401.359 321 400.539 321 400.539 321 400.539 321 399.172 321 399.172 321 399.172 321 370.461 321 370.461 321 370.461 321 369.094 319.909 368 318 368ZM276.273 370.188C318 370.188 318 370.188 318 370.188 318.545 370.188 318.818 370.461 318.818 370.461 318.818 375.656 318.818 375.656 318.818 375.656 275.182 375.656 275.182 375.656 275.182 375.656 275.182 370.461 275.182 370.461 275.182 370.461 275.455 370.461 275.727 370.188 276.273 370.188ZM275.182 400.539C275.182 376.75 275.182 376.75 275.182 376.75 318.818 376.75 318.818 376.75 318.818 376.75 318.818 395.617 318.818 395.617 318.818 395.617 317.727 395.07 316.636 394.523 315.545 394.25 315.545 394.25 315.545 394.25 315.545 394.25 316.364 392.883 316.909 391.516 316.909 389.875 316.909 385.773 316.909 385.773 316.909 385.773 316.909 381.945 313.909 378.664 310.364 378.664 307.091 378.664 304.636 380.852 303.818 383.859 301.909 382.219 301.909 382.219 301.909 382.219 301.909 381.945 302.182 381.672 302.182 381.398 302.182 380.031 301.091 379.211 300 379.211 298.636 379.211 297.818 380.031 297.818 381.398 297.818 381.672 297.818 382.219 298.091 382.492 293.455 390.969 293.455 390.969 293.455 390.969 293.182 390.969 292.909 390.695 292.909 390.695 292.364 390.695 291.818 390.969 291.273 391.242 286.091 386.867 286.091 386.867 286.091 386.867 286.091 386.594 286.364 386.32 286.364 386.047 286.364 384.953 285.273 383.859 283.909 383.859 282.818 383.859 281.727 384.953 281.727 386.047 281.727 386.594 282 386.867 282.273 387.141 279.545 390.695 279.545 390.695 279.545 390.695 279.273 390.695 279 390.422 278.455 390.422 277.364 390.422 276.273 391.516 276.273 392.609 276.273 393.977 277.364 395.07 278.455 395.07 279.818 395.07 280.636 393.977 280.636 392.609 280.636 392.336 280.636 391.789 280.364 391.516 283.091 387.961 283.091 387.961 283.091 387.961 283.364 388.234 283.636 388.234 283.909 388.234 284.727 388.234 285 387.961 285.545 387.688 290.727 392.336 290.727 392.336 290.727 392.336 290.727 392.609 290.727 392.883 290.727 392.883 290.727 394.25 291.545 395.344 292.909 395.344 294 395.344 295.091 394.25 295.091 392.883 295.091 392.336 294.818 391.789 294.273 391.516 298.909 383.312 298.909 383.312 298.909 383.312 299.182 383.312 299.455 383.586 300 383.586 300.273 383.586 300.818 383.312 301.091 383.039 303.545 385.227 303.545 385.227 303.545 385.227 303.545 385.227 303.545 385.5 303.545 385.773 303.545 389.875 303.545 389.875 303.545 389.875 303.545 391.516 304.091 392.883 305.182 394.25 304.909 394.25 304.909 394.25 304.909 394.25 303 394.797 299.455 395.891 299.455 399.172 299.455 400.812 299.455 400.812 299.455 400.812 276.273 400.812 276.273 400.812 276.273 400.812 275.727 400.812 275.455 400.539 275.182 400.539ZM318.818 400.812C301.636 400.812 301.636 400.812 301.636 400.812 301.636 399.172 301.636 399.172 301.636 399.172 301.636 397.805 303.545 396.984 305.455 396.438 306.273 396.164 306.818 396.164 307.091 395.891 307.636 395.617 307.636 395.344 307.636 394.797 307.636 394.25 307.636 394.25 307.636 394.25 307.636 393.977 307.636 393.703 307.364 393.43 306.273 392.609 305.727 391.242 305.727 389.875 305.727 385.773 305.727 385.773 305.727 385.773 305.727 385.773 305.727 385.5 305.727 385.5 305.727 385.5 305.727 385.5 305.727 385.5 305.727 385.5 305.727 385.5 305.727 385.5 305.727 383.039 307.909 381.125 310.364 381.125 312.818 381.125 314.727 383.039 314.727 385.773 314.727 389.875 314.727 389.875 314.727 389.875 314.727 391.242 314.182 392.609 313.091 393.43 313.091 393.703 312.818 393.977 312.818 394.25 312.818 394.797 312.818 394.797 312.818 394.797 312.818 395.344 313.091 395.617 313.364 395.891 313.636 396.164 314.182 396.164 315 396.438 317.182 396.984 318.818 397.805 318.818 399.172 318.818 400.539 318.818 400.539 318.818 400.539L318.818 400.812Z" fill="#454545" fill-rule="evenodd"/><path d="M280 373.5C280 372.672 280.672 372 281.5 372 282.328 372 283 372.672 283 373.5 283 374.328 282.328 375 281.5 375 280.672 375 280 374.328 280 373.5Z" fill="#454545" fill-rule="evenodd"/><path d="M288 373.5C288 372.672 288.672 372 289.5 372 290.328 372 291 372.672 291 373.5 291 374.328 290.328 375 289.5 375 288.672 375 288 374.328 288 373.5Z" fill="#454545" fill-rule="evenodd"/></g></svg>