<svg width="43" height="42" xmlns="http://www.w3.org/2000/svg" xmlns:xlink="http://www.w3.org/1999/xlink" overflow="hidden"><defs><clipPath id="clip0"><rect x="419" y="365" width="43" height="42"/></clipPath></defs><g clip-path="url(#clip0)" transform="translate(-419 -365)"><path d="M427.537 376C455.463 376 455.463 376 455.463 376 455.731 376 456 375.75 456 375.5 456 375.25 455.731 375 455.463 375 427.537 375 427.537 375 427.537 375 427.269 375 427 375.25 427 375.5 427 375.75 427.269 376 427.537 376Z" fill="#454545" fill-rule="evenodd"/><path d="M427.54 384C443.46 384 443.46 384 443.46 384 443.73 384 444 383.5 444 383 444 382.5 443.73 382 443.46 382 427.54 382 427.54 382 427.54 382 427.27 382 427 382.5 427 383 427 383.5 427.27 384 427.54 384Z" fill="#454545" fill-rule="evenodd"/><path d="M427.538 391C440.462 391 440.462 391 440.462 391 440.731 391 441 390.75 441 390.5 441 390.25 440.731 390 440.462 390 427.538 390 427.538 390 427.538 390 427.269 390 427 390.25 427 390.5 427 390.75 427.269 391 427.538 391Z" fill="#454545" fill-rule="evenodd"/><path d="M439.447 399C439.723 399 440 398.75 440 398.5 440 398.25 439.723 398 439.447 398 427.553 398 427.553 398 427.553 398 427.277 398 427 398.25 427 398.5 427 398.75 427.277 399 427.553 399L439.447 399Z" fill="#454545" fill-rule="evenodd"/><path d="M459.895 368.237C452.158 368.237 452.158 368.237 452.158 368.237 452.158 366.079 452.158 366.079 452.158 366.079 452.158 365.27 451.605 365 451.053 365 450.5 365 449.947 365.27 449.947 366.079 449.947 368.237 449.947 368.237 449.947 368.237 430.053 368.237 430.053 368.237 430.053 368.237 430.053 366.079 430.053 366.079 430.053 366.079 430.053 365.27 429.5 365 428.947 365 428.395 365 427.842 365.27 427.842 366.079 427.842 368.237 427.842 368.237 427.842 368.237 420.105 368.237 420.105 368.237 420.105 368.237 419.553 368.237 419 368.507 419 369.316 419 404.921 419 404.921 419 404.921 419 405.461 419.553 406 420.105 406 440.553 406 440.553 406 440.553 406 456.579 406 456.579 406 456.579 406 459.895 406 459.895 406 459.895 406 460.447 406 461 405.461 461 404.921 461 369.316 461 369.316 461 369.316 461 368.507 460.447 368.237 459.895 368.237ZM421.211 370.395C427.842 370.395 427.842 370.395 427.842 370.395 427.842 372.553 427.842 372.553 427.842 372.553 427.842 373.092 428.395 373.632 428.947 373.632 429.5 373.632 430.053 373.092 430.053 372.553 430.053 370.395 430.053 370.395 430.053 370.395 449.947 370.395 449.947 370.395 449.947 370.395 449.947 372.553 449.947 372.553 449.947 372.553 449.947 373.092 450.5 373.632 451.053 373.632 451.605 373.632 452.158 373.092 452.158 372.553 452.158 370.395 452.158 370.395 452.158 370.395 458.789 370.395 458.789 370.395 458.789 370.395 458.789 398.987 458.789 398.987 458.789 398.987 457.684 398.178 456.303 397.908 455.197 397.368 455.197 397.368 455.197 397.368 454.921 397.368 456.026 396.289 456.579 394.671 456.579 393.053 456.579 389.276 456.579 389.276 456.579 389.276 456.579 385.5 453.539 382.533 449.671 382.533 446.079 382.533 443.039 385.5 443.039 389.276 443.039 393.053 443.039 393.053 443.039 393.053 443.039 394.671 443.592 396.289 444.421 397.368 444.421 397.368 444.421 397.368 444.421 397.638 442.487 398.178 438.895 398.987 438.895 402.224 438.895 403.842 438.895 403.842 438.895 403.842 421.211 403.842 421.211 403.842 421.211 403.842L421.211 370.395ZM456.579 403.842C441.105 403.842 441.105 403.842 441.105 403.842 441.105 402.224 441.105 402.224 441.105 402.224 441.105 400.875 443.039 400.066 444.974 399.526 445.803 399.257 446.355 399.257 446.632 398.987 446.908 398.717 447.184 398.447 447.184 398.178 447.184 397.368 447.184 397.368 447.184 397.368 447.184 397.099 447.184 396.829 446.908 396.559 445.803 395.75 445.25 394.401 445.25 393.053 445.25 389.276 445.25 389.276 445.25 389.276 445.25 386.579 447.184 384.691 449.671 384.691 452.434 384.691 454.368 386.579 454.368 389.276 454.368 393.053 454.368 393.053 454.368 393.053 454.368 394.401 453.816 395.75 452.711 396.559 452.434 396.829 452.434 397.099 452.434 397.368 452.434 398.178 452.434 398.178 452.434 398.178 452.434 398.447 452.711 398.717 452.987 398.987 453.263 399.257 453.816 399.257 454.645 399.526 456.026 400.066 458.237 400.605 458.513 401.954 458.513 401.954 458.789 402.224 458.789 402.224 458.789 403.842 458.789 403.842 458.789 403.842L456.579 403.842Z" fill="#454545" fill-rule="evenodd"/><path d="M423 375.5C423 374.672 423.448 374 424 374 424.552 374 425 374.672 425 375.5 425 376.328 424.552 377 424 377 423.448 377 423 376.328 423 375.5Z" fill="#454545" fill-rule="evenodd"/><path d="M423 383C423 382.448 423.448 382 424 382 424.552 382 425 382.448 425 383 425 383.552 424.552 384 424 384 423.448 384 423 383.552 423 383Z" fill="#454545" fill-rule="evenodd"/><path d="M423 391C423 390.448 423.448 390 424 390 424.552 390 425 390.448 425 391 425 391.552 424.552 392 424 392 423.448 392 423 391.552 423 391Z" fill="#454545" fill-rule="evenodd"/><path d="M423 398C423 397.448 423.448 397 424 397 424.552 397 425 397.448 425 398 425 398.552 424.552 399 424 399 423.448 399 423 398.552 423 398Z" fill="#454545" fill-rule="evenodd"/></g></svg>