<svg width="35" height="48" xmlns="http://www.w3.org/2000/svg" xmlns:xlink="http://www.w3.org/1999/xlink" overflow="hidden"><defs><clipPath id="clip0"><rect x="405" y="329" width="35" height="48"/></clipPath></defs><g clip-path="url(#clip0)" transform="translate(-405 -329)"><path d="M428.312 334.182C417.688 334.182 417.688 334.182 417.688 334.182 417.371 334.182 417.156 334.393 417.156 334.705 417.156 335.016 417.371 335.227 417.688 335.227 428.312 335.227 428.312 335.227 428.312 335.227 428.629 335.227 428.844 335.016 428.844 334.705 428.844 334.393 428.629 334.182 428.312 334.182ZM417.688 371.818C428.312 371.818 428.312 371.818 428.312 371.818 428.629 371.818 428.844 371.607 428.844 371.295 428.844 370.984 428.629 370.773 428.312 370.773 417.688 370.773 417.688 370.773 417.688 370.773 417.371 370.773 417.156 370.984 417.156 371.295 417.156 371.607 417.371 371.818 417.688 371.818ZM435.75 330C410.25 330 410.25 330 410.25 330 407.91 330 406 331.879 406 334.182 406 371.818 406 371.818 406 371.818 406 374.121 407.91 376 410.25 376 435.75 376 435.75 376 435.75 376 438.09 376 440 374.121 440 371.818 440 334.182 440 334.182 440 334.182 440 331.879 438.09 330 435.75 330ZM437.875 371.818C437.875 372.963 436.914 373.909 435.75 373.909 410.25 373.909 410.25 373.909 410.25 373.909 409.086 373.909 408.125 372.963 408.125 371.818 408.125 368.682 408.125 368.682 408.125 368.682 437.875 368.682 437.875 368.682 437.875 368.682L437.875 371.818ZM413.969 367.636C414.285 363.243 418.219 359.795 423 359.795 427.781 359.795 431.715 363.243 432.031 367.636L413.969 367.636ZM437.875 367.636C433.094 367.636 433.094 367.636 433.094 367.636 432.778 362.72 428.414 358.75 423 358.75 417.586 358.75 413.222 362.72 412.906 367.636 408.125 367.636 408.125 367.636 408.125 367.636 408.125 338.364 408.125 338.364 408.125 338.364 437.875 338.364 437.875 338.364 437.875 338.364L437.875 367.636ZM437.875 337.318C408.125 337.318 408.125 337.318 408.125 337.318 408.125 334.182 408.125 334.182 408.125 334.182 408.125 333.037 409.086 332.091 410.25 332.091 435.75 332.091 435.75 332.091 435.75 332.091 436.914 332.091 437.875 333.037 437.875 334.182L437.875 337.318Z" fill="#454545" fill-rule="evenodd"/></g></svg>