<svg width="48" height="47" xmlns="http://www.w3.org/2000/svg" xmlns:xlink="http://www.w3.org/1999/xlink" overflow="hidden"><defs><clipPath id="clip0"><rect x="128" y="173" width="48" height="47"/></clipPath></defs><g clip-path="url(#clip0)" transform="translate(-128 -173)"><path d="M134.777 203.612C134.777 203.501 134.667 203.336 134.557 203.225 132.683 204.053 132.683 204.053 132.683 204.053 132.794 204.273 132.794 204.384 132.904 204.549 135.218 209.679 139.681 213.65 145.026 215.47 145.632 213.484 145.632 213.484 145.632 213.484 140.838 211.775 136.871 208.245 134.777 203.612ZM143.758 179.398C143.979 179.288 144.089 179.288 144.309 179.177 143.428 177.302 143.428 177.302 143.428 177.302 143.263 177.412 143.152 177.468 142.932 177.468 137.808 179.784 133.841 184.307 132.077 189.602 134.061 190.264 134.061 190.264 134.061 190.264 135.604 185.465 139.185 181.494 143.758 179.398ZM168.002 188.168C168.113 188.388 168.223 188.554 168.333 188.775 170.206 187.947 170.206 187.947 170.206 187.947 170.096 187.727 169.986 187.506 169.876 187.341 167.451 182.211 162.988 178.35 157.644 176.64 157.038 178.626 157.038 178.626 157.038 178.626 161.831 180.115 165.798 183.645 168.002 188.168ZM159.242 212.492C159.021 212.602 158.801 212.712 158.58 212.823 159.407 214.698 159.407 214.698 159.407 214.698 159.627 214.588 159.848 214.477 160.068 214.422 165.192 211.995 169.049 207.472 170.702 202.177 168.719 201.516 168.719 201.516 168.719 201.516 167.286 206.48 163.705 210.451 159.242 212.492ZM172.08 191.477C171.419 191.201 170.812 191.091 170.206 191.091 169.27 191.091 168.333 191.422 167.562 192.029 167.066 191.588 166.515 191.091 166.019 190.65 164.862 189.712 163.594 188.885 162.272 188.278 161.335 187.727 160.288 187.341 159.242 187.01 158.58 185.851 157.974 184.693 157.148 183.535 156.321 184.197 156.321 184.197 156.321 184.197 156.927 184.914 157.368 185.741 157.864 186.568 153.181 185.355 148.277 185.631 143.758 187.616 143.979 187.01 144.309 186.403 144.585 185.741 145.246 184.472 146.073 183.259 146.899 182.101 147.34 181.549 147.726 181.163 148.166 180.612 148.332 180.832 148.552 180.942 148.883 181.053 149.489 181.384 150.15 181.494 150.756 181.494 152.409 181.494 153.787 180.501 154.503 179.177 155.054 178.13 155.164 176.971 154.723 175.923 154.393 174.875 153.566 173.938 152.63 173.441 152.134 173.11 151.472 173 150.756 173 149.103 173 147.726 173.938 147.009 175.317 146.458 176.365 146.348 177.468 146.789 178.516 146.899 178.957 147.23 179.398 147.395 179.784 146.899 180.336 146.458 180.832 146.073 181.384 145.136 182.487 144.309 183.866 143.648 185.134 143.152 186.072 142.712 187.12 142.381 188.168 141.279 188.775 140.122 189.436 138.965 190.264 139.571 191.091 139.571 191.091 139.571 191.091 140.342 190.54 141.169 190.043 141.995 189.492 140.728 194.235 141.169 199.144 143.042 203.612 142.381 203.446 141.775 203.115 141.169 202.784 139.902 202.177 138.634 201.35 137.477 200.468 136.981 200.082 136.54 199.64 136.045 199.254 136.265 199.034 136.375 198.703 136.54 198.482 137.587 196.441 136.761 193.794 134.667 192.746 134.061 192.47 133.4 192.36 132.794 192.36 131.141 192.36 129.653 193.297 129.047 194.731 128 196.827 128.826 199.475 130.92 200.468 131.526 200.799 132.188 200.909 132.794 200.909 133.73 200.909 134.667 200.578 135.383 199.971 135.934 200.412 136.43 200.909 136.981 201.35 138.138 202.288 139.351 203.115 140.728 203.722 141.665 204.273 142.712 204.659 143.758 204.99 144.365 206.149 145.026 207.307 145.852 208.465 146.679 207.803 146.679 207.803 146.679 207.803 146.073 207.086 145.632 206.259 145.136 205.432 147.009 205.928 148.883 206.149 150.756 206.149 153.676 206.149 156.487 205.487 159.242 204.384 159.021 204.99 158.691 205.597 158.36 206.259 157.754 207.472 156.927 208.741 156.101 209.899 155.66 210.451 155.274 210.947 154.834 211.388 154.613 211.168 154.338 211.058 154.117 210.947 153.456 210.616 152.85 210.506 152.244 210.506 150.536 210.506 149.213 211.499 148.442 212.823 147.946 213.87 147.836 215.029 148.277 216.077 148.552 217.125 149.379 218.062 150.37 218.559 150.977 218.89 151.583 219 152.244 219 153.897 219 155.274 218.062 155.991 216.683 156.487 215.635 156.597 214.477 156.211 213.484 156.101 213.043 155.77 212.602 155.55 212.216 156.101 211.664 156.487 211.168 156.927 210.616 157.864 209.513 158.691 208.245 159.352 206.866 159.848 205.928 160.288 204.88 160.564 203.832 161.721 203.225 162.878 202.564 164.035 201.736 163.374 200.909 163.374 200.909 163.374 200.909 162.658 201.46 161.831 201.957 161.005 202.508 162.272 197.765 161.831 192.856 159.958 188.388 160.564 188.554 161.225 188.885 161.831 189.216 163.098 189.823 164.366 190.65 165.468 191.477 166.019 191.918 166.404 192.36 166.955 192.746 166.735 192.966 166.625 193.297 166.404 193.518 165.358 195.559 166.239 198.206 168.333 199.254 168.939 199.53 169.545 199.64 170.206 199.64 171.859 199.64 173.347 198.703 173.953 197.269 175 195.173 174.174 192.635 172.08 191.477ZM147.946 175.813C148.442 174.765 149.599 174.048 150.866 174.048 151.362 174.048 151.803 174.158 152.354 174.379 153.07 174.765 153.676 175.427 153.897 176.254 154.227 177.082 154.117 177.909 153.676 178.626 153.181 179.674 152.023 180.446 150.756 180.446 150.26 180.446 149.819 180.336 149.324 180.115 148.552 179.674 147.946 179.067 147.726 178.24 147.395 177.412 147.505 176.53 147.946 175.813ZM135.494 198.096C134.998 199.254 133.841 199.861 132.573 199.861 132.077 199.861 131.637 199.751 131.141 199.53 129.543 198.703 128.937 196.827 129.653 195.173 130.204 194.014 131.361 193.408 132.573 193.408 133.124 193.408 133.51 193.518 134.061 193.683 135.714 194.511 136.375 196.441 135.494 198.096ZM154.834 216.187C154.338 217.235 153.181 217.952 151.913 217.952 151.362 217.952 150.977 217.842 150.426 217.621 149.709 217.235 149.103 216.573 148.883 215.746 148.552 214.918 148.662 214.091 149.103 213.374 149.599 212.326 150.756 211.554 152.023 211.554 152.519 211.554 152.96 211.664 153.456 211.885 154.227 212.326 154.834 212.933 155.054 213.76 155.329 214.588 155.274 215.47 154.834 216.187ZM159.517 203.115C154.723 205.432 149.324 205.707 144.309 204.163 141.995 199.365 141.665 193.904 143.263 188.885 143.373 188.885 143.373 188.775 143.428 188.775 148.277 186.568 153.566 186.293 158.47 187.837 160.784 192.525 161.115 197.986 159.517 203.115ZM173.016 196.827C172.465 197.986 171.308 198.592 170.096 198.592 169.545 198.592 169.159 198.482 168.608 198.317 167.066 197.489 166.404 195.559 167.176 193.904 167.672 192.746 168.829 192.139 170.096 192.139 170.592 192.139 171.033 192.249 171.529 192.47 173.127 193.297 173.733 195.283 173.016 196.827Z" fill="#454545" fill-rule="evenodd"/></g></svg>