<svg width="47" height="52" xmlns="http://www.w3.org/2000/svg" xmlns:xlink="http://www.w3.org/1999/xlink" overflow="hidden"><defs><clipPath id="clip0"><rect x="583" y="494" width="47" height="52"/></clipPath></defs><g clip-path="url(#clip0)" transform="translate(-583 -494)"><path d="M618 514.714C618 509 615.191 505.857 609.854 505 609.011 505 608.449 505 607.607 505 607.045 505 607.045 505 607.045 505 603.674 505 600.584 506.429 598.899 509 597.494 510.714 596.652 512.429 596.371 514.429 596.371 514.429 596.371 514.429 596.371 514.429 596.371 514.714 596.371 515.286 596.371 515.571 593.281 523 593.281 523 593.281 523 593 523.286 593 523.571 593.281 523.571 593.281 523.857 593.562 523.857 593.562 523.857 596.371 523.857 596.371 523.857 596.371 523.857 596.371 529.286 596.371 529.286 596.371 529.286 596.371 529.857 596.652 529.857 596.933 529.857 601.146 529.857 601.146 529.857 601.146 529.857 601.146 534.714 601.146 534.714 601.146 534.714 602.27 534.714 602.27 534.714 602.27 534.714 602.27 529.286 602.27 529.286 602.27 529.286 602.27 529 601.989 528.714 601.708 528.714 597.494 528.714 597.494 528.714 597.494 528.714 597.494 523.286 597.494 523.286 597.494 523.286 597.494 523 597.214 522.714 596.933 522.714 594.685 522.714 594.685 522.714 594.685 522.714 597.494 515.857 597.494 515.857 597.494 515.857 597.494 515.571 597.775 515.571 597.494 515.571 597.494 515.286 597.494 514.714 597.494 514.714 597.494 514.714 597.494 514.714 597.494 514.714 597.494 514.714 597.494 514.429 597.494 514.429 597.775 512.714 598.618 511.286 599.742 509.857 601.146 507.571 603.955 506.143 607.045 506.143 607.607 506.143 607.607 506.143 607.607 506.143 608.449 506.143 609.011 506.143 609.573 506.143 614.348 506.714 616.876 509.571 616.876 514.714 616.876 517.286 616.315 520.143 614.629 525.857 614.629 526.143 614.629 526.143 614.629 526.143 614.629 530.143 614.629 530.143 614.629 530.143 614.91 535 614.91 535 614.91 535 616.034 534.714 616.034 534.714 616.034 534.714 615.753 529.857 615.753 529.857 615.753 529.857 615.753 526.143 615.753 526.143 615.753 526.143 617.438 521 618 517.857 618 514.714Z" fill="#454545" fill-rule="evenodd"/><path d="M615 515C615 514.5 614.417 514 613.833 514 613.25 514 612.958 514.25 612.667 514.5 605.958 512.5 605.958 512.5 605.958 512.5 605.958 512.5 605.958 512.25 605.958 512 605.958 512 605.958 512 605.958 511.75 608.292 511.5 608.292 511.5 608.292 511.5 608.583 511.75 609.167 512.25 610.042 512.25 610.917 512.25 611.792 511.5 611.792 510.75 611.792 509.75 610.917 509 610.042 509 608.875 509 608 509.75 608 510.5 608 510.75 608 510.75 608.292 511 605.958 511.25 605.958 511.25 605.958 511.25 605.375 510.5 604.5 510 603.625 510 602.167 510 601 511 601 512 601 513.25 602.167 514.25 603.625 514.25 604.5 514.25 605.375 513.75 605.667 513 612.375 515 612.375 515 612.375 515 612.375 515 612.375 515 612.375 515 612.375 515.75 612.958 516 613.833 516 614.417 516 615 515.75 615 515Z" fill="#454545" fill-rule="evenodd"/><path d="M626.188 505.452C609.031 495.847 609.031 495.847 609.031 495.847 607.625 495 605.375 495 603.688 495.847 586.531 505.452 586.531 505.452 586.531 505.452 585.125 506.299 584 508.277 584 509.972 584 530.311 584 530.311 584 530.311 584 532.006 585.125 533.983 586.531 534.831 603.688 544.435 603.688 544.435 603.688 544.435 604.531 544.718 605.375 545 606.5 545 607.344 545 608.469 544.718 609.031 544.435 626.188 534.831 626.188 534.831 626.188 534.831 627.875 533.983 629 532.006 629 530.311 629 509.972 629 509.972 629 509.972 629 508.277 627.875 506.299 626.188 505.452ZM626.469 530.311C626.469 531.158 625.906 532.288 625.062 532.853 607.906 542.458 607.906 542.458 607.906 542.458 607.062 542.74 605.656 542.74 605.094 542.458 587.656 532.853 587.656 532.853 587.656 532.853 587.094 532.288 586.25 531.158 586.25 530.311 586.25 509.972 586.25 509.972 586.25 509.972 586.25 509.124 587.094 507.994 587.656 507.429 605.094 497.825 605.094 497.825 605.094 497.825 605.375 497.825 605.938 497.542 606.5 497.542 607.062 497.542 607.625 497.825 607.906 497.825 625.062 507.429 625.062 507.429 625.062 507.429 625.906 507.994 626.469 509.124 626.469 509.972L626.469 530.311Z" fill="#454545" fill-rule="evenodd"/></g></svg>