<svg width="44" height="43" xmlns="http://www.w3.org/2000/svg" xmlns:xlink="http://www.w3.org/1999/xlink" overflow="hidden"><defs><clipPath id="clip0"><rect x="1087" y="511" width="44" height="43"/></clipPath></defs><g clip-path="url(#clip0)" transform="translate(-1087 -511)"><path d="M1110.43 540.886C1107.57 540.886 1107.57 540.886 1107.57 540.886 1107.57 541.818 1107.57 541.818 1107.57 541.818 1110.43 541.818 1110.43 541.818 1110.43 541.818L1110.43 540.886ZM1126.42 512C1091.58 512 1091.58 512 1091.58 512 1089.67 512 1088 513.631 1088 515.727 1088 540.188 1088 540.188 1088 540.188 1088 541.352 1088.72 542.75 1089.91 543.216 1107.33 552.534 1107.33 552.534 1107.33 552.534 1107.81 553 1108.28 553 1109 553 1109.72 553 1110.19 553 1110.67 552.534 1128.09 543.216 1128.09 543.216 1128.09 543.216 1129.28 542.75 1130 541.352 1130 540.188 1130 515.727 1130 515.727 1130 515.727 1130 513.631 1128.33 512 1126.42 512ZM1128.09 540.188C1128.09 540.653 1127.85 541.352 1127.14 541.585 1109.95 550.903 1109.95 550.903 1109.95 550.903 1109.24 551.136 1108.76 551.136 1108.05 550.903 1090.86 541.585 1090.86 541.585 1090.86 541.585 1090.15 541.352 1089.91 540.653 1089.91 540.188 1089.91 515.727 1089.91 515.727 1089.91 515.727 1089.91 514.795 1090.62 513.864 1091.58 513.864 1126.42 513.864 1126.42 513.864 1126.42 513.864 1127.38 513.864 1128.09 514.795 1128.09 515.727L1128.09 540.188ZM1115.68 517.591C1102.32 517.591 1102.32 517.591 1102.32 517.591 1101.36 517.591 1100.41 518.523 1100.41 519.455 1100.41 541.818 1100.41 541.818 1100.41 541.818 1100.41 542.983 1101.36 543.682 1102.32 543.682 1115.68 543.682 1115.68 543.682 1115.68 543.682 1116.64 543.682 1117.59 542.983 1117.59 541.818 1117.59 519.455 1117.59 519.455 1117.59 519.455 1117.59 518.523 1116.64 517.591 1115.68 517.591ZM1116.64 541.818C1116.64 542.284 1116.16 542.75 1115.68 542.75 1102.32 542.75 1102.32 542.75 1102.32 542.75 1101.84 542.75 1101.36 542.284 1101.36 541.818 1101.36 539.955 1101.36 539.955 1101.36 539.955 1116.64 539.955 1116.64 539.955 1116.64 539.955L1116.64 541.818ZM1116.64 539.023C1101.36 539.023 1101.36 539.023 1101.36 539.023 1101.36 519.455 1101.36 519.455 1101.36 519.455 1101.36 518.989 1101.84 518.523 1102.32 518.523 1115.68 518.523 1115.68 518.523 1115.68 518.523 1116.16 518.523 1116.64 518.989 1116.64 519.455L1116.64 539.023Z" fill="#595959" fill-rule="evenodd"/></g></svg>