<svg width="48" height="51" xmlns="http://www.w3.org/2000/svg" xmlns:xlink="http://www.w3.org/1999/xlink" overflow="hidden"><defs><clipPath id="clip0"><rect x="125" y="324" width="48" height="51"/></clipPath></defs><g clip-path="url(#clip0)" transform="translate(-125 -324)"><path d="M169.413 334.452C151.875 324.847 151.875 324.847 151.875 324.847 150.15 324 147.85 324 146.413 324.847 128.875 334.452 128.875 334.452 128.875 334.452 127.15 335.299 126 337.277 126 338.972 126 359.311 126 359.311 126 359.311 126 361.006 127.15 362.983 128.875 363.831 146.413 373.435 146.413 373.435 146.413 373.435 146.988 373.717 148.137 374 149 374 150.15 374 151.012 373.717 151.875 373.435 169.413 363.831 169.413 363.831 169.413 363.831 170.85 362.983 172 361.006 172 359.311 172 338.972 172 338.972 172 338.972 172 337.277 170.85 335.299 169.413 334.452ZM169.7 359.311C169.7 360.158 168.837 361.288 168.262 361.853 150.438 371.458 150.438 371.458 150.438 371.458 149.863 371.74 148.425 371.74 147.562 371.458 130.025 361.853 130.025 361.853 130.025 361.853 129.163 361.288 128.587 360.158 128.587 359.311 128.587 338.972 128.587 338.972 128.587 338.972 128.587 338.124 129.163 336.994 130.025 336.429 147.562 326.825 147.562 326.825 147.562 326.825 147.85 326.825 148.425 326.542 149 326.542 149.575 326.542 150.15 326.825 150.438 326.825 168.262 336.429 168.262 336.429 168.262 336.429 168.837 336.994 169.7 338.124 169.7 338.972L169.7 359.311Z" fill="#484848" fill-rule="evenodd"/><path d="M161.13 341.857C161.13 341.857 160.557 341.571 160.557 341.286 159.983 341 157.974 340.429 156.826 341 156.539 341 156.539 340.714 156.252 340.429 155.391 339.286 153.957 338.429 152.235 337.857 150.8 337.286 149.078 337 147.357 337 144.487 337 141.33 338.429 139.322 340.714 138.174 341 136.739 341.857 135.591 343 135.591 343 135.591 343 135.591 343 135.591 343 135.304 343 135.304 343.286 135.304 343.286 135.304 343.286 135.304 343.286 135.304 343.286 135.304 343.286 135.304 343.286 133.87 344.714 131 348.143 131.861 351.286 132.148 353 133.583 354.143 135.878 355 136.165 355 136.165 355.571 136.165 356.429 136.165 357.286 136.165 358.143 136.739 358.714 137.026 359 137.6 359.286 138.174 359.286 138.174 359.286 138.461 359.286 138.461 359.286 138.461 359.286 141.043 359.571 142.765 357.857 144.487 355.857 145.061 352.714 144.2 348.143 144.2 347.857 143.913 347.571 143.626 347.571 143.626 347.571 143.626 347.571 143.626 347.571 143.052 347.571 143.052 347.857 143.052 348.143 143.626 352.429 143.339 355.286 141.904 357 140.47 358.143 139.035 358.143 138.461 358.143 138.461 358.143 138.174 358.143 138.174 358.143 137.887 358.143 137.887 358.143 137.6 357.857 137.313 357.571 137.313 357 137.313 356.429 137.313 355.571 137.313 354.143 136.452 353.857 134.443 353.286 133.296 352.143 133.009 351 132.148 347.857 136.452 343.857 136.452 343.857 136.452 343.857 136.452 343.857 136.452 343.571 137.6 342.714 138.748 342.143 139.896 341.571 140.183 341.571 140.183 341.571 140.183 341.571 141.904 339.286 144.774 338.143 147.357 338.143 150.226 338.143 152.522 339 154.243 340.143 154.53 340.429 154.817 340.714 154.817 340.714 154.817 340.714 155.104 340.714 155.104 340.714 155.104 341 155.104 341 155.104 341 155.391 341.286 155.391 341.286 155.391 341.571 155.678 341.571 155.678 341.857 155.965 341.857 155.965 341.857 155.965 341.857 155.965 342.143 155.965 342.143 155.965 342.143 155.965 342.143 156.539 342.714 156.826 343.571 157.113 344.429 157.113 344.714 157.4 345.857 157.4 347 157.4 348.429 157.113 348.714 157.113 349.286 157.113 349.286 157.113 349.571 157.113 349.571 157.687 349.286 157.974 348.714 157.974 347.286 158.261 346.429 158.261 345.857 157.974 344.714 157.974 343.286 157.4 342.714 157.113 342.143 157.974 341.857 159.409 342.143 159.696 342.429 159.983 342.429 160.27 342.714 160.27 342.714 160.27 342.714 160.27 343 160.557 343.286 162.565 348.143 162.565 351.857 161.13 354.143 159.409 356.714 156.252 357 154.53 357 154.53 357 154.53 357 154.53 357 154.53 357 154.53 357 154.53 357 154.53 357 154.53 357 154.53 357 154.243 358.143 153.383 359 152.522 359.571 151.948 359.571 151.374 359.857 151.087 359.857 149.652 359.857 148.504 359 147.93 358.143 148.504 360.429 148.504 360.429 148.504 360.429 149.365 360.714 150.226 361 151.087 361 151.661 361 152.235 361 152.809 360.714 153.957 360.143 154.817 359.286 155.391 358.143 157.4 358.143 160.27 357.571 161.991 355 164 352.143 163.713 348.143 161.704 342.714 161.417 342.429 161.417 342.143 161.13 341.857Z" fill="#484848" fill-rule="evenodd"/><path d="M151.308 349C151.615 349 151.615 349 151.923 349 151.923 349 152.231 349 152.231 348.75 152.538 348.75 152.846 348.25 153.769 348.25 153.769 348.25 154.077 348.25 154.077 348.25 154.385 348.25 154.385 348.25 154.385 348.25 154.692 348.25 155 348 155 347.75 155 347.75 155 347.5 155 347.5 154.692 347.25 154.692 347.25 154.385 347.25 154.385 347.25 154.077 347 153.769 347 152.538 347 151.615 347.75 151.308 348.25 151 348.25 151 348.5 151 348.5 151.308 348.75 151.308 348.75 151.308 349Z" fill="#484848" fill-rule="evenodd"/></g></svg>