<svg width="51" height="37" xmlns="http://www.w3.org/2000/svg" xmlns:xlink="http://www.w3.org/1999/xlink" overflow="hidden"><defs><clipPath id="clip0"><rect x="687" y="178" width="51" height="37"/></clipPath></defs><g clip-path="url(#clip0)" transform="translate(-687 -178)"><path d="M722.738 192.616C703.334 192.616 703.334 192.616 703.334 192.616 702.39 192.616 701.663 193.408 701.663 194.344 701.663 205.576 701.663 205.576 701.663 205.576 701.663 206.44 702.39 207.232 703.334 207.232 722.738 207.232 722.738 207.232 722.738 207.232 723.683 207.232 724.337 206.44 724.337 205.576 724.337 194.344 724.337 194.344 724.337 194.344 724.337 193.408 723.683 192.616 722.738 192.616ZM723.174 205.576C723.174 205.864 722.956 206.152 722.738 206.152 703.334 206.152 703.334 206.152 703.334 206.152 703.116 206.152 702.753 205.864 702.753 205.576 702.753 196.864 702.753 196.864 702.753 196.864 712.782 201.04 712.782 201.04 712.782 201.04 712.855 201.04 712.855 201.04 713 201.04 713.073 201.04 713.073 201.04 713.218 201.04 723.174 196.864 723.174 196.864 723.174 196.864L723.174 205.576ZM723.174 195.64C713 199.96 713 199.96 713 199.96 702.753 195.64 702.753 195.64 702.753 195.64 702.753 194.344 702.753 194.344 702.753 194.344 702.753 193.984 702.971 193.768 703.334 193.768 722.738 193.768 722.738 193.768 722.738 193.768 722.956 193.768 723.174 193.984 723.174 194.344L723.174 195.64ZM725.791 187.144C723.974 181.816 719.032 178 713 178 706.968 178 701.953 181.816 700.137 187.144 693.305 187.792 688 193.552 688 200.464 688 207.952 694.105 214 701.663 214 724.337 214 724.337 214 724.337 214 731.823 214 738 207.952 738 200.464 738 193.552 732.622 187.792 725.791 187.144ZM724.337 211.768C701.663 211.768 701.663 211.768 701.663 211.768 695.413 211.768 690.253 206.656 690.253 200.464 690.253 194.776 694.613 189.952 700.355 189.376 701.299 189.232 701.953 188.656 702.317 187.864 703.916 183.4 708.203 180.376 713 180.376 717.724 180.376 722.084 183.4 723.683 187.864 723.974 188.656 724.701 189.232 725.573 189.376 731.387 190.024 735.674 194.776 735.674 200.464 735.674 206.656 730.587 211.768 724.337 211.768Z" fill="#454545" fill-rule="evenodd"/></g></svg>