<svg width="46" height="46" xmlns="http://www.w3.org/2000/svg" xmlns:xlink="http://www.w3.org/1999/xlink" overflow="hidden"><defs><clipPath id="clip0"><rect x="1144" y="162" width="46" height="46"/></clipPath></defs><g clip-path="url(#clip0)" transform="translate(-1144 -162)"><path d="M1168.75 184.5C1169.88 184.5 1169.88 184.5 1169.88 184.5 1169.88 173.25 1169.88 173.25 1169.88 173.25 1160.88 173.25 1160.88 173.25 1160.88 173.25 1160.88 168.75 1160.88 168.75 1160.88 168.75 1159.75 168.75 1159.75 168.75 1159.75 168.75 1159.75 173.25 1159.75 173.25 1159.75 173.25 1150.75 173.25 1150.75 173.25 1150.75 173.25 1150.75 184.5 1150.75 184.5 1150.75 184.5 1151.88 184.5 1151.88 184.5 1151.88 184.5 1151.88 182.25 1151.88 182.25 1151.88 182.25 1159.75 182.25 1159.75 182.25 1159.75 182.25 1159.75 192.375 1159.75 192.375 1159.75 192.375 1160.88 192.375 1160.88 192.375 1160.88 192.375 1160.88 182.25 1160.88 182.25 1160.88 182.25 1168.75 182.25 1168.75 182.25 1168.75 182.25L1168.75 184.5ZM1159.75 181.125C1151.88 181.125 1151.88 181.125 1151.88 181.125 1151.88 174.375 1151.88 174.375 1151.88 174.375 1159.75 174.375 1159.75 174.375 1159.75 174.375L1159.75 181.125ZM1160.88 181.125C1160.88 174.375 1160.88 174.375 1160.88 174.375 1168.75 174.375 1168.75 174.375 1168.75 174.375 1168.75 181.125 1168.75 181.125 1168.75 181.125L1160.88 181.125ZM1157.5 202.5C1148.78 202.5 1148.78 202.5 1148.78 202.5 1147.38 202.5 1146.25 200.812 1146.25 199.406 1146.25 165.938 1146.25 165.938 1146.25 165.938 1146.25 164.531 1147.66 164.25 1148.78 164.25 1181.97 164.25 1181.97 164.25 1181.97 164.25 1182.81 164.25 1184.5 164.531 1184.5 165.938 1184.5 175.5 1184.5 175.5 1184.5 175.5 1184.5 176.062 1184.78 176.625 1185.62 176.625 1186.19 176.625 1186.75 176.062 1186.75 175.5 1186.75 165.938 1186.75 165.938 1186.75 165.938 1186.75 163.688 1184.78 162 1181.97 162 1148.78 162 1148.78 162 1148.78 162 1145.97 162 1144 163.688 1144 165.938 1144 199.125 1144 199.125 1144 199.125 1144 201.938 1145.97 204.75 1148.78 204.75 1157.5 204.75 1157.5 204.75 1157.5 204.75 1158.06 204.75 1158.62 204.188 1158.62 203.625 1158.62 203.062 1158.06 202.5 1157.5 202.5ZM1185.62 179.438C1183.66 179.438 1182.25 180.844 1182.25 182.812 1182.25 184.219 1183.09 185.625 1184.5 185.906 1184.5 199.406 1184.5 199.406 1184.5 199.406 1184.5 200.812 1183.38 202.5 1181.97 202.5 1168.47 202.5 1168.47 202.5 1168.47 202.5 1167.91 201.094 1166.78 200.25 1165.38 200.25 1163.41 200.25 1162 201.656 1162 203.625 1162 205.594 1163.41 207 1165.38 207 1166.78 207 1167.91 206.156 1168.47 204.75 1181.97 204.75 1181.97 204.75 1181.97 204.75 1184.78 204.75 1186.75 201.938 1186.75 199.406 1186.75 185.906 1186.75 185.906 1186.75 185.906 1188.16 185.625 1189 184.219 1189 182.812 1189 180.844 1187.59 179.438 1185.62 179.438ZM1165.38 205.875C1163.97 205.875 1163.12 204.75 1163.12 203.625 1163.12 202.5 1163.97 201.375 1165.38 201.375 1166.5 201.375 1167.62 202.5 1167.62 203.625 1167.62 204.75 1166.5 205.875 1165.38 205.875ZM1185.62 185.062C1184.22 185.062 1183.38 183.938 1183.38 182.812 1183.38 181.688 1184.22 180.562 1185.62 180.562 1186.75 180.562 1187.88 181.688 1187.88 182.812 1187.88 183.938 1186.75 185.062 1185.62 185.062ZM1170.16 197.438C1171.28 198 1171.28 198 1171.28 198 1172.69 194.625 1172.69 194.625 1172.69 194.625 1177.75 194.625 1177.75 194.625 1177.75 194.625 1177.75 193.781 1177.75 193.781 1177.75 193.781 1179.44 198 1179.44 198 1179.44 198 1180.28 197.438 1180.28 197.438 1180.28 197.438 1175.78 185.625 1175.78 185.625 1175.78 185.625 1174.66 185.625 1174.66 185.625 1174.66 185.625L1170.16 197.438ZM1177.47 193.5C1172.97 193.5 1172.97 193.5 1172.97 193.5 1175.22 187.594 1175.22 187.594 1175.22 187.594L1177.47 193.5Z" fill="#404040" fill-rule="evenodd"/></g></svg>