<svg width="38" height="46" xmlns="http://www.w3.org/2000/svg" xmlns:xlink="http://www.w3.org/1999/xlink" overflow="hidden"><defs><clipPath id="clip0"><rect x="270" y="497" width="38" height="46"/></clipPath></defs><g clip-path="url(#clip0)" transform="translate(-270 -497)"><path d="M282.5 515C283.5 515 283.5 515 283.5 515 283.798 515 284 514.798 284 514.5 284 514.202 283.798 514 283.5 514 282.5 514 282.5 514 282.5 514 282.202 514 282 514.202 282 514.5 282 514.798 282.202 515 282.5 515ZM282.5 519C283.5 519 283.5 519 283.5 519 283.798 519 284 518.798 284 518.5 284 518.202 283.798 518 283.5 518 282.5 518 282.5 518 282.5 518 282.202 518 282 518.202 282 518.5 282 518.798 282.202 519 282.5 519ZM286.5 515C295.5 515 295.5 515 295.5 515 295.798 515 296 514.798 296 514.5 296 514.202 295.798 514 295.5 514 286.5 514 286.5 514 286.5 514 286.202 514 286 514.202 286 514.5 286 514.798 286.202 515 286.5 515ZM284.5 526C281.095 526 281.095 526 281.095 526 280.5 526 280 525.5 280 524.905 280 521.5 280 521.5 280 521.5 280 521.202 279.798 521 279.5 521 279.202 521 279 521.202 279 521.5 279 524.905 279 524.905 279 524.905 279 526.095 279.905 527 281.095 527 284.5 527 284.5 527 284.5 527 284.798 527 285 526.798 285 526.5 285 526.202 284.798 526 284.5 526ZM296 518.5C296 518.202 295.798 518 295.5 518 286.5 518 286.5 518 286.5 518 286.202 518 286 518.202 286 518.5 286 518.798 286.202 519 286.5 519 295.5 519 295.5 519 295.5 519 295.798 519 296 518.798 296 518.5ZM284.5 506C281.095 506 281.095 506 281.095 506 279.905 506 279 506.905 279 508.095 279 511.5 279 511.5 279 511.5 279 511.798 279.202 512 279.5 512 279.798 512 280 511.798 280 511.5 280 508.095 280 508.095 280 508.095 280 507.5 280.5 507 281.095 507 284.5 507 284.5 507 284.5 507 284.798 507 285 506.798 285 506.5 285 506.202 284.798 506 284.5 506ZM296.905 506C293.5 506 293.5 506 293.5 506 293.202 506 293 506.202 293 506.5 293 506.798 293.202 507 293.5 507 296.905 507 296.905 507 296.905 507 297.5 507 298 507.5 298 508.095 298 511.5 298 511.5 298 511.5 298 511.798 298.202 512 298.5 512 298.798 512 299 511.798 299 511.5 299 508.095 299 508.095 299 508.095 299 506.905 298.095 506 296.905 506ZM303 498C275 498 275 498 275 498 272.798 498 271 499.798 271 502 271 530 271 530 271 530 275.702 534.702 278.298 537.298 283 542 303 542 303 542 303 542 305.202 542 307 540.202 307 538 307 502 307 502 307 502 307 499.798 305.202 498 303 498ZM283 539.202C278.405 534.595 278.405 534.595 278.405 534.595 273.798 530 273.798 530 273.798 530 280.5 530 280.5 530 280.5 530 281.905 530 283 531.095 283 532.5L283 539.202ZM305 538C305 539.095 304.095 540 303 540 284 540 284 540 284 540 284 532.5 284 532.5 284 532.5 284 530.595 282.405 529 280.5 529 273 529 273 529 273 529 273 502 273 502 273 502 273 500.905 273.905 500 275 500 303 500 303 500 303 500 304.095 500 305 500.905 305 502L305 538ZM298.5 521C298.202 521 298 521.202 298 521.5 298 524.905 298 524.905 298 524.905 298 525.5 297.5 526 296.905 526 293.5 526 293.5 526 293.5 526 293.202 526 293 526.202 293 526.5 293 526.798 293.202 527 293.5 527 296.905 527 296.905 527 296.905 527 298.095 527 299 526.095 299 524.905 299 521.5 299 521.5 299 521.5 299 521.202 298.798 521 298.5 521Z" fill="#454545" fill-rule="evenodd"/></g></svg>