<svg width="47" height="52" xmlns="http://www.w3.org/2000/svg" xmlns:xlink="http://www.w3.org/1999/xlink" overflow="hidden"><defs><clipPath id="clip0"><rect x="129" y="360" width="47" height="52"/></clipPath></defs><g clip-path="url(#clip0)" transform="translate(-129 -360)"><path d="M131.3 407.591C133.6 364.409 133.6 364.409 133.6 364.409 133.6 363.841 134.175 363.273 134.75 363.273 162.35 363.273 162.35 363.273 162.35 363.273 163.212 363.273 163.5 363.841 163.5 364.409 163.5 364.409 163.5 364.409 163.5 364.409 164.938 385.148 164.938 385.148 164.938 385.148 164.938 385.148 165.512 385.432 166.087 385.716 166.375 385.716 167.238 386.284 167.238 386.284 165.8 364.409 165.8 364.409 165.8 364.409 165.8 362.42 164.363 361 162.35 361 134.75 361 134.75 361 134.75 361 133.025 361 131.3 362.42 131.3 364.409 129 407.591 129 407.591 129 407.591 129 409.295 130.725 411 132.45 411 148.55 411 148.55 411 148.55 411 148.55 408.727 148.55 408.727 148.55 408.727 132.45 408.727 132.45 408.727 132.45 408.727 131.875 408.727 131.3 408.159 131.3 407.591ZM156.025 368.67C156.312 368.67 156.6 368.102 156.6 367.818 156.6 367.25 156.312 366.682 155.45 366.682 154.875 366.682 154.3 367.25 154.3 367.818 154.3 368.102 154.587 368.386 154.875 368.67 154.587 371.795 151.712 374.068 148.55 374.068 145.387 374.068 142.8 371.795 142.512 368.67 142.8 368.386 142.8 368.102 142.8 367.818 142.8 367.25 142.512 366.682 141.65 366.682 141.075 366.682 140.5 367.25 140.5 367.818 140.5 368.102 140.788 368.67 141.363 368.67 141.65 372.364 144.812 375.205 148.55 375.205 152.575 375.205 155.45 372.364 156.025 368.67ZM168.962 403.33C168.387 403.045 167.525 403.045 167.525 403.045 167.238 403.045 167.238 403.045 167.238 403.045 167.238 402.477 167.238 402.477 167.238 402.477 168.962 401.057 169.825 399.352 169.825 397.364 169.825 392.534 169.825 392.534 169.825 392.534 169.825 388.841 166.663 386 162.35 386 158.325 386 154.875 388.841 154.875 392.534 154.875 397.364 154.875 397.364 154.875 397.364 154.875 399.352 156.025 401.057 157.462 402.193 157.75 402.761 157.75 402.761 157.75 402.761 157.462 402.761 156.6 403.045 156.025 403.33 153.438 403.898 149.7 404.75 149.7 407.875 149.7 410.148 149.7 410.148 149.7 410.148 149.7 410.432 150.275 411 150.85 411 173.85 411 173.85 411 173.85 411 174.425 411 175 410.432 175 409.864 175 407.875 175 407.875 175 407.875 175 404.75 171.55 403.898 168.962 403.33ZM172.988 409.295C151.712 409.295 151.712 409.295 151.712 409.295 151.712 407.875 151.712 407.875 151.712 407.875 151.712 406.17 154.587 405.602 156.6 405.034 158.325 404.466 159.475 404.182 159.475 403.045 159.475 401.909 159.475 401.909 159.475 401.909 159.475 401.625 159.475 401.341 159.188 401.057 157.75 400.205 156.887 398.784 156.887 397.364 156.887 392.534 156.887 392.534 156.887 392.534 156.887 389.977 159.475 387.705 162.35 387.705 165.512 387.705 167.812 389.977 167.812 392.534 167.812 397.364 167.812 397.364 167.812 397.364 167.812 398.784 167.238 400.205 165.8 401.057 165.512 401.341 165.225 401.625 165.225 401.909 165.225 403.045 165.225 403.045 165.225 403.045 165.225 404.182 166.663 404.466 168.387 405.034 170.4 405.602 172.988 406.17 172.988 407.875L172.988 409.295Z" fill="#454545" fill-rule="evenodd"/></g></svg>