<svg width="47" height="51" xmlns="http://www.w3.org/2000/svg" xmlns:xlink="http://www.w3.org/1999/xlink" overflow="hidden"><defs><clipPath id="clip0"><rect x="1044" y="151" width="47" height="51"/></clipPath></defs><g clip-path="url(#clip0)" transform="translate(-1044 -151)"><path d="M1075.94 174.551C1075.94 174.551 1075.94 174.551 1075.94 174.83 1075.94 175.108 1075.94 175.108 1075.94 175.386 1076.22 175.386 1076.22 175.386 1076.5 175.386 1076.5 175.386 1076.78 175.386 1076.78 175.108 1077.06 175.108 1077.06 175.108 1077.06 174.83 1077.06 174.83 1077.06 174.551 1076.78 174.551 1076.78 174.273 1076.22 174.273 1075.94 174.551ZM1084.38 184.295C1084.38 184.295 1082.69 184.852 1081 184.574 1081.28 182.903 1081 181.233 1081 179.841 1081 179.284 1081 178.727 1081 178.449 1082.12 177.057 1082.69 172.602 1081 169.261 1079.88 167.312 1077.62 165.085 1072.84 165.364 1072.56 165.364 1072.28 165.085 1072 165.085 1070.03 163.972 1066.66 162.301 1064.41 164.528 1063.84 165.085 1063.56 166.199 1063.56 167.869 1063 167.869 1063 167.869 1063 167.869 1063 167.869 1063 167.869 1062.44 167.869 1057.09 167.869 1052.31 171.21 1052.31 176.222 1052.31 176.222 1052.31 176.222 1052.31 176.222 1052.31 176.778 1052.31 177.335 1052.31 178.17 1052.03 180.398 1052.03 182.625 1050.06 184.017 1049.78 184.017 1049.5 184.295 1049.78 184.574 1049.78 184.852 1050.06 185.131 1050.06 185.131 1050.34 185.131 1050.34 185.131 1050.34 184.852 1052.31 184.017 1052.88 182.347 1053.16 180.398 1053.44 181.233 1053.72 182.068 1054 182.625 1054.56 182.903 1054.28 185.409 1054.28 186.801 1054.56 188.472 1054.56 189.028 1054.56 189.307 1055.12 189.585 1056.25 189.864 1057.38 189.864 1058.5 189.864 1059.34 189.864 1059.62 189.585 1060.19 189.307 1060.19 187.915 1060.19 185.131 1060.19 184.852 1060.19 184.017 1060.19 183.739 1060.19 184.017 1060.75 184.017 1060.75 184.017 1061.59 184.295 1062.44 184.574 1063.56 184.574 1064.97 184.574 1066.94 184.574 1068.06 184.017 1068.06 184.574 1068.06 184.852 1068.06 185.131 1067.78 187.358 1067.78 188.75 1068.34 189.585 1068.62 189.864 1069.47 190.142 1070.59 190.142 1070.59 190.142 1070.59 190.142 1070.59 190.142 1071.16 190.142 1072.28 189.864 1072.84 189.585 1073.12 189.307 1073.12 188.472 1073.69 183.739 1073.69 182.903 1073.69 182.347 1073.97 182.068 1074.25 180.955 1074.25 180.955 1074.81 180.955 1075.09 181.511 1075.38 182.068 1075.66 182.625 1076.22 183.739 1076.78 185.131 1076.22 185.966 1075.94 186.244 1075.66 186.244 1075.09 186.244 1074.25 186.244 1073.97 186.801 1073.97 187.636 1073.97 188.472 1074.25 189.307 1074.81 189.585 1075.09 189.585 1075.38 189.585 1075.66 189.585 1077.06 189.585 1078.19 189.028 1079.03 188.193 1079.88 187.636 1080.16 186.801 1080.44 185.966 1081 186.244 1081.56 186.244 1081.84 186.244 1083.25 186.244 1084.66 185.688 1084.66 185.688 1084.94 185.409 1085.22 185.131 1084.94 184.852 1084.94 184.574 1084.94 184.017 1084.38 184.295ZM1078.47 187.08C1077.62 187.915 1076.78 188.193 1075.38 187.915 1075.38 187.915 1075.38 187.358 1075.38 187.08 1076.22 187.08 1077.06 186.801 1077.62 186.244 1077.91 185.688 1077.91 184.852 1077.62 184.295 1078.19 184.574 1078.75 185.131 1079.31 185.409 1079.59 185.409 1079.59 185.409 1079.59 185.409 1079.31 185.966 1079.03 186.801 1078.47 187.08ZM1080.16 177.892C1079.88 178.449 1079.88 178.727 1080.16 179.841 1080.16 181.233 1080.16 182.903 1079.88 184.295 1079.88 184.295 1079.88 184.295 1079.88 184.295 1078.47 183.739 1077.34 182.347 1076.5 180.676 1076.5 180.398 1076.22 180.398 1076.22 180.119 1076.22 180.119 1075.94 179.841 1075.94 179.841 1075.94 179.841 1075.94 179.841 1075.94 179.841 1075.94 179.841 1075.94 179.841 1075.94 179.562 1075.94 179.562 1075.94 179.562 1075.94 179.562 1075.94 179.562 1075.94 179.562 1075.94 179.562 1075.94 179.562 1075.94 179.562 1075.94 179.562 1075.94 179.562 1075.94 179.562 1075.94 179.562 1075.94 179.562 1075.66 179.562 1075.66 179.562 1075.66 179.562 1075.66 179.562 1075.66 179.562 1075.66 179.562 1073.41 179.562 1073.12 181.511 1073.12 181.79 1072.84 182.347 1072.84 183.46 1072.56 184.852 1072.28 187.636 1072.28 188.193 1071.72 188.472 1069.75 188.472 1069.47 188.193 1069.19 187.915 1069.47 185.688 1069.47 184.852 1069.75 183.46 1069.75 182.903 1069.47 182.625 1069.19 182.625 1069.19 182.347 1068.91 182.625 1067.78 182.903 1065.25 183.182 1063.84 183.182 1063 183.182 1062.16 182.903 1061.59 182.625 1061.03 182.625 1060.47 182.347 1060.19 182.347 1059.91 182.347 1059.62 182.347 1059.62 182.347 1059.06 182.903 1059.06 183.182 1059.34 185.131 1059.34 185.966 1059.62 187.915 1059.34 188.472 1058.5 188.472 1056.25 188.472 1055.69 188.193 1055.69 187.915 1055.69 187.08 1055.69 186.523 1055.69 184.017 1055.69 182.347 1055.12 181.79 1054 180.119 1053.44 176.222 1053.44 176.222 1053.44 171.21 1058.5 168.983 1062.72 168.983 1063 168.983 1063.56 168.983 1063.56 168.983 1063.84 168.983 1063.28 168.983 1063.56 168.983 1063.56 168.983 1063.84 170.097 1064.12 170.653 1064.97 173.438 1067.22 175.108 1070.31 175.386 1070.88 175.386 1070.88 175.108 1070.88 174.83 1070.88 174.551 1070.88 174.273 1070.59 174.273 1066.94 173.994 1065.81 171.767 1065.25 170.375 1064.41 168.148 1064.69 165.92 1065.25 165.642 1066.94 163.972 1069.75 165.085 1071.44 166.199 1072.28 166.477 1072.56 166.756 1073.12 166.756 1076.5 166.477 1078.75 167.591 1080.16 169.818 1081.56 172.881 1081 177.057 1080.16 177.892ZM1086.34 161.744C1071.16 152.835 1071.16 152.835 1071.16 152.835 1070.03 152.278 1068.91 152 1067.5 152 1066.09 152 1064.97 152.278 1063.84 152.835 1048.66 161.744 1048.66 161.744 1048.66 161.744 1046.69 162.858 1045 165.642 1045 167.869 1045 185.131 1045 185.131 1045 185.131 1045 187.636 1046.69 190.142 1048.66 191.534 1063.84 200.165 1063.84 200.165 1063.84 200.165 1064.69 200.722 1066.09 201 1067.5 201 1068.91 201 1070.03 200.722 1071.16 200.165 1086.34 191.534 1086.34 191.534 1086.34 191.534 1088.31 190.142 1090 187.636 1090 185.131 1090 167.869 1090 167.869 1090 167.869 1090 165.642 1088.31 162.858 1086.34 161.744ZM1087.75 185.131C1087.75 186.801 1086.62 188.75 1085.22 189.585 1070.03 198.216 1070.03 198.216 1070.03 198.216 1069.47 198.494 1068.62 198.773 1067.5 198.773 1066.38 198.773 1065.53 198.494 1064.97 198.216 1049.78 189.585 1049.78 189.585 1049.78 189.585 1048.38 188.75 1047.25 186.801 1047.25 185.131 1047.25 167.869 1047.25 167.869 1047.25 167.869 1047.25 166.199 1048.38 164.25 1049.78 163.415 1064.97 154.784 1064.97 154.784 1064.97 154.784 1065.53 154.506 1066.38 154.227 1067.5 154.227 1068.62 154.227 1069.47 154.506 1070.03 154.784 1085.22 163.415 1085.22 163.415 1085.22 163.415 1086.62 164.25 1087.75 166.199 1087.75 167.869 1087.75 185.131 1087.75 185.131 1087.75 185.131Z" fill="#404040" fill-rule="evenodd"/></g></svg>