<svg width="38" height="45" xmlns="http://www.w3.org/2000/svg" xmlns:xlink="http://www.w3.org/1999/xlink" overflow="hidden"><defs><clipPath id="clip0"><rect x="802" y="174" width="38" height="45"/></clipPath></defs><g clip-path="url(#clip0)" transform="translate(-802 -174)"><path d="M840 194.79C840 191.858 837.75 189.659 835 189.659 833 189.659 833 189.659 833 189.659 833 185.75 833 185.75 833 185.75 833 181.352 829.25 175 821 175 812.75 175 809 181.352 809 185.75 809 189.659 809 189.659 809 189.659 807 189.659 807 189.659 807 189.659 804.25 189.659 802 191.858 802 194.79 802 212.869 802 212.869 802 212.869 802 215.801 804.25 218 807 218 830 218 830 218 830 218 830.5 218 830.75 218 835.5 213.114 840 208.227 840 207.983 840 207.494 840 206.761 840 196.011 840 194.79ZM811 185.75C811 182.33 814.25 176.955 821 176.955 828.5 176.955 831 182.818 831 185.75 831 189.659 831 189.659 831 189.659 811 189.659 811 189.659 811 189.659L811 185.75ZM838 207.25C837 208.472 831 214.824 829.75 216.045 807 216.045 807 216.045 807 216.045 805.5 216.045 804 214.58 804 212.869 804 194.79 804 194.79 804 194.79 804 193.08 805.5 191.614 807 191.614 835 191.614 835 191.614 835 191.614 836.75 191.614 838 193.08 838 194.79 838 199.188 838 205.784 838 207.25ZM829 196.5C813 196.5 813 196.5 813 196.5 812 196.5 811 197.477 811 198.455 811 209.205 811 209.205 811 209.205 811 210.182 812 211.159 813 211.159 829 211.159 829 211.159 829 211.159 830 211.159 831 210.426 831 209.205 831 198.455 831 198.455 831 198.455 831 197.477 830 196.5 829 196.5ZM817 210.182C813 210.182 813 210.182 813 210.182 812.5 210.182 812 209.693 812 209.205 812 206.273 812 206.273 812 206.273 817 206.273 817 206.273 817 206.273L817 210.182ZM817 205.295C812 205.295 812 205.295 812 205.295 812 202.364 812 202.364 812 202.364 817 202.364 817 202.364 817 202.364L817 205.295ZM817 201.386C812 201.386 812 201.386 812 201.386 812 198.455 812 198.455 812 198.455 812 197.966 812.5 197.477 813 197.477 817 197.477 817 197.477 817 197.477L817 201.386ZM824 210.182C818 210.182 818 210.182 818 210.182 818 197.477 818 197.477 818 197.477 824 197.477 824 197.477 824 197.477L824 210.182ZM830 209.205C830 209.693 829.5 210.182 829 210.182 825 210.182 825 210.182 825 210.182 825 206.273 825 206.273 825 206.273 830 206.273 830 206.273 830 206.273L830 209.205ZM830 205.295C825 205.295 825 205.295 825 205.295 825 202.364 825 202.364 825 202.364 830 202.364 830 202.364 830 202.364L830 205.295ZM830 201.386C825 201.386 825 201.386 825 201.386 825 197.477 825 197.477 825 197.477 829 197.477 829 197.477 829 197.477 829.5 197.477 830 197.966 830 198.455L830 201.386Z" fill="#595959" fill-rule="evenodd"/></g></svg>