<svg width="43" height="43" xmlns="http://www.w3.org/2000/svg" xmlns:xlink="http://www.w3.org/1999/xlink" overflow="hidden"><defs><clipPath id="clip0"><rect x="215" y="511" width="43" height="43"/></clipPath></defs><g clip-path="url(#clip0)" transform="translate(-215 -511)"><path d="M253.659 512C218.341 512 218.341 512 218.341 512 216.432 512 215 513.398 215 515.261 215 539.256 215 539.256 215 539.256 215 540.886 216.193 542.75 217.386 543.449 233.614 552.534 233.614 552.534 233.614 552.534 234.091 552.767 235.045 553 236 553 236.955 553 237.909 552.767 238.386 552.534 254.614 543.449 254.614 543.449 254.614 543.449 255.807 542.75 257 540.886 257 539.256 257 515.261 257 515.261 257 515.261 257 513.398 255.568 512 253.659 512ZM254.852 539.256C254.852 540.188 254.136 541.119 253.42 541.585 237.432 550.67 237.432 550.67 237.432 550.67 236.716 550.903 235.284 550.903 234.568 550.67 218.58 541.585 218.58 541.585 218.58 541.585 217.864 541.119 217.148 540.188 217.148 539.256 217.148 515.261 217.148 515.261 217.148 515.261 217.148 514.795 217.625 514.097 218.341 514.097 253.659 514.097 253.659 514.097 253.659 514.097 254.375 514.097 254.852 514.795 254.852 515.261L254.852 539.256Z" fill="#454545" fill-rule="evenodd"/><path d="M248.507 522C232.493 522 232.493 522 232.493 522 232.246 522 232 522.2 232 522.6 232 522.8 232.246 523 232.493 523 248.507 523 248.507 523 248.507 523 248.754 523 249 522.8 249 522.6 249 522.2 248.754 522 248.507 522Z" fill="#454545" fill-rule="evenodd"/><path d="M248.507 526C232.493 526 232.493 526 232.493 526 232.246 526 232 526.2 232 526.4 232 526.8 232.246 527 232.493 527 248.507 527 248.507 527 248.507 527 248.754 527 249 526.8 249 526.4 249 526.2 248.754 526 248.507 526Z" fill="#454545" fill-rule="evenodd"/><path d="M227.857 521C226.143 521 226.143 521 226.143 521 224.857 521 224 522.037 224 523.593 224 525.407 224 525.407 224 525.407 224 526.963 224.857 528 226.143 528 227.857 528 227.857 528 227.857 528 228.929 528 230 526.963 230 525.407 230 523.593 230 523.593 230 523.593 230 522.037 228.929 521 227.857 521ZM228.929 525.407C228.929 526.185 228.5 526.963 227.857 526.963 226.143 526.963 226.143 526.963 226.143 526.963 225.5 526.963 225.071 526.185 225.071 525.407 225.071 523.593 225.071 523.593 225.071 523.593 225.071 522.815 225.5 522.037 226.143 522.037 227.857 522.037 227.857 522.037 227.857 522.037 228.5 522.037 228.929 522.815 228.929 523.593L228.929 525.407Z" fill="#454545" fill-rule="evenodd"/><path d="M248.507 532C232.493 532 232.493 532 232.493 532 232.246 532 232 532.2 232 532.4 232 532.8 232.246 533 232.493 533 248.507 533 248.507 533 248.507 533 248.754 533 249 532.8 249 532.4 249 532.2 248.754 532 248.507 532Z" fill="#454545" fill-rule="evenodd"/><path d="M248.507 535C232.493 535 232.493 535 232.493 535 232.246 535 232 535.4 232 535.8 232 536.6 232.246 537 232.493 537 248.507 537 248.507 537 248.507 537 248.754 537 249 536.6 249 535.8 249 535.4 248.754 535 248.507 535Z" fill="#454545" fill-rule="evenodd"/><path d="M227.857 531C226.143 531 226.143 531 226.143 531 224.857 531 224 532.071 224 533.143 224 534.857 224 534.857 224 534.857 224 536.143 224.857 537 226.143 537 227.857 537 227.857 537 227.857 537 228.929 537 230 536.143 230 534.857 230 533.143 230 533.143 230 533.143 230 532.071 228.929 531 227.857 531ZM228.929 534.857C228.929 535.5 228.5 536.143 227.857 536.143 226.143 536.143 226.143 536.143 226.143 536.143 225.5 536.143 225.071 535.5 225.071 534.857 225.071 533.143 225.071 533.143 225.071 533.143 225.071 532.5 225.5 532.071 226.143 532.071 227.857 532.071 227.857 532.071 227.857 532.071 228.5 532.071 228.929 532.5 228.929 533.143L228.929 534.857Z" fill="#454545" fill-rule="evenodd"/></g></svg>