<svg width="50" height="55" xmlns="http://www.w3.org/2000/svg" xmlns:xlink="http://www.w3.org/1999/xlink" overflow="hidden"><defs><clipPath id="clip0"><rect x="1121" y="337" width="50" height="55"/></clipPath></defs><g clip-path="url(#clip0)" transform="translate(-1121 -337)"><path d="M1168.83 347.125C1160.44 345.591 1152.37 340.989 1148.33 337.614 1147.71 337 1146.78 337 1146.16 337 1145.53 337 1144.6 337 1143.67 337.614 1139.94 340.989 1131.87 345.591 1123.17 347.125 1121.62 347.432 1121 349.886 1121 350.807 1121.31 351.727 1121.31 352.648 1121.31 353.875 1121.93 359.705 1122.86 368.602 1128.76 376.58 1132.8 382.102 1139.32 387.625 1144.6 390.693 1144.91 391 1145.53 391 1146.16 391 1146.78 391 1147.09 391 1147.4 390.693 1152.99 387.625 1159.2 382.102 1163.24 376.58 1168.83 369.216 1169.76 360.011 1170.38 353.568 1170.38 352.648 1170.69 351.727 1170.69 350.807 1171 349.886 1170.38 347.432 1168.83 347.125ZM1168.2 350.5C1167.89 351.42 1167.89 352.341 1167.89 353.568 1167.27 359.398 1166.34 368.295 1161.06 375.045 1157.34 380.261 1151.43 385.477 1146.16 388.545 1146.16 388.545 1145.84 388.545 1145.84 388.545 1140.88 385.784 1134.66 380.261 1130.94 375.045 1125.35 367.682 1124.73 359.705 1124.11 353.568 1123.8 352.648 1123.8 351.42 1123.8 350.5 1123.48 350.5 1123.8 349.886 1124.11 349.58 1133.11 347.739 1141.19 343.443 1145.53 339.761 1145.53 339.761 1145.84 339.455 1146.16 339.455 1146.47 339.455 1146.78 339.761 1146.47 339.455 1150.81 343.136 1158.89 347.739 1167.89 349.58 1167.89 349.886 1168.2 350.5 1168.2 350.5Z" fill="#404040" fill-rule="evenodd"/><path d="M1160.07 369C1131.62 369 1131.62 369 1131.62 369 1131.31 369 1131 369.25 1131 369.5 1131 369.75 1131.31 370 1131.62 370 1160.07 370 1160.07 370 1160.07 370 1160.69 370 1161 369.75 1161 369.5 1161 369.25 1160.69 369 1160.07 369Z" fill="#404040" fill-rule="evenodd"/><path d="M1145.85 351C1137.8 351 1131 357.6 1131 365.4 1131 366 1131 366 1131 366 1161 366 1161 366 1161 366 1161 365.4 1161 365.4 1161 365.4 1160.69 357.6 1153.89 351 1145.85 351ZM1148.32 364.8C1148.32 364.2 1148.01 363.6 1147.39 363.3 1147.39 363.3 1147.39 363.3 1147.39 363.3 1151.1 357.9 1151.1 357.9 1151.1 357.9 1151.41 357.6 1151.41 357.3 1151.1 357 1150.79 357 1150.18 357 1150.18 357.3 1146.46 362.7 1146.46 362.7 1146.46 362.7 1146.46 362.7 1146.15 362.7 1146.15 362.7 1146.15 362.7 1146.15 362.7 1145.85 362.7 1144.61 362.7 1143.68 363.6 1143.37 364.8 1132.24 364.8 1132.24 364.8 1132.24 364.8 1132.24 363.3 1132.86 361.8 1133.47 360.6 1134.4 361.2 1134.4 361.2 1134.4 361.2 1134.71 361.2 1134.71 361.2 1135.02 361.2 1135.02 361.2 1135.33 361.2 1135.33 360.9 1135.64 360.6 1135.64 360.3 1135.33 360 1133.78 359.4 1133.78 359.4 1133.78 359.4 1135.02 357.6 1136.26 356.1 1138.11 354.9 1138.42 355.5 1138.42 355.5 1138.42 355.5 1138.73 355.5 1138.73 355.8 1139.04 355.8 1139.04 355.8 1139.35 355.8 1139.35 355.5 1139.66 355.5 1139.66 354.9 1139.66 354.6 1139.04 354 1139.04 354 1139.04 354 1140.9 353.1 1143.06 352.5 1145.23 352.2 1145.23 353.7 1145.23 353.7 1145.23 353.7 1145.23 354 1145.54 354.3 1145.85 354.3 1146.15 354.3 1146.46 354 1146.46 353.7 1146.46 352.2 1146.46 352.2 1146.46 352.2 1148.94 352.5 1151.1 353.1 1152.96 354.3 1152.65 354.9 1152.65 354.9 1152.65 354.9 1152.34 355.2 1152.34 355.5 1152.65 355.5 1152.96 355.8 1152.96 355.8 1152.96 355.8 1153.27 355.8 1153.58 355.5 1153.58 355.5 1153.89 354.9 1153.89 354.9 1153.89 354.9 1155.43 356.1 1156.98 357.6 1157.91 359.4 1156.67 360 1156.67 360 1156.67 360 1156.36 360.3 1156.05 360.6 1156.36 360.9 1156.36 361.2 1156.67 361.2 1156.98 361.2 1156.98 361.2 1157.29 361.2 1157.29 361.2 1158.53 360.6 1158.53 360.6 1158.53 360.6 1159.14 361.8 1159.45 363.3 1159.45 364.8L1148.32 364.8ZM1146.77 364.5C1144.92 364.5 1144.92 364.5 1144.92 364.5 1145.54 363.9 1146.46 363.9 1146.77 364.5Z" fill="#404040" fill-rule="evenodd"/></g></svg>