<svg width="51" height="51" xmlns="http://www.w3.org/2000/svg" xmlns:xlink="http://www.w3.org/1999/xlink" overflow="hidden"><defs><clipPath id="clip0"><rect x="900" y="162" width="51" height="51"/></clipPath></defs><g clip-path="url(#clip0)" transform="translate(-900 -162)"><path d="M925.5 163C912.025 163 901 173.719 901 187.194 901 195.462 905.287 203.119 912.331 207.712 912.638 207.712 912.944 208.019 912.944 208.019 913.556 208.019 913.862 207.712 914.169 207.406 914.475 206.794 914.169 205.875 913.862 205.569 907.125 201.587 903.45 194.85 903.45 187.194 903.45 175.25 913.25 165.45 925.5 165.45 937.444 165.45 947.55 175.25 947.55 187.194 947.55 194.544 943.569 201.587 937.138 205.569 936.525 205.875 936.525 206.794 936.831 207.1 937.138 207.712 938.056 208.019 938.669 207.712 945.713 203.119 950 195.462 950 187.194 950 173.719 938.975 163 925.5 163ZM933.769 199.75C938.056 196.994 940.812 192.4 940.812 187.194 940.812 178.925 933.769 172.188 925.5 172.188 916.925 172.188 910.188 178.925 910.188 187.194 910.188 192.4 912.638 196.994 916.925 199.75 917.231 200.056 917.231 200.056 917.537 200.056 917.537 200.056 917.844 199.75 917.844 199.75 918.15 199.444 918.15 199.137 917.844 198.831 913.862 196.381 911.412 191.788 911.412 187.194 911.412 179.538 917.537 173.106 925.5 173.106 933.156 173.106 939.588 179.538 939.588 187.194 939.588 191.788 937.138 196.381 933.156 198.831 932.85 199.137 932.85 199.444 932.85 199.75 933.156 200.056 933.463 200.056 933.769 199.75ZM926.419 188.113C926.112 187.5 925.806 187.194 925.5 187.194 925.194 187.194 924.581 187.5 924.581 188.113 916.619 210.163 916.619 210.163 916.619 210.163 916.619 210.469 916.619 211.081 916.925 211.387 917.231 211.694 917.537 212 918.15 212 932.85 212 932.85 212 932.85 212 933.156 212 933.769 211.694 934.075 211.387 934.381 211.081 934.381 210.469 934.075 210.163L926.419 188.113ZM932.85 210.775C918.15 210.775 918.15 210.775 918.15 210.775 917.844 210.775 917.844 210.775 917.844 210.775 917.844 210.775 917.844 210.469 917.844 210.469 925.5 189.031 925.5 189.031 925.5 189.031 933.156 210.469 933.156 210.469 933.156 210.469 933.156 210.469 933.156 210.775 933.156 210.775 932.85 210.775 932.85 210.775 932.85 210.775ZM929.787 192.094C929.787 192.4 929.787 192.706 929.787 193.012 930.094 193.319 930.4 193.319 930.706 193.012 932.544 191.481 933.463 189.337 933.463 187.194 933.463 182.906 929.787 179.231 925.5 179.231 920.906 179.231 917.537 182.906 917.537 187.194 917.537 189.337 918.456 191.481 919.987 193.012 920.294 193.012 920.294 193.319 920.6 193.319 920.6 193.319 920.906 193.012 920.906 193.012 921.213 192.706 921.213 192.4 920.906 192.094 919.375 190.869 918.763 189.031 918.763 187.194 918.763 183.519 921.825 180.456 925.5 180.456 929.175 180.456 932.237 183.519 932.237 187.194 932.237 189.031 931.319 190.869 929.787 192.094Z" fill="#404040" fill-rule="evenodd"/></g></svg>