<svg width="44" height="44" xmlns="http://www.w3.org/2000/svg" xmlns:xlink="http://www.w3.org/1999/xlink" overflow="hidden"><defs><clipPath id="clip0"><rect x="771" y="335" width="44" height="44"/></clipPath></defs><g clip-path="url(#clip0)" transform="translate(-771 -335)"><path d="M772.955 337.909C813.045 337.909 813.045 337.909 813.045 337.909 813.614 337.909 814 337.523 814 336.955 814 336.386 813.614 336 813.045 336 772.955 336 772.955 336 772.955 336 772.386 336 772 336.386 772 336.955 772 337.523 772.386 337.909 772.955 337.909ZM806.841 349.364C801.591 349.364 801.591 349.364 801.591 349.364 801.307 349.364 801.114 349.557 801.114 349.841 801.114 350.125 801.307 350.318 801.591 350.318 805.693 350.318 805.693 350.318 805.693 350.318 795.773 361.102 795.773 361.102 795.773 361.102 787.557 354.705 787.557 354.705 787.557 354.705 787.364 354.523 787.08 354.614 786.886 354.807 778.773 363.398 778.773 363.398 778.773 363.398 778.591 363.591 778.591 363.875 778.773 364.068 778.875 364.159 778.966 364.159 779.068 364.159 779.159 364.159 779.352 364.068 779.443 363.966 787.273 355.659 787.273 355.659 787.273 355.659 795.477 362.057 795.477 362.057 795.477 362.057 795.67 362.25 795.955 362.159 796.148 361.966 806.364 350.989 806.364 350.989 806.364 350.989 806.364 355.091 806.364 355.091 806.364 355.091 806.364 355.375 806.557 355.568 806.841 355.568 807.125 355.568 807.318 355.375 807.318 355.091 807.318 349.841 807.318 349.841 807.318 349.841 807.318 349.557 807.125 349.364 806.841 349.364ZM813.045 376.091C772.955 376.091 772.955 376.091 772.955 376.091 772.386 376.091 772 376.477 772 377.045 772 377.614 772.386 378 772.955 378 813.045 378 813.045 378 813.045 378 813.614 378 814 377.614 814 377.045 814 376.477 813.614 376.091 813.045 376.091ZM776.773 340.773C774.67 340.773 772.955 342.489 772.955 344.591 772.955 369.409 772.955 369.409 772.955 369.409 772.955 371.511 774.67 373.227 776.773 373.227 809.227 373.227 809.227 373.227 809.227 373.227 811.33 373.227 813.045 371.511 813.045 369.409 813.045 344.591 813.045 344.591 813.045 344.591 813.045 342.489 811.33 340.773 809.227 340.773L776.773 340.773ZM811.136 344.591C811.136 369.409 811.136 369.409 811.136 369.409 811.136 370.455 810.273 371.318 809.227 371.318 776.773 371.318 776.773 371.318 776.773 371.318 775.727 371.318 774.864 370.455 774.864 369.409 774.864 344.591 774.864 344.591 774.864 344.591 774.864 343.545 775.727 342.682 776.773 342.682 809.227 342.682 809.227 342.682 809.227 342.682 810.273 342.682 811.136 343.545 811.136 344.591Z" fill="#454545" fill-rule="evenodd"/></g></svg>