<svg width="45" height="45" xmlns="http://www.w3.org/2000/svg" xmlns:xlink="http://www.w3.org/1999/xlink" overflow="hidden"><defs><clipPath id="clip0"><rect x="1024" y="335" width="45" height="45"/></clipPath></defs><g clip-path="url(#clip0)" transform="translate(-1024 -335)"><path d="M1067.8 356.595C1059.98 349.595 1059.98 349.595 1059.98 349.595 1059.79 349.405 1059.5 349.405 1059.3 349.595 1059.11 349.798 1059.11 350.095 1059.3 350.298 1066.73 356.905 1066.73 356.905 1066.73 356.905 1059.3 363.5 1059.3 363.5 1059.3 363.5 1059.11 363.702 1059.11 364 1059.3 364.202 1059.4 364.298 1059.5 364.405 1059.69 364.405 1059.79 364.405 1059.89 364.405 1059.98 364.298 1067.8 357.298 1067.8 357.298 1067.8 357.298 1067.91 357.202 1068 357.095 1068 356.905 1068 356.702 1067.91 356.702 1067.8 356.595ZM1066.05 366C1065.46 366 1065.07 366.405 1065.07 367 1065.07 372 1065.07 372 1065.07 372 1027.93 372 1027.93 372 1027.93 372 1027.93 367 1027.93 367 1027.93 367 1027.93 366.405 1027.54 366 1026.95 366 1026.37 366 1025.98 366.405 1025.98 367 1025.98 374 1025.98 374 1025.98 374 1025.98 376.798 1028.02 379 1030.67 379 1062.33 379 1062.33 379 1062.33 379 1064.87 379 1067.02 376.798 1067.02 374 1067.02 367 1067.02 367 1067.02 367 1067.02 366.405 1066.63 366 1066.05 366ZM1065.07 374C1065.07 375.702 1063.8 377 1062.33 377 1030.67 377 1030.67 377 1030.67 377 1029.2 377 1027.93 375.702 1027.93 374 1027.93 373 1027.93 373 1027.93 373 1065.07 373 1065.07 373 1065.07 373L1065.07 374ZM1026.95 348C1027.54 348 1027.93 347.595 1027.93 347 1027.93 342 1027.93 342 1027.93 342 1065.07 342 1065.07 342 1065.07 342 1065.07 347 1065.07 347 1065.07 347 1065.07 347.595 1065.46 348 1066.05 348 1066.63 348 1067.02 347.595 1067.02 347 1067.02 340 1067.02 340 1067.02 340 1067.02 337.202 1064.98 335 1062.33 335 1031.64 335 1031.64 335 1031.64 335 1029.11 335 1025.98 337.202 1025.98 340 1025.98 347 1025.98 347 1025.98 347 1025.98 347.595 1026.37 348 1026.95 348ZM1027.93 340C1027.93 338.5 1029.98 337 1031.64 337 1062.33 337 1062.33 337 1062.33 337 1063.8 337 1065.07 338.298 1065.07 340 1065.07 341 1065.07 341 1065.07 341 1027.93 341 1027.93 341 1027.93 341L1027.93 340ZM1033.31 364.5C1033.4 364.5 1033.6 364.405 1033.7 364.298 1033.89 364.095 1033.89 363.798 1033.7 363.595 1026.27 357 1026.27 357 1026.27 357 1033.7 350.405 1033.7 350.405 1033.7 350.405 1033.89 350.202 1033.89 349.905 1033.7 349.702 1033.5 349.5 1033.21 349.5 1033.02 349.702 1025.2 356.702 1025.2 356.702 1025.2 356.702 1025.09 356.702 1025 356.905 1025 357 1025 357.095 1025.09 357.298 1025.2 357.405 1033.02 364.405 1033.02 364.405 1033.02 364.405 1033.11 364.5 1033.21 364.5 1033.31 364.5ZM1049.92 347.798C1042.1 365.798 1042.1 365.798 1042.1 365.798 1042.01 366.095 1042.1 366.298 1042.39 366.5 1042.5 366.5 1042.5 366.5 1042.59 366.5 1042.79 366.5 1042.99 366.405 1043.08 366.202 1050.9 348.202 1050.9 348.202 1050.9 348.202 1050.99 347.905 1050.9 347.702 1050.61 347.5 1050.41 347.405 1050.12 347.5 1049.92 347.798Z" fill="#454545" fill-rule="evenodd"/></g></svg>