<svg width="50" height="54" xmlns="http://www.w3.org/2000/svg" xmlns:xlink="http://www.w3.org/1999/xlink" overflow="hidden"><defs><clipPath id="clip0"><rect x="150" y="503" width="50" height="54"/></clipPath></defs><g clip-path="url(#clip0)" transform="translate(-150 -503)"><path d="M186.478 522.909C163.82 522.909 163.82 522.909 163.82 522.909 163.522 522.909 163.224 523.205 163.224 523.5 163.224 523.5 163.224 523.795 163.522 524.091 169.484 527.636 169.484 527.636 169.484 527.636 169.783 527.636 170.081 527.636 170.081 527.341 170.379 527.045 170.379 526.75 170.081 526.455 165.907 524.091 165.907 524.091 165.907 524.091 186.478 524.091 186.478 524.091 186.478 524.091 187.373 524.091 188.267 524.977 188.267 525.864 188.267 531.773 188.267 531.773 188.267 531.773 188.267 532.068 188.565 532.364 188.863 532.364 189.161 532.364 189.46 532.068 189.46 531.773 189.46 525.864 189.46 525.864 189.46 525.864 189.46 524.386 187.969 522.909 186.478 522.909ZM186.776 534.727C180.814 531.182 180.814 531.182 180.814 531.182 180.516 531.182 180.217 531.182 179.919 531.477 179.621 531.773 179.919 532.068 180.217 532.364 184.391 534.727 184.391 534.727 184.391 534.727 163.82 534.727 163.82 534.727 163.82 534.727 162.627 534.727 162.031 533.841 162.031 532.955 162.031 527.045 162.031 527.045 162.031 527.045 162.031 526.75 161.733 526.455 161.435 526.455 161.137 526.455 160.839 526.75 160.839 527.045 160.839 532.955 160.839 532.955 160.839 532.955 160.839 534.727 162.031 535.909 163.82 535.909 186.478 535.909 186.478 535.909 186.478 535.909 186.776 535.909 186.776 535.909 187.075 535.614 187.075 535.318 187.075 535.023 186.776 534.727ZM196.317 514.045C193.932 513.159 188.863 511.682 186.478 510.5 181.41 507.841 179.323 506.068 177.534 504.886 176.938 504.295 176.043 504 175.149 504 175.149 504 175.149 504 175.149 504 175.149 504 175.149 504 175.149 504 174.255 504 173.36 504.295 172.466 504.886 170.677 506.068 168.888 507.841 163.82 510.5 161.137 511.682 156.366 513.159 153.683 514.045 152.193 514.636 151 516.114 151.298 517.886 151.596 522.909 153.087 533.545 156.366 540.045 159.944 547.432 169.484 553.341 173.062 555.409 173.658 556 174.553 556 175.149 556 175.745 556 176.342 556 176.938 555.409 180.814 553.341 190.056 547.432 193.932 540.045 197.211 533.545 198.404 522.909 199 517.886 199 516.114 198.106 514.636 196.317 514.045ZM191.845 538.864C189.46 543.591 184.093 548.614 175.745 553.636 175.447 553.636 175.149 553.636 175.149 553.636 174.851 553.636 174.553 553.636 174.553 553.636 166.205 548.614 160.839 543.591 158.453 538.864 155.174 532.364 153.981 520.841 153.683 517.591 153.683 516.705 154.28 516.409 154.578 516.409 155.472 516.114 155.472 516.114 155.472 516.114 158.155 514.932 162.329 513.75 164.714 512.568 169.484 510.205 171.571 508.432 173.36 507.25 173.658 506.955 173.658 506.955 173.957 506.659 174.255 506.659 174.553 506.364 174.851 506.364 174.851 506.364 174.851 506.364 174.851 506.364 175.149 506.364 175.149 506.364 175.149 506.364 175.149 506.364 175.149 506.364 175.149 506.364 175.745 506.364 176.043 506.659 176.043 506.659 176.342 506.955 176.64 506.955 176.938 507.25 178.727 508.432 180.814 510.205 185.286 512.568 187.671 513.75 191.845 514.932 194.826 516.114 195.72 516.409 195.72 516.409 195.72 516.409 195.72 516.409 196.615 516.705 196.615 517.591 196.317 520.841 195.124 532.364 191.845 538.864Z" fill="#484848" fill-rule="evenodd"/></g></svg>