<svg width="41" height="40" xmlns="http://www.w3.org/2000/svg" xmlns:xlink="http://www.w3.org/1999/xlink" overflow="hidden"><defs><clipPath id="clip0"><rect x="511" y="337" width="41" height="40"/></clipPath></defs><g clip-path="url(#clip0)" transform="translate(-511 -337)"><path d="M525.116 347.278C524.937 347.109 524.673 347.109 524.494 347.278 524.325 347.457 524.325 347.721 524.494 347.9 531.236 353.757 531.236 353.757 531.236 353.757 524.494 359.602 524.494 359.602 524.494 359.602 524.325 359.782 524.325 360.045 524.494 360.225 524.589 360.309 524.673 360.404 524.852 360.404 524.937 360.404 525.032 360.404 525.116 360.309 532.207 354.105 532.207 354.105 532.207 354.105 532.302 354.02 532.386 353.925 532.386 353.757 532.386 353.577 532.302 353.482 532.207 353.398L525.116 347.278ZM544.795 374.227C515.989 374.227 515.989 374.227 515.989 374.227 514.395 374.227 513.773 372.813 513.773 371.568 513.773 351.182 513.773 351.182 513.773 351.182 513.773 350.654 513.414 350.295 512.886 350.295 512.359 350.295 512 350.654 512 351.182 512 371.568 512 371.568 512 371.568 512 374.143 513.688 376 515.989 376 544.795 376 544.795 376 544.795 376 545.323 376 545.682 375.641 545.682 375.114 545.682 374.586 545.323 374.227 544.795 374.227ZM547.455 337C519.977 337 519.977 337 519.977 337 518.025 337 516.432 338.593 516.432 340.545 516.432 368.023 516.432 368.023 516.432 368.023 516.432 369.975 518.025 371.568 519.977 371.568 547.455 371.568 547.455 371.568 547.455 371.568 549.407 371.568 551 369.975 551 368.023 551 340.545 551 340.545 551 340.545 551 338.593 549.407 337 547.455 337ZM549.227 368.023C549.227 368.993 548.425 369.795 547.455 369.795 519.977 369.795 519.977 369.795 519.977 369.795 519.006 369.795 518.205 368.993 518.205 368.023 518.205 340.545 518.205 340.545 518.205 340.545 518.205 339.575 519.006 338.773 519.977 338.773 547.455 338.773 547.455 338.773 547.455 338.773 548.425 338.773 549.227 339.575 549.227 340.545L549.227 368.023Z" fill="#454545" fill-rule="evenodd"/></g></svg>