<svg width="53" height="51" xmlns="http://www.w3.org/2000/svg" xmlns:xlink="http://www.w3.org/1999/xlink" overflow="hidden"><defs><clipPath id="clip0"><rect x="437" y="158" width="53" height="51"/></clipPath></defs><g clip-path="url(#clip0)" transform="translate(-437 -158)"><path d="M483.443 189.917C482.852 189.681 482.148 190.028 481.909 190.611 478.955 199.597 470.682 205.667 461.227 205.667 449.17 205.667 439.364 195.75 439.364 183.5 439.364 171.25 449.17 161.333 461.227 161.333 470.569 161.333 478.955 167.403 481.909 176.389 482.148 176.972 482.739 177.319 483.443 177.083 484.034 176.847 484.385 176.264 484.16 175.569 480.84 165.653 471.624 159 461.227 159 447.876 159 437 169.972 437 183.5 437 197.028 447.876 208 461.227 208 471.624 208 480.84 201.347 484.16 191.319 484.385 190.736 484.034 190.028 483.443 189.917ZM488.409 183.5C464.294 183.5 464.294 183.5 464.294 183.5 472.215 176.389 472.215 176.389 472.215 176.389 472.455 176.153 472.455 175.806 472.215 175.569 471.976 175.333 471.624 175.333 471.385 175.569 462.297 183.736 462.297 183.736 462.297 183.736 462.057 183.847 462.057 184.194 462.17 184.319 462.297 184.431 462.522 184.667 462.761 184.667 488.409 184.667 488.409 184.667 488.409 184.667 488.761 184.667 489 184.431 489 184.083 489 183.736 488.761 183.5 488.409 183.5Z" fill="#454545" fill-rule="evenodd"/></g></svg>