<svg width="49" height="54" xmlns="http://www.w3.org/2000/svg" xmlns:xlink="http://www.w3.org/1999/xlink" overflow="hidden"><defs><clipPath id="clip0"><rect x="489" y="503" width="49" height="54"/></clipPath></defs><g clip-path="url(#clip0)" transform="translate(-489 -503)"><path d="M510.168 525.273C501.82 525.273 501.82 525.273 501.82 525.273 501.522 525.273 501.224 525.568 501.224 525.864 501.224 526.159 501.522 526.455 501.82 526.455 510.168 526.455 510.168 526.455 510.168 526.455 510.466 526.455 510.764 526.159 510.764 525.864 510.764 525.568 510.466 525.273 510.168 525.273ZM510.168 531.182C501.82 531.182 501.82 531.182 501.82 531.182 501.522 531.182 501.224 531.477 501.224 531.773 501.224 532.068 501.522 532.364 501.82 532.364 510.168 532.364 510.168 532.364 510.168 532.364 510.466 532.364 510.764 532.068 510.764 531.773 510.764 531.477 510.466 531.182 510.168 531.182ZM519.112 520.545C515.832 520.545 513.149 523.205 513.149 526.455 513.149 527.932 513.447 529.114 514.342 530 514.342 530 514.342 530 514.342 530 514.342 536.5 514.342 536.5 514.342 536.5 514.342 536.795 514.342 536.795 514.64 537.091 514.64 537.091 514.938 537.091 515.236 537.091 519.112 534.727 519.112 534.727 519.112 534.727 522.988 537.091 522.988 537.091 522.988 537.091 522.988 537.091 522.988 537.091 523.286 537.091 523.286 537.091 523.286 537.091 523.584 537.091 523.584 536.795 523.882 536.795 523.882 536.5 523.882 530 523.882 530 523.882 530 523.882 530 523.882 530 523.882 530 524.478 529.114 525.075 527.932 525.075 526.455 525.075 523.205 522.391 520.545 519.112 520.545ZM522.689 535.614C519.41 533.545 519.41 533.545 519.41 533.545 519.112 533.545 518.814 533.545 518.814 533.545 515.534 535.614 515.534 535.614 515.534 535.614 515.534 531.182 515.534 531.182 515.534 531.182 516.429 531.773 517.621 532.364 519.112 532.364 520.304 532.364 521.497 531.773 522.689 531.182L522.689 535.614ZM519.112 531.182C516.429 531.182 514.342 529.114 514.342 526.455 514.342 523.795 516.429 521.727 519.112 521.727 521.795 521.727 523.882 523.795 523.882 526.455 523.882 529.114 521.795 531.182 519.112 531.182ZM534.317 514.045C531.932 513.159 526.863 511.682 524.478 510.205 519.41 507.841 517.323 506.068 515.534 504.886 514.938 504.295 514.043 504 513.149 504 513.149 504 513.149 504 513.149 504 513.149 504 513.149 504 513.149 504 512.255 504 511.36 504.295 510.466 504.886 508.677 506.068 506.888 507.841 501.82 510.205 499.137 511.682 494.366 513.159 491.683 514.045 490.193 514.636 489 516.114 489.298 517.886 489.596 522.909 491.087 533.545 494.366 540.045 497.944 547.432 507.484 553.341 511.062 555.409 511.658 555.705 512.553 556 513.149 556 513.745 556 514.342 555.705 514.938 555.409 518.814 553.341 528.056 547.432 531.932 540.045 535.211 533.545 536.404 522.909 537 517.886 537 516.114 536.106 514.636 534.317 514.045ZM529.845 538.864C527.46 543.591 522.093 548.614 513.745 553.341 513.447 553.636 513.149 553.636 513.149 553.636 512.851 553.636 512.553 553.636 512.553 553.341 504.205 548.614 498.839 543.591 496.453 538.864 493.174 532.364 491.981 520.841 491.683 517.591 491.683 516.705 492.28 516.409 492.578 516.409 493.472 515.818 493.472 515.818 493.472 515.818 496.155 514.932 500.329 513.75 502.714 512.568 507.484 510.205 509.571 508.432 511.36 507.25 511.658 506.955 511.658 506.955 511.957 506.659 512.255 506.659 512.553 506.364 512.851 506.364 512.851 506.364 512.851 506.364 512.851 506.364 513.149 506.364 513.149 506.364 513.149 506.364 513.149 506.364 513.149 506.364 513.149 506.364 513.745 506.364 514.043 506.659 514.043 506.659 514.342 506.955 514.64 506.955 514.938 507.25 516.727 508.432 518.814 510.205 523.286 512.568 525.671 513.75 529.845 514.932 532.826 515.818 533.721 516.409 533.721 516.409 533.721 516.409 533.721 516.409 534.615 516.705 534.615 517.591 534.317 520.841 533.124 532.364 529.845 538.864ZM526.267 518.182C500.031 518.182 500.031 518.182 500.031 518.182 498.54 518.182 497.646 519.364 497.646 520.545 497.646 537.091 497.646 537.091 497.646 537.091 497.646 538.273 498.54 539.455 500.031 539.455 526.267 539.455 526.267 539.455 526.267 539.455 527.46 539.455 528.652 538.273 528.652 537.091 528.652 520.545 528.652 520.545 528.652 520.545 528.652 519.364 527.46 518.182 526.267 518.182ZM527.46 537.091C527.46 537.682 526.863 538.273 526.267 538.273 500.031 538.273 500.031 538.273 500.031 538.273 499.435 538.273 498.839 537.682 498.839 537.091 498.839 520.545 498.839 520.545 498.839 520.545 498.839 519.955 499.435 519.364 500.031 519.364 526.267 519.364 526.267 519.364 526.267 519.364 526.863 519.364 527.46 519.955 527.46 520.545L527.46 537.091ZM519.112 523.5C517.323 523.5 516.13 524.977 516.13 526.455 516.13 528.227 517.323 529.409 519.112 529.409 520.602 529.409 522.093 528.227 522.093 526.455 522.093 524.977 520.602 523.5 519.112 523.5ZM519.112 528.227C517.919 528.227 517.323 527.341 517.323 526.455 517.323 525.568 517.919 524.682 519.112 524.682 520.006 524.682 520.901 525.568 520.901 526.455 520.901 527.341 520.006 528.227 519.112 528.227Z" fill="#484848" fill-rule="evenodd"/></g></svg>