<svg width="50" height="36" xmlns="http://www.w3.org/2000/svg" xmlns:xlink="http://www.w3.org/1999/xlink" overflow="hidden"><defs><clipPath id="clip0"><rect x="856" y="334" width="50" height="36"/></clipPath></defs><g clip-path="url(#clip0)" transform="translate(-856 -334)"><path d="M876.632 349.531C876.279 350.283 876.279 350.283 876.279 350.283 874.338 354.31 873.147 356.611 870.632 356.301 870.279 356.301 870.059 355.637 870.059 354.973 870.059 353.911 870.941 351.92 873.897 351.832 874.206 351.832 874.426 351.611 874.426 351.257 874.426 350.947 874.206 350.726 873.897 350.726 873.588 350.726 873.235 350.726 872.926 350.814 871.912 349.973 871.074 347.894 871.382 345.46 871.382 345.15 871.294 344.929 870.941 344.796 870.632 344.796 870.412 344.929 870.279 345.239 869.971 347.673 870.721 349.841 871.691 351.168 869.971 351.92 869.088 353.469 869 354.885 868.868 356.168 869.529 357.274 870.5 357.407 871.074 357.407 871.074 357.407 871.074 357.407 874.118 357.407 875.662 354.221 877.294 350.726 877.603 349.973 877.603 349.973 877.603 349.973 879.765 345.372 882.853 342.274 886.779 340.637 890.794 339 894.412 338.69 896.794 339.664 897.897 340.195 898.647 340.991 899.088 342.097 899.662 343.735 897.765 345.46 895.382 346.876 894.191 346.345 892.779 346.035 891.588 345.903 889.162 345.681 884.265 346.212 882.721 347.761 882.279 348.204 882.191 348.734 882.191 349.089 882.191 349.31 882.279 349.752 882.853 350.062 884.265 351.035 888.5 351.035 890.485 350.372 891.235 350.062 893.309 349.31 895.382 348.204 896.265 348.646 896.794 349.089 896.794 349.531 896.794 349.752 896.794 350.062 896.485 350.283 895.603 351.257 893.309 351.92 891.368 351.832 891.015 351.832 890.794 352.053 890.794 352.363 890.794 352.673 891.015 352.894 891.368 352.894 893.309 353.027 896.132 352.23 897.368 350.947 897.765 350.372 897.985 349.841 897.897 349.31 897.765 348.646 897.235 347.982 896.485 347.451 898.868 345.903 900.853 343.956 900.059 341.743 899.662 340.416 898.647 339.354 897.235 338.69 894.632 337.496 890.706 337.805 886.338 339.575 882.059 341.434 878.926 344.708 876.632 349.531M890.132 349.31C888.412 349.973 884.794 349.841 883.603 349.177 883.382 349.089 883.382 348.956 883.382 348.956 883.382 348.956 883.382 348.734 883.603 348.513 884.574 347.54 887.971 347.009 890.574 347.009 891.588 347.009 891.588 347.009 891.588 347.009 892.426 347.097 893.309 347.23 894.191 347.54 892.779 348.292 891.368 348.867 890.132 349.31M882.853 358.469C880.868 356.965 878.706 355.549 875.75 355.327 875.441 355.327 875.221 355.549 875.221 355.858 875.221 356.168 875.441 356.389 875.75 356.389 879.368 356.743 881.838 358.911 884.044 360.991 886.118 362.85 887.971 364.619 890.353 364.619 890.706 364.619 890.926 364.619 891.235 364.487 892.779 364.265 893.838 363.292 894.279 361.788 894.941 359.708 894.412 357.186 892.779 355.549 890.132 352.584 884.794 351.92 878.794 353.69 878.485 353.779 878.353 354.133 878.485 354.31 878.574 354.664 878.926 354.752 879.147 354.664 882.412 353.69 885.588 353.558 887.971 354.133 885.588 354.885 883.603 356.389 882.853 358.469M893.309 361.434C893 362.54 892.118 363.204 891.147 363.425 890.353 363.513 889.691 363.425 888.941 363.204 889.691 361.345 890.794 360.239 893.529 360.018 893.529 360.46 893.441 360.991 893.309 361.434M892.868 357.496C893.088 357.938 893.309 358.469 893.441 358.911 890.706 359.133 889.074 360.239 887.971 362.761 887.441 362.407 886.868 362.009 886.338 361.566 886.868 358.69 889.824 356.965 892.868 357.496M890.132 354.885C890.926 355.195 891.588 355.77 892.118 356.301 889.074 356.168 886.206 357.938 885.368 360.681 884.794 360.15 884.794 360.15 884.794 360.15 884.485 359.796 884.132 359.575 883.824 359.265 884.485 356.522 887.529 354.973 890.132 354.885M902.265 347.54C901.912 347.097 901.162 347.009 900.721 347.319 900.279 347.673 900.191 348.425 900.5 348.867 901.912 350.814 902.794 353.115 902.794 355.549 902.794 361.788 897.676 366.788 891.368 366.788 870.632 366.788 870.632 366.788 870.632 366.788 864.279 366.788 859.162 361.788 859.162 355.637 859.162 349.973 863.529 345.15 869.309 344.487 869.75 344.487 870.059 344.133 870.191 343.735 871.824 339.221 876.059 336.168 881 336.168 882.632 336.168 884.265 336.478 885.765 337.142 886.338 337.363 887 337.142 887.221 336.611 887.441 336.08 887.221 335.416 886.647 335.195 884.794 334.398 882.941 334 881 334 875.441 334 870.5 337.363 868.426 342.407 861.897 343.381 857 348.956 857 355.637 857 362.982 863.088 369 870.632 369 891.456 369 891.456 369 891.456 369 898.868 369 905 362.982 905 355.637 905 352.673 903.985 349.973 902.265 347.54M870.191 351.478C870.279 351.478 870.5 351.389 870.632 351.257 870.853 351.035 870.721 350.726 870.5 350.504 869.529 349.752 869 348.956 868.868 348.115 868.868 347.761 868.559 347.54 868.206 347.673 867.897 347.673 867.676 347.982 867.765 348.292 867.985 349.531 868.647 350.504 869.838 351.478L870.191 351.478Z" fill="#454545" fill-rule="evenodd"/></g></svg>