<svg width="47" height="36" xmlns="http://www.w3.org/2000/svg" xmlns:xlink="http://www.w3.org/1999/xlink" overflow="hidden"><defs><clipPath id="clip0"><rect x="584" y="336" width="47" height="36"/></clipPath></defs><g clip-path="url(#clip0)" transform="translate(-584 -336)"><path d="M626.932 336C588.068 336 588.068 336 588.068 336 586.534 336 585 337.287 585 338.831 585 368.169 585 368.169 585 368.169 585 369.713 586.534 371 588.068 371 626.932 371 626.932 371 626.932 371 628.722 371 630 369.713 630 368.169 630 338.831 630 338.831 630 338.831 630 337.287 628.722 336 626.932 336ZM627.955 368.169C627.955 368.684 627.699 369.199 626.932 369.199 588.068 369.199 588.068 369.199 588.068 369.199 587.557 369.199 587.045 368.684 587.045 368.169 587.045 346.294 587.045 346.294 587.045 346.294 605.966 354.272 605.966 354.272 605.966 354.272 606.477 354.529 606.989 354.787 607.5 354.787 608.267 354.787 608.778 354.529 609.29 354.272 627.955 346.294 627.955 346.294 627.955 346.294L627.955 368.169ZM627.955 345.265C608.778 353.5 608.778 353.5 608.778 353.5 608.267 353.757 607.244 354.015 606.477 353.5 587.045 345.265 587.045 345.265 587.045 345.265 587.045 338.831 587.045 338.831 587.045 338.831 587.045 338.316 587.557 338.059 588.068 338.059 626.932 338.059 626.932 338.059 626.932 338.059 627.699 338.059 627.955 338.316 627.955 338.831L627.955 345.265Z" fill="#454545" fill-rule="evenodd"/></g></svg>