<svg width="47" height="51" xmlns="http://www.w3.org/2000/svg" xmlns:xlink="http://www.w3.org/1999/xlink" overflow="hidden"><defs><clipPath id="clip0"><rect x="1154" y="151" width="47" height="51"/></clipPath></defs><g clip-path="url(#clip0)" transform="translate(-1154 -151)"><path d="M1196.34 161.466C1181.16 152.835 1181.16 152.835 1181.16 152.835 1180.03 152.278 1178.91 152 1177.5 152 1176.09 152 1174.97 152.278 1173.84 152.835 1158.66 161.466 1158.66 161.466 1158.66 161.466 1156.69 162.58 1155 165.364 1155 167.591 1155 185.131 1155 185.131 1155 185.131 1155 187.358 1156.69 190.142 1158.66 191.256 1173.84 199.886 1173.84 199.886 1173.84 199.886 1174.69 200.443 1176.09 201 1177.5 201 1178.91 201 1180.03 200.443 1181.16 199.886 1196.34 191.256 1196.34 191.256 1196.34 191.256 1198.31 190.142 1200 187.358 1200 185.131 1200 167.591 1200 167.591 1200 167.591 1200 165.364 1198.31 162.58 1196.34 161.466ZM1197.75 185.131C1197.75 186.523 1196.62 188.75 1195.22 189.307 1180.03 198.216 1180.03 198.216 1180.03 198.216 1179.47 198.494 1178.62 198.773 1177.5 198.773 1176.38 198.773 1175.53 198.494 1174.97 198.216 1159.78 189.307 1159.78 189.307 1159.78 189.307 1158.38 188.75 1157.25 186.523 1157.25 185.131 1157.25 167.591 1157.25 167.591 1157.25 167.591 1157.25 166.199 1158.38 164.25 1159.78 163.415 1174.97 154.784 1174.97 154.784 1174.97 154.784 1175.53 154.227 1176.38 154.227 1177.5 154.227 1178.62 154.227 1179.47 154.227 1180.03 154.784 1195.22 163.415 1195.22 163.415 1195.22 163.415 1196.62 164.25 1197.75 166.199 1197.75 167.591 1197.75 185.131 1197.75 185.131 1197.75 185.131ZM1183.12 165.364C1182 164.807 1180.31 164.528 1178.62 164.25 1178.34 163.136 1176.66 158.682 1174.41 159.239 1171.59 159.795 1170.19 160.352 1168.5 162.023 1168.22 162.301 1168.22 162.58 1168.22 163.136 1168.22 163.693 1169.06 164.807 1169.91 165.364 1170.19 165.92 1170.47 165.92 1171.03 166.199 1173.28 167.591 1174.41 169.261 1174.69 170.932 1174.69 174.551 1170.75 177.892 1168.78 179.562 1168.22 179.841 1167.94 180.398 1167.66 180.398 1165.41 182.347 1164.56 183.739 1164 184.295 1164 184.852 1164.28 185.966 1164.84 187.08 1165.97 189.028 1169.06 191.812 1176.09 191.812 1176.94 191.812 1177.5 191.812 1178.34 191.812 1181.44 191.534 1183.12 187.915 1182.84 181.233 1182.56 178.17 1182.28 175.665 1182 175.665 1182 175.665 1182 175.665 1182 175.665 1185.38 174.273 1188.75 173.438 1192.41 173.716 1194.66 173.994 1194.94 173.159 1195.22 172.602 1195.5 170.375 1188.47 166.477 1183.12 165.364ZM1180.88 165.92C1181.44 165.92 1182.28 166.199 1183.12 166.199 1184.25 166.477 1185.38 167.034 1186.22 167.312 1184.53 168.426 1182.28 169.261 1180.59 169.818 1180.88 168.705 1180.88 167.312 1180.88 165.92ZM1169.62 163.693C1169.34 163.415 1169.34 163.136 1169.34 162.858 1170.47 161.744 1171.59 160.909 1174.69 160.352 1175.53 160.074 1176.94 162.301 1177.5 163.972 1175.25 163.693 1173 163.415 1171.59 163.415 1170.75 163.415 1170.19 163.415 1169.62 163.693ZM1173.28 166.756C1172.72 166.199 1172.16 165.92 1171.59 165.364 1171.31 165.364 1171.31 165.364 1171.31 165.364 1171.03 165.085 1170.75 165.085 1170.75 164.807 1170.75 164.807 1170.75 164.807 1170.75 164.807 1170.75 164.807 1170.75 164.807 1170.75 164.807 1170.47 164.807 1170.47 164.807 1170.47 164.807 1170.75 164.807 1171.03 164.528 1171.59 164.528 1173.28 164.528 1176.38 165.085 1179.75 165.642 1180.03 167.034 1179.75 168.426 1179.47 169.818 1177.78 168.705 1175.81 167.591 1173.28 166.756ZM1178.34 170.375C1177.22 170.653 1176.38 170.932 1175.81 170.932 1175.53 170.097 1175.25 169.261 1174.97 168.705 1176.09 169.261 1177.5 169.818 1178.34 170.375ZM1175.81 172.045C1176.38 171.767 1177.5 171.767 1178.91 171.489 1177.78 173.994 1175.53 175.943 1172.16 178.17 1173.56 176.5 1175.25 174.273 1175.81 172.045ZM1173 179.841C1174.12 179.284 1175.25 178.727 1176.38 178.17 1176.94 178.17 1177.22 177.892 1177.5 177.614 1177.5 178.727 1177.22 179.562 1176.66 180.955 1175.25 181.511 1173.84 181.79 1172.44 182.347 1172.72 181.511 1173 180.955 1173 179.841ZM1176.38 182.347C1175.53 183.739 1174.69 185.409 1173.84 187.08 1171.88 187.636 1169.91 187.636 1168.5 187.915 1169.91 186.523 1171.03 185.131 1171.88 183.739 1173.28 183.182 1174.69 182.625 1176.38 182.347ZM1168.22 181.511C1168.22 181.511 1168.22 181.511 1168.5 181.511 1169.62 181.511 1170.75 180.955 1171.88 180.398 1171.88 181.233 1171.59 182.068 1171.31 182.625 1169.06 183.182 1167.09 183.739 1165.97 184.017 1166.25 183.46 1167.09 182.625 1168.22 181.511ZM1166.81 187.915C1166.81 187.636 1166.81 187.636 1166.81 187.636 1165.69 186.801 1165.41 185.688 1165.12 185.409 1166.25 185.131 1167.94 184.852 1170.19 184.295 1169.34 185.409 1168.22 186.523 1167.09 187.636L1166.81 187.915ZM1168.22 188.75C1169.34 188.75 1171.03 188.75 1173 188.193 1172.44 189.028 1172.16 189.864 1171.59 190.142 1170.19 189.864 1169.06 189.307 1168.22 188.75ZM1180.31 189.307C1179.75 190.142 1179.19 190.42 1178.34 190.699 1176.09 190.699 1174.12 190.699 1172.72 190.42 1173.28 189.864 1174.12 189.028 1174.69 188.193 1176.94 187.636 1179.47 186.801 1181.44 185.966 1181.44 187.358 1180.88 188.472 1180.31 189.307ZM1181.44 184.574C1179.75 185.409 1177.5 186.244 1175.25 186.801 1176.09 185.131 1176.94 183.46 1177.5 181.79 1179.19 181.233 1180.31 180.676 1181.44 179.841 1181.72 181.511 1181.72 182.903 1181.44 184.574ZM1178.62 177.335C1179.19 176.778 1180.31 176.5 1180.88 176.222 1181.16 176.778 1181.16 177.614 1181.44 178.727 1180.31 179.284 1179.19 179.841 1178.06 180.398 1178.34 179.284 1178.62 178.17 1178.62 177.335ZM1176.09 177.335C1175.25 177.614 1174.69 178.17 1173.84 178.449 1176.94 176.222 1178.91 173.994 1180.03 171.489 1180.88 172.045 1181.44 172.324 1182 172.881 1182.56 173.159 1183.12 173.716 1183.69 173.994 1180.88 174.83 1178.34 175.943 1176.09 177.335ZM1182.84 172.045C1182.28 171.489 1181.72 171.21 1181.16 170.932 1183.12 170.375 1185.09 169.261 1187.06 168.148 1186.78 169.54 1185.38 172.324 1184.53 173.159 1183.97 172.881 1183.41 172.324 1182.84 172.045ZM1192.97 172.602C1192.69 172.602 1192.69 172.602 1192.41 172.602 1191.84 172.602 1191.28 172.602 1190.72 172.602 1189.03 172.602 1187.34 172.881 1185.94 173.159 1186.78 172.045 1187.91 169.54 1188.19 168.148 1191.56 169.818 1194.09 172.045 1193.81 172.602 1193.81 172.602 1193.81 172.602 1192.97 172.602Z" fill="#404040" fill-rule="evenodd"/></g></svg>