<svg width="50" height="54" xmlns="http://www.w3.org/2000/svg" xmlns:xlink="http://www.w3.org/1999/xlink" overflow="hidden"><defs><clipPath id="clip0"><rect x="1121" y="507" width="50" height="54"/></clipPath></defs><g clip-path="url(#clip0)" transform="translate(-1121 -507)"><path d="M1148.53 529.273C1142.57 529.273 1142.57 529.273 1142.57 529.273 1137.2 533.705 1137.2 533.705 1137.2 533.705 1137.8 534.591 1137.8 534.591 1137.8 534.591 1143.17 530.455 1143.17 530.455 1143.17 530.455 1149.13 530.455 1149.13 530.455 1149.13 530.455 1154.5 526.318 1154.5 526.318 1154.5 526.318 1153.9 525.432 1153.9 525.432 1153.9 525.432L1148.53 529.273ZM1157.78 522.182C1133.93 522.182 1133.93 522.182 1133.93 522.182 1132.73 522.182 1131.54 523.364 1131.54 524.545 1131.54 541.091 1131.54 541.091 1131.54 541.091 1131.54 542.568 1132.73 543.455 1133.93 543.455 1157.78 543.455 1157.78 543.455 1157.78 543.455 1159.27 543.455 1160.16 542.568 1160.16 541.091 1160.16 524.545 1160.16 524.545 1160.16 524.545 1160.16 523.364 1159.27 522.182 1157.78 522.182ZM1158.97 541.091C1158.97 541.682 1158.37 542.273 1157.78 542.273 1155.39 542.273 1155.39 542.273 1155.39 542.273 1155.39 534 1155.39 534 1155.39 534 1154.2 534 1154.2 534 1154.2 534 1154.2 542.273 1154.2 542.273 1154.2 542.273 1149.43 542.273 1149.43 542.273 1149.43 542.273 1149.43 537.545 1149.43 537.545 1149.43 537.545 1148.24 537.545 1148.24 537.545 1148.24 537.545 1148.24 542.273 1148.24 542.273 1148.24 542.273 1143.47 542.273 1143.47 542.273 1143.47 542.273 1143.47 536.364 1143.47 536.364 1143.47 536.364 1142.27 536.364 1142.27 536.364 1142.27 536.364 1142.27 542.273 1142.27 542.273 1142.27 542.273 1137.5 542.273 1137.5 542.273 1137.5 542.273 1137.5 538.727 1137.5 538.727 1137.5 538.727 1136.31 538.727 1136.31 538.727 1136.31 538.727 1136.31 542.273 1136.31 542.273 1136.31 542.273 1133.93 542.273 1133.93 542.273 1133.93 542.273 1133.33 542.273 1132.73 541.682 1132.73 541.091 1132.73 524.545 1132.73 524.545 1132.73 524.545 1132.73 523.955 1133.33 523.364 1133.93 523.364 1157.78 523.364 1157.78 523.364 1157.78 523.364 1158.37 523.364 1158.97 523.955 1158.97 524.545L1158.97 541.091ZM1167.32 518.045C1164.63 517.159 1159.57 515.682 1157.18 514.5 1152.11 511.841 1150.32 510.068 1148.53 508.886 1147.64 508.295 1146.75 508 1145.85 508 1145.85 508 1145.85 508 1145.85 508 1145.85 508 1145.85 508 1145.85 508 1144.96 508 1144.06 508.295 1143.47 508.886 1141.38 510.068 1139.59 511.841 1134.52 514.5 1132.14 515.682 1127.07 517.159 1124.68 518.045 1122.89 518.636 1122 520.114 1122 521.886 1122.6 526.909 1123.79 537.545 1127.07 544.045 1130.94 551.432 1140.19 557.341 1144.06 559.409 1144.66 560 1145.25 560 1145.85 560 1146.45 560 1147.04 560 1147.64 559.409 1151.52 557.341 1161.06 551.432 1164.63 544.045 1167.91 537.545 1169.4 526.909 1169.7 521.886 1170 520.114 1168.81 518.636 1167.32 518.045ZM1162.55 542.864C1160.16 547.591 1154.8 552.614 1146.45 557.341 1146.45 557.636 1146.15 557.636 1145.85 557.636 1145.55 557.636 1145.55 557.636 1145.25 557.341 1136.91 552.614 1131.54 547.591 1129.16 542.864 1125.88 536.364 1124.68 524.841 1124.39 521.591 1124.39 520.705 1125.28 520.409 1125.28 520.409 1126.17 520.114 1126.17 520.114 1126.17 520.114 1129.16 518.932 1133.33 517.75 1135.71 516.568 1140.19 514.205 1142.27 512.432 1144.06 511.25 1144.36 510.955 1144.66 510.955 1144.96 510.659 1144.96 510.659 1145.25 510.364 1145.85 510.364 1145.85 510.364 1145.85 510.364 1145.85 510.364 1145.85 510.364 1145.85 510.364 1145.85 510.364 1145.85 510.364 1145.85 510.364 1145.85 510.364 1146.45 510.364 1146.75 510.659 1147.04 510.659 1147.34 510.955 1147.34 510.955 1147.64 511.25 1149.43 512.432 1151.52 514.205 1155.99 516.568 1158.37 517.75 1162.84 518.932 1165.53 520.114 1166.42 520.409 1166.42 520.409 1166.42 520.409 1166.72 520.409 1167.32 520.705 1167.32 521.591 1167.02 524.841 1165.83 536.364 1162.55 542.864Z" fill="#484848" fill-rule="evenodd"/></g></svg>