<svg width="47" height="53" xmlns="http://www.w3.org/2000/svg" xmlns:xlink="http://www.w3.org/1999/xlink" overflow="hidden"><defs><clipPath id="clip0"><rect x="599" y="325" width="47" height="53"/></clipPath></defs><g clip-path="url(#clip0)" transform="translate(-599 -325)"><path d="M642.276 336.884C624.724 326.605 624.724 326.605 624.724 326.605 623.211 326 620.789 326 619.276 326.605 601.724 336.884 601.724 336.884 601.724 336.884 600.211 337.488 599 339.605 599 341.419 599 362.581 599 362.581 599 362.581 599 364.395 600.211 366.512 601.724 367.116 619.276 377.395 619.276 377.395 619.276 377.395 620.184 377.698 621.092 378 622 378 622.908 378 623.816 377.698 624.724 377.395 642.276 367.116 642.276 367.116 642.276 367.116 643.789 366.512 645 364.395 645 362.581 645 341.419 645 341.419 645 341.419 645 339.605 643.789 337.488 642.276 336.884ZM642.579 362.581C642.579 363.488 641.974 364.698 641.066 365 623.513 375.279 623.513 375.279 623.513 375.279 622.605 375.581 621.395 375.581 620.487 375.279 602.934 365 602.934 365 602.934 365 602.026 364.698 601.421 363.488 601.421 362.581 601.421 341.419 601.421 341.419 601.421 341.419 601.421 340.512 602.026 339.302 602.934 339 620.487 328.721 620.487 328.721 620.487 328.721 620.789 328.721 621.395 328.419 622 328.419 622.605 328.419 623.211 328.721 623.513 328.721 641.066 339 641.066 339 641.066 339 641.974 339.302 642.579 340.512 642.579 341.419L642.579 362.581ZM633.5 343.535C632.895 344.14 632.592 344.744 632.592 345.349 623.816 350.488 623.816 350.488 623.816 350.488 623.513 349.884 622.908 349.581 622 349.581 621.395 349.581 620.789 349.884 620.184 350.186 611.711 345.349 611.711 345.349 611.711 345.349 612.013 344.744 611.711 343.837 610.803 343.535 610.197 342.93 608.987 343.233 608.382 344.14 608.079 345.047 608.382 346.256 608.987 346.558 609.895 347.163 610.5 346.86 611.105 346.558 619.579 351.395 619.579 351.395 619.579 351.395 619.579 351.395 619.579 351.698 619.579 352 619.579 353.209 620.184 354.116 621.395 354.419 621.395 363.186 621.395 363.186 621.395 363.186 620.789 363.488 620.184 364.093 620.184 365 620.184 365.907 621.092 366.814 622 366.814 622.908 366.814 623.816 365.907 623.816 365 623.816 364.093 623.211 363.488 622.605 363.186 622.605 354.419 622.605 354.419 622.605 354.419 623.513 354.116 624.421 353.209 624.421 352 624.421 352 624.421 351.698 624.421 351.698 633.197 346.558 633.197 346.558 633.197 346.558 633.803 347.163 634.711 347.163 635.316 346.86 636.224 346.256 636.526 345.047 635.921 344.14 635.316 343.535 634.408 343.233 633.5 343.535Z" fill="#404040" fill-rule="evenodd"/></g></svg>