<svg width="44" height="50" xmlns="http://www.w3.org/2000/svg" xmlns:xlink="http://www.w3.org/1999/xlink" overflow="hidden"><defs><clipPath id="clip0"><rect x="825" y="152" width="44" height="50"/></clipPath></defs><g clip-path="url(#clip0)" transform="translate(-825 -152)"><path d="M861.928 165.595C859.382 168.994 859.382 168.994 859.382 168.994 859.099 169.277 858.816 169.277 858.816 169.277 848.066 170.977 848.066 170.977 848.066 170.977 847.783 170.977 847.217 170.977 846.934 170.977 836.184 169.277 836.184 169.277 836.184 169.277 836.184 169.277 835.901 169.277 835.901 168.994 833.355 165.595 833.355 165.595 833.355 165.595 833.072 165.312 832.789 165.312 832.507 165.312 832.224 165.595 832.224 165.879 832.224 166.162 834.77 169.561 834.77 169.561 834.77 169.561 835.053 170.127 835.618 170.41 836.184 170.41 846.934 172.11 846.934 172.11 846.934 172.11 846.934 172.11 847.217 172.11 847.5 172.11 847.783 172.11 848.066 172.11 848.066 172.11 858.816 170.41 858.816 170.41 858.816 170.41 859.382 170.41 859.947 170.127 860.23 169.561 862.776 166.162 862.776 166.162 862.776 166.162 863.059 165.879 862.776 165.595 862.493 165.312 862.493 165.312 861.928 165.312 861.928 165.595ZM857.118 174.376C854.289 174.942 854.289 174.942 854.289 174.942 853.724 174.942 853.158 175.509 853.158 176.075 850.612 187.971 850.612 187.971 850.612 187.971 850.612 187.971 850.329 187.971 850.329 188.254 847.5 188.538 847.5 188.538 847.5 188.538 844.671 188.254 844.671 188.254 844.671 188.254 844.671 187.971 844.671 187.971 844.671 187.971 841.842 176.075 841.842 176.075 841.842 176.075 841.842 175.509 841.276 174.942 840.711 174.942 837.882 174.376 837.882 174.376 837.882 174.376 837.599 174.376 837.316 174.659 837.316 174.942 837.316 175.225 837.599 175.509 837.882 175.509 840.711 176.075 840.711 176.075 840.711 176.075 840.711 176.075 840.993 176.075 840.993 176.075 843.539 188.254 843.539 188.254 843.539 188.254 843.539 188.821 844.105 189.104 844.671 189.104 846.934 189.671 846.934 189.671 846.934 189.671 847.217 189.671 847.5 189.671 847.5 189.671 847.5 189.671 847.783 189.671 848.066 189.671 850.329 189.104 850.329 189.104 850.329 189.104 850.895 189.104 851.461 188.821 851.461 188.254 854.289 176.075 854.289 176.075 854.289 176.075 854.289 176.075 854.289 176.075 854.289 176.075 857.118 175.509 857.118 175.509 857.118 175.509 857.684 175.509 857.684 175.225 857.684 174.942 857.684 174.659 857.401 174.376 857.118 174.376ZM866.454 162.197C850.046 152.85 850.046 152.85 850.046 152.85 848.632 152 846.368 152 844.954 152.85 828.546 162.197 828.546 162.197 828.546 162.197 827.132 163.046 826 165.029 826 166.728 826 186.555 826 186.555 826 186.555 826 188.254 827.132 190.237 828.546 191.087 844.954 200.434 844.954 200.434 844.954 200.434 845.803 200.717 846.651 201 847.5 201 848.632 201 849.48 200.717 850.046 200.434 866.454 191.087 866.454 191.087 866.454 191.087 867.868 190.237 869 188.254 869 186.555 869 166.728 869 166.728 869 166.728 869 165.029 867.868 163.046 866.454 162.197ZM866.737 186.555C866.737 187.405 866.171 188.538 865.322 189.104 848.914 198.451 848.914 198.451 848.914 198.451 848.349 198.734 846.934 198.734 846.086 198.451 829.678 189.104 829.678 189.104 829.678 189.104 829.112 188.538 828.263 187.405 828.263 186.555 828.263 166.728 828.263 166.728 828.263 166.728 828.263 165.879 829.112 164.746 829.678 164.179 846.086 154.832 846.086 154.832 846.086 154.832 846.651 154.549 846.934 154.549 847.5 154.549 848.066 154.549 848.632 154.549 848.914 154.832 865.322 164.179 865.322 164.179 865.322 164.179 866.171 164.746 866.737 165.879 866.737 166.728L866.737 186.555Z" fill="#404040" fill-rule="evenodd"/></g></svg>