<svg width="43" height="43" xmlns="http://www.w3.org/2000/svg" xmlns:xlink="http://www.w3.org/1999/xlink" overflow="hidden"><defs><clipPath id="clip0"><rect x="538" y="511" width="43" height="43"/></clipPath></defs><g clip-path="url(#clip0)" transform="translate(-538 -511)"><path d="M569.17 520.962C551.245 520.962 551.245 520.962 551.245 520.962 551.009 520.481 550.538 520 549.83 520 548.887 520 548.179 520.721 548.179 521.684 548.179 522.646 548.887 523.367 549.83 523.367 550.774 523.367 551.481 522.886 551.481 521.924 569.17 521.924 569.17 521.924 569.17 521.924 570.113 521.924 571.057 523.367 571.057 524.329 571.057 524.57 571.057 524.57 571.057 524.57 571.057 525.532 570.113 526.734 569.17 526.734 555.255 526.734 555.255 526.734 555.255 526.734 555.019 526.013 554.311 525.532 553.604 525.532 552.896 525.532 552.189 526.013 551.953 526.734 549.83 526.734 549.83 526.734 549.83 526.734 548.179 526.734 547 527.937 547 529.62 547 531.063 548.179 532.266 549.83 532.266 563.745 532.266 563.745 532.266 563.745 532.266 563.981 532.987 564.689 533.468 565.396 533.468 566.104 533.468 566.811 532.987 567.047 532.266 569.17 532.266 569.17 532.266 569.17 532.266 570.113 532.266 571.057 533.468 571.057 534.19 571.057 534.911 571.057 534.911 571.057 534.911 571.057 535.873 570.113 536.835 569.17 536.835 551.481 536.835 551.481 536.835 551.481 536.835 551.245 536.114 550.538 535.633 549.83 535.633 548.887 535.633 548.179 536.354 548.179 537.316 548.179 538.279 548.887 539 549.83 539 550.538 539 551.245 538.519 551.481 538.038 569.17 538.038 569.17 538.038 569.17 538.038 570.821 538.038 572 536.354 572 534.911 572 534.19 572 534.19 572 534.19 572 532.747 570.821 531.304 569.17 531.304 567.047 531.304 567.047 531.304 567.047 531.304 566.811 530.582 566.104 530.101 565.396 530.101 564.689 530.101 563.981 530.582 563.745 531.304 549.83 531.304 549.83 531.304 549.83 531.304 548.887 531.304 547.943 530.582 547.943 529.62 547.943 528.658 548.887 527.937 549.83 527.937 551.953 527.937 551.953 527.937 551.953 527.937 552.189 528.418 552.896 528.899 553.604 528.899 554.311 528.899 555.019 528.418 555.255 527.937 569.17 527.937 569.17 527.937 569.17 527.937 570.821 527.937 572 526.013 572 524.57 572 524.329 572 524.329 572 524.329 572 522.646 570.821 520.962 569.17 520.962Z" fill="#454545" fill-rule="evenodd"/><path d="M576.659 512C541.341 512 541.341 512 541.341 512 539.432 512 538 513.631 538 515.261 538 539.489 538 539.489 538 539.489 538 540.886 538.955 542.75 540.386 543.682 556.614 552.534 556.614 552.534 556.614 552.534 557.091 553 558.045 553 559 553 559.955 553 560.909 553 561.386 552.534 577.614 543.682 577.614 543.682 577.614 543.682 579.045 542.75 580 540.886 580 539.489 580 515.261 580 515.261 580 515.261 580 513.631 578.568 512 576.659 512ZM577.852 539.489C577.852 540.188 577.136 541.352 576.42 541.585 560.432 550.67 560.432 550.67 560.432 550.67 559.716 551.136 558.284 551.136 557.568 550.67 541.58 541.585 541.58 541.585 541.58 541.585 540.864 541.352 540.148 540.188 540.148 539.489 540.148 515.261 540.148 515.261 540.148 515.261 540.148 514.795 540.625 514.33 541.341 514.33 576.659 514.33 576.659 514.33 576.659 514.33 577.375 514.33 577.852 514.795 577.852 515.261L577.852 539.489Z" fill="#454545" fill-rule="evenodd"/></g></svg>