<svg width="44" height="45" xmlns="http://www.w3.org/2000/svg" xmlns:xlink="http://www.w3.org/1999/xlink" overflow="hidden"><defs><clipPath id="clip0"><rect x="1140" y="500" width="44" height="45"/></clipPath></defs><g clip-path="url(#clip0)" transform="translate(-1140 -500)"><path d="M1172.98 501C1150.51 501 1150.51 501 1150.51 501 1144.64 501 1140 505.539 1140 511.033 1140 527.517 1140 527.517 1140 527.517 1140 532.772 1144.15 537.072 1149.53 537.55 1150.02 537.55 1150.51 537.072 1150.51 536.594 1150.75 536.117 1150.26 535.639 1149.77 535.639 1145.38 535.161 1141.95 531.578 1141.95 527.517 1141.95 522.022 1141.95 522.022 1141.95 522.022 1148.55 522.022 1148.55 522.022 1148.55 522.022 1150.51 522.022 1151.73 523.217 1151.73 524.411 1151.73 526.561 1151.73 526.561 1151.73 526.561 1150.26 526.8 1149.28 527.994 1149.28 529.428 1149.28 531.1 1150.51 532.294 1152.22 532.294 1153.68 532.294 1155.15 531.1 1155.15 529.428 1155.15 527.994 1153.93 526.8 1152.7 526.561 1152.7 524.411 1152.7 524.411 1152.7 524.411 1152.7 522.5 1150.99 521.067 1148.55 521.067 1141.95 521.067 1141.95 521.067 1141.95 521.067 1141.95 515.333 1141.95 515.333 1141.95 515.333 1151.48 515.333 1151.48 515.333 1151.48 515.333 1154.41 515.333 1156.61 514.139 1156.61 512.228 1156.61 510.078 1156.61 510.078 1156.61 510.078 1157.84 509.839 1159.06 508.644 1159.06 507.211 1159.06 505.539 1157.59 504.344 1156.12 504.344 1154.41 504.344 1153.19 505.539 1153.19 507.211 1153.19 508.644 1154.17 509.839 1155.64 510.078 1155.64 512.228 1155.64 512.228 1155.64 512.228 1155.64 513.661 1153.93 514.378 1151.48 514.378 1141.95 514.378 1141.95 514.378 1141.95 514.378 1141.95 511.033 1141.95 511.033 1141.95 511.033 1141.95 506.733 1145.86 502.911 1150.51 502.911 1172.98 502.911 1172.98 502.911 1172.98 502.911 1172.98 502.911 1173.23 503.15 1173.23 503.15 1173.23 516.528 1173.23 516.528 1173.23 516.528 1173.23 516.528 1173.23 516.528 1173.23 516.528 1171.76 516.767 1170.78 517.961 1170.78 519.394 1170.78 521.067 1172.01 522.261 1173.72 522.261 1175.18 522.261 1176.65 521.067 1176.65 519.394 1176.65 517.961 1175.43 516.767 1174.2 516.528 1174.2 516.528 1174.2 516.528 1174.2 516.528 1174.2 503.15 1174.2 503.15 1174.2 503.15 1178.11 503.867 1181.05 506.972 1181.05 511.033 1181.05 527.517 1181.05 527.517 1181.05 527.517 1181.05 527.756 1181.05 527.756 1181.05 527.756 1172.01 527.756 1172.01 527.756 1172.01 527.756 1169.56 527.756 1167.36 525.844 1167.36 523.694 1167.36 512.706 1167.36 512.706 1167.36 512.706 1167.36 512.706 1167.36 512.706 1167.36 512.706 1168.59 512.467 1169.81 511.272 1169.81 509.839 1169.81 508.167 1168.34 506.972 1166.88 506.972 1165.16 506.972 1163.94 508.167 1163.94 509.839 1163.94 511.272 1164.92 512.467 1166.39 512.706 1166.39 512.706 1166.39 512.706 1166.39 512.706 1166.39 523.694 1166.39 523.694 1166.39 523.694 1166.39 526.561 1169.07 528.711 1172.01 528.711 1180.8 528.711 1180.8 528.711 1180.8 528.711 1180.31 532.533 1176.89 535.4 1172.98 535.4 1160.52 535.4 1160.52 535.4 1160.52 535.4 1160.52 522.261 1160.52 522.261 1160.52 522.261 1160.52 522.261 1160.52 522.261 1160.52 522.261 1161.74 522.022 1162.97 520.828 1162.97 519.394 1162.97 517.722 1161.5 516.528 1160.03 516.528 1158.32 516.528 1157.1 517.722 1157.1 519.394 1157.1 520.828 1158.08 522.022 1159.55 522.261 1159.55 522.261 1159.55 522.261 1159.55 522.261 1159.55 535.4 1159.55 535.4 1159.55 535.4 1155.88 535.4 1155.88 535.4 1155.88 535.4 1155.64 535.4 1155.39 535.639 1155.15 535.878 1150.26 542.328 1150.26 542.328 1150.26 542.328 1150.02 542.806 1150.02 543.522 1150.51 543.761 1150.75 544 1150.99 544 1150.99 544 1151.48 544 1151.73 543.761 1151.97 543.522 1156.37 537.311 1156.37 537.311 1156.37 537.311 1172.98 537.311 1172.98 537.311 1172.98 537.311 1178.6 537.311 1183 533.011 1183 527.517 1183 511.033 1183 511.033 1183 511.033 1183 505.539 1178.6 501 1172.98 501ZM1154.17 529.428C1154.17 530.383 1153.19 531.339 1152.22 531.339 1150.99 531.339 1150.26 530.383 1150.26 529.428 1150.26 528.233 1150.99 527.517 1152.22 527.517 1153.19 527.517 1154.17 528.233 1154.17 529.428ZM1154.17 507.211C1154.17 506.256 1154.9 505.3 1156.12 505.3 1157.1 505.3 1158.08 506.256 1158.08 507.211 1158.08 508.406 1157.1 509.122 1156.12 509.122 1154.9 509.122 1154.17 508.406 1154.17 507.211ZM1175.67 519.394C1175.67 520.35 1174.69 521.306 1173.72 521.306 1172.49 521.306 1171.76 520.35 1171.76 519.394 1171.76 518.2 1172.49 517.483 1173.72 517.483 1174.69 517.483 1175.67 518.2 1175.67 519.394ZM1164.92 509.839C1164.92 508.644 1165.65 507.928 1166.88 507.928 1167.85 507.928 1168.83 508.644 1168.83 509.839 1168.83 510.794 1167.85 511.75 1166.88 511.75 1165.65 511.75 1164.92 510.794 1164.92 509.839ZM1158.08 519.394C1158.08 518.2 1158.81 517.483 1160.03 517.483 1161.01 517.483 1161.99 518.2 1161.99 519.394 1161.99 520.35 1161.01 521.306 1160.03 521.306 1158.81 521.306 1158.08 520.35 1158.08 519.394Z" fill="#404040" fill-rule="evenodd"/></g></svg>