<svg width="45" height="51" xmlns="http://www.w3.org/2000/svg" xmlns:xlink="http://www.w3.org/1999/xlink" overflow="hidden"><defs><clipPath id="clip0"><rect x="595" y="324" width="45" height="51"/></clipPath></defs><g clip-path="url(#clip0)" transform="translate(-595 -324)"><path d="M636.395 334.405C619.605 324.867 619.605 324.867 619.605 324.867 618.158 324 615.842 324 614.395 324.867 597.605 334.405 597.605 334.405 597.605 334.405 596.158 335.272 595 337.295 595 339.029 595 359.26 595 359.26 595 359.26 595 360.994 596.158 363.017 597.605 363.884 614.395 373.422 614.395 373.422 614.395 373.422 614.974 373.711 616.132 374 617 374 617.868 374 618.737 373.711 619.605 373.422 636.395 363.884 636.395 363.884 636.395 363.884 637.842 363.017 638.711 360.994 638.711 359.26 638.711 339.029 638.711 339.029 638.711 339.029 639 337.295 637.842 335.272 636.395 334.405M636.684 359.26C636.684 360.127 635.816 361.283 635.237 361.861 618.447 371.399 618.447 371.399 618.447 371.399 617.868 371.688 616.132 371.688 615.553 371.399 598.763 361.861 598.763 361.861 598.763 361.861 597.895 361.283 597.316 360.127 597.316 359.26 597.316 339.029 597.316 339.029 597.316 339.029 597.316 338.162 597.895 337.006 598.763 336.428 615.553 326.89 615.553 326.89 615.553 326.89 615.842 326.601 616.421 326.601 616.711 326.601 617.289 326.601 617.868 326.601 618.158 326.89 634.947 336.428 634.947 336.428 634.947 336.428 635.816 337.006 636.395 338.162 636.395 339.029 636.395 359.26 636.395 359.26 636.395 359.26L636.684 359.26ZM620.184 348.277C620.763 347.41 621.342 346.543 621.342 345.387 621.342 343.075 619.316 341.052 616.711 341.052 614.105 341.052 612.368 343.075 612.368 345.387 612.368 347.988 614.395 350.012 616.711 350.012 617.868 350.012 618.737 349.723 619.605 349.145 621.342 350.59 621.342 350.59 621.342 350.59 621.342 350.879 621.342 350.879 621.632 350.879 621.632 350.879 621.921 350.59 621.921 350.59 622.211 350.301 622.211 350.012 621.921 349.723L620.184 348.277ZM616.711 348.855C614.974 348.855 613.526 347.41 613.526 345.387 613.526 343.653 614.974 342.208 616.711 342.208 618.737 342.208 620.184 343.653 620.184 345.387 620.184 347.41 618.447 348.855 616.711 348.855M624.816 341.63C623.658 338.451 620.474 336.428 617 336.428 613.526 336.428 610.342 338.451 609.184 341.63 604.842 342.208 601.947 345.965 601.947 350.012 601.947 354.636 605.711 358.393 610.342 358.393 623.658 358.393 623.658 358.393 623.658 358.393 624.237 358.393 624.237 358.393 624.237 358.393 624.526 358.393 624.526 358.393 624.526 358.393 624.526 358.393 624.816 358.393 624.816 358.393 628.868 357.815 631.763 354.347 631.763 350.012 632.053 345.676 628.868 342.208 624.816 341.63M625.105 357.237C625.105 352.035 625.105 352.035 625.105 352.035 625.105 351.746 624.816 351.457 624.526 351.457 624.237 351.457 623.947 351.746 623.947 352.035 623.947 357.237 623.947 357.237 623.947 357.237 623.658 357.237 623.658 357.237 623.658 357.237 620.474 357.237 620.474 357.237 620.474 357.237 620.474 354.347 620.474 354.347 620.474 354.347 620.474 354.058 620.184 353.769 619.895 353.769 619.605 353.769 619.316 354.058 619.316 354.347 619.316 357.237 619.316 357.237 619.316 357.237 615.842 357.237 615.842 357.237 615.842 357.237 615.842 352.613 615.842 352.613 615.842 352.613 615.842 352.324 615.553 352.035 615.263 352.035 614.974 352.035 614.684 352.613 614.684 352.613 614.684 357.237 614.684 357.237 614.684 357.237 611.211 357.237 611.211 357.237 611.211 357.237 611.211 354.058 611.211 354.058 611.211 354.058 611.211 353.769 610.921 353.48 610.632 353.48 610.342 353.48 610.053 353.769 610.053 354.058 610.053 357.237 610.053 357.237 610.053 357.237 606.289 356.948 603.105 353.769 603.105 350.012 603.105 346.254 605.711 343.075 609.474 342.786 609.763 342.786 610.053 342.497 610.053 342.497 610.921 339.607 613.816 337.584 617 337.584 620.184 337.584 622.789 339.607 623.947 342.497 623.947 342.786 624.237 342.786 624.237 342.786 628 343.364 630.895 346.254 630.895 350.012 630.895 353.48 628.289 356.37 625.105 357.237" fill="#454545" fill-rule="evenodd"/></g></svg>