<svg width="42" height="42" xmlns="http://www.w3.org/2000/svg" xmlns:xlink="http://www.w3.org/1999/xlink" overflow="hidden"><defs><clipPath id="clip0"><rect x="705" y="499" width="42" height="42"/></clipPath></defs><g clip-path="url(#clip0)" transform="translate(-705 -499)"><path d="M731.729 514.042C730.778 511.251 728.116 509.302 724.979 509.302 721.842 509.302 719.18 511.251 718.229 514.042 715.08 514.507 712.611 517.209 712.611 520.465 712.611 523.998 715.658 526.977 719.271 526.977 730.687 526.977 730.687 526.977 730.687 526.977 734.3 526.977 737.347 523.998 737.347 520.465 737.347 517.209 734.878 514.507 731.729 514.042ZM730.687 526.047C719.271 526.047 719.271 526.047 719.271 526.047 716.133 526.047 713.562 523.533 713.562 520.465 713.562 517.763 715.658 515.349 718.41 514.972 718.795 514.884 719.078 514.695 719.18 514.33 720.03 511.905 722.408 510.233 725.07 510.233 727.743 510.233 730.121 511.905 730.97 514.33 731.072 514.695 731.356 514.884 731.729 514.972 734.493 515.437 736.588 517.763 736.588 520.465 736.396 523.533 733.825 526.047 730.687 526.047ZM745.626 538.416C739.725 532.647 739.725 532.647 739.725 532.647 742.965 529.214 744.958 524.563 744.958 519.535 744.958 508.749 736.01 500 724.979 500 713.948 500 705 508.749 705 519.535 705 530.321 713.948 539.07 724.979 539.07 730.121 539.07 734.878 537.121 738.389 533.953 744.29 539.723 744.29 539.723 744.29 539.723 744.482 539.911 744.765 540 744.958 540 745.151 540 745.434 539.911 745.626 539.723 746 539.347 746 538.793 745.626 538.416ZM724.979 537.209C714.99 537.209 706.903 529.302 706.903 519.535 706.903 509.767 714.99 501.86 724.979 501.86 734.969 501.86 743.055 509.767 743.055 519.535 743.055 529.302 734.969 537.209 724.979 537.209Z" fill="#454545" fill-rule="evenodd"/></g></svg>