<svg width="41" height="41" xmlns="http://www.w3.org/2000/svg" xmlns:xlink="http://www.w3.org/1999/xlink" overflow="hidden"><defs><clipPath id="clip0"><rect x="997" y="329" width="41" height="41"/></clipPath></defs><g clip-path="url(#clip0)" transform="translate(-997 -329)"><path d="M1031.5 346.819C1031.75 346.819 1032 347.062 1032 347.062 1032 347.062 1032.25 347.062 1032.25 346.819 1032.5 346.575 1032.5 346.331 1032.5 346.087 1032.25 345.844 1027.25 339.263 1018 339.263 1008.75 339.263 1003.75 345.844 1003.5 346.087 1003.5 346.331 1003.5 346.575 1003.75 346.819 1004 347.062 1004.25 347.062 1004.5 346.819 1004.5 346.575 1007.5 342.431 1013.5 340.725 1012 341.944 1011 343.894 1011 346.087 1011 349.744 1014 352.913 1018 352.913 1022 352.913 1025 349.744 1025 346.087 1025 343.894 1024 341.944 1022.5 340.725 1028.5 342.431 1031.5 346.575 1031.5 346.819ZM1024 346.087C1024 349.256 1021.25 351.938 1018 351.938 1014.75 351.938 1012 349.256 1012 346.087 1012 342.675 1014.75 340.237 1018 340.237 1021.25 340.237 1024 342.675 1024 346.087ZM1003.5 349.256C1003.75 349.5 1008.75 356.325 1018 356.325 1027.25 356.325 1032.25 349.5 1032.5 349.256 1032.5 349.013 1032.5 348.769 1032.25 348.525 1032 348.281 1031.75 348.525 1031.5 348.525 1031.5 348.769 1026.75 355.35 1018 355.35 1009.25 355.35 1004.5 348.769 1004.5 348.525 1004.25 348.525 1004 348.281 1003.75 348.525 1003.5 348.525 1003.5 349.013 1003.5 349.256ZM1034.25 330C1002.25 330 1002.25 330 1002.25 330 999.75 330 998 331.462 998 333.413 998 362.175 998 362.175 998 362.175 998 364.612 999.75 367.05 1002.25 367.05 1009.25 367.05 1009.25 367.05 1009.25 367.05 1009.5 368.025 1010.75 369 1012 369 1013.75 369 1015 367.538 1015 366.075 1015 364.369 1013.75 363.15 1012 363.15 1010.75 363.15 1009.5 363.881 1009.25 365.1 1002.25 365.1 1002.25 365.1 1002.25 365.1 1001 365.1 1000 363.394 1000 362.175 1000 333.413 1000 333.413 1000 333.413 1000 331.95 1001.5 331.95 1002.25 331.95 1034.25 331.95 1034.25 331.95 1034.25 331.95 1035.5 331.95 1036 332.194 1036 333.413 1036 362.175 1036 362.175 1036 362.175 1036 363.15 1035.5 364.856 1034.25 364.856 1026.75 364.856 1026.75 364.856 1026.75 364.856 1026.5 363.638 1025.25 362.906 1024 362.906 1022.25 362.906 1021 364.125 1021 365.831 1021 367.538 1022.25 368.756 1024 368.756 1025.25 368.756 1026.5 368.025 1026.75 366.806 1034.25 366.806 1034.25 366.806 1034.25 366.806 1036.75 366.806 1038 364.369 1038 362.175 1038 333.413 1038 333.413 1038 333.413 1038 331.219 1036.5 330 1034.25 330ZM1012 364.125C1013 364.125 1014 364.856 1014 366.075 1014 367.05 1013 368.025 1012 368.025 1011 368.025 1010 367.05 1010 366.075 1010 364.856 1011 364.125 1012 364.125ZM1024 368.025C1023 368.025 1022 367.05 1022 366.075 1022 364.856 1023 364.125 1024 364.125 1025 364.125 1026 364.856 1026 366.075 1026 367.05 1025 368.025 1024 368.025Z" fill="#404040" fill-rule="evenodd"/></g></svg>