<svg width="42" height="41" xmlns="http://www.w3.org/2000/svg" xmlns:xlink="http://www.w3.org/1999/xlink" overflow="hidden"><defs><clipPath id="clip0"><rect x="1154" y="327" width="42" height="41"/></clipPath></defs><g clip-path="url(#clip0)" transform="translate(-1154 -327)"><path d="M1168 354.5C1169 354.5 1169 354.5 1169 354.5 1169 340.5 1169 340.5 1169 340.5 1168 340.5 1168 340.5 1168 340.5L1168 354.5ZM1185 344.5C1185 351.5 1185 351.5 1185 351.5 1186 351.5 1186 351.5 1186 351.5 1186 344.5 1186 344.5 1186 344.5L1185 344.5ZM1161 353.5C1161 342.5 1161 342.5 1161 342.5 1160 342.5 1160 342.5 1160 342.5 1160 353.5 1160 353.5 1160 353.5L1161 353.5ZM1178 363.5C1159.25 363.5 1159.25 363.5 1159.25 363.5 1158 363.5 1157 362 1157 360.75 1157 333.25 1157 333.25 1157 333.25 1157 332 1158.25 331.5 1159.25 331.5 1162.5 331.5 1162.5 331.5 1162.5 331.5 1163 332.5 1164 333 1165 333 1166.75 333 1168 331.75 1168 330 1168 328.25 1166.75 327 1165 327 1163.5 327 1162.25 328 1162 329.5 1159.25 329.5 1159.25 329.5 1159.25 329.5 1156.75 329.5 1155 331 1155 333.25 1155 360.75 1155 360.75 1155 360.75 1155 363 1156.75 365.5 1159.25 365.5 1178 365.5 1178 365.5 1178 365.5 1178.5 365.5 1179 365 1179 364.5 1179 363.75 1178.5 363.5 1178 363.5ZM1165 328C1166 328 1167 329 1167 330 1167 331 1166 332 1165 332 1164 332 1163 331 1163 330 1163 329 1164 328 1165 328ZM1165 351.5C1165 344.5 1165 344.5 1165 344.5 1164 344.5 1164 344.5 1164 344.5 1164 351.5 1164 351.5 1164 351.5L1165 351.5ZM1191.25 329.5C1172 329.5 1172 329.5 1172 329.5 1171.5 329.5 1171 330 1171 330.5 1171 331 1171.5 331.5 1172 331.5 1191.25 331.5 1191.25 331.5 1191.25 331.5 1192.5 331.5 1193 332 1193 333.25 1193 360.75 1193 360.75 1193 360.75 1193 362 1192.5 363.5 1191.25 363.5 1188 363.5 1188 363.5 1188 363.5 1187.75 362 1186.5 361 1185 361 1183.25 361 1182 362.25 1182 364 1182 365.75 1183.25 367 1185 367 1186 367 1187 366.5 1187.5 365.5 1191.25 365.5 1191.25 365.5 1191.25 365.5 1193.75 365.5 1195 363 1195 360.75 1195 333.25 1195 333.25 1195 333.25 1195 331 1193.5 329.5 1191.25 329.5ZM1185 366C1184 366 1183 365 1183 364 1183 363 1184 362 1185 362 1186 362 1187 363 1187 364 1187 365 1186 366 1185 366ZM1182 340.5C1181 340.5 1181 340.5 1181 340.5 1181 354.5 1181 354.5 1181 354.5 1182 354.5 1182 354.5 1182 354.5L1182 340.5ZM1189 342.5C1189 353.5 1189 353.5 1189 353.5 1190 353.5 1190 353.5 1190 353.5 1190 342.5 1190 342.5 1190 342.5L1189 342.5ZM1172 337.5C1172 357.5 1172 357.5 1172 357.5 1173 357.5 1173 357.5 1173 357.5 1173 337.5 1173 337.5 1173 337.5L1172 337.5ZM1178 337.5C1177 337.5 1177 337.5 1177 337.5 1177 357.5 1177 357.5 1177 357.5 1178 357.5 1178 357.5 1178 357.5L1178 337.5Z" fill="#404040" fill-rule="evenodd"/></g></svg>