<svg width="50" height="37" xmlns="http://www.w3.org/2000/svg" xmlns:xlink="http://www.w3.org/1999/xlink" overflow="hidden"><defs><clipPath id="clip0"><rect x="574" y="178" width="50" height="37"/></clipPath></defs><g clip-path="url(#clip0)" transform="translate(-574 -178)"><path d="M598.968 188.699C593.314 188.699 588.74 192.979 588.74 198.266 588.74 202.734 588.74 202.734 588.74 202.734 588.74 202.734 588.74 202.734 588.74 202.734 588.74 205.441 588.74 205.441 588.74 205.441 588.74 206.699 590.01 207.832 591.598 207.832 593.187 207.832 594.457 206.825 594.457 205.441 594.457 201.035 594.457 201.035 594.457 201.035 594.457 199.839 593.187 198.706 591.598 198.706 590.9 198.706 590.328 198.895 589.883 199.147 589.883 198.266 589.883 198.266 589.883 198.266 589.883 193.608 594.013 189.832 598.968 189.832 603.987 189.832 608.053 193.608 608.053 198.266 608.053 199.273 608.053 199.273 608.053 199.273 607.609 198.895 607.037 198.832 606.338 198.832 604.75 198.832 603.543 199.839 603.543 201.161 603.543 205.566 603.543 205.566 603.543 205.566 603.543 206.825 604.75 207.895 606.338 207.895 607.926 207.895 609.197 206.888 609.197 205.566 609.197 198.266 609.197 198.266 609.197 198.266 609.197 192.979 604.686 188.699 598.968 188.699ZM589.883 201.161C589.883 200.469 590.709 199.965 591.598 199.965 592.488 199.965 593.314 200.469 593.314 201.161 593.314 205.566 593.314 205.566 593.314 205.566 593.314 206.259 592.488 206.825 591.598 206.825 590.709 206.825 589.883 206.133 589.883 205.441L589.883 201.161ZM608.053 205.441C608.053 206.133 607.291 206.699 606.338 206.699 605.449 206.699 604.686 206.133 604.686 205.441 604.686 201.035 604.686 201.035 604.686 201.035 604.686 200.406 605.449 199.839 606.338 199.839 607.291 199.839 608.053 200.469 608.053 201.161L608.053 205.441ZM611.802 187.126C610.023 181.839 605.004 178 598.968 178 592.996 178 587.977 181.839 586.135 187.126 579.337 187.818 574 193.545 574 200.469 574 207.895 580.163 214 587.659 214 610.341 214 610.341 214 610.341 214 617.837 214 624 207.895 624 200.469 624 193.545 618.6 187.818 611.802 187.126ZM610.341 211.734C587.659 211.734 587.659 211.734 587.659 211.734 581.37 211.734 576.287 206.699 576.287 200.469 576.287 194.741 580.607 189.895 586.389 189.392 587.278 189.266 587.977 188.699 588.295 187.881 589.883 183.413 594.203 180.392 598.968 180.392 603.733 180.392 608.053 183.413 609.642 187.881 610.023 188.699 610.658 189.266 611.611 189.392 617.393 190.021 621.713 194.741 621.713 200.469 621.713 206.699 616.567 211.734 610.341 211.734Z" fill="#454545" fill-rule="evenodd"/></g></svg>