<svg width="45" height="37" xmlns="http://www.w3.org/2000/svg" xmlns:xlink="http://www.w3.org/1999/xlink" overflow="hidden"><defs><clipPath id="clip0"><rect x="137" y="333" width="45" height="37"/></clipPath></defs><g clip-path="url(#clip0)" transform="translate(-137 -333)"><path d="M144.5 360C175.5 360 175.5 360 175.5 360 175.798 360 176 359.798 176 359.5 176 359.202 175.798 359 175.5 359 144.5 359 144.5 359 144.5 359 144.202 359 144 359.202 144 359.5 144 359.798 144.202 360 144.5 360ZM178 333C142 333 142 333 142 333 139.798 333 138 334.798 138 337 138 365 138 365 138 365 138 367.202 139.798 369 142 369 178 369 178 369 178 369 180.202 369 182 367.202 182 365 182 337 182 337 182 337 182 334.798 180.202 333 178 333ZM180 365C180 366.095 179.095 367 178 367 142 367 142 367 142 367 140.905 367 140 366.095 140 365 140 341 140 341 140 341 180 341 180 341 180 341L180 365ZM180 340C140 340 140 340 140 340 140 337 140 337 140 337 140 335.905 140.905 335 142 335 178 335 178 335 178 335 179.095 335 180 335.905 180 337L180 340ZM144.5 348C159.5 348 159.5 348 159.5 348 159.798 348 160 347.798 160 347.5 160 347.202 159.798 347 159.5 347 144.5 347 144.5 347 144.5 347 144.202 347 144 347.202 144 347.5 144 347.798 144.202 348 144.5 348ZM144.5 354C175.5 354 175.5 354 175.5 354 175.798 354 176 353.798 176 353.5 176 353.202 175.798 353 175.5 353 144.5 353 144.5 353 144.5 353 144.202 353 144 353.202 144 353.5 144 353.798 144.202 354 144.5 354ZM145.5 337C144.5 337 144.5 337 144.5 337 144.202 337 144 337.202 144 337.5 144 337.798 144.202 338 144.5 338 145.5 338 145.5 338 145.5 338 145.798 338 146 337.798 146 337.5 146 337.202 145.798 337 145.5 337ZM149.5 337C148.5 337 148.5 337 148.5 337 148.202 337 148 337.202 148 337.5 148 337.798 148.202 338 148.5 338 149.5 338 149.5 338 149.5 338 149.798 338 150 337.798 150 337.5 150 337.202 149.798 337 149.5 337Z" fill="#454545" fill-rule="evenodd"/></g></svg>