<svg width="50" height="54" xmlns="http://www.w3.org/2000/svg" xmlns:xlink="http://www.w3.org/1999/xlink" overflow="hidden"><defs><clipPath id="clip0"><rect x="810" y="503" width="50" height="54"/></clipPath></defs><g clip-path="url(#clip0)" transform="translate(-810 -503)"><path d="M45.6 10.0455C42.9 9.15909 37.8 7.68182 35.4 6.5 30.3 3.84091 28.5 2.36364 26.4 0.886364 25.8 0.295455 24.9 0 24 0 24 0 24 0 24 0 24 0 24 0 24 0 23.1 0 22.2 0.295455 21.6 0.886364 19.5 2.06818 17.7 3.84091 12.6 6.20455 10.2 7.38636 5.1 9.15909 2.4 10.0455 0.9 10.6364 0 12.1136 0 13.5909 0.6 19.2045 1.8 29.5455 5.1 36.0455 9 43.4318 18.3 49.3409 22.2 51.7045 22.8 52 23.4 52 24 52 24.6 52 25.2 52 25.8 51.7045 29.7 49.3409 39 43.4318 42.9 36.0455 46.2 29.5455 47.4 19.2045 48 13.8864 48 12.1136 47.1 10.6364 45.6 10.0455ZM40.8 35.1591C38.4 39.8864 33 44.6136 24.6 49.6364 24.6 49.6364 24.3 49.6364 24 49.6364 23.7 49.6364 23.4 49.6364 23.4 49.3409 15 44.6136 9.6 39.5909 7.2 35.1591 3.9 28.3636 2.7 16.8409 2.4 13.5909 2.4 12.7045 3 12.4091 3.3 12.4091 4.2 12.1136 4.2 12.1136 4.2 12.1136 7.2 10.9318 11.4 9.75 13.8 8.56818 18.3 6.20455 20.4 4.43182 22.2 3.25 22.5 2.95455 22.8 2.95455 23.1 2.65909 23.1 2.65909 23.4 2.36364 24 2.36364 24 2.36364 24 2.36364 24 2.36364 24 2.36364 24 2.36364 24 2.36364 24 2.36364 24 2.36364 24 2.36364 24.6 2.36364 24.9 2.65909 25.2 2.65909 25.2 2.95455 25.5 2.95455 25.8 3.25 27.6 4.43182 29.7 6.20455 34.2 8.56818 36.6 9.75 40.8 10.9318 43.8 12.1136 44.7 12.4091 44.7 12.4091 44.7 12.4091 45 12.4091 45.6 12.7045 45.6 13.5909 45.3 16.8409 44.1 28.3636 40.8 35.1591ZM32.4 33.3864C31.2 32.2045 31.2 32.2045 31.2 32.2045 30.6 33.0909 30.6 33.0909 30.6 33.0909 31.8 34.2727 31.8 34.2727 31.8 34.2727 27.3 38.1136 20.7 38.1136 16.5 34.2727 17.7 33.0909 17.7 33.0909 17.7 33.0909 16.8 32.2045 16.8 32.2045 16.8 32.2045 15.6 33.3864 15.6 33.3864 15.6 33.3864 11.7 29.25 11.7 22.75 15.6 18.6136 16.8 19.7955 16.8 19.7955 16.8 19.7955 17.7 18.9091 17.7 18.9091 17.7 18.9091 16.5 17.7273 16.5 17.7273 16.5 17.7273 20.7 13.8864 27.3 13.8864 31.8 17.7273 29.4 19.7955 29.4 19.7955 29.4 19.7955 26.4 16.8409 21.3 17.1364 18.3 20.0909 15 23.3409 15 28.6591 18.3 31.6136 19.8 33.3864 21.9 33.9773 24 33.9773 26.4 33.9773 28.2 33.3864 30 31.6136 31.5 30.1364 32.4 28.3636 32.4 26 31.2 26 31.2 26 31.2 26 31.2 28.3636 30.6 29.5455 29.1 31.0227 26.4 33.6818 21.9 33.6818 19.2 31.0227 16.2 28.0682 16.2 23.6364 19.2 20.9773 21.6 18.3182 25.8 18.3182 28.8 20.6818 26.7 22.4545 26.7 22.4545 26.7 22.4545 24.9 20.9773 22.2 21.2727 20.7 22.75 18.9 24.5227 18.9 27.4773 20.7 29.25 21.6 30.1364 22.8 30.4318 24 30.4318 25.2 30.4318 26.4 30.1364 27.3 29.25 28.2 28.3636 28.5 27.1818 28.5 26 27.3 26 27.3 26 27.3 26 27.3 27.1818 27 27.7727 26.4 28.3636 25.2 29.8409 22.8 29.8409 21.6 28.3636 20.4 27.1818 20.4 25.1136 21.6 23.6364 22.8 22.4545 24.6 22.4545 25.8 23.3409 24.6 24.5227 24.6 24.5227 24.6 24.5227 24.6 24.5227 24.3 24.5227 24 24.5227 23.1 24.5227 22.2 25.1136 22.2 26.2955 22.2 27.1818 23.1 28.0682 24 28.0682 24.9 28.0682 25.8 27.1818 25.8 26.2955 25.8 26 25.8 25.7045 25.8 25.4091 35.4 15.9545 35.4 15.9545 35.4 15.9545 34.5 15.0682 34.5 15.0682 34.5 15.0682 32.4 17.1364 32.4 17.1364 32.4 17.1364 27.6 12.7045 20.4 12.7045 15.6 17.1364 13.5 15.0682 13.5 15.0682 13.5 15.0682 12.6 15.9545 12.6 15.9545 12.6 15.9545 14.7 18.0227 14.7 18.0227 14.7 18.0227 10.5 22.75 10.5 29.8409 14.7 34.5682 12.6 36.6364 12.6 36.6364 12.6 36.6364 13.5 37.5227 13.5 37.5227 13.5 37.5227 15.6 35.4545 15.6 35.4545 15.6 35.4545 18 37.5227 21 38.7045 24 38.7045 27.3 38.7045 30.3 37.5227 32.7 35.4545 34.8 37.5227 34.8 37.5227 34.8 37.5227 35.4 36.6364 35.4 36.6364 35.4 36.6364 33.6 34.5682 33.6 34.5682 33.6 34.5682 35.7 32.2045 36.6 29.8409 36.6 26.2955 35.4 26.2955 35.4 26.2955 35.4 26.2955 35.4 28.3636 34.2 31.6136 32.4 33.3864Z" fill="#595959" fill-rule="evenodd" transform="matrix(-1 0 0 1 859 504)"/></g></svg>