<svg width="42" height="43" xmlns="http://www.w3.org/2000/svg" xmlns:xlink="http://www.w3.org/1999/xlink" overflow="hidden"><defs><clipPath id="clip0"><rect x="897" y="336" width="42" height="43"/></clipPath></defs><g clip-path="url(#clip0)" transform="translate(-897 -336)"><path d="M934.273 362.159C929.614 362.159 929.614 362.159 929.614 362.159 929.614 359.83 929.614 359.83 929.614 359.83 929.614 358.521 928.593 357.5 927.284 357.5 917.966 357.5 917.966 357.5 917.966 357.5 917.966 352.841 917.966 352.841 917.966 352.841 924.023 352.841 924.023 352.841 924.023 352.841 926.075 352.841 927.75 351.166 927.75 349.114 927.75 340.727 927.75 340.727 927.75 340.727 927.75 338.675 926.075 337 924.023 337 910.977 337 910.977 337 910.977 337 908.925 337 907.25 338.675 907.25 340.727 907.25 349.114 907.25 349.114 907.25 349.114 907.25 351.166 908.925 352.841 910.977 352.841 917.034 352.841 917.034 352.841 917.034 352.841 917.034 357.5 917.034 357.5 917.034 357.5 907.716 357.5 907.716 357.5 907.716 357.5 906.407 357.5 905.386 358.521 905.386 359.83 905.386 362.159 905.386 362.159 905.386 362.159 900.727 362.159 900.727 362.159 900.727 362.159 898.675 362.159 897 363.834 897 365.886 897 374.273 897 374.273 897 374.273 897 376.325 898.675 378 900.727 378 911.909 378 911.909 378 911.909 378 913.961 378 915.636 376.325 915.636 374.273 915.636 365.886 915.636 365.886 915.636 365.886 915.636 363.834 913.961 362.159 911.909 362.159 906.318 362.159 906.318 362.159 906.318 362.159 906.318 359.83 906.318 359.83 906.318 359.83 906.318 359.086 906.973 358.432 907.716 358.432 927.284 358.432 927.284 358.432 927.284 358.432 928.027 358.432 928.682 359.086 928.682 359.83 928.682 362.159 928.682 362.159 928.682 362.159 923.091 362.159 923.091 362.159 923.091 362.159 921.039 362.159 919.364 363.834 919.364 365.886 919.364 374.273 919.364 374.273 919.364 374.273 919.364 376.325 921.039 378 923.091 378 934.273 378 934.273 378 934.273 378 936.325 378 938 376.325 938 374.273 938 365.886 938 365.886 938 365.886 938 363.834 936.325 362.159 934.273 362.159ZM911.909 364.023C912.93 364.023 913.773 364.866 913.773 365.886 913.773 374.273 913.773 374.273 913.773 374.273 913.773 375.293 912.93 376.136 911.909 376.136 900.727 376.136 900.727 376.136 900.727 376.136 899.707 376.136 898.864 375.293 898.864 374.273 898.864 365.886 898.864 365.886 898.864 365.886 898.864 364.866 899.707 364.023 900.727 364.023L911.909 364.023ZM910.977 350.977C909.957 350.977 909.114 350.134 909.114 349.114 909.114 340.727 909.114 340.727 909.114 340.727 909.114 339.707 909.957 338.864 910.977 338.864 924.023 338.864 924.023 338.864 924.023 338.864 925.043 338.864 925.886 339.707 925.886 340.727 925.886 349.114 925.886 349.114 925.886 349.114 925.886 350.134 925.043 350.977 924.023 350.977L910.977 350.977ZM936.136 374.273C936.136 375.293 935.293 376.136 934.273 376.136 923.091 376.136 923.091 376.136 923.091 376.136 922.07 376.136 921.227 375.293 921.227 374.273 921.227 365.886 921.227 365.886 921.227 365.886 921.227 364.866 922.07 364.023 923.091 364.023 934.273 364.023 934.273 364.023 934.273 364.023 935.293 364.023 936.136 364.866 936.136 365.886L936.136 374.273Z" fill="#454545" fill-rule="evenodd"/></g></svg>