<svg width="53" height="45" xmlns="http://www.w3.org/2000/svg" xmlns:xlink="http://www.w3.org/1999/xlink" overflow="hidden"><defs><clipPath id="clip0"><rect x="446" y="493" width="53" height="45"/></clipPath></defs><g clip-path="url(#clip0)" transform="translate(-446 -493)"><path d="M455.114 516.158C489.886 516.158 489.886 516.158 489.886 516.158 489.886 515 489.886 515 489.886 515 455.114 515 455.114 515 455.114 515L455.114 516.158ZM493.364 493C451.636 493 451.636 493 451.636 493 449.028 493 447 495.026 447 497.632 447 526.289 447 526.289 447 526.289 447 528.895 449.028 531.211 451.636 531.211 466.705 531.211 466.705 531.211 466.705 531.211 470.761 536.132 470.761 536.132 470.761 536.132 471.341 536.711 471.92 537 472.5 537 473.08 537 473.949 536.711 474.239 536.132 478.295 531.211 478.295 531.211 478.295 531.211 493.364 531.211 493.364 531.211 493.364 531.211 495.972 531.211 498 528.895 498 526.289 498 497.632 498 497.632 498 497.632 498 495.026 495.972 493 493.364 493ZM495.682 526.289C495.682 527.737 494.812 528.895 493.364 528.895 478.295 528.895 478.295 528.895 478.295 528.895 477.716 528.895 476.847 529.184 476.557 529.763 472.5 534.684 472.5 534.684 472.5 534.684 468.443 529.763 468.443 529.763 468.443 529.763 468.153 529.184 467.574 528.895 466.705 528.895 451.636 528.895 451.636 528.895 451.636 528.895 450.477 528.895 449.318 527.737 449.318 526.289 449.318 497.632 449.318 497.632 449.318 497.632 449.318 496.474 450.477 495.316 451.636 495.316 493.364 495.316 493.364 495.316 493.364 495.316 494.812 495.316 495.682 496.474 495.682 497.632L495.682 526.289ZM455.114 506.895C489.886 506.895 489.886 506.895 489.886 506.895 489.886 505.737 489.886 505.737 489.886 505.737 455.114 505.737 455.114 505.737 455.114 505.737L455.114 506.895Z" fill="#404040" fill-rule="evenodd"/></g></svg>