<svg width="58" height="42" xmlns="http://www.w3.org/2000/svg" xmlns:xlink="http://www.w3.org/1999/xlink" overflow="hidden"><defs><clipPath id="clip0"><rect x="120" y="494" width="58" height="42"/></clipPath></defs><g clip-path="url(#clip0)" transform="translate(-120 -494)"><path d="M154.006 518.75C154.006 518.75 154.006 518.75 154.006 518.75 154.33 518.75 154.33 518.438 154.653 518.438 154.977 516.875 154.33 515.312 153.358 514.062 152.062 513.125 150.443 512.5 148.824 512.812 148.5 513.125 148.176 513.438 148.176 513.438 148.5 513.75 148.824 514.062 148.824 514.062 150.119 513.75 151.415 514.062 152.386 514.688 153.358 515.625 153.682 516.875 153.358 518.125 153.358 518.438 153.682 518.75 154.006 518.75ZM148.824 510C151.415 509.375 154.006 510.312 155.625 511.875 157.568 513.438 158.216 515.938 157.568 518.125 157.568 518.438 157.892 518.75 158.216 518.75 158.216 518.75 158.216 518.75 158.216 518.75 158.54 518.75 158.864 518.75 158.864 518.438 159.511 515.625 158.54 513.125 156.597 511.25 154.33 509.375 151.415 508.438 148.5 509.062 148.5 509.062 148.176 509.375 148.176 509.688 148.176 510 148.5 510 148.824 510ZM154.653 522.188C153.358 521.562 153.034 521.875 151.739 522.5 151.415 522.812 151.091 523.125 150.119 523.438 149.472 523.75 148.176 523.125 148.176 523.125 148.176 522.812 146.881 522.188 145.909 521.562 145.261 520.625 144.29 519.688 144.29 519.375 144.29 519.375 143.318 518.438 143.966 517.5 144.29 516.875 144.614 516.562 144.938 516.25 145.585 515.312 145.909 514.688 145.261 513.438 142.994 509.375 141.051 509.062 140.08 509.375 138.136 510 136.841 512.812 137.489 516.25 138.46 519.375 140.403 522.188 142.67 524.688 145.261 526.875 148.5 528.438 151.739 529.375 152.386 529.375 153.358 529.688 154.006 529.688 156.597 529.688 158.54 528.438 159.188 526.875 159.188 526.25 159.188 524.375 154.653 522.188ZM157.892 526.562C157.568 527.812 154.977 528.75 152.062 528.125 152.062 528.125 152.062 528.125 152.062 528.125 148.824 527.5 145.909 525.938 143.642 523.75 141.375 521.562 139.756 518.75 138.784 515.938 138.136 513.125 139.432 510.938 140.403 510.625 140.403 510.625 140.403 510.625 140.727 510.625 141.375 510.625 142.67 511.25 144.29 514.062 144.614 514.688 144.614 514.688 143.966 515.312 143.642 515.938 143.318 516.25 142.67 516.875 141.699 518.438 143.318 520.312 143.318 520.312 143.318 520.312 144.29 521.562 145.261 522.5 145.909 523.125 147.528 524.062 147.528 524.062 147.528 524.062 149.472 525.312 150.767 524.375 151.739 524.062 152.062 523.75 152.386 523.438 153.358 522.812 153.358 522.812 154.006 523.125 158.216 525.312 157.892 526.562 157.892 526.562ZM163.398 505.312C161.131 499.375 155.301 495 148.5 495 141.699 495 136.193 499.375 133.926 505.312 126.153 505.938 120 512.5 120 520 120 528.438 127.125 535 135.545 535 161.455 535 161.455 535 161.455 535 170.199 535 177 528.438 177 520 177 512.5 171.17 505.938 163.398 505.312ZM161.455 532.5C135.545 532.5 135.545 532.5 135.545 532.5 128.42 532.5 122.591 526.875 122.591 520 122.591 513.75 127.773 508.438 134.25 507.812 135.222 507.5 136.193 506.875 136.517 505.938 138.136 500.938 142.994 497.5 148.5 497.5 154.006 497.5 159.188 500.938 160.807 505.938 161.131 506.875 162.102 507.5 163.074 507.812 169.551 508.438 174.409 513.75 174.409 520 174.409 526.875 168.58 532.5 161.455 532.5Z" fill="#404040" fill-rule="evenodd"/></g></svg>