<svg width="46" height="40" xmlns="http://www.w3.org/2000/svg" xmlns:xlink="http://www.w3.org/1999/xlink" overflow="hidden"><defs><clipPath id="clip0"><rect x="153" y="338" width="46" height="40"/></clipPath></defs><g clip-path="url(#clip0)" transform="translate(-153 -338)"><path d="M158.227 347.474C157.705 347.474 157.182 347.737 157.182 348.526 157.182 349.053 157.705 349.579 158.227 349.579 158.75 349.579 159.273 349.053 159.273 348.526 159.273 347.737 158.75 347.474 158.227 347.474ZM192.727 375.895C159.273 375.895 159.273 375.895 159.273 375.895 158.75 375.895 158.227 376.158 158.227 376.947 158.227 377.474 158.75 378 159.273 378 192.727 378 192.727 378 192.727 378 193.25 378 193.773 377.474 193.773 376.947 193.773 376.158 193.25 375.895 192.727 375.895ZM158.227 343.263C157.705 343.263 157.182 343.526 157.182 344.316 157.182 344.842 157.705 345.368 158.227 345.368 158.75 345.368 159.273 344.842 159.273 344.316 159.273 343.526 158.75 343.263 158.227 343.263ZM195.864 338C156.136 338 156.136 338 156.136 338 154.568 338 153 339.316 153 341.158 153 368.526 153 368.526 153 368.526 153 370.105 154.568 371.684 156.136 371.684 195.864 371.684 195.864 371.684 195.864 371.684 197.693 371.684 199 370.105 199 368.526 199 341.158 199 341.158 199 341.158 199 339.316 197.693 338 195.864 338ZM196.909 368.526C196.909 369.053 196.386 369.579 195.864 369.579 156.136 369.579 156.136 369.579 156.136 369.579 155.614 369.579 155.091 369.053 155.091 368.526 155.091 341.158 155.091 341.158 155.091 341.158 155.091 340.368 155.614 340.105 156.136 340.105 195.864 340.105 195.864 340.105 195.864 340.105 196.386 340.105 196.909 340.368 196.909 341.158L196.909 368.526ZM183.318 349.579C182.273 346.421 179.398 344.316 176 344.316 172.602 344.316 169.727 346.421 168.682 349.579 165.023 349.842 161.886 353.263 161.886 357.474 161.886 361.684 165.284 365.368 169.727 365.368 182.534 365.368 182.534 365.368 182.534 365.368 186.716 365.368 190.114 361.684 190.114 357.474 190.114 353.263 187.239 349.842 183.318 349.579ZM182.534 364.053C169.727 364.053 169.727 364.053 169.727 364.053 166.068 364.053 163.193 360.895 163.193 357.474 163.193 354.053 165.545 351.158 168.943 350.632 169.466 350.632 169.727 350.368 169.989 349.842 170.773 347.211 173.386 345.368 176 345.368 178.875 345.368 181.227 347.211 182.273 349.842 182.273 350.368 182.795 350.632 183.318 350.632 186.455 351.158 189.068 354.053 189.068 357.474 189.068 360.895 185.932 364.053 182.534 364.053Z" fill="#484848" fill-rule="evenodd"/></g></svg>