<svg width="57" height="47" xmlns="http://www.w3.org/2000/svg" xmlns:xlink="http://www.w3.org/1999/xlink" overflow="hidden"><defs><clipPath id="clip0"><rect x="338" y="492" width="57" height="47"/></clipPath></defs><g clip-path="url(#clip0)" transform="translate(-338 -492)"><path d="M351.308 510.5C358.615 505.444 358.615 505.444 358.615 505.444 358.615 505.083 359 504.722 358.615 504.361 358.231 504 357.846 504 357.462 504.361 349.385 509.778 349.385 509.778 349.385 509.778 349.385 510.139 349 510.139 349 510.5 349 510.861 349.385 510.861 349.385 511.222 357.462 517 357.462 517 357.462 517 357.846 517 357.846 517 357.846 517 358.231 517 358.615 517 358.615 516.639 359 516.278 358.615 515.917 358.615 515.556L351.308 510.5Z" fill="#404040" fill-rule="evenodd"/><path d="M375.44 504.361C375.08 504 374.72 504 374.36 504.361 374 504.722 374 505.083 374.36 505.444 381.2 510.5 381.2 510.5 381.2 510.5 374.36 515.556 374.36 515.556 374.36 515.556 374 515.917 374 516.278 374.36 516.639 374.36 517 374.72 517 374.72 517 375.08 517 375.08 517 375.44 517 383 511.222 383 511.222 383 511.222 383 510.861 383 510.861 383 510.5 383 510.139 383 510.139 383 509.778L375.44 504.361Z" fill="#404040" fill-rule="evenodd"/><path d="M369.263 504C368.895 504 368.526 504 368.526 504.361 363.368 515.917 363.368 515.917 363.368 515.917 363 516.278 363.368 516.639 363.737 517 363.737 517 363.737 517 364.105 517 364.105 517 364.474 516.639 364.474 516.639 369.632 505.083 369.632 505.083 369.632 505.083 370 504.722 369.632 504.361 369.263 504Z" fill="#404040" fill-rule="evenodd"/><path d="M387.562 535C344.438 535 344.438 535 344.438 535 343.719 535 343 535.75 343 536.5 343 537.25 343.719 538 344.438 538 387.562 538 387.562 538 387.562 538 388.641 538 389 537.25 389 536.5 389 535.75 388.641 535 387.562 535Z" fill="#404040" fill-rule="evenodd"/><path d="M389.579 492C342.421 492 342.421 492 342.421 492 340.211 492 338 494.167 338 496.333 338 526.667 338 526.667 338 526.667 338 529.194 340.211 531 342.421 531 389.579 531 389.579 531 389.579 531 392.158 531 394 529.194 394 526.667 394 496.333 394 496.333 394 496.333 394 494.167 392.158 492 389.579 492ZM391.053 526.667C391.053 527.389 390.684 528.111 389.579 528.111 342.421 528.111 342.421 528.111 342.421 528.111 341.684 528.111 340.947 527.389 340.947 526.667 340.947 496.333 340.947 496.333 340.947 496.333 340.947 495.611 341.684 494.889 342.421 494.889 389.579 494.889 389.579 494.889 389.579 494.889 390.684 494.889 391.053 495.611 391.053 496.333L391.053 526.667Z" fill="#404040" fill-rule="evenodd"/></g></svg>