<svg width="56" height="54" xmlns="http://www.w3.org/2000/svg" xmlns:xlink="http://www.w3.org/1999/xlink" overflow="hidden"><defs><clipPath id="clip0"><rect x="230" y="488" width="56" height="54"/></clipPath></defs><g clip-path="url(#clip0)" transform="translate(-230 -488)"><path d="M270.552 535.333C266.786 538.232 262.441 539.681 257.517 539.681 257.517 539.681 257.517 539.681 257.517 539.681 250.855 539.681 244.772 536.783 240.717 531.855 242.455 530.116 243.034 527.217 241.586 524.899 240.428 523.159 238.4 522 236.662 522 235.503 522 234.634 522.29 233.766 522.58 233.766 522.58 233.766 522.58 233.766 522.58 233.766 522.58 233.766 522.58 233.766 522.58 233.766 522.58 233.766 522.58 233.766 522.58 230.869 524.319 230 527.797 231.448 530.696 232.607 532.435 234.634 533.594 236.662 533.594 237.241 533.594 238.11 533.304 238.69 533.014 243.324 538.522 249.986 542 257.517 542 257.517 542 257.517 542 257.517 542 263.021 542 267.945 540.261 272 537.072L270.552 535.333ZM233.476 529.536C233.186 528.957 232.897 527.797 233.186 526.928 233.476 526.348 233.766 525.478 234.345 525.188 234.345 524.899 234.634 524.899 234.924 524.899 235.503 524.319 236.083 524.319 236.662 524.319 236.662 524.319 236.662 524.319 236.662 524.319 237.821 524.319 238.979 524.899 239.559 526.058 240.138 526.928 240.138 527.797 239.848 528.667 239.848 529.246 239.559 529.536 239.269 530.116 238.979 530.406 238.69 530.696 238.4 530.986 237.821 531.275 237.821 531.275 237.241 531.275 237.241 531.275 236.952 531.275 236.662 531.275 235.214 531.275 234.055 530.696 233.476 529.536Z" fill="#404040" fill-rule="evenodd"/><path d="M257.231 489C254.346 489 251.75 491.309 251.462 494.196 241.077 496.794 233.288 506.031 233 517 235.308 517 235.308 517 235.308 517 235.596 507.186 242.519 499.103 251.75 496.505 252.615 498.814 254.635 500.546 257.231 500.546 260.404 500.546 263 497.948 263 494.773 263 491.598 260.404 489 257.231 489ZM260.692 494.773C260.692 495.351 260.692 495.639 260.404 496.216 259.827 497.371 258.673 498.237 257.231 498.237 255.788 498.237 254.635 497.371 254.058 496.216 253.769 495.639 253.769 495.351 253.769 494.773 253.769 494.485 253.769 494.196 253.769 493.907 254.346 492.464 255.788 491.309 257.231 491.309 258.962 491.309 260.115 492.464 260.692 493.907 260.692 494.196 260.692 494.485 260.692 494.773Z" fill="#404040" fill-rule="evenodd"/><path d="M282.034 522.388C282.034 522.388 282.034 522.388 282.034 522.388 282.339 520.667 282.644 518.946 282.644 517.225 282.644 508.047 276.847 500.016 268.915 496 268 498.295 268 498.295 268 498.295 275.322 501.736 280.203 508.907 280.203 517.225 280.203 518.659 280.203 520.093 279.593 521.527 279.593 521.527 279.288 521.527 278.983 521.527 277.153 521.527 275.017 522.674 273.797 524.395 271.966 527.264 273.186 530.705 275.932 532.14 277.153 532.713 278.068 533 278.983 533 281.119 533 283.254 532.14 284.475 530.132 286 527.55 285.085 524.109 282.034 522.388ZM278.983 530.992C278.983 530.992 278.678 530.992 278.373 530.705 278.068 530.705 277.763 530.419 277.153 530.419 276.847 530.132 276.542 529.845 276.237 529.558 275.322 528.698 275.322 526.977 275.932 525.829 276.542 524.682 277.763 524.109 278.983 524.109 278.983 524.109 278.983 524.109 278.983 524.109 278.983 524.109 278.983 524.109 278.983 524.109 278.983 524.109 278.983 524.109 278.983 524.109 279.593 524.109 280.203 524.109 280.814 524.395 281.119 524.682 281.424 524.682 281.424 524.682 282.034 525.256 282.339 525.829 282.644 526.403 282.949 527.55 282.644 528.411 282.339 529.271 281.729 530.132 280.508 530.992 278.983 530.992Z" fill="#404040" fill-rule="evenodd"/><path d="M267.241 520.412 271 518 267.241 515.588 266.074 516.258 271 513.309 257 505 243 513.309 247.148 515.588 243 518 257 526.309 266.074 520.948 268.667 522.691 257 529.526 245.333 522.691 248.315 520.948 247.148 520.412 243 522.691 257 531 271 522.691 267.241 520.412ZM257 506.474 268.667 513.309 257 520.01 245.333 513.309 257 506.474ZM257 524.835 245.333 518 248.315 516.526 247.407 515.856 257 521.485 266.074 516.526 268.667 518 257 524.835Z" fill="#404040" fill-rule="evenodd"/></g></svg>