<svg width="49" height="54" xmlns="http://www.w3.org/2000/svg" xmlns:xlink="http://www.w3.org/1999/xlink" overflow="hidden"><defs><clipPath id="clip0"><rect x="141" y="155" width="49" height="54"/></clipPath></defs><g clip-path="url(#clip0)" transform="translate(-141 -155)"><path d="M187.317 166.045C184.634 165.159 179.565 163.682 177.18 162.5 172.112 159.841 170.323 158.364 168.534 156.886 167.64 156.295 166.745 156 165.851 156 165.851 156 165.851 156 165.851 156 165.851 156 165.851 156 165.851 156 164.957 156 164.062 156.295 163.466 156.886 161.379 158.364 159.59 159.841 154.522 162.5 152.137 163.682 147.068 165.159 144.683 166.045 142.894 166.636 142 168.114 142 169.886 142.596 175.205 143.789 185.545 147.068 192.045 150.944 199.432 160.186 205.341 164.062 207.705 164.658 208 165.255 208 165.851 208 166.447 208 167.043 208 167.64 207.705 171.516 205.341 181.056 199.432 184.634 192.045 187.913 185.545 189.404 175.205 189.702 169.886 190 168.114 188.807 166.636 187.317 166.045ZM182.547 191.159C180.161 195.886 174.795 200.614 166.447 205.636 166.447 205.636 166.149 205.636 165.851 205.636 165.553 205.636 165.553 205.636 165.255 205.636 156.907 200.614 151.54 195.886 149.155 191.159 145.876 184.659 144.683 173.136 144.385 169.591 144.385 168.705 145.28 168.409 145.28 168.409 146.174 168.114 146.174 168.114 146.174 168.114 149.155 167.227 153.329 165.75 155.714 164.568 160.186 162.205 162.273 160.727 164.062 159.25 164.36 159.25 164.658 158.955 164.957 158.659 164.957 158.659 165.255 158.659 165.851 158.364 165.851 158.364 165.851 158.364 165.851 158.364 165.851 158.364 165.851 158.364 165.851 158.364 165.851 158.364 165.851 158.364 165.851 158.364 166.447 158.364 166.745 158.659 167.043 158.659 167.342 158.955 167.342 159.25 167.64 159.25 169.429 160.727 171.516 162.205 175.988 164.568 178.373 165.75 182.845 167.227 185.528 168.114 186.422 168.409 186.422 168.409 186.422 168.409 186.72 168.409 187.317 168.705 187.317 169.591 187.019 173.136 185.826 184.659 182.547 191.159ZM165.851 180.818C164.658 180.818 163.466 182 163.466 183.182 163.466 183.773 163.764 184.364 164.062 184.955 164.062 186.136 164.062 186.136 164.062 186.136 164.062 186.727 164.36 186.727 164.658 186.727 167.043 186.727 167.043 186.727 167.043 186.727 167.342 186.727 167.64 186.727 167.64 186.136 167.64 184.955 167.64 184.955 167.64 184.955 167.938 184.364 168.236 183.773 168.236 183.182 168.236 182 167.342 180.818 165.851 180.818ZM166.745 184.068C166.447 184.364 166.447 184.364 166.447 184.659 166.447 185.545 166.447 185.545 166.447 185.545 165.255 185.545 165.255 185.545 165.255 185.545 165.255 184.659 165.255 184.659 165.255 184.659 165.255 184.364 165.255 184.364 165.255 184.068 164.957 184.068 164.658 183.773 164.658 183.182 164.658 182.591 165.255 182 165.851 182 166.447 182 167.043 182.591 167.043 183.182 167.043 183.773 167.043 184.068 166.745 184.068ZM173.304 177.273C171.814 177.273 171.814 177.273 171.814 177.273 171.814 175.205 171.814 175.205 171.814 175.205 171.814 171.955 169.13 169.295 165.851 169.295 162.571 169.295 159.888 171.955 159.888 175.205 159.888 177.273 159.888 177.273 159.888 177.273 158.398 177.273 158.398 177.273 158.398 177.273 157.503 177.273 156.907 178.159 156.907 179.045 156.907 189.977 156.907 189.977 156.907 189.977 156.907 190.864 157.503 191.455 158.398 191.455 173.304 191.455 173.304 191.455 173.304 191.455 174.199 191.455 174.795 190.864 174.795 189.977 174.795 179.045 174.795 179.045 174.795 179.045 174.795 178.159 174.199 177.273 173.304 177.273ZM161.081 175.205C161.081 172.545 163.168 170.477 165.851 170.477 168.534 170.477 170.621 172.545 170.621 175.205 170.621 177.273 170.621 177.273 170.621 177.273 161.081 177.273 161.081 177.273 161.081 177.273L161.081 175.205ZM173.602 189.977C173.602 190.273 173.602 190.273 173.304 190.273 158.398 190.273 158.398 190.273 158.398 190.273 158.398 190.273 158.099 190.273 158.099 189.977 158.099 179.045 158.099 179.045 158.099 179.045 158.099 178.75 158.398 178.455 158.398 178.455 173.304 178.455 173.304 178.455 173.304 178.455 173.602 178.455 173.602 178.75 173.602 179.045L173.602 189.977Z" fill="#484848" fill-rule="evenodd"/></g></svg>