<svg width="48" height="52" xmlns="http://www.w3.org/2000/svg" xmlns:xlink="http://www.w3.org/1999/xlink" overflow="hidden"><defs><clipPath id="clip0"><rect x="675" y="337" width="48" height="52"/></clipPath></defs><g clip-path="url(#clip0)" transform="translate(-675 -337)"><path d="M719.373 346.852C717.037 345.983 712.075 344.534 709.739 343.375 704.776 340.767 702.733 339.028 700.981 337.869 700.398 337.29 699.522 337 698.646 337 698.646 337 698.646 337 698.646 337 698.646 337 698.646 337 698.646 337 697.77 337 696.894 337.29 696.019 337.869 694.267 339.028 692.516 340.767 687.553 343.375 684.925 344.534 680.255 345.983 677.627 346.852 676.168 347.432 675 348.881 675.292 350.619 675.584 355.545 677.043 365.977 680.255 372.352 683.758 379.597 693.099 385.392 696.602 387.42 697.186 388 698.062 388 698.646 388 699.23 388 699.814 388 700.398 387.42 704.193 385.392 713.242 379.597 717.037 372.352 720.248 365.977 721.416 355.545 722 350.619 722 348.881 721.124 347.432 719.373 346.852ZM714.994 371.193C712.658 375.83 707.404 380.756 699.23 385.392 698.938 385.682 698.646 385.682 698.646 385.682 698.354 385.682 698.062 385.682 698.062 385.392 689.888 380.756 684.634 375.83 682.298 371.193 679.087 364.818 677.919 353.517 677.627 350.33 677.627 349.46 678.211 349.17 678.503 349.17 679.379 348.881 679.379 348.881 679.379 348.881 682.006 347.722 686.093 346.562 688.429 345.403 693.099 343.085 695.143 341.347 696.894 340.188 697.186 339.898 697.186 339.898 697.478 339.608 697.77 339.608 698.062 339.318 698.354 339.318 698.354 339.318 698.354 339.318 698.354 339.318 698.646 339.318 698.646 339.318 698.646 339.318 698.646 339.318 698.646 339.318 698.646 339.318 699.23 339.318 699.522 339.608 699.522 339.608 699.814 339.898 700.106 339.898 700.398 340.188 702.149 341.347 704.193 343.085 708.571 345.403 710.907 346.562 714.994 347.722 717.913 348.881 718.789 349.17 718.789 349.17 718.789 349.17 718.789 349.17 719.665 349.46 719.665 350.33 719.373 353.517 718.205 364.818 714.994 371.193ZM691.64 365.688C691.64 369.455 694.851 372.642 698.646 372.642 702.441 372.642 705.36 369.455 705.36 365.688 705.36 361.92 698.646 356.125 698.646 349.75 698.646 356.125 691.64 361.92 691.64 365.688ZM701.857 360.472C703.025 362.5 704.484 364.528 704.484 365.688 704.484 368.875 701.857 371.483 698.646 371.483 695.435 371.483 692.807 368.875 692.807 365.688 692.807 364.528 693.975 362.5 695.435 360.472 696.602 358.733 697.77 356.705 698.646 354.676 699.522 356.705 700.689 358.443 701.857 360.472Z" fill="#ffffff" fill-rule="evenodd"/></g></svg>