<?xml version="1.0" encoding="UTF-8" standalone="no"?>
<svg
   version="1.1"
   width="220px"
   height="220px"
   viewBox="-0.5 -0.5 220 220"
   id="svg13"
   sodipodi:docname="apiu.svg"
   inkscape:version="1.3.2 (091e20e, 2023-11-25, custom)"
   xmlns:inkscape="http://www.inkscape.org/namespaces/inkscape"
   xmlns:sodipodi="http://sodipodi.sourceforge.net/DTD/sodipodi-0.dtd"
   xmlns="http://www.w3.org/2000/svg"
   xmlns:svg="http://www.w3.org/2000/svg">
  <sodipodi:namedview
     id="namedview13"
     pagecolor="#ffffff"
     bordercolor="#000000"
     borderopacity="0.25"
     inkscape:showpageshadow="2"
     inkscape:pageopacity="0.0"
     inkscape:pagecheckerboard="0"
     inkscape:deskcolor="#d1d1d1"
     showgrid="false"
     inkscape:zoom="5.1681818"
     inkscape:cx="110"
     inkscape:cy="110"
     inkscape:window-width="3440"
     inkscape:window-height="1351"
     inkscape:window-x="-9"
     inkscape:window-y="-9"
     inkscape:window-maximized="1"
     inkscape:current-layer="svg13" />
  <defs
     id="defs1" />
  <g
     id="g13"
     style="fill:#ffffff">
    <g
       data-cell-id="0"
       id="g12"
       style="fill:#ffffff">
      <g
         data-cell-id="1"
         id="g11"
         style="fill:#ffffff">
        <g
           data-cell-id="qYWMFZfGgIOQVrpC34mE-1"
           id="g7"
           style="fill:#ffffff">
          <g
             id="g6"
             style="fill:#ffffff">
            <g
               id="g5"
               style="fill:#ffffff">
              <svg
                 version="1.1"
                 id="svg-image-E6OpAwM1viE_TA06mPdc"
                 x="-0.5"
                 y="-0.63"
                 viewBox="0 0 48 48"
                 style="font-family:initial;fill:#ffffff"
                 xml:space="preserve"
                 width="220"
                 height="220">
<style
   type="text/css"
   id="style1">#svg-image-E6OpAwM1viE_TA06mPdc .st0 { fill: rgb(69, 69, 69); }
</style>
<g
   id="g4"
   style="fill:#ffffff">
	<path
   class="st0"
   d="M47,33.2c0-1.6-1.3-3-3-3c-1.6,0-3,1.3-3,3c0,1.3,0.9,2.4,2.1,2.8H43v5.2c0,1.1-0.9,1.8-2,1.8H7&#10;		c-1.1,0-2-0.7-2-1.8V24.1c0,0,0,0,0,0s0,0,0,0V24h0c-0.1-0.5-0.5-0.9-1-0.9S3,23.5,3,24h0v0.1c0,0,0,0,0,0s0,0,0,0v17.1&#10;		C3,43.4,4.8,45,7,45H41c2.2,0,4-1.6,4-3.8V36h-0.1C46.1,35.6,47,34.5,47,33.2z M44,35.2c-1.1,0-2-0.9-2-2s0.9-2,2-2&#10;		c1.1,0,2,0.9,2,2S45.1,35.2,44,35.2z"
   id="path1"
   style="fill:#ffffff" />
	<path
   class="st0"
   d="M6.9,14.2c0-1.3-0.8-2.4-2-2.8V7.2C5,6.1,5.9,5,7,5H41c1.1,0,2,1.1,2,2.2V24h0c0,0,0,0.1,0,0.1&#10;		c0,0.6,0.4,1,1,1c0.6,0,1-0.4,1-1c0,0,0-0.1,0-0.1h0V7.2C45,5,43.2,3,41,3H7C4.8,3,3,5,3,7.2v4.2c-1.1,0.4-2,1.5-2,2.8&#10;		c0,1.6,1.3,3,3,3S6.9,15.8,6.9,14.2z M2,14.2c0-1.1,0.9-2,2-2s2,0.9,2,2s-0.9,2-2,2S2,15.2,2,14.2z"
   id="path2"
   style="fill:#ffffff" />
	<polygon
   class="st0"
   points="36,30 37,30 37,23.5 37,22.4 37,18 37,17 36.5,17 36,17"
   id="polygon2"
   style="fill:#ffffff" />
	<path
   class="st0"
   d="M25.3,17h-0.5H24v13h1v-6h6.6c1.3,0,2.4-1.6,2.4-3v-1.4c0-1.4-1.1-2.6-2.4-2.6H25.3z M33,19.6V21&#10;		c0,0.8-0.7,2-1.4,2H25v-5h6.6C32.3,18,33,18.8,33,19.6z"
   id="path3"
   style="fill:#ffffff" />
	<path
   class="st0"
   d="M17.3,17h-1.1c-2,0-2.6,1.8-2.8,2.4L11,30h1.1l1.4-6H20v0l1.4,6h1.1l-2.3-10.6C19.9,18.8,19.3,17,17.3,17z&#10;		 M19.8,23h-6.1l0.7-3.3c0.4-1.2,1-1.7,2-1.7H17c1,0,1.6,0.5,2,1.8L19.8,23z"
   id="path4"
   style="fill:#ffffff" />
</g>
</svg>
            </g>
          </g>
        </g>
        <g
           data-cell-id="qYWMFZfGgIOQVrpC34mE-3"
           id="g10"
           style="fill:#ffffff">
          <g
             id="g9"
             style="fill:#ffffff">
            <g
               id="g8"
               style="fill:#ffffff">
              <svg
                 width="50"
                 height="50"
                 viewBox="0 0 16 16"
                 fill="none"
                 x="129.5"
                 y="144.5"
                 style="font-family:initial;fill:#ffffff"
                 version="1.1"
                 id="svg7">
                <path
                   fill="#000000"
                   fill-rule="evenodd"
                   d="M1.25 2C.56 2 0 2.56 0 3.25v8.5C0 12.44.56 13 1.25 13H5c.896 0 1.475.205 1.809.448.317.23.441.51.441.802a.75.75 0 001.5 0c0-.292.124-.572.441-.802.334-.243.913-.448 1.809-.448h3.75c.69 0 1.25-.56 1.25-1.25v-8.5C16 2.56 15.44 2 14.75 2H11c-1.154 0-2.106.354-2.772 1-.081.08-.157.161-.228.246A3.131 3.131 0 007.772 3C7.106 2.354 6.154 2 5 2H1.25zm7.5 9.967c.61-.309 1.372-.467 2.25-.467h3.5v-8H11c-.846 0-1.394.253-1.728.577-.335.325-.522.787-.522 1.34v6.55zm-1.5 0v-6.55c0-.553-.187-1.015-.522-1.34C6.394 3.753 5.846 3.5 5 3.5H1.5v8H5c.878 0 1.64.158 2.25.467z"
                   clip-rule="evenodd"
                   id="path7"
                   style="fill:#ffffff" />
              </svg>
            </g>
          </g>
        </g>
      </g>
    </g>
  </g>
</svg>
