<?xml version="1.0" encoding="UTF-8" standalone="no"?>
<svg
   version="1.1"
   id="图层_1"
   x="0px"
   y="0px"
   viewBox="0 0 48 48"
   style="enable-background:new 0 0 48 48;"
   xml:space="preserve"
   width="132px"
   height="132px"
   sodipodi:docname="apm.svg"
   inkscape:version="1.3.2 (091e20e, 2023-11-25, custom)"
   xmlns:inkscape="http://www.inkscape.org/namespaces/inkscape"
   xmlns:sodipodi="http://sodipodi.sourceforge.net/DTD/sodipodi-0.dtd"
   xmlns="http://www.w3.org/2000/svg"
   xmlns:svg="http://www.w3.org/2000/svg"><defs
   id="defs1" /><sodipodi:namedview
   id="namedview1"
   pagecolor="#ffffff"
   bordercolor="#000000"
   borderopacity="0.25"
   inkscape:showpageshadow="2"
   inkscape:pageopacity="0.0"
   inkscape:pagecheckerboard="0"
   inkscape:deskcolor="#d1d1d1"
   inkscape:zoom="13.780303"
   inkscape:cx="66"
   inkscape:cy="66"
   inkscape:window-width="3840"
   inkscape:window-height="2054"
   inkscape:window-x="-11"
   inkscape:window-y="-11"
   inkscape:window-maximized="1"
   inkscape:current-layer="图层_1" />
<style
   type="text/css"
   id="style1">
	.st0{fill:#040000;}
</style>
<path
   class="st0"
   d="M5,18c0.6,0,1-0.4,1-1V7c0-0.5,0.5-1,1-1h10c0.6,0,1-0.4,1-1s-0.4-1-1-1H7C5.4,4,4,5.4,4,7v10&#10;	C4,17.6,4.4,18,5,18z M17,42H7c-0.5,0-1-0.5-1-1V31c0-0.6-0.4-1-1-1s-1,0.4-1,1v10c0,1.6,1.4,3,3,3h10c0.6,0,1-0.4,1-1&#10;	S17.6,42,17,42z M31,6h10c0.5,0,1,0.5,1,1v10c0,0.6,0.4,1,1,1s1-0.4,1-1V7c0-1.6-1.4-3-3-3H31c-0.6,0-1,0.4-1,1S30.4,6,31,6z M45,23&#10;	h-8.4c-0.2,0-0.4,0.1-0.5,0.3l-2.6,5.6L29,13.4c-0.1-0.2-0.3-0.4-0.5-0.4s-0.4,0.1-0.5,0.3l-3.6,11.3l-2-4.3&#10;	c-0.1-0.2-0.3-0.3-0.5-0.3s-0.4,0.1-0.5,0.3l-4,10.2l-4.1-14c-0.1-0.2-0.3-0.4-0.5-0.4s-0.4,0.2-0.5,0.4L10.6,24H3&#10;	c-0.3,0-0.5,0.2-0.5,0.5S2.7,25,3,25h8c0.2,0,0.4-0.1,0.5-0.3l1.5-5.9l4,13.7c0.1,0.2,0.2,0.5,0.5,0.5l0,0c0.2,0,0.4-0.3,0.5-0.5&#10;	l4-10.6l2,4.4c0.1,0.2,0.3,0.3,0.5,0.3s0.4-0.2,0.4-0.3l3.5-11L33,30.4c0.1,0.2,0.2,0.3,0.4,0.4c0.2,0,0.4-0.1,0.5-0.3l3-6.5H45&#10;	c0.3,0,0.5-0.2,0.5-0.5S45.3,23,45,23z M43,30c-0.6,0-1,0.4-1,1v10c0,0.5-0.5,1-1,1H31c-0.6,0-1,0.4-1,1s0.4,1,1,1h10&#10;	c1.6,0,3-1.4,3-3V31C44,30.4,43.6,30,43,30z"
   id="path1"
   style="fill:#ffffff;fill-opacity:1" />
</svg>
