<svg width="53" height="39" xmlns="http://www.w3.org/2000/svg" xmlns:xlink="http://www.w3.org/1999/xlink" overflow="hidden"><defs><clipPath id="clip0"><rect x="619" y="168" width="53" height="39"/></clipPath></defs><g clip-path="url(#clip0)" transform="translate(-619 -168)"><path d="M49.8409 34.6875C48.6818 34.3984 46.0739 26.5938 44.9148 18.5 44.9148 17.9219 44.9148 17.6328 44.625 17.0547 44.9148 15.6094 45.4943 12.4297 46.3636 9.53906 46.3636 9.25 46.3636 8.67188 46.0739 8.67188 45.4943 8.67188 45.2045 8.96094 45.2045 9.25 44.9148 10.6953 44.3352 12.4297 44.0455 13.875 42.8864 7.51562 40.858 0 37.6705 0 34.7727 0 32.7443 6.35938 31.5852 12.7188 30.4261 7.51562 28.3977 1.15625 25.7898 1.15625 23.1818 1.15625 20.8636 8.96094 19.7045 14.1641 18.5455 7.51562 16.517 0 13.3295 0 10.4318 0 8.11364 7.51562 6.95455 13.875 6.66477 12.4297 6.375 10.6953 5.79545 9.25 5.79545 8.96094 5.50568 8.67188 5.21591 8.67188 4.92614 8.67188 4.63636 9.25 4.63636 9.53906 5.50568 12.4297 6.08523 15.3203 6.375 17.0547 6.375 17.3438 6.08523 17.9219 6.08523 18.5 4.92614 26.5938 2.60795 34.3984 1.15909 34.6875 0.579545 34.6875 0 35.2656 0 35.8438 0 36.4219 0.579545 37 1.15909 37 4.05682 37 6.375 29.7734 7.53409 23.4141 8.69318 28.9062 10.7216 35.8438 13.3295 35.8438 15.9375 35.8438 17.9659 28.9062 19.125 23.7031 20.5739 30.0625 22.6023 37 25.5 37 28.6875 37 30.7159 29.1953 32.1648 22.8359 33.0341 28.3281 35.0625 35.8438 37.9602 35.8438 40.2784 35.8438 42.3068 29.1953 43.4659 23.7031 44.9148 30.0625 46.9432 37 49.8409 37 50.4205 37 51 36.4219 51 35.8438 51 35.2656 50.4205 34.6875 49.8409 34.6875ZM13.3295 34.6875C11.8807 34.6875 9.5625 27.75 8.11364 20.5234 8.11364 19.9453 8.40341 19.3672 8.40341 18.7891 9.85227 10.4062 12.1705 2.89062 13.3295 2.3125 14.7784 2.89062 17.0966 10.4062 18.2557 18.7891 18.2557 19.3672 18.5455 19.9453 18.5455 20.8125 17.0966 27.75 15.0682 34.6875 13.3295 34.6875ZM25.5 34.6875C24.3409 34.3984 22.0227 26.5938 20.5739 18.5 20.5739 18.2109 20.5739 17.9219 20.5739 17.6328 21.733 10.4062 24.0511 2.60156 25.7898 2.60156 27.2386 2.60156 29.5568 9.25 30.7159 16.1875 30.7159 16.7656 30.4261 17.6328 30.4261 18.5 29.267 26.5938 26.9489 34.3984 25.5 34.6875ZM37.9602 34.6875C36.2216 34.6875 33.9034 27.1719 32.7443 19.3672 32.7443 19.0781 32.7443 19.0781 32.7443 18.7891 33.9034 10.4062 36.5114 2.89062 37.6705 2.3125 39.1193 2.89062 41.4375 10.4062 42.5966 18.7891 42.5966 19.3672 42.8864 19.9453 42.8864 20.5234 41.7273 27.75 39.4091 34.6875 37.9602 34.6875Z" fill="#ffffff" fill-rule="evenodd" transform="matrix(-1 0 0 1 671 169)"/></g></svg>