<?xml version="1.0" encoding="UTF-8" standalone="no"?>
<svg
   viewBox="0 0 160 160"
   width="160.000000"
   height="160.000000"
   fill="none"
   version="1.1"
   id="svg1"
   sodipodi:docname="bcc.svg"
   inkscape:version="1.4 (86a8ad7, 2024-10-11)"
   xmlns:inkscape="http://www.inkscape.org/namespaces/inkscape"
   xmlns:sodipodi="http://sodipodi.sourceforge.net/DTD/sodipodi-0.dtd"
   xmlns="http://www.w3.org/2000/svg"
   xmlns:svg="http://www.w3.org/2000/svg">
  <defs
     id="defs1" />
  <sodipodi:namedview
     id="namedview1"
     pagecolor="#ffffff"
     bordercolor="#000000"
     borderopacity="0.25"
     inkscape:showpageshadow="2"
     inkscape:pageopacity="0.0"
     inkscape:pagecheckerboard="0"
     inkscape:deskcolor="#d1d1d1"
     inkscape:zoom="11.34375"
     inkscape:cx="80"
     inkscape:cy="80"
     inkscape:window-width="3840"
     inkscape:window-height="2054"
     inkscape:window-x="-11"
     inkscape:window-y="-11"
     inkscape:window-maximized="1"
     inkscape:current-layer="svg1" />
  <rect
     id="Business Continuity Center - BCC"
     width="160.000000"
     height="160.000000"
     x="0.000000"
     y="0.000000" />
  <path
     id="Rectangle Backup-19"
     d="M35.5556 0L124.444 0C144 0 160 16 160 35.5556L160 124.444C160 144 144 160 124.444 160L35.5556 160C16 160 0 144 0 124.444L0 35.5556C0 16 16 0 35.5556 0Z"
     fill="rgb(37,194,81)"
     fill-rule="evenodd"
     style="fill:#ffffff;fill-opacity:1" />
  <path
     id="Merge"
     d="M68.8889 87.7771C68.8889 81.6406 63.9143 76.666 57.7778 76.666C51.6413 76.666 46.6667 81.6406 46.6667 87.7771C46.6667 87.8034 46.6668 87.8296 46.6669 87.8559C42.8976 88.3949 40 91.6365 40 95.5549C40 99.8505 43.4822 103.333 47.7778 103.333L67.7778 103.333C72.0733 103.333 75.5556 99.8505 75.5556 95.5549C75.5556 91.6365 72.658 88.3949 68.8886 87.8559C68.8888 87.8296 68.8889 87.8034 68.8889 87.7771Z"
     fill="rgb(255,254.745,254.745)"
     fill-rule="evenodd" />
  <path
     id="Vector 332"
     d="M79.8958 124.445L107.777 124.445C124.346 124.445 137.777 111.016 137.777 94.4451C137.777 79.7576 127.224 67.5354 113.289 64.9486C112.396 47.3357 97.8331 33.334 79.9989 33.334C66.9162 33.334 55.5935 40.8687 50.1367 51.8409C52.6096 51.3635 55.1638 51.1118 57.7767 51.1118C79.8687 51.1118 97.7767 69.0197 97.7767 91.1118C97.7767 105.027 90.6738 117.275 79.8958 124.445Z"
     fill="rgb(255,254.745,254.745)"
     fill-rule="evenodd" />
  <path
     id="Elipse 410 (Border)"
     d="M82.0529 115.385C83.6479 113.79 85.072 112.057 86.325 110.185C87.3276 108.687 86.9385 106.723 85.4408 105.72C83.943 104.717 81.9785 105.107 80.976 106.604C79.957 108.127 78.7988 109.536 77.5014 110.834C74.7782 113.557 71.773 115.599 68.4858 116.961C65.1986 118.323 61.6294 119.003 57.7782 119.003C50.0759 119.003 43.5015 116.28 38.0551 110.834C35.3319 108.111 33.2895 105.105 31.9279 101.818C30.5663 98.5311 29.8855 94.9619 29.8855 91.1107C29.8855 87.2596 30.5663 83.6904 31.9279 80.4032C33.2895 77.116 35.3319 74.1108 38.0551 71.3876C40.7783 68.6644 43.7835 66.622 47.0707 65.2604C50.3579 63.8988 53.927 63.218 57.7782 63.218C61.63 63.218 65.1997 63.899 68.4873 65.261C71.7749 66.623 74.7804 68.666 77.5037 71.39C78.8004 72.687 79.958 74.0963 80.9764 75.6179C81.9789 77.1156 83.9434 77.5048 85.4412 76.5023C86.9389 75.4998 87.3281 73.5353 86.3256 72.0375C85.7449 71.17 85.1275 70.3322 84.4734 69.5242C83.7167 68.5893 82.9108 67.6943 82.0558 66.839C78.7039 63.4864 75.0049 60.972 70.9586 59.2957C66.9124 57.6194 62.5189 56.7812 57.7782 56.7812C53.0383 56.7812 48.6455 57.6192 44.5997 59.295C40.5539 60.9708 36.8552 63.4845 33.5036 66.8361C30.152 70.1878 27.6383 73.8865 25.9624 77.9322C24.2866 81.978 23.4487 86.3708 23.4487 91.1107C23.4487 95.8507 24.2866 100.244 25.9625 104.289C27.6383 108.335 30.152 112.034 33.5036 115.385C36.8552 118.737 40.5539 121.251 44.5997 122.927C48.6455 124.602 53.0383 125.44 57.7782 125.44C62.5182 125.44 66.911 124.602 70.9568 122.927C75.0025 121.251 78.7012 118.737 82.0529 115.385Z"
     fill="rgb(255,254.745,254.745)"
     fill-rule="evenodd" />
</svg>
