<svg width="59" height="43" xmlns="http://www.w3.org/2000/svg" xmlns:xlink="http://www.w3.org/1999/xlink" overflow="hidden"><defs><clipPath id="clip0"><rect x="291" y="166" width="59" height="43"/></clipPath></defs><g clip-path="url(#clip0)" transform="translate(-291 -166)"><path d="M335.83 176.5C333.852 170.266 327.92 166 321 166 314.08 166 308.148 170.266 306.17 176.5 298.261 177.484 292 184.047 292 192.25 292 200.781 299.25 208 307.818 208 334.182 208 334.182 208 334.182 208 343.08 208 350 200.781 350 192.25 350 184.047 343.739 177.484 335.83 176.5ZM334.182 205.375C307.818 205.375 307.818 205.375 307.818 205.375 300.568 205.375 294.636 199.469 294.636 192.25 294.636 185.359 299.58 179.781 306.5 179.125 307.489 179.125 308.148 178.469 308.477 177.484 310.455 172.234 315.398 168.625 321 168.625 326.602 168.625 331.545 172.234 333.523 177.484 333.852 178.469 334.511 179.125 335.83 179.125 342.42 179.781 347.364 185.359 347.364 192.25 347.364 199.469 341.432 205.375 334.182 205.375Z" fill="#ffffff" fill-rule="evenodd"/><path d="M324.333 191C308.667 191 308.667 191 308.667 191 308.333 191 308 191.25 308 191.5 308 191.75 308.333 192 308.667 192 324.333 192 324.333 192 324.333 192 324.667 192 325 191.75 325 191.5 325 191.25 324.667 191 324.333 191Z" fill="#ffffff" fill-rule="evenodd"/><path d="M324.333 195C308.667 195 308.667 195 308.667 195 308.333 195 308 195.25 308 195.5 308 195.75 308.333 196 308.667 196 324.333 196 324.333 196 324.333 196 324.667 196 325 195.75 325 195.5 325 195.25 324.667 195 324.333 195Z" fill="#ffffff" fill-rule="evenodd"/><path d="M331.5 190C329.75 190 328 191.4 328 193.5 328 195.25 329.75 197 331.5 197 333.6 197 335 195.25 335 193.5 335 191.4 333.6 190 331.5 190ZM331.5 195.6C330.45 195.6 329.4 194.55 329.4 193.5 329.4 192.45 330.45 191.4 331.5 191.4 332.55 191.4 333.6 192.45 333.6 193.5 333.6 194.55 332.55 195.6 331.5 195.6Z" fill="#ffffff" fill-rule="evenodd"/><path d="M331.483 185C310.517 185 310.517 185 310.517 185 305.931 185 302 188.596 302 193.5 302 198.077 305.931 202 310.517 202 331.483 202 331.483 202 331.483 202 336.069 202 340 198.077 340 193.5 340 188.596 336.069 185 331.483 185ZM331.483 200.692C310.517 200.692 310.517 200.692 310.517 200.692 306.586 200.692 303.31 197.423 303.31 193.5 303.31 189.577 306.586 186.308 310.517 186.308 331.483 186.308 331.483 186.308 331.483 186.308 335.414 186.308 338.69 189.577 338.69 193.5 338.69 197.423 335.414 200.692 331.483 200.692Z" fill="#ffffff" fill-rule="evenodd"/></g></svg>