<?xml version="1.0" encoding="UTF-8" standalone="no"?>
<svg
   viewBox="0 0 48 48"
   version="1.1"
   id="svg2"
   sodipodi:docname="cbr.svg"
   inkscape:version="1.3.2 (091e20e, 2023-11-25, custom)"
   xmlns:inkscape="http://www.inkscape.org/namespaces/inkscape"
   xmlns:sodipodi="http://sodipodi.sourceforge.net/DTD/sodipodi-0.dtd"
   xmlns="http://www.w3.org/2000/svg"
   xmlns:svg="http://www.w3.org/2000/svg">
  <defs
     id="defs2" />
  <sodipodi:namedview
     id="namedview2"
     pagecolor="#ffffff"
     bordercolor="#000000"
     borderopacity="0.25"
     inkscape:showpageshadow="2"
     inkscape:pageopacity="0.0"
     inkscape:pagecheckerboard="0"
     inkscape:deskcolor="#d1d1d1"
     inkscape:zoom="23.6875"
     inkscape:cx="24"
     inkscape:cy="24"
     inkscape:window-width="3440"
     inkscape:window-height="1351"
     inkscape:window-x="-9"
     inkscape:window-y="-9"
     inkscape:window-maximized="1"
     inkscape:current-layer="svg2" />
  <path
     d="M31.5,19.1a10.59,10.59,0,0,0-20,0A10.44,10.44,0,0,0,2,29.5,10.58,10.58,0,0,0,12.6,40H30.3A10.61,10.61,0,0,0,41,29.5,10.44,10.44,0,0,0,31.5,19.1ZM30.4,38H12.6A8.58,8.58,0,0,1,4,29.5a8.46,8.46,0,0,1,7.7-8.4,2.1,2.1,0,0,0,1.7-1.3,8.75,8.75,0,0,1,16.4,0,2.1,2.1,0,0,0,1.7,1.3,8.54,8.54,0,0,1,7.7,8.4A8.89,8.89,0,0,1,30.4,38Z"
     id="path1"
     style="fill:#ffffff;fill-opacity:1" />
  <path
     d="M36.4,15.1A11.06,11.06,0,0,0,26,8a10.07,10.07,0,0,0-2.5.3,12.14,12.14,0,0,0-4.7,2.3.62.62,0,0,0-.1.7.62.62,0,0,0,.7.1,9.64,9.64,0,0,1,4.3-2.1A8.52,8.52,0,0,1,26,9a10.17,10.17,0,0,1,9.6,6.7c.1.2.2.3.4.3a9.92,9.92,0,0,1,5.3,17.6.62.62,0,0,0-.1.7.52.52,0,0,0,.4.2.37.37,0,0,0,.3-.1A10.91,10.91,0,0,0,46,25.9,11.05,11.05,0,0,0,36.4,15.1Z"
     id="path2"
     style="fill:#ffffff;fill-opacity:1" />
</svg>
