<svg width="49" height="49" xmlns="http://www.w3.org/2000/svg" xmlns:xlink="http://www.w3.org/1999/xlink" overflow="hidden"><defs><clipPath id="clip0"><rect x="643" y="502" width="49" height="49"/></clipPath></defs><g clip-path="url(#clip0)" transform="translate(-643 -502)"><path d="M668 503C654.787 503 644 513.787 644 527 644 540.213 654.787 551 668 551 681.213 551 692 540.213 692 527 692 513.787 681.213 503 668 503M668 549.077C655.791 549.077 645.923 539.125 645.923 527 645.923 514.875 655.791 504.923 668 504.923 680.125 504.923 690.077 514.875 690.077 527 690.077 539.209 680.125 549.077 668 549.077" fill="#ffffff" fill-rule="evenodd"/><path d="M677.32 532.359C676.317 532.359 675.398 532.691 674.646 533.356 672.974 531.694 672.974 531.694 672.974 531.694 675.314 528.953 675.314 524.964 672.974 522.306 674.646 520.644 674.646 520.644 674.646 520.644 675.398 521.226 676.317 521.558 677.32 521.558 678.406 521.558 679.493 521.142 680.329 520.312 682 518.65 682 515.908 680.329 514.246 679.493 513.415 678.406 513 677.32 513 676.233 513 675.063 513.415 674.228 514.246 672.64 515.825 672.556 518.234 673.977 519.896 672.305 521.641 672.305 521.641 672.305 521.641 670.885 520.395 669.213 519.813 667.542 519.813 665.87 519.813 664.115 520.395 662.778 521.558 661.107 519.896 661.107 519.896 661.107 519.896 662.444 518.234 662.36 515.742 660.772 514.246 659.937 513.415 658.85 513 657.764 513 656.677 513 655.591 513.415 654.671 514.246 653 515.908 653 518.65 654.671 520.312 655.591 521.142 656.677 521.558 657.764 521.558 658.683 521.558 659.686 521.226 660.438 520.561 662.109 522.306 662.109 522.306 662.109 522.306 659.769 524.964 659.769 529.036 662.109 531.694 660.438 533.356 660.438 533.356 660.438 533.356 659.686 532.691 658.683 532.359 657.764 532.359 656.677 532.359 655.591 532.774 654.671 533.605 653 535.35 653 538.009 654.671 539.671 655.591 540.585 656.677 541 657.764 541 658.85 541 659.937 540.585 660.772 539.671 662.36 538.175 662.444 535.682 661.107 534.021 662.862 532.359 662.862 532.359 662.862 532.359 664.199 533.522 665.87 534.104 667.542 534.104 669.213 534.104 670.885 533.522 672.222 532.359 673.977 534.021 673.977 534.021 673.977 534.021 672.556 535.682 672.723 538.175 674.228 539.671 675.063 540.585 676.233 541 677.32 541 678.406 541 679.493 540.585 680.329 539.671 682 538.009 682 535.35 680.329 533.605 679.493 532.774 678.406 532.359 677.32 532.359M675.231 515.16C675.816 514.662 676.484 514.329 677.32 514.329 678.072 514.329 678.824 514.662 679.409 515.16 679.911 515.742 680.245 516.49 680.245 517.237 680.245 518.068 679.911 518.733 679.409 519.315 678.824 519.896 678.072 520.145 677.32 520.145 676.484 520.145 675.816 519.896 675.231 519.315 674.061 518.151 674.061 516.323 675.231 515.16M657.764 520.145C657.012 520.145 656.259 519.896 655.674 519.315 655.089 518.733 654.839 518.068 654.839 517.237 654.839 516.49 655.089 515.742 655.674 515.16 656.259 514.662 657.012 514.329 657.764 514.329 658.516 514.329 659.268 514.662 659.853 515.16 661.023 516.323 661.023 518.151 659.853 519.315 659.268 519.896 658.516 520.145 657.764 520.145M659.853 538.757C659.268 539.255 658.516 539.588 657.764 539.588 657.012 539.588 656.259 539.255 655.674 538.757 655.089 538.175 654.839 537.427 654.839 536.68 654.839 535.932 655.089 535.184 655.674 534.602 656.259 534.021 657.012 533.771 657.764 533.771 658.516 533.771 659.268 534.021 659.853 534.602 661.023 535.766 661.023 537.593 659.853 538.757M667.542 532.525C666.037 532.525 664.617 531.944 663.53 530.864 661.357 528.703 661.357 525.214 663.53 523.053 664.617 521.973 666.037 521.392 667.542 521.392 669.046 521.392 670.467 521.973 671.47 523.053 673.643 525.214 673.643 528.703 671.47 530.864 670.467 531.944 669.046 532.525 667.542 532.525M679.409 538.757C678.824 539.255 678.072 539.588 677.32 539.588 676.484 539.588 675.816 539.255 675.231 538.757 674.061 537.593 674.061 535.766 675.231 534.602 675.816 534.021 676.484 533.771 677.32 533.771 678.072 533.771 678.824 534.021 679.409 534.602 679.911 535.184 680.245 535.932 680.245 536.68 680.245 537.427 679.911 538.175 679.409 538.757" fill="#ffffff" fill-rule="evenodd"/></g></svg>