<svg width="44" height="50" xmlns="http://www.w3.org/2000/svg" xmlns:xlink="http://www.w3.org/1999/xlink" overflow="hidden"><defs><clipPath id="clip0"><rect x="123" y="495" width="44" height="50"/></clipPath></defs><g clip-path="url(#clip0)" transform="translate(-123 -495)"><path d="M163.454 506.047C147.046 496.558 147.046 496.558 147.046 496.558 145.632 496 143.368 496 141.954 496.558 125.546 506.047 125.546 506.047 125.546 506.047 124.132 506.605 123 508.558 123 510.233 123 529.767 123 529.767 123 529.767 123 531.163 124.132 533.116 125.546 533.953 141.954 543.442 141.954 543.442 141.954 543.442 142.52 543.721 143.368 544 144.217 544 145.349 544 146.197 543.721 146.763 543.442 163.171 533.953 163.171 533.953 163.171 533.953 164.586 533.395 165.717 531.442 165.717 529.767 165.717 510.233 165.717 510.233 165.717 510.233 166 508.558 164.868 506.605 163.454 506.047M163.737 529.767C163.737 530.605 162.888 531.721 162.322 532 145.914 541.209 145.914 541.209 145.914 541.209 145.349 541.767 143.651 541.767 143.086 541.209 126.678 532.279 126.678 532.279 126.678 532.279 125.829 531.721 125.263 530.605 125.263 529.767 125.263 510.233 125.263 510.233 125.263 510.233 125.263 509.395 125.829 508.279 126.678 507.721 143.086 498.512 143.086 498.512 143.086 498.512 143.368 498.233 143.934 498.233 144.217 498.233 144.783 498.233 145.349 498.233 145.632 498.512 162.039 507.721 162.039 507.721 162.039 507.721 162.888 508.279 163.454 509.395 163.454 510.233 163.454 529.767 163.454 529.767 163.454 529.767L163.737 529.767ZM134.316 516.651C135.164 516.651 135.73 516.093 135.73 515.535 142.237 515.535 142.237 515.535 142.237 515.535 147.329 512.186 147.329 512.186 147.329 512.186 152.987 512.186 152.987 512.186 152.987 512.186 153.27 512.744 153.836 513.302 154.401 513.302 155.533 513.302 156.099 512.465 156.099 511.628 156.099 510.791 155.533 509.953 154.401 509.953 153.836 509.953 153.27 510.512 152.987 511.07 147.046 511.07 147.046 511.07 147.046 511.07 141.954 514.419 141.954 514.419 141.954 514.419 135.73 514.419 135.73 514.419 135.73 514.419 135.73 513.86 134.882 513.302 134.316 513.302 133.467 513.302 132.618 514.14 132.618 514.977 132.618 515.814 133.467 516.651 134.316 516.651M154.684 518.884C153.836 518.884 153.27 519.442 152.987 520 135.73 520 135.73 520 135.73 520 135.73 519.442 134.882 518.884 134.316 518.884 133.467 518.884 132.618 519.721 132.618 520.558 132.618 521.395 133.467 522.233 134.316 522.233 135.164 522.233 135.73 521.674 135.73 521.116 152.987 521.116 152.987 521.116 152.987 521.116 153.27 521.674 153.836 522.233 154.684 522.233 155.533 522.233 156.382 521.395 156.382 520.558 156.382 519.721 155.533 518.884 154.684 518.884M154.684 527.814C153.836 527.814 153.27 528.372 152.987 528.93 146.763 528.93 146.763 528.93 146.763 528.93 142.52 525.581 142.52 525.581 142.52 525.581 135.73 525.581 135.73 525.581 135.73 525.581 135.447 525.023 134.882 524.465 134.033 524.465 133.184 524.465 132.336 525.302 132.336 526.14 132.336 526.977 133.467 527.814 134.316 527.814 135.164 527.814 135.73 527.256 135.73 526.698 141.954 526.698 141.954 526.698 141.954 526.698 146.48 530.047 146.48 530.047 146.48 530.047 152.987 530.047 152.987 530.047 152.987 530.047 153.27 530.605 153.836 531.163 154.684 531.163 155.533 531.163 156.382 530.326 156.382 529.488 156.382 528.651 155.533 527.814 154.684 527.814" fill="#ffffff" fill-rule="evenodd"/></g></svg>