<svg width="57" height="42" xmlns="http://www.w3.org/2000/svg" xmlns:xlink="http://www.w3.org/1999/xlink" overflow="hidden"><defs><clipPath id="clip0"><rect x="951" y="507" width="57" height="42"/></clipPath></defs><g clip-path="url(#clip0)" transform="translate(-951 -507)"><path d="M994.73 516.08C992.718 510.632 987.388 507 981.454 507 980.348 507 979.342 507.101 978.236 507.303 976.023 507.807 974.011 508.816 972.302 510.329 972 510.531 972 510.935 972.201 511.237 972.402 511.439 972.805 511.54 973.106 511.237 974.716 509.926 976.526 509.018 978.537 508.614 979.543 508.312 980.448 508.211 981.454 508.211 986.986 508.211 991.914 511.742 993.724 516.887 993.724 517.089 993.925 517.291 994.227 517.291 1000.76 517.997 1005.69 523.445 1005.69 530.003 1005.69 533.837 1003.98 537.469 1000.97 539.89 1000.66 540.092 1000.66 540.496 1000.86 540.798 1000.97 541 1001.17 541 1001.37 541 1001.47 541 1001.67 541 1001.77 540.899 1005.09 538.175 1007 534.24 1007 530.003 1007 522.941 1001.77 516.988 994.73 516.08" fill="#ffffff" fill-rule="evenodd"/><path d="M988.955 521.127C987.032 515.854 981.972 512 976 512 970.028 512 964.968 515.854 963.146 521.127 956.263 521.837 951 527.617 951 534.513 951 542.017 957.073 548 964.664 548 987.437 548 987.437 548 987.437 548 994.927 548 1001 542.017 1001 534.513 1001 527.617 995.737 521.837 988.955 521.127M987.437 545.465C964.664 545.465 964.664 545.465 964.664 545.465 958.49 545.465 953.53 540.597 953.53 534.513 953.53 528.935 957.781 524.27 963.449 523.662 964.36 523.561 965.17 522.851 965.575 521.938 967.093 517.577 971.344 514.637 976 514.637 980.757 514.637 984.907 517.577 986.526 521.938 986.83 522.851 987.64 523.561 988.652 523.662 994.219 524.27 998.47 528.935 998.47 534.513 998.47 540.597 993.51 545.465 987.437 545.465" fill="#ffffff" fill-rule="evenodd"/><path d="M984 534.5C984 533.672 984.672 533 985.5 533 986.328 533 987 533.672 987 534.5 987 535.328 986.328 536 985.5 536 984.672 536 984 535.328 984 534.5Z" fill="#ffffff" fill-rule="evenodd"/><path d="M979.309 534C965.691 534 965.691 534 965.691 534 965.296 534 965 534.167 965 534.5 965 534.75 965.296 535 965.691 535 979.309 535 979.309 535 979.309 535 979.704 535 980 534.75 980 534.5 980 534.167 979.704 534 979.309 534" fill="#ffffff" fill-rule="evenodd"/><path d="M986.246 529C965.754 529 965.754 529 965.754 529 962.524 529 960 531.509 960 534.5 960 537.588 962.524 540 965.754 540 986.246 540 986.246 540 986.246 540 989.375 540 992 537.588 992 534.5 992 531.509 989.375 529 986.246 529M986.246 538.842C965.754 538.842 965.754 538.842 965.754 538.842 963.23 538.842 961.211 536.912 961.211 534.5 961.211 532.184 963.23 530.254 965.754 530.254 986.246 530.254 986.246 530.254 986.246 530.254 988.669 530.254 990.688 532.184 990.688 534.5 990.688 536.912 988.669 538.842 986.246 538.842" fill="#ffffff" fill-rule="evenodd"/></g></svg>