<svg width="56" height="41" xmlns="http://www.w3.org/2000/svg" xmlns:xlink="http://www.w3.org/1999/xlink" overflow="hidden"><defs><clipPath id="clip0"><rect x="965" y="492" width="56" height="41"/></clipPath></defs><g clip-path="url(#clip0)" transform="translate(-965 -492)"><path d="M985.625 515.852C987.812 514.328 987.812 514.328 987.812 514.328 991.562 516.461 991.562 516.461 991.562 516.461 995.938 504.273 995.938 504.273 995.938 504.273 981.562 510.672 981.562 510.672 981.562 510.672 984.688 512.805 984.688 512.805 984.688 512.805L985.625 515.852ZM993.75 506.711C990.625 514.633 990.625 514.633 990.625 514.633 988.438 513.109 988.438 513.109 988.438 513.109 988.438 513.109 988.125 513.109 987.812 513.109 987.5 513.109 987.5 513.109 987.188 513.414 986.562 513.719 986.562 513.719 986.562 513.719 985.938 512.195 985.938 512.195 985.938 512.195 985.938 512.195 985.625 511.891 985.625 511.586 984.062 510.672 984.062 510.672 984.062 510.672L993.75 506.711ZM966.25 516.766C966.875 516.766 967.5 516.156 967.5 515.547 967.5 514.633 967.812 513.414 968.438 512.5 968.75 511.281 969.375 510.367 970.312 509.453 970.625 508.844 970.625 507.93 970 507.625 969.688 507.32 968.75 507.32 968.438 507.93 967.5 508.844 966.562 510.062 965.938 511.281 965.625 512.805 965.312 514.023 965 515.547 965 516.156 965.312 516.766 966.25 516.766 966.25 516.766 966.25 516.766 966.25 516.766ZM970.625 525.297C970.312 524.688 969.688 524.078 969.375 523.469 968.75 522.555 968.125 521.641 968.125 520.727 967.812 520.117 967.188 519.508 966.562 519.812 965.625 520.117 965.312 520.727 965.625 521.336 965.938 522.555 966.562 523.773 967.188 524.688 967.5 525.602 968.125 526.211 968.75 527.125 969.375 527.734 970 528.039 970.625 528.648 970.938 528.953 971.25 528.953 971.562 528.953 971.875 528.953 972.188 528.648 972.5 528.344 972.812 528.039 972.812 527.125 972.188 526.82 971.875 526.211 971.25 525.906 970.625 525.297ZM1020 517.07C1020 509.758 1014.38 503.359 1006.88 502.445 1004.69 496.656 998.75 493 992.5 493 986.25 493 980.312 496.656 978.125 502.445 976.25 502.75 974.375 503.359 972.812 504.273 972.188 504.578 971.875 505.188 972.188 505.797 972.5 506.406 973.438 506.711 974.062 506.406 975.625 505.492 977.188 504.883 979.062 504.578 979.375 504.578 980 504.273 980 503.969 981.875 498.789 986.875 495.438 992.5 495.438 998.125 495.438 1003.12 498.789 1004.69 503.969 1005 504.273 1005.31 504.578 1005.94 504.578 1012.5 505.492 1017.5 510.672 1017.5 517.07 1017.5 524.078 1011.56 529.562 1004.38 529.562 995 529.562 995 529.562 995 529.562 990 528.953 986.25 524.992 986.25 520.117 986.25 519.203 986.562 518.289 986.562 517.375 984.375 516.766 984.375 516.766 984.375 516.766 984.062 517.984 983.75 518.898 983.75 520.117 983.75 525.906 988.125 530.781 993.75 531.695 994.062 532 994.062 532 994.375 532 994.688 532 994.688 532 994.688 532 995.312 532 995.625 532 996.25 532 996.25 532 996.25 532 996.25 532 996.25 532 996.25 532 996.25 532 996.25 532 996.562 532 996.562 532 1005.31 532 1005.31 532 1005.31 532 1005.62 532 1005.62 532 1005.62 532 1005.62 532 1005.62 532 1005.62 532 1013.75 531.391 1020 524.992 1020 517.07ZM985 529.562C980.625 529.562 980.625 529.562 980.625 529.562 979.062 529.562 977.812 529.258 976.562 528.953 975.938 528.648 975.312 529.258 975 529.867 974.688 530.477 975 531.086 975.938 531.391 977.188 531.695 979.062 532 980.625 532 985 532 985 532 985 532 985.625 532 986.25 531.391 986.25 530.781 986.25 530.172 985.625 529.562 985 529.562Z" fill="#ffffff" fill-rule="evenodd"/></g></svg>