<?xml version="1.0" encoding="UTF-8" standalone="no"?>
<svg
   width="42"
   height="49"
   overflow="hidden"
   version="1.1"
   id="svg1"
   sodipodi:docname="dc.svg"
   inkscape:version="1.3.2 (091e20e, 2023-11-25, custom)"
   xmlns:inkscape="http://www.inkscape.org/namespaces/inkscape"
   xmlns:sodipodi="http://sodipodi.sourceforge.net/DTD/sodipodi-0.dtd"
   xmlns="http://www.w3.org/2000/svg"
   xmlns:svg="http://www.w3.org/2000/svg">
  <sodipodi:namedview
     id="namedview1"
     pagecolor="#ffffff"
     bordercolor="#000000"
     borderopacity="0.25"
     inkscape:showpageshadow="2"
     inkscape:pageopacity="0.0"
     inkscape:pagecheckerboard="0"
     inkscape:deskcolor="#d1d1d1"
     inkscape:zoom="23.204082"
     inkscape:cx="21.009235"
     inkscape:cy="24.5"
     inkscape:window-width="3440"
     inkscape:window-height="1351"
     inkscape:window-x="-9"
     inkscape:window-y="-9"
     inkscape:window-maximized="1"
     inkscape:current-layer="svg1" />
  <defs
     id="defs1">
    <clipPath
       id="clip0">
      <rect
         x="613"
         y="163"
         width="42"
         height="49"
         id="rect1" />
    </clipPath>
  </defs>
  <g
     clip-path="url(#clip0)"
     transform="translate(-613 -163)"
     id="g1"
     style="fill:#ffffff;fill-opacity:1">
    <path
       d="M653.724 186.727C653.724 186.182 653.172 185.636 652.621 185.636 618.69 185.636 618.69 185.636 618.69 185.636 632.483 172.818 632.483 172.818 632.483 172.818 633.034 173.091 633.862 173.364 634.69 173.364 637.724 173.364 639.931 171.182 639.931 168.182 639.931 165.455 637.724 163 634.69 163 631.931 163 629.448 165.455 629.448 168.182 629.448 169.273 629.724 170.364 630.276 171.182 614.552 186.182 614.552 186.182 614.552 186.182 614.276 186.455 614 187 614.276 187.545 614.552 188.091 615.103 188.364 615.655 188.364 649.034 188.364 649.034 188.364 649.034 188.364 633.31 201.182 633.31 201.182 633.31 201.182 632.483 200.909 631.931 200.636 631.103 200.636 628.069 200.636 625.862 203.091 625.862 205.818 625.862 208.818 628.069 211 631.103 211 634.138 211 636.345 208.818 636.345 205.818 636.345 204.727 636.069 203.636 635.241 202.818 653.448 188.091 653.448 188.091 653.448 188.091 654 187.818 654 187 653.724 186.727ZM634.69 165.727C636.069 165.727 637.448 166.818 637.448 168.182 637.448 169.545 636.069 170.909 634.69 170.909 633.31 170.909 632.207 169.545 632.207 168.182 632.207 166.818 633.31 165.727 634.69 165.727ZM631.103 208.545C629.724 208.545 628.345 207.182 628.345 205.818 628.345 204.455 629.724 203.364 631.103 203.364 632.483 203.364 633.862 204.455 633.862 205.818 633.862 207.182 632.483 208.545 631.103 208.545Z"
       fill="#484848"
       fill-rule="evenodd"
       id="path1"
       style="fill:#ffffff;fill-opacity:1" />
  </g>
</svg>
