<?xml version="1.0" encoding="UTF-8" standalone="no"?>
<svg
   width="46"
   height="50"
   overflow="hidden"
   version="1.1"
   id="svg1"
   sodipodi:docname="dcs.svg"
   inkscape:version="1.3.2 (091e20e, 2023-11-25, custom)"
   xmlns:inkscape="http://www.inkscape.org/namespaces/inkscape"
   xmlns:sodipodi="http://sodipodi.sourceforge.net/DTD/sodipodi-0.dtd"
   xmlns="http://www.w3.org/2000/svg"
   xmlns:svg="http://www.w3.org/2000/svg">
  <sodipodi:namedview
     id="namedview1"
     pagecolor="#ffffff"
     bordercolor="#000000"
     borderopacity="0.25"
     inkscape:showpageshadow="2"
     inkscape:pageopacity="0.0"
     inkscape:pagecheckerboard="0"
     inkscape:deskcolor="#d1d1d1"
     inkscape:zoom="36.38"
     inkscape:cx="23.007147"
     inkscape:cy="25"
     inkscape:window-width="3840"
     inkscape:window-height="2054"
     inkscape:window-x="-11"
     inkscape:window-y="-11"
     inkscape:window-maximized="1"
     inkscape:current-layer="g1" />
  <defs
     id="defs1">
    <clipPath
       id="clip0">
      <rect
         x="420"
         y="152"
         width="46"
         height="50"
         id="rect1" />
    </clipPath>
  </defs>
  <g
     clip-path="url(#clip0)"
     transform="translate(-420 -152)"
     id="g1">
    <path
       d="M462.525 162.243C445.75 152.831 445.75 152.831 445.75 152.831 444.375 152 441.9 152 440.525 152.831 423.75 162.243 423.75 162.243 423.75 162.243 422.1 163.073 421 165.011 421 166.672 421 186.605 421 186.605 421 186.605 421 188.266 422.1 190.203 423.75 191.034 440.525 200.446 440.525 200.446 440.525 200.446 441.075 200.723 442.175 201 443 201 444.1 201 444.925 200.723 445.75 200.446 462.525 191.034 462.525 191.034 462.525 191.034 463.9 190.203 465 188.266 465 186.605 465 166.672 465 166.672 465 166.672 465 165.011 463.9 163.073 462.525 162.243ZM423.475 166.672C423.475 165.842 424.025 164.734 424.85 164.181 441.625 154.768 441.625 154.768 441.625 154.768 441.9 154.492 442.45 154.492 443 154.492 443.55 154.492 444.1 154.492 444.375 154.768 461.425 164.181 461.425 164.181 461.425 164.181 461.975 164.734 462.8 165.842 462.8 166.672 462.8 172.209 462.8 172.209 462.8 172.209 462.8 179.684 462.8 179.684 462.8 179.684 462.8 180.791 461.975 182.175 461.15 182.729 444.65 192.141 444.65 192.141 444.65 192.141 443.825 192.418 442.175 192.418 441.35 192.141 425.125 182.729 425.125 182.729 425.125 182.729 424.3 182.175 423.475 180.791 423.475 179.684 423.475 172.209 423.475 172.209 423.475 172.209L423.475 166.672ZM461.425 188.819C444.375 198.232 444.375 198.232 444.375 198.232 443.825 198.785 442.45 198.785 441.625 198.232 424.85 188.819 424.85 188.819 424.85 188.819 424.025 188.542 423.475 187.435 423.475 186.605 423.475 182.729 423.475 182.729 423.475 182.729 423.75 183.006 424.025 183.282 424.575 183.559 440.8 192.972 440.8 192.972 440.8 192.972 441.35 193.249 442.175 193.525 443 193.525 443.825 193.525 444.65 193.249 445.475 192.972 461.7 183.559 461.7 183.559 461.7 183.559 461.975 183.282 462.525 183.006 462.8 182.729 462.8 186.605 462.8 186.605 462.8 186.605 462.8 187.435 461.975 188.542 461.425 188.819Z"
       fill="#484848"
       fill-rule="evenodd"
       id="path1"
       style="fill:#ffffff;fill-opacity:1" />
  </g>
</svg>
