<?xml version="1.0" encoding="UTF-8" standalone="no"?>
<svg
   width="46"
   height="50"
   overflow="hidden"
   version="1.1"
   id="svg2"
   sodipodi:docname="dds.svg"
   inkscape:version="1.3.2 (091e20e, 2023-11-25, custom)"
   xmlns:inkscape="http://www.inkscape.org/namespaces/inkscape"
   xmlns:sodipodi="http://sodipodi.sourceforge.net/DTD/sodipodi-0.dtd"
   xmlns="http://www.w3.org/2000/svg"
   xmlns:svg="http://www.w3.org/2000/svg">
  <sodipodi:namedview
     id="namedview2"
     pagecolor="#ffffff"
     bordercolor="#000000"
     borderopacity="0.25"
     inkscape:showpageshadow="2"
     inkscape:pageopacity="0.0"
     inkscape:pagecheckerboard="0"
     inkscape:deskcolor="#d1d1d1"
     inkscape:zoom="36.38"
     inkscape:cx="23.007147"
     inkscape:cy="25"
     inkscape:window-width="3840"
     inkscape:window-height="2054"
     inkscape:window-x="-11"
     inkscape:window-y="-11"
     inkscape:window-maximized="1"
     inkscape:current-layer="g2" />
  <defs
     id="defs1">
    <clipPath
       id="clip0">
      <rect
         x="564"
         y="152"
         width="46"
         height="50"
         id="rect1" />
    </clipPath>
  </defs>
  <g
     clip-path="url(#clip0)"
     transform="translate(-564 -152)"
     id="g2">
    <path
       d="M606.469 162.243C589.312 152.831 589.312 152.831 589.312 152.831 587.906 152 585.375 152 583.969 152.831 566.812 162.243 566.812 162.243 566.812 162.243 565.125 163.073 564 165.011 564 166.672 564 186.605 564 186.605 564 186.605 564 188.266 565.125 190.203 566.812 191.034 583.969 200.446 583.969 200.446 583.969 200.446 584.531 200.723 585.656 201 586.5 201 587.625 201 588.469 200.723 589.312 200.446 606.469 191.034 606.469 191.034 606.469 191.034 607.875 190.203 609 188.266 609 186.605 609 166.672 609 166.672 609 166.672 609 165.011 607.875 163.073 606.469 162.243ZM606.75 186.605C606.75 187.435 605.906 188.542 605.344 189.096 587.906 198.508 587.906 198.508 587.906 198.508 587.344 198.785 585.938 198.785 585.094 198.508 567.938 189.096 567.938 189.096 567.938 189.096 567.094 188.542 566.531 187.435 566.531 186.605 566.531 166.672 566.531 166.672 566.531 166.672 566.531 165.842 567.094 164.734 567.938 164.181 585.094 154.768 585.094 154.768 585.094 154.768 585.375 154.768 585.938 154.492 586.5 154.492 587.062 154.492 587.625 154.768 587.906 154.768 605.344 164.181 605.344 164.181 605.344 164.181 605.906 164.734 606.75 165.842 606.75 166.672L606.75 186.605Z"
       fill="#484848"
       fill-rule="evenodd"
       id="path1"
       style="fill:#ffffff;fill-opacity:1" />
    <path
       d="M586.866 159C586.866 159 578 167.031 578 175.062 578 183.092 581.761 188.354 586.328 188.631 586.328 194.446 586.328 194.446 586.328 194.446 586.328 194.723 586.597 195 586.866 195 587.134 195 587.403 194.723 587.403 194.446 587.403 188.631 587.403 188.631 587.403 188.631 592.239 188.354 596 183.092 596 175.062 596 167.031 586.866 159 586.866 159ZM579.075 175.062C579.075 169.246 583.91 163.708 586.328 161.215 586.328 187.523 586.328 187.523 586.328 187.523 582.03 187.246 579.075 181.985 579.075 175.062ZM587.403 187.523C587.403 161.215 587.403 161.215 587.403 161.215 589.821 163.708 594.925 169.246 594.925 175.062 594.925 181.985 591.701 187.246 587.403 187.523Z"
       fill="#484848"
       fill-rule="evenodd"
       id="path2"
       style="fill:#ffffff;fill-opacity:1" />
  </g>
</svg>
