<svg width="37" height="49" xmlns="http://www.w3.org/2000/svg" xmlns:xlink="http://www.w3.org/1999/xlink" overflow="hidden"><defs><clipPath id="clip0"><rect x="1127" y="163" width="37" height="49"/></clipPath></defs><g clip-path="url(#clip0)" transform="translate(-1127 -163)"><path d="M28.4375 0C6.5625 0 6.5625 0 6.5625 0 3.00781 0 0 2.9375 0 6.40909 0 40.5909 0 40.5909 0 40.5909 0 44.0625 3.00781 47 6.5625 47 28.4375 47 28.4375 47 28.4375 47 31.9922 47 35 44.0625 35 40.5909 35 6.40909 35 6.40909 35 6.40909 35 2.9375 31.9922 0 28.4375 0ZM32.8125 40.5909C32.8125 42.9943 30.8984 44.8636 28.4375 44.8636 6.5625 44.8636 6.5625 44.8636 6.5625 44.8636 4.10156 44.8636 2.1875 42.9943 2.1875 40.5909 2.1875 6.40909 2.1875 6.40909 2.1875 6.40909 2.1875 4.00568 4.10156 2.13636 6.5625 2.13636 28.4375 2.13636 28.4375 2.13636 28.4375 2.13636 30.8984 2.13636 32.8125 4.00568 32.8125 6.40909L32.8125 40.5909Z" fill="#ffffff" fill-rule="evenodd" transform="matrix(-1 0 0 1 1163 164)"/><path d="M21.2727 0C2.72727 0 2.72727 0 2.72727 0 1.36364 0 0 1.5 0 3 0 4.8 1.36364 6 2.72727 6 21.2727 6 21.2727 6 21.2727 6 22.9091 6 24 4.8 24 3 24 1.5 22.9091 0 21.2727 0ZM21.2727 4.8C2.72727 4.8 2.72727 4.8 2.72727 4.8 1.90909 4.8 1.09091 3.9 1.09091 3 1.09091 2.1 1.90909 1.2 2.72727 1.2 21.2727 1.2 21.2727 1.2 21.2727 1.2 22.0909 1.2 22.9091 2.1 22.9091 3 22.9091 3.9 22.0909 4.8 21.2727 4.8Z" fill="#ffffff" fill-rule="evenodd" transform="matrix(-1 0 0 1 1157 172)"/><path d="M21.2727 0C2.72727 0 2.72727 0 2.72727 0 1.36364 0 0 1.25 0 2.5 0 4 1.36364 5 2.72727 5 21.2727 5 21.2727 5 21.2727 5 22.9091 5 24 4 24 2.5 24 1.25 22.9091 0 21.2727 0ZM21.2727 4C2.72727 4 2.72727 4 2.72727 4 1.90909 4 1.09091 3.25 1.09091 2.5 1.09091 1.75 1.90909 1 2.72727 1 21.2727 1 21.2727 1 21.2727 1 22.0909 1 22.9091 1.75 22.9091 2.5 22.9091 3.25 22.0909 4 21.2727 4Z" fill="#ffffff" fill-rule="evenodd" transform="matrix(-1 0 0 1 1157 180)"/><path d="M4.5 0C1.96875 0 0 1.96875 0 4.5 0 7.03125 1.96875 9 4.5 9 7.03125 9 9 7.03125 9 4.5 9 1.96875 7.03125 0 4.5 0ZM4.5 7.875C2.53125 7.875 1.125 6.46875 1.125 4.5 1.125 2.8125 2.53125 1.125 4.5 1.125 6.46875 1.125 7.875 2.8125 7.875 4.5 7.875 6.46875 6.46875 7.875 4.5 7.875Z" fill="#ffffff" fill-rule="evenodd" transform="matrix(-1 0 0 1 1150 193)"/></g></svg>