<?xml version="1.0" encoding="UTF-8" standalone="no"?>
<svg
   id="dms-rocketmq-dark"
   data-name="dms-rocketmq-dark"
   viewBox="0 0 44 38.28"
   width="132px"
   height="132px"
   version="1.1"
   sodipodi:docname="dms-rocketmq.svg"
   inkscape:version="1.4.2 (f4327f4, 2025-05-13)"
   xmlns:inkscape="http://www.inkscape.org/namespaces/inkscape"
   xmlns:sodipodi="http://sodipodi.sourceforge.net/DTD/sodipodi-0.dtd"
   xmlns="http://www.w3.org/2000/svg"
   xmlns:svg="http://www.w3.org/2000/svg"
   xmlns:rdf="http://www.w3.org/1999/02/22-rdf-syntax-ns#"
   xmlns:cc="http://creativecommons.org/ns#"
   xmlns:dc="http://purl.org/dc/elements/1.1/">
  <sodipodi:namedview
     id="namedview1"
     pagecolor="#ffffff"
     bordercolor="#000000"
     borderopacity="0.25"
     inkscape:showpageshadow="2"
     inkscape:pageopacity="0.0"
     inkscape:pagecheckerboard="0"
     inkscape:deskcolor="#d1d1d1"
     showgrid="false"
     inkscape:zoom="8.5833333"
     inkscape:cx="66"
     inkscape:cy="71.475728"
     inkscape:window-width="3440"
     inkscape:window-height="1351"
     inkscape:window-x="-9"
     inkscape:window-y="-9"
     inkscape:window-maximized="1"
     inkscape:current-layer="dms-rocketmq-dark" />
  <defs
     id="defs1">
    <style
       id="style1">.cls-1{fill:#333;}</style>
  </defs>
  <title
     id="title1">Distributed Message Service for High Reliability Messaging</title>
  <path
     class="cls-1"
     d="M34,14a4,4,0,0,1,4,4V35a4,4,0,0,1-4,4H24.7l-2.48,3.82a1,1,0,0,1-1.38.3.92.92,0,0,1-.25-.23l-3-3.89H6a4,4,0,0,1-4-4V18a4,4,0,0,1,4-4Zm0,2H6a2,2,0,0,0-2,1.85V35a2,2,0,0,0,1.85,2H18.53l2.78,3.55L23.61,37H34a2,2,0,0,0,2-1.85V18a2,2,0,0,0-1.85-2ZM20.5,19a1.5,1.5,0,0,1,.19,3l-.17,1.39,3,2.15L27,23.39A1.67,1.67,0,0,1,27,23a2,2,0,1,1,2,2,2,2,0,0,1-1.52-.7l-4,2.38-1,3.07.91,1.33A2.25,2.25,0,0,1,24,31a2,2,0,1,1-1.43.6l-.94-1.36h-4v0L15,31.79A1.48,1.48,0,0,1,15,32a2,2,0,1,1-.37-1.16l2.69-1.61L16.2,25.77l-2.28-2A1.9,1.9,0,0,1,13,24a2,2,0,1,1,2-2,2,2,0,0,1-.33,1.1L17,25.16l2.5-1.81.19-1.58A1.47,1.47,0,0,1,19,20.5,1.5,1.5,0,0,1,20.5,19ZM24,32a1,1,0,1,0,1,1A1,1,0,0,0,24,32ZM13,31a1,1,0,1,0,1,1A1,1,0,0,0,13,31ZM42,5a4,4,0,0,1,4,4V26a4,4,0,0,1-4,4H40V28h2a2,2,0,0,0,2-1.85V9a2,2,0,0,0-1.85-2H14a2,2,0,0,0-2,1.85V12H10V9a4,4,0,0,1,4-4ZM20,24.24l-2.63,1.91,1,3.09h3.24l1-3.08v0ZM29,22a1,1,0,1,0,1,1A1,1,0,0,0,29,22ZM13,21a1,1,0,1,0,1,1A1,1,0,0,0,13,21Zm7.5-1a.5.5,0,1,0,.5.5A.5.5,0,0,0,20.5,20Zm19-11a.5.5,0,0,1,.09,1H17.5a.5.5,0,0,1-.09-1H39.5Z"
     transform="translate(-2 -5)"
     id="path1"
     style="fill:#ffffff;fill-opacity:1"
     inkscape:label="path1" />
  <metadata
     id="metadata1">
    <rdf:RDF>
      <cc:Work
         rdf:about="">
        <dc:title>Distributed Message Service for High Reliability Messaging</dc:title>
      </cc:Work>
    </rdf:RDF>
  </metadata>
</svg>
