<?xml version="1.0" encoding="UTF-8" standalone="no"?>
<svg
   width="48"
   height="47"
   overflow="hidden"
   version="1.1"
   id="svg1"
   sodipodi:docname="dws.svg"
   inkscape:version="1.3.2 (091e20e, 2023-11-25, custom)"
   xmlns:inkscape="http://www.inkscape.org/namespaces/inkscape"
   xmlns:sodipodi="http://sodipodi.sourceforge.net/DTD/sodipodi-0.dtd"
   xmlns="http://www.w3.org/2000/svg"
   xmlns:svg="http://www.w3.org/2000/svg">
  <sodipodi:namedview
     id="namedview1"
     pagecolor="#ffffff"
     bordercolor="#000000"
     borderopacity="0.25"
     inkscape:showpageshadow="2"
     inkscape:pageopacity="0.0"
     inkscape:pagecheckerboard="0"
     inkscape:deskcolor="#d1d1d1"
     inkscape:zoom="38.702128"
     inkscape:cx="24.003848"
     inkscape:cy="23.5"
     inkscape:window-width="3840"
     inkscape:window-height="2054"
     inkscape:window-x="-11"
     inkscape:window-y="-11"
     inkscape:window-maximized="1"
     inkscape:current-layer="g1" />
  <defs
     id="defs1">
    <clipPath
       id="clip0">
      <rect
         x="249"
         y="326"
         width="48"
         height="47"
         id="rect1" />
    </clipPath>
  </defs>
  <g
     clip-path="url(#clip0)"
     transform="translate(-249 -326)"
     id="g1">
    <path
       d="M256.9 366.286C289.1 366.286 289.1 366.286 289.1 366.286 289.1 365.143 289.1 365.143 289.1 365.143 256.9 365.143 256.9 365.143 256.9 365.143L256.9 366.286ZM256.9 354.857C289.1 354.857 289.1 354.857 289.1 354.857 289.1 353.714 289.1 353.714 289.1 353.714 256.9 353.714 256.9 353.714 256.9 353.714L256.9 354.857ZM256.9 360.571C289.1 360.571 289.1 360.571 289.1 360.571 289.1 359.429 289.1 359.429 289.1 359.429 256.9 359.429 256.9 359.429 256.9 359.429L256.9 360.571ZM293.413 337.143C275.587 326.857 275.587 326.857 275.587 326.857 274.15 326 272.138 326 270.7 326.857 252.587 337.143 252.587 337.143 252.587 337.143 251.15 337.714 250 339.714 250 341.429 250 370.857 250 370.857 250 370.857 250 371.429 250.575 372 251.15 372 251.725 372 252.3 371.429 252.3 370.857 252.3 341.429 252.3 341.429 252.3 341.429 252.3 340.571 252.875 339.429 253.738 339.143 271.562 328.857 271.562 328.857 271.562 328.857 272.425 328.571 273.862 328.571 274.438 328.857 292.55 339.143 292.55 339.143 292.55 339.143 293.125 339.429 293.987 340.571 293.987 341.429 293.987 370.857 293.987 370.857 293.987 370.857 293.987 371.429 294.275 372 294.85 372 295.712 372 296 371.429 296 370.857 296 341.429 296 341.429 296 341.429 296 339.714 294.85 337.714 293.413 337.143ZM256.9 343.429C289.1 343.429 289.1 343.429 289.1 343.429 289.1 342.286 289.1 342.286 289.1 342.286 256.9 342.286 256.9 342.286 256.9 342.286L256.9 343.429ZM256.9 349.143C289.1 349.143 289.1 349.143 289.1 349.143 289.1 348 289.1 348 289.1 348 256.9 348 256.9 348 256.9 348L256.9 349.143Z"
       fill="#484848"
       fill-rule="evenodd"
       id="path1"
       style="fill:#ffffff;fill-opacity:1" />
  </g>
</svg>
