<svg width="53" height="39" xmlns="http://www.w3.org/2000/svg" xmlns:xlink="http://www.w3.org/1999/xlink" overflow="hidden"><defs><clipPath id="clip0"><rect x="318" y="345" width="53" height="39"/></clipPath></defs><g clip-path="url(#clip0)" transform="translate(-318 -345)"><path d="M351 367.5C351 366.672 351.895 366 353 366 354.105 366 355 366.672 355 367.5 355 368.328 354.105 369 353 369 351.895 369 351 368.328 351 367.5Z" fill="#ffffff" fill-rule="evenodd"/><path d="M355.412 376C331.588 376 331.588 376 331.588 376 331.294 376 331 376.25 331 376.5 331 376.75 331.294 377 331.588 377 355.412 377 355.412 377 355.412 377 356 377 356 376.75 356 376.5 356 376.25 356 376 355.412 376Z" fill="#ffffff" fill-rule="evenodd"/><path d="M352.75 362C335.25 362 335.25 362 335.25 362 332.333 362 330 364.444 330 367.5 330 370.556 332.333 373 335.25 373 352.75 373 352.75 373 352.75 373 355.667 373 358 370.556 358 367.5 358 364.444 355.667 362 352.75 362ZM352.75 371.778C335.25 371.778 335.25 371.778 335.25 371.778 332.917 371.778 331.167 369.944 331.167 367.5 331.167 365.056 332.917 363.222 335.25 363.222 352.75 363.222 352.75 363.222 352.75 363.222 355.083 363.222 356.833 365.056 356.833 367.5 356.833 369.944 355.083 371.778 352.75 371.778Z" fill="#ffffff" fill-rule="evenodd"/><path d="M357.295 355.25C355.523 350.047 350.205 346 344 346 337.795 346 332.477 350.047 330.705 355.25 323.614 356.117 318 361.898 318 369.125 318 376.93 324.5 383 332.182 383 355.818 383 355.818 383 355.818 383 363.795 383 370 376.93 370 369.125 370 361.898 364.386 356.117 357.295 355.25ZM355.818 380.688C332.182 380.688 332.182 380.688 332.182 380.688 325.682 380.688 320.364 375.484 320.364 369.125 320.364 363.344 324.795 358.43 331 357.562 331.886 357.562 332.477 356.984 332.773 356.117 334.545 351.492 338.977 348.312 344 348.312 349.023 348.312 353.455 351.492 355.227 356.117 355.523 356.984 356.114 357.562 357.295 357.562 363.205 358.43 367.636 363.344 367.636 369.125 367.636 375.484 362.318 380.688 355.818 380.688Z" fill="#ffffff" fill-rule="evenodd"/></g></svg>