<?xml version="1.0" encoding="UTF-8" standalone="no"?>
<svg
   width="50"
   height="49"
   overflow="hidden"
   version="1.1"
   id="svg1"
   sodipodi:docname="elb.svg"
   inkscape:version="1.3.2 (091e20e, 2023-11-25, custom)"
   xmlns:inkscape="http://www.inkscape.org/namespaces/inkscape"
   xmlns:sodipodi="http://sodipodi.sourceforge.net/DTD/sodipodi-0.dtd"
   xmlns="http://www.w3.org/2000/svg"
   xmlns:svg="http://www.w3.org/2000/svg">
  <sodipodi:namedview
     id="namedview1"
     pagecolor="#ffffff"
     bordercolor="#000000"
     borderopacity="0.25"
     inkscape:showpageshadow="2"
     inkscape:pageopacity="0.0"
     inkscape:pagecheckerboard="0"
     inkscape:deskcolor="#d1d1d1"
     inkscape:zoom="23.204082"
     inkscape:cx="25.01715"
     inkscape:cy="24.5"
     inkscape:window-width="3440"
     inkscape:window-height="1351"
     inkscape:window-x="-9"
     inkscape:window-y="-9"
     inkscape:window-maximized="1"
     inkscape:current-layer="svg1" />
  <defs
     id="defs1">
    <clipPath
       id="clip0">
      <rect
         x="368"
         y="163"
         width="50"
         height="49"
         id="rect1" />
    </clipPath>
  </defs>
  <g
     clip-path="url(#clip0)"
     transform="translate(-368 -163)"
     id="g1"
     style="fill:#ffffff;fill-opacity:1">
    <path
       d="M413.659 193.818C413.381 193.818 413.102 193.818 412.824 194.091 395.284 169.273 395.284 169.273 395.284 169.273 396.119 168.455 396.398 167.636 396.398 166.818 396.398 164.636 394.727 163 392.5 163 390.273 163 388.324 164.636 388.324 166.818 388.324 167.636 388.881 168.727 389.438 169.273 372.176 194.091 372.176 194.091 372.176 194.091 371.898 194.091 371.619 193.818 371.341 193.818 369.392 193.818 368 195.182 368 197.091 368 198.727 369.392 200.091 371.341 200.091 371.619 200.091 372.176 200.091 372.455 199.818 388.602 207.455 388.602 207.455 388.602 207.455 388.602 209.364 390.273 211 392.5 211 394.449 211 396.398 209.364 396.398 207.455 412.267 200.091 412.267 200.091 412.267 200.091 412.824 200.091 413.102 200.091 413.659 200.091 415.33 200.091 417 198.727 417 197.091 417 195.182 415.33 193.818 413.659 193.818ZM410.318 197.091C410.318 197.364 410.318 197.636 410.597 197.909 395.562 205 395.562 205 395.562 205 395.006 204.182 394.449 203.909 393.614 203.636 393.614 170.364 393.614 170.364 393.614 170.364 393.892 170.091 394.17 170.091 394.449 170.091 411.432 194.636 411.432 194.636 411.432 194.636 410.875 195.182 410.318 196 410.318 197.091ZM390.551 170.091C390.83 170.091 390.83 170.364 391.108 170.364 391.108 203.636 391.108 203.636 391.108 203.636 390.273 203.909 389.716 204.182 389.159 205 374.403 197.909 374.403 197.909 374.403 197.909 374.403 197.636 374.682 197.364 374.682 197.091 374.682 196 374.125 195.182 373.29 194.636L390.551 170.091ZM369.114 197.091C369.114 196 370.227 195.182 371.341 195.182 372.455 195.182 373.29 196 373.29 197.091 373.29 198.182 372.455 199 371.341 199 370.227 199 369.114 198.182 369.114 197.091ZM392.5 209.636C390.83 209.636 389.716 208.545 389.716 207.182 389.716 205.818 390.83 204.727 392.5 204.727 393.892 204.727 395.006 205.818 395.006 207.182 395.006 208.545 393.892 209.636 392.5 209.636ZM413.659 199C412.545 199 411.71 198.182 411.71 197.091 411.71 196 412.545 195.182 413.659 195.182 414.773 195.182 415.608 196 415.608 197.091 415.608 198.182 414.773 199 413.659 199Z"
       fill="#484848"
       fill-rule="evenodd"
       id="path1"
       style="fill:#ffffff;fill-opacity:1" />
  </g>
</svg>
