<svg width="34" height="46" xmlns="http://www.w3.org/2000/svg" xmlns:xlink="http://www.w3.org/1999/xlink" overflow="hidden"><defs><clipPath id="clip0"><rect x="491" y="502" width="34" height="46"/></clipPath></defs><g clip-path="url(#clip0)" transform="translate(-491 -502)"><path d="M496 508.5C496 507.672 496.672 507 497.5 507 498.328 507 499 507.672 499 508.5 499 509.328 498.328 510 497.5 510 496.672 510 496 509.328 496 508.5Z" fill="#ffffff" fill-rule="evenodd"/><path d="M517 508.5C517 507.672 517.672 507 518.5 507 519.328 507 520 507.672 520 508.5 520 509.328 519.328 510 518.5 510 517.672 510 517 509.328 517 508.5Z" fill="#ffffff" fill-rule="evenodd"/><path d="M511.75 522.12C511.25 520.2 509.5 519 507.5 519 505.25 519 503.75 520.2 503 522.12 500.75 522.36 499 524.04 499 526.44 499 528.84 501 531 503.5 531 511.25 531 511.25 531 511.25 531 513.75 531 516 528.84 516 526.44 516 524.04 514 522.36 511.75 522.12ZM511.25 530.04C503.5 530.04 503.5 530.04 503.5 530.04 501.5 530.04 500 528.36 500 526.44 500 524.76 501.25 523.08 503.25 523.08 503.5 522.84 503.75 522.6 504 522.36 504.5 520.92 505.75 519.96 507.5 519.96 509 519.96 510.25 520.92 510.75 522.36 511 522.6 511.25 522.84 511.75 523.08 513.5 523.08 515 524.76 515 526.44 515 528.36 513.25 530.04 511.25 530.04Z" fill="#ffffff" fill-rule="evenodd"/><path d="M517.812 503C497.188 503 497.188 503 497.188 503 493.578 503 491 505.75 491 509 491 541 491 541 491 541 491 544.25 493.578 547 497.188 547 517.812 547 517.812 547 517.812 547 521.164 547 524 544.25 524 541 524 509 524 509 524 509 524 505.75 521.164 503 517.812 503ZM521.68 541C521.68 543.25 519.875 545 517.812 545 497.188 545 497.188 545 497.188 545 494.867 545 493.062 543.25 493.062 541 493.062 509 493.062 509 493.062 509 493.062 506.75 494.867 505 497.188 505 517.812 505 517.812 505 517.812 505 519.875 505 521.68 506.75 521.68 509L521.68 541Z" fill="#ffffff" fill-rule="evenodd"/></g></svg>