<?xml version="1.0" encoding="UTF-8" standalone="no"?>
<svg
   version="1.1"
   id="图层_1"
   x="0px"
   y="0px"
   viewBox="0 0 48 48"
   style="enable-background:new 0 0 48 48;"
   xml:space="preserve"
   width="132px"
   height="132px"
   sodipodi:docname="fg.svg"
   inkscape:version="1.3.2 (091e20e, 2023-11-25, custom)"
   xmlns:inkscape="http://www.inkscape.org/namespaces/inkscape"
   xmlns:sodipodi="http://sodipodi.sourceforge.net/DTD/sodipodi-0.dtd"
   xmlns="http://www.w3.org/2000/svg"
   xmlns:svg="http://www.w3.org/2000/svg"><defs
   id="defs1" /><sodipodi:namedview
   id="namedview1"
   pagecolor="#ffffff"
   bordercolor="#000000"
   borderopacity="0.25"
   inkscape:showpageshadow="2"
   inkscape:pageopacity="0.0"
   inkscape:pagecheckerboard="0"
   inkscape:deskcolor="#d1d1d1"
   inkscape:zoom="8.6136364"
   inkscape:cx="65.941953"
   inkscape:cy="66"
   inkscape:window-width="3440"
   inkscape:window-height="1351"
   inkscape:window-x="-9"
   inkscape:window-y="-9"
   inkscape:window-maximized="1"
   inkscape:current-layer="图层_1" />
<style
   type="text/css"
   id="style1">
	.st0{fill:#060001;}
	.st1{fill:#040000;}
	.st2{fill:none;stroke:#000000;stroke-miterlimit:10;}
	.st3{fill:#221815;}
	.st4{fill:#080102;}
	.st5{fill:none;stroke:#000000;stroke-width:2;stroke-linecap:round;stroke-linejoin:round;stroke-miterlimit:10;}
	.st6{fill:#070001;}
</style>
<path
   class="st1"
   d="M34.2,23H23.8c-2.4,0-4.3,2-4.3,4.5c0,0.3,0.2,0.5,0.5,0.5s0.5-0.2,0.5-0.5c0-1.9,1.5-3.5,3.3-3.5h10.4&#10;	c1.8,0,3.3,1.6,3.3,3.5S36,31,34.2,31h-4.7c-0.3,0-0.5,0.2-0.5,0.5s0.2,0.5,0.5,0.5h4.7c2.4,0,4.3-2,4.3-4.5S36.6,23,34.2,23z&#10;	 M28,27c-0.3,0-0.5,0.2-0.5,0.5c0,1.9-1.5,3.5-3.3,3.5H13.8c-1.8,0-3.3-1.6-3.3-3.5S12,24,13.8,24h4.7c0.3,0,0.5-0.2,0.5-0.5&#10;	S18.8,23,18.5,23h-4.7c-2.4,0-4.3,2-4.3,4.5s1.9,4.5,4.3,4.5h10.4c2.4,0,4.3-2,4.3-4.5C28.5,27.2,28.3,27,28,27z M35.3,16.1&#10;	C33.7,11.4,29.3,8,24,8s-9.7,3.4-11.3,8.1C6.7,16.7,2,21.8,2,28c0,6.6,5.4,12,12,12h20c6.6,0,12-5.4,12-12&#10;	C46,21.8,41.3,16.7,35.3,16.1z M34,38H14C8.5,38,4,33.5,4,28c0-5.1,3.8-9.4,8.9-9.9c0.8-0.1,1.4-0.6,1.7-1.3c1.4-4,5.2-6.7,9.4-6.7&#10;	c4.3,0,8,2.7,9.4,6.7c0.3,0.7,0.9,1.2,1.7,1.3c5.1,0.6,8.9,4.8,8.9,9.9C44,33.5,39.5,38,34,38z"
   id="path1"
   style="fill:#ffffff;fill-opacity:1" />
</svg>
