<?xml version="1.0" encoding="UTF-8" standalone="no"?>
<!-- Generator: Adobe Illustrator 28.1.0, SVG Export Plug-In . SVG Version: 6.00 Build 0)  -->

<svg
   version="1.1"
   id="Ebene_1"
   x="0px"
   y="0px"
   viewBox="0 0 2267.7 1530.7"
   style="enable-background:new 0 0 2267.7 1530.7;"
   xml:space="preserve"
   sodipodi:docname="intdocs.svg"
   inkscape:version="1.3.2 (091e20e, 2023-11-25, custom)"
   xmlns:inkscape="http://www.inkscape.org/namespaces/inkscape"
   xmlns:sodipodi="http://sodipodi.sourceforge.net/DTD/sodipodi-0.dtd"
   xmlns="http://www.w3.org/2000/svg"
   xmlns:svg="http://www.w3.org/2000/svg"><defs
   id="defs1" /><sodipodi:namedview
   id="namedview1"
   pagecolor="#ffffff"
   bordercolor="#000000"
   borderopacity="0.25"
   inkscape:showpageshadow="2"
   inkscape:pageopacity="0.0"
   inkscape:pagecheckerboard="0"
   inkscape:deskcolor="#d1d1d1"
   inkscape:zoom="0.74279744"
   inkscape:cx="1133.5526"
   inkscape:cy="765.34998"
   inkscape:window-width="3440"
   inkscape:window-height="1351"
   inkscape:window-x="-9"
   inkscape:window-y="-9"
   inkscape:window-maximized="1"
   inkscape:current-layer="Ebene_1" />
<style
   type="text/css"
   id="style1">
	.st0{fill:#454545;}
</style>
<path
   class="st0"
   d="M1311,107.7c135.2,0,255.6,43.6,360.3,131.7c91.8,77.3,150.7,175.7,178.9,292.4c3.6,14.8,6.3,29.9,9.1,44.9  c0.9,4.6,2.6,7.3,7.6,8.4c30.4,7,60.6,14.8,88.8,28.7c96.4,47.7,157.5,123.8,183,228.2c6.7,27.3,9.3,55.1,8.4,83.2  c-5.5,161.8-122.9,288.8-269.1,318c-21.8,4.4-43.8,7.1-66,7.1c-4.2,0-8.4-0.1-12.6-0.3c-15.6-0.7-31.2-3.1-46.8-4.1  c-0.2,0-0.4,0-0.6,0c-3,0-6.8,1.5-8.8,3.5c-21.4,22-43.6,43-69.6,59.8c-41.4,26.7-86.4,43.7-135.3,50.1c-15.2,2-30.2,3-45,3  c-51.5,0-101-12.1-148.2-36c-5.4-2.8-10.1-4.1-14.7-4.1c-5.8,0-11.2,2.1-17.5,6c-45.3,28.4-93.7,50.1-144.8,65.9  c-38.1,11.8-76.9,21-116.6,24.3c-26.4,2.2-53,4.5-79.4,4.5c-4.3,0-8.5-0.1-12.7-0.2c-144.5-4.5-273.8-51.4-386.8-142.1  c-16.2-13-31.4-27.2-46.8-41.1c-2.3-2-4.3-3.1-7-3.1c-0.8,0-1.6,0.1-2.6,0.3c-20.7,3.9-41.4,8.7-62.3,10.4  c-7.6,0.6-15.3,0.9-23.1,0.9c-11.8,0-23.7-0.7-35.5-1.8c-35.1-3.4-68.8-13-100.3-29c-88.5-44.8-144.9-115.3-167.5-212.1  c-5.7-24.6-8.1-49.6-7-74.9c5.9-144.9,110.5-262.1,245.3-290.8c11-2.3,21.9-5.1,33-6.8c6.2-1,7.4-4.3,8.3-9.6  c4.1-22.7,6.5-46,13.5-67.9c33.1-104.7,103.8-170.9,209.5-200c9.8-2.7,20-4.7,30.1-5.9c13.4-1.7,26.8-2.3,40.3-3.4  c38.2,0.4,74.7,8.7,110.2,22c5.5,2,11.3,3.3,16.5,5.8c1.8,0.9,3.4,1.3,4.7,1.3c3,0,5-2,7.4-5.4c12.2-17.5,24.3-35.2,37.6-51.9  c82.2-102.4,187.4-168.3,315.5-197.4c31-7,62.5-11.1,94.3-12.3C1295,107.9,1303,107.7,1311,107.7 M1311,7.7  C1311,7.7,1311,7.7,1311,7.7c-9.2,0-18.6,0.2-27.9,0.5c-38.3,1.4-76.2,6.4-112.7,14.7c-150.1,34.1-275,112.3-371.3,232.3  c-0.9,1.1-1.8,2.3-2.7,3.4c-32-8.2-63.3-12.4-94.7-12.7c-0.3,0-0.7,0-1,0c-2.7,0-5.4,0.1-8.1,0.3c-3.5,0.3-7.2,0.6-11.1,0.8  c-10.1,0.7-21.5,1.5-33.5,3c-15.2,1.9-30.1,4.8-44.2,8.7c-68.9,18.9-127.5,51.1-174.3,95.5c-47.5,45.1-82.5,102.5-104,170.7  c-2.5,7.8-4.5,15.5-6.2,23c-34.7,9.8-67.9,24.1-99,42.8C182,613.7,148,642.4,119,676.2c-29.3,34.2-52.7,72.7-69.4,114.4  c-17.3,43.2-27,88.8-28.9,135.7c-1.4,34.3,1.8,68.5,9.6,101.7c14.6,62.5,40.9,118,78,165c36.8,46.5,84.5,84.7,141.7,113.7  c42.4,21.5,88.1,34.7,135.9,39.3c15.6,1.5,30.8,2.3,45.1,2.3c10.7,0,21.2-0.4,31.3-1.3c10.2-0.8,20-2.2,29.4-3.7  c5.9,5.1,12,10.3,18.5,15.5c129.1,103.7,279.2,158.9,446.3,164.1c5.2,0.2,10.5,0.2,15.9,0.2c28.6,0,55.7-2.2,81.9-4.4l5.8-0.5  c43-3.5,86.8-12.6,138-28.4c48.3-15,94.3-34.5,137.1-58.3c50.8,20.5,104,30.9,158.4,30.9c19.1,0,38.7-1.3,58.1-3.9  c62.8-8.3,122.1-30.2,176.4-65.2c21.2-13.7,39.9-28.9,56.4-44c3.4,0.3,6.9,0.5,10.5,0.7c5.7,0.3,11.5,0.4,17.3,0.4  c27.4,0,55.4-2.9,85.6-9c47.1-9.4,92.1-26.6,133.9-51.1c41.2-24.2,78-54.7,109.3-90.7c31.9-36.8,57.3-78.2,75.3-123.3  c18.8-46.9,29.2-96.5,30.9-147.6c1.3-37.7-2.5-74.8-11.2-110.4c-16.2-66.2-44.5-124.8-84.1-174.2c-39.6-49.3-90.6-89.7-151.8-119.9  c-18.2-9-36.4-15.9-54.1-21.5c-34.3-136.7-105-251-210.3-339.7C1613.4,59.9,1470.5,7.7,1311,7.7L1311,7.7z"
   id="path1"
   style="fill:#ffffff;fill-opacity:1" />
</svg>
