<?xml version="1.0" encoding="UTF-8" standalone="no"?>
<svg
   width="49"
   height="54"
   overflow="hidden"
   version="1.1"
   id="svg1"
   sodipodi:docname="kms.svg"
   inkscape:version="1.3.2 (091e20e, 2023-11-25, custom)"
   xmlns:inkscape="http://www.inkscape.org/namespaces/inkscape"
   xmlns:sodipodi="http://sodipodi.sourceforge.net/DTD/sodipodi-0.dtd"
   xmlns="http://www.w3.org/2000/svg"
   xmlns:svg="http://www.w3.org/2000/svg">
  <sodipodi:namedview
     id="namedview1"
     pagecolor="#ffffff"
     bordercolor="#000000"
     borderopacity="0.25"
     inkscape:showpageshadow="2"
     inkscape:pageopacity="0.0"
     inkscape:pagecheckerboard="0"
     inkscape:deskcolor="#d1d1d1"
     inkscape:zoom="21.055556"
     inkscape:cx="24.48285"
     inkscape:cy="27"
     inkscape:window-width="3440"
     inkscape:window-height="1351"
     inkscape:window-x="-9"
     inkscape:window-y="-9"
     inkscape:window-maximized="1"
     inkscape:current-layer="svg1" />
  <defs
     id="defs1">
    <clipPath
       id="clip0">
      <rect
         x="650"
         y="503"
         width="49"
         height="54"
         id="rect1" />
    </clipPath>
  </defs>
  <g
     clip-path="url(#clip0)"
     transform="translate(-650 -503)"
     id="g1"
     style="fill:#ffffff;fill-opacity:1">
    <path
       d="M674.652 514.636C669.783 514.636 666.13 518.477 666.13 522.909 666.13 527.636 669.783 531.182 674.652 531.182 679.217 531.182 683.174 527.636 683.174 522.909 683.174 518.477 679.217 514.636 674.652 514.636ZM674.652 530C670.696 530 667.348 526.75 667.348 522.909 667.348 519.068 670.696 515.818 674.652 515.818 678.609 515.818 681.957 519.068 681.957 522.909 681.957 526.75 678.609 530 674.652 530ZM674.043 545.364C675.261 545.364 675.261 545.364 675.261 545.364 675.261 543 675.261 543 675.261 543 679.522 543 679.522 543 679.522 543 679.522 541.818 679.522 541.818 679.522 541.818 675.261 541.818 675.261 541.818 675.261 541.818 675.261 539.455 675.261 539.455 675.261 539.455 679.522 539.455 679.522 539.455 679.522 539.455 679.522 538.273 679.522 538.273 679.522 538.273 675.261 538.273 675.261 538.273 675.261 538.273 675.261 531.182 675.261 531.182 675.261 531.182 674.652 531.182 674.652 531.182 674.652 531.182 674.043 531.182 674.043 531.182 674.043 531.182L674.043 545.364ZM696.261 514.045C693.826 513.159 688.652 511.682 686.217 510.5 681.043 507.841 678.913 506.068 677.087 504.886 676.478 504.295 675.565 504 674.652 504 674.652 504 674.652 504 674.652 504 674.652 504 674.652 504 674.652 504 673.739 504 672.826 504.295 671.913 504.886 670.087 506.068 668.261 507.841 663.087 510.5 660.348 511.682 655.478 513.159 652.739 514.045 651.217 514.636 650 516.114 650.304 517.886 650.609 522.909 652.13 533.545 655.478 540.045 659.13 547.432 668.87 553.341 672.522 555.409 673.13 556 674.043 556 674.652 556 675.261 556 675.87 556 676.478 555.409 680.435 553.341 689.87 547.432 693.826 540.045 697.174 533.545 698.391 522.909 699 517.886 699 516.114 698.087 514.636 696.261 514.045ZM691.696 538.864C689.261 543.591 683.783 548.614 675.261 553.341 674.957 553.636 674.652 553.636 674.652 553.636 674.348 553.636 674.043 553.636 674.043 553.341 665.522 548.614 660.043 543.591 657.609 538.864 654.261 532.364 653.043 520.841 652.739 517.591 652.739 516.705 653.348 516.409 653.652 516.409 654.565 516.114 654.565 516.114 654.565 516.114 657.304 514.932 661.565 513.75 664 512.568 668.87 510.205 671 508.432 672.826 507.25 673.13 506.955 673.13 506.955 673.435 506.659 673.739 506.659 674.043 506.364 674.348 506.364 674.348 506.364 674.348 506.364 674.348 506.364 674.652 506.364 674.652 506.364 674.652 506.364 674.652 506.364 674.652 506.364 674.652 506.364 675.261 506.364 675.565 506.659 675.565 506.659 675.87 506.955 676.174 506.955 676.478 507.25 678.304 508.432 680.435 510.205 685 512.568 687.435 513.75 691.696 514.932 694.739 516.114 695.652 516.409 695.652 516.409 695.652 516.409 695.652 516.409 696.565 516.705 696.565 517.591 696.261 520.841 695.043 532.364 691.696 538.864Z"
       fill="#484848"
       fill-rule="evenodd"
       id="path1"
       style="fill:#ffffff;fill-opacity:1" />
  </g>
</svg>
