<?xml version="1.0" encoding="UTF-8" standalone="no"?>
<svg
   width="61"
   height="46"
   overflow="hidden"
   version="1.1"
   id="svg1"
   sodipodi:docname="obs.svg"
   inkscape:version="1.3.2 (091e20e, 2023-11-25, custom)"
   xmlns:inkscape="http://www.inkscape.org/namespaces/inkscape"
   xmlns:sodipodi="http://sodipodi.sourceforge.net/DTD/sodipodi-0.dtd"
   xmlns="http://www.w3.org/2000/svg"
   xmlns:svg="http://www.w3.org/2000/svg">
  <sodipodi:namedview
     id="namedview1"
     pagecolor="#ffffff"
     bordercolor="#000000"
     borderopacity="0.25"
     inkscape:showpageshadow="2"
     inkscape:pageopacity="0.0"
     inkscape:pagecheckerboard="0"
     inkscape:deskcolor="#d1d1d1"
     inkscape:zoom="24.717391"
     inkscape:cx="30.484609"
     inkscape:cy="23"
     inkscape:window-width="3440"
     inkscape:window-height="1351"
     inkscape:window-x="-9"
     inkscape:window-y="-9"
     inkscape:window-maximized="1"
     inkscape:current-layer="g1" />
  <defs
     id="defs1">
    <clipPath
       id="clip0">
      <rect
         x="858"
         y="329"
         width="61"
         height="46"
         id="rect1" />
    </clipPath>
  </defs>
  <g
     clip-path="url(#clip0)"
     transform="translate(-858 -329)"
     id="g1">
    <path
       d="m 903.98832,341 c -2.386,-6.188 -8.182,-11 -15.341,-11 -7.159,0 -13.295,4.812 -15.682,11 -8.182,1.031 -14.318,7.906 -14.318,16.5 0,9.281 7.159,16.5 16.364,16.5 27.272,0 27.272,0 27.272,0 8.864,0 16.364,-7.219 16.364,-16.5 0,-8.594 -6.477,-15.469 -14.659,-16.5 z m -20.114,19.25 c 0,-0.688 0,-0.688 0,-0.688 -7.5,0 -7.5,0 -7.5,0 -0.682,0 -0.682,0 -1.022,0 0,0 0.34,-0.343 0.681,-0.687 10.909,-11.344 10.909,-11.344 10.909,-11.344 0.341,-0.343 1.023,-0.687 1.705,-0.687 0.341,0 1.023,0.344 1.364,0.687 10.909,11.344 10.909,11.344 10.909,11.344 0.341,0.344 0.341,0.687 0.341,0.687 0,0 -0.341,0 -0.682,0 -7.159,0 -7.159,0 -7.159,0 0,0.688 0,0.688 0,0.688 0,0.688 0,0.688 0,0.688 0,10.312 0,10.312 0,10.312 -9.546,0 -9.546,0 -9.546,0 0,-10.312 0,-10.312 0,-10.312 z m 18.409,11 c -7.5,0 -7.5,0 -7.5,0 0,-10.312 0,-10.312 0,-10.312 5.796,0 5.796,0 5.796,0 1.363,0 1.704,-0.688 1.704,-1.032 0.341,-0.344 0.341,-1.031 -0.681,-2.062 -10.569,-11.344 -10.569,-11.344 -10.569,-11.344 -0.681,-0.344 -1.704,-1.031 -2.386,-1.031 0,0 0,0 -0.341,0 -0.682,0 -1.704,0.687 -2.386,1.031 -10.909,11.344 -10.909,11.344 -10.909,11.344 -1.023,1.031 -1.023,1.718 -0.682,2.062 0,0.344 0.682,1.032 2.045,1.032 6.137,0 6.137,0 6.137,0 0,10.312 0,10.312 0,10.312 -7.5,0 -7.5,0 -7.5,0 -7.5,0 -13.637,-6.188 -13.637,-13.75 0,-6.875 5.114,-12.719 11.932,-13.75 1.023,0 2.046,-0.688 2.386,-1.719 1.705,-5.5 7.16,-9.281 12.955,-9.281 5.795,0 10.909,3.781 12.614,9.281 0.341,1.031 1.363,1.719 2.386,1.719 6.818,1.031 12.273,6.875 12.273,13.75 0,7.562 -6.137,13.75 -13.637,13.75 z"
       fill="#484848"
       fill-rule="evenodd"
       id="path1"
       style="fill:#ffffff;fill-opacity:1" />
  </g>
</svg>
