<?xml version="1.0" encoding="UTF-8" standalone="no"?>
<svg
   version="1.1"
   x="0px"
   y="0px"
   viewBox="0 0 48 48"
   style="enable-background:new 0 0 48 48;"
   xml:space="preserve"
   id="svg1"
   sodipodi:docname="ocr.svg"
   inkscape:version="1.3.2 (091e20e, 2023-11-25, custom)"
   xmlns:inkscape="http://www.inkscape.org/namespaces/inkscape"
   xmlns:sodipodi="http://sodipodi.sourceforge.net/DTD/sodipodi-0.dtd"
   xmlns="http://www.w3.org/2000/svg"
   xmlns:svg="http://www.w3.org/2000/svg"><defs
     id="defs1" /><sodipodi:namedview
     id="namedview1"
     pagecolor="#ffffff"
     bordercolor="#000000"
     borderopacity="0.25"
     inkscape:showpageshadow="2"
     inkscape:pageopacity="0.0"
     inkscape:pagecheckerboard="0"
     inkscape:deskcolor="#d1d1d1"
     inkscape:zoom="37.895833"
     inkscape:cx="23.986806"
     inkscape:cy="24"
     inkscape:window-width="3840"
     inkscape:window-height="2054"
     inkscape:window-x="-11"
     inkscape:window-y="-11"
     inkscape:window-maximized="1"
     inkscape:current-layer="svg1" /><path
     d=" M17.5,19h1c0.3,0,0.5-0.2,0.5-0.5S18.8,18,18.5,18h-1c-0.3,0-0.5,0.2-0.5,0.5S17.2,19,17.5,19z M17.5,23h1 c0.3,0,0.5-0.2,0.5-0.5S18.8,22,18.5,22h-1c-0.3,0-0.5,0.2-0.5,0.5S17.2,23,17.5,23z M21.5,19h9c0.3,0,0.5-0.2,0.5-0.5 S30.8,18,30.5,18h-9c-0.3,0-0.5,0.2-0.5,0.5S21.2,19,21.5,19z M19.5,30h-3.4c-0.6,0-1.1-0.5-1.1-1.1v-3.4c0-0.3-0.2-0.5-0.5-0.5 S14,25.2,14,25.5v3.4c0,1.2,0.9,2.1,2.1,2.1h3.4c0.3,0,0.5-0.2,0.5-0.5S19.8,30,19.5,30z M31,22.5c0-0.3-0.2-0.5-0.5-0.5h-9 c-0.3,0-0.5,0.2-0.5,0.5s0.2,0.5,0.5,0.5h9C30.8,23,31,22.8,31,22.5z M19.5,10h-3.4c-1.2,0-2.1,0.9-2.1,2.1v3.4c0,0.3,0.2,0.5,0.5,0.5s0.5-0.2,0.5-0.5v-3.4c0-0.6,0.5-1.1,1.1-1.1h3.4c0.3,0,0.5-0.2,0.5-0.5S19.8,10,19.5,10z M31.9,10h-3.4 c-0.3,0-0.5,0.2-0.5,0.5s0.2,0.5,0.5,0.5h3.4c0.6,0,1.1,0.5,1.1,1.1v3.4c0,0.3,0.2,0.5,0.5,0.5s0.5-0.2,0.5-0.5v-3.4 C34,10.9,33.1,10,31.9,10z M38,2H10C7.8,2,6,3.8,6,6v28c4.7,4.7,7.3,7.3,12,12h20c2.2,0,4-1.8,4-4V6C42,3.8,40.2,2,38,2z M18,43.2 l-4.6-4.6L8.8,34h6.7c1.4,0,2.5,1.1,2.5,2.5V43.2z M40,42c0,1.1-0.9,2-2,2H19v-7.5c0-1.9-1.6-3.5-3.5-3.5H8V6c0-1.1,0.9-2,2-2h28 c1.1,0,2,0.9,2,2V42z M33.5,25c-0.3,0-0.5,0.2-0.5,0.5v3.4c0,0.6-0.5,1.1-1.1,1.1h-3.4c-0.3,0-0.5,0.2-0.5,0.5s0.2,0.5,0.5,0.5h3.4 c1.2,0,2.1-0.9,2.1-2.1v-3.4C34,25.2,33.8,25,33.5,25z"
     style="fill:#ffffff;fill-opacity:1"
     id="path1" /></svg>
