<?xml version="1.0" encoding="UTF-8" standalone="no"?>
<svg
   width="51"
   height="50"
   overflow="hidden"
   version="1.1"
   id="svg1"
   sodipodi:docname="opengauss.svg"
   inkscape:version="1.3.2 (091e20e, 2023-11-25, custom)"
   xmlns:inkscape="http://www.inkscape.org/namespaces/inkscape"
   xmlns:sodipodi="http://sodipodi.sourceforge.net/DTD/sodipodi-0.dtd"
   xmlns="http://www.w3.org/2000/svg"
   xmlns:svg="http://www.w3.org/2000/svg">
  <sodipodi:namedview
     id="namedview1"
     pagecolor="#ffffff"
     bordercolor="#000000"
     borderopacity="0.25"
     inkscape:showpageshadow="2"
     inkscape:pageopacity="0.0"
     inkscape:pagecheckerboard="0"
     inkscape:deskcolor="#d1d1d1"
     inkscape:zoom="36.38"
     inkscape:cx="25.508521"
     inkscape:cy="25"
     inkscape:window-width="3840"
     inkscape:window-height="2054"
     inkscape:window-x="-11"
     inkscape:window-y="-11"
     inkscape:window-maximized="1"
     inkscape:current-layer="g1" />
  <defs
     id="defs1">
    <clipPath
       id="clip0">
      <rect
         x="277"
         y="152"
         width="51"
         height="50"
         id="rect1" />
    </clipPath>
  </defs>
  <g
     clip-path="url(#clip0)"
     transform="translate(-277 -152)"
     id="g1">
    <path
       d="M324.216 177.469C315.585 172.486 315.585 172.486 315.585 172.486 315.585 161.966 315.585 161.966 315.585 161.966 315.585 160.305 314.193 158.09 312.523 156.983 305.562 153.107 305.562 153.107 305.562 153.107 303.892 152 301.386 152 299.716 153.107 292.477 156.983 292.477 156.983 292.477 156.983 290.807 158.09 289.693 160.305 289.693 161.966 289.693 172.486 289.693 172.486 289.693 172.486 281.062 177.469 281.062 177.469 281.062 177.469 279.392 178.576 278 180.791 278 182.452 278 191.311 278 191.311 278 191.311 278 193.249 279.392 195.186 281.062 196.294 288.023 200.446 288.023 200.446 288.023 200.446 288.858 200.723 289.972 201 291.085 201 291.92 201 293.034 200.723 293.869 200.446 302.5 195.463 302.5 195.463 302.5 195.463 311.409 200.446 311.409 200.446 311.409 200.446 312.244 200.723 313.08 201 314.193 201 315.307 201 316.142 200.723 316.977 200.446 324.216 196.294 324.216 196.294 324.216 196.294 325.886 195.463 327 193.249 327 191.311 327 182.452 327 182.452 327 182.452 327 180.791 325.886 178.576 324.216 177.469ZM302.5 193.802C302.5 193.802 302.5 193.802 302.5 193.802 302.5 193.802 302.5 193.802 302.5 193.802ZM293.869 159.198C300.83 155.322 300.83 155.322 300.83 155.322 301.665 154.768 303.335 154.768 304.17 155.322 311.409 159.198 311.409 159.198 311.409 159.198 312.244 159.751 312.801 161.136 312.801 161.966 312.801 173.316 312.801 173.316 312.801 173.316 304.449 178.023 304.449 178.023 304.449 178.023 304.449 178.023 304.449 178.023 304.449 178.023 303.892 177.746 303.335 177.192 302.5 177.192 301.943 177.192 301.108 177.746 300.83 178.023 300.83 178.023 300.83 178.023 300.83 178.023 300.551 178.023 300.551 178.023 300.551 178.023 292.199 173.316 292.199 173.316 292.199 173.316 292.199 161.966 292.199 161.966 292.199 161.966 292.199 161.136 293.034 159.751 293.869 159.198ZM292.477 197.955C291.642 198.508 290.25 198.508 289.415 197.955 282.176 194.079 282.176 194.079 282.176 194.079 281.341 193.525 280.784 192.141 280.784 191.311 280.784 182.452 280.784 182.452 280.784 182.452 280.784 181.621 281.341 180.237 282.176 179.684 291.642 174.424 291.642 174.424 291.642 174.424 291.642 174.424 291.642 174.424 291.642 174.424 299.994 179.13 299.994 179.13 299.994 179.13 299.994 179.13 299.994 179.13 299.994 179.13 299.994 179.407 299.994 179.684 299.994 179.96 299.994 181.068 300.83 182.175 301.943 182.452 301.943 182.452 301.943 182.452 301.943 182.452 301.943 182.452 301.943 182.452 301.943 182.452 301.943 192.695 301.943 192.695 301.943 192.695L292.477 197.955ZM324.494 191.311C324.494 192.141 323.659 193.525 322.824 194.079 315.864 198.232 315.864 198.232 315.864 198.232 315.028 198.508 313.358 198.508 312.523 198.232 303.335 192.695 303.335 192.695 303.335 192.695 303.335 192.695 303.335 192.695 303.335 192.695 303.335 182.452 303.335 182.452 303.335 182.452 303.335 182.452 303.335 182.452 303.335 182.452 304.449 182.175 305.006 181.068 305.006 179.96 305.006 179.684 305.006 179.407 305.006 179.13 305.006 179.13 305.006 179.13 305.006 179.13 313.636 174.424 313.636 174.424 313.636 174.424 313.636 174.424 313.636 174.424 313.636 174.424 322.824 179.96 322.824 179.96 322.824 179.96 323.659 180.237 324.494 181.621 324.494 182.452L324.494 191.311Z"
       fill="#484848"
       fill-rule="evenodd"
       id="path1"
       style="fill:#ffffff;fill-opacity:1" />
  </g>
</svg>
