<?xml version="1.0" encoding="UTF-8" standalone="no"?>
<svg
   width="132"
   height="132"
   fill="none"
   version="1.1"
   id="svg5"
   sodipodi:docname="RFS-min.svg"
   inkscape:version="1.3.2 (091e20e, 2023-11-25, custom)"
   xmlns:inkscape="http://www.inkscape.org/namespaces/inkscape"
   xmlns:sodipodi="http://sodipodi.sourceforge.net/DTD/sodipodi-0.dtd"
   xmlns="http://www.w3.org/2000/svg"
   xmlns:svg="http://www.w3.org/2000/svg">
  <sodipodi:namedview
     id="namedview5"
     pagecolor="#ffffff"
     bordercolor="#000000"
     borderopacity="0.25"
     inkscape:showpageshadow="2"
     inkscape:pageopacity="0.0"
     inkscape:pagecheckerboard="0"
     inkscape:deskcolor="#d1d1d1"
     inkscape:zoom="9.7441457"
     inkscape:cx="48.695906"
     inkscape:cy="68.092167"
     inkscape:window-width="3840"
     inkscape:window-height="2054"
     inkscape:window-x="5749"
     inkscape:window-y="-11"
     inkscape:window-maximized="1"
     inkscape:current-layer="g5" />
  <defs
     id="defs1">
    <clipPath
       id="a">
      <path
         fill="#fff"
         fill-opacity="0"
         d="M0 0h132v132H0z"
         id="path1" />
    </clipPath>
  </defs>
  <g
     clip-path="url(#a)"
     id="g5">
    <mask
       id="b"
       mask-type="alpha"
       maskUnits="userSpaceOnUse"
       x="0"
       y="0"
       width="132"
       height="132">
      <path
         fill="#000"
         d="M0 0h132v132H0z"
         id="path2" />
    </mask>
    <g
       mask="url(#b)"
       id="g4"
       style="fill:#000000;fill-opacity:1">
      <path
         d="M79.47 109.72c-.56.28-1.1.28-1.65.28-1.66-4.95-6.32-8.25-11.82-8.25-6.88 0-12.65 5.5-12.65 12.37 0 6.88 5.77 12.38 12.65 12.38 6.6 0 11.82-4.95 12.37-11.28.81-.27 1.64-.27 2.48-.55 24.2-6.6 41.25-28.6 41.25-53.62h-5.5c.27 22.82-15.13 42.62-37.13 48.67zM66 121.27c-3.87 0-7.15-3.02-7.15-6.87s3.28-6.88 7.15-6.88c3.85 0 7.13 3.03 7.13 6.88s-3.28 6.87-7.13 6.87zM15.12 61.05c0-3.3.26-6.89 1.09-10.18.29-.82.56-1.65.56-2.49h1.1c6.88 0 12.65-5.5 12.65-12.36 0-6.89-5.5-12.39-12.39-12.39-6.86 0-12.63 5.5-12.63 12.39 0 4.68 2.46 8.53 6.05 10.73-.28 1.1-.55 2.2-.55 3.3-.84 3.57-1.12 7.42-1.12 11.27 0 21.18 11.84 40.15 31.09 49.78l2.48-4.95c-17.6-8.53-28.33-25.58-28.33-45.1zM11 36.02c0-3.86 3.3-6.89 7.13-6.89 3.87 0 7.17 3.03 7.17 6.89 0 3.85-3.3 7.14-7.17 7.14-.53 0-1.09 0-1.63-.28l-1.65-.53C12.63 40.97 11 38.77 11 36.02zm102.85-12.39c-1.93 0-3.58.57-5.23 1.12C97.88 12.63 82.5 5.5 66 5.5c-12.12 0-23.65 3.85-33.55 11l3.3 4.38C44.55 14.3 55 11 66 11c14.57 0 28.6 6.32 38.22 17.05-1.92 2.2-3.02 4.95-3.02 7.97 0 6.86 5.77 12.36 12.65 12.36 6.87 0 12.65-5.5 12.65-12.36 0-6.89-5.78-12.39-12.65-12.39zm0 19.53c-3.85 0-7.15-3.03-7.15-6.86 0-1.93.82-3.3 1.92-4.68l2.48-1.65c.82-.27 1.92-.56 2.75-.56 3.85 0 7.15 3.04 7.15 6.89 0 3.83-3.3 6.86-7.15 6.86z"
         fill="#080102"
         id="path3"
         style="fill:#ffffff;fill-opacity:1" />
      <path
         d="m89.09 68.49 7.97 4.39c.83.55.83 1.94 0 2.48l-30.25 16.5c-.27.27-.81.27-1.37 0L35.2 75.36c-.84-.54-.84-1.93 0-2.48l7.96-4.39-7.96-4.41c-.84-.54-.84-1.92 0-2.47l7.96-4.39-7.96-4.4c-.84-.55-.84-1.94 0-2.49l30.24-16.5c.28-.26.82-.26 1.37 0l30.25 16.5c.83.55.83 1.94 0 2.49l-7.97 4.67 7.97 4.39c.83.55.83 1.94 0 2.48l-7.97 4.13zm-3.03 1.64L66.54 80.86c-.28.27-.82.27-1.38 0L45.64 70.13l-7.14 3.86L66 88.83l27.5-14.84-7.44-3.86zm-40.15-11-7.41 3.86L66 77.83l27.5-14.84-7.16-3.86-19.53 10.73c-.27.27-.81.27-1.37 0L45.91 59.13zm47.59-7.14L66 37.13 38.5 51.99 66 66.83l27.5-14.84z"
         fill="#000"
         id="path4"
         style="fill:#ffffff;fill-opacity:1" />
    </g>
  </g>
</svg>
