<?xml version="1.0" encoding="UTF-8" standalone="no"?>
<svg
   id="rms_1"
   data-name="rms 1"
   viewBox="0 0 44 44"
   version="1.1"
   sodipodi:docname="rms.svg"
   inkscape:version="1.3.2 (091e20e, 2023-11-25, custom)"
   xmlns:inkscape="http://www.inkscape.org/namespaces/inkscape"
   xmlns:sodipodi="http://sodipodi.sourceforge.net/DTD/sodipodi-0.dtd"
   xmlns="http://www.w3.org/2000/svg"
   xmlns:svg="http://www.w3.org/2000/svg">
  <defs
     id="defs2" />
  <sodipodi:namedview
     id="namedview2"
     pagecolor="#ffffff"
     bordercolor="#000000"
     borderopacity="0.25"
     inkscape:showpageshadow="2"
     inkscape:pageopacity="0.0"
     inkscape:pagecheckerboard="0"
     inkscape:deskcolor="#d1d1d1"
     inkscape:zoom="41.340909"
     inkscape:cx="21.987905"
     inkscape:cy="22"
     inkscape:window-width="3840"
     inkscape:window-height="2054"
     inkscape:window-x="-11"
     inkscape:window-y="-11"
     inkscape:window-maximized="1"
     inkscape:current-layer="g2" />
  <g
     id="g2">
    <path
       d="M39.5,13.41l-14-8a3,3,0,0,0-3,0l-14,8A3,3,0,0,0,7,16V32a3,3,0,0,0,1.5,2.59l14,8a3,3,0,0,0,3,0l14-8A3,3,0,0,0,41,32V16A3,3,0,0,0,39.5,13.41Zm-1,19.45L25,40.58V28.5a1,1,0,0,0-2,0V40.58L9.5,32.86A1,1,0,0,1,9,32V16.78l10.58,5.85a1,1,0,0,0,1-1.75L9.83,15,23.51,7.13a1,1,0,0,1,1,0L38.22,15l-10.64,5.9a1,1,0,0,0,1,1.75L39,16.84V32A1,1,0,0,1,38.5,32.86Z"
       id="path1"
       style="fill:#ffffff;fill-opacity:1" />
    <path
       d="M32.5,26a3,3,0,0,0-2.2,1l-5.76-3.4V16.93a3,3,0,1,0-1,0V23.6l-5.68,3.59A3,3,0,1,0,18.5,29a3,3,0,0,0-.16-.94L24,24.46l5.7,3.37A3,3,0,0,0,29.5,29a3,3,0,1,0,3-3Zm-17,5a2,2,0,1,1,2-2A2,2,0,0,1,15.5,31ZM24,16a2,2,0,1,1,2-2A2,2,0,0,1,24,16Zm8.5,15a2,2,0,1,1,2-2A2,2,0,0,1,32.5,31Z"
       id="path2"
       style="fill:#ffffff;fill-opacity:1" />
  </g>
</svg>
