<svg width="51" height="49" xmlns="http://www.w3.org/2000/svg" xmlns:xlink="http://www.w3.org/1999/xlink" overflow="hidden"><defs><clipPath id="clip0"><rect x="1145" y="155" width="51" height="49"/></clipPath></defs><g clip-path="url(#clip0)" transform="translate(-1145 -155)"><path d="M1148.21 172.032C1148.54 172.032 1148.87 171.788 1148.87 171.38 1148.87 171.054 1148.54 170.81 1148.21 170.81 1146.89 170.81 1146.15 170.973 1145.66 171.462 1145 172.114 1145 173.092 1145 174.559 1145 175.211 1145 175.211 1145 175.211 1145 183.441 1145 183.441 1145 183.441 1145 184.908 1145 185.805 1145.66 186.538 1146.15 187.027 1146.89 187.19 1148.21 187.19 1148.54 187.19 1148.87 186.946 1148.87 186.538 1148.87 186.212 1148.54 185.968 1148.21 185.968 1147.3 185.968 1146.81 185.805 1146.56 185.642 1146.23 185.316 1146.23 184.582 1146.32 183.441 1146.32 182.789 1146.32 182.789 1146.32 182.789 1146.32 174.559 1146.32 174.559 1146.32 174.559 1146.23 173.418 1146.23 172.684 1146.56 172.358 1146.81 172.195 1147.3 172.032 1148.21 172.032M1154.54 164.453C1154.95 164.453 1155.2 164.209 1155.2 163.801 1155.2 163.475 1154.95 163.231 1154.54 163.231 1151.75 163.231 1150.1 165.268 1150.1 168.854 1150.1 189.065 1150.1 189.065 1150.1 189.065 1150.1 192.732 1151.75 194.769 1154.54 194.769 1154.95 194.769 1155.2 194.525 1155.2 194.117 1155.2 193.791 1154.95 193.547 1154.54 193.547 1152.49 193.547 1151.42 191.998 1151.42 189.065 1151.42 168.854 1151.42 168.854 1151.42 168.854 1151.42 165.92 1152.49 164.453 1154.54 164.453M1196 182.219C1196 181.486 1196 181.486 1196 181.486 1196 174.559 1196 174.559 1196 174.559 1196 173.092 1196 172.114 1195.34 171.462 1194.85 170.973 1194.11 170.81 1192.79 170.81 1192.46 170.81 1192.13 171.054 1192.13 171.38 1192.13 171.788 1192.46 172.032 1192.79 172.032 1193.7 172.032 1194.27 172.195 1194.44 172.358 1194.77 172.684 1194.77 173.418 1194.68 174.559 1194.68 175.211 1194.68 175.211 1194.68 175.211 1194.68 182.219 1194.68 182.219 1194.68 182.219 1194.77 183.686 1194.77 184.99 1194.19 185.56 1193.94 185.805 1193.45 185.968 1192.79 185.968 1192.46 185.968 1192.13 186.212 1192.13 186.538 1192.13 186.946 1192.46 187.19 1192.79 187.19 1193.78 187.19 1194.52 186.946 1195.1 186.457 1196 185.479 1196 183.93 1196 182.219M1176.83 155C1164.17 155 1164.17 155 1164.17 155 1160.14 155 1157.75 156.874 1157.75 160.053 1157.75 196.643 1157.75 196.643 1157.75 196.643 1157.75 200.148 1160.63 203 1164.17 203 1176.83 203 1176.83 203 1176.83 203 1180.37 203 1183.25 200.148 1183.25 196.643 1183.25 160.053 1183.25 160.053 1183.25 160.053 1183.25 156.874 1180.86 155 1176.83 155M1180.7 196.643C1180.7 198.762 1178.97 200.474 1176.83 200.474 1164.17 200.474 1164.17 200.474 1164.17 200.474 1162.03 200.474 1160.3 198.762 1160.3 196.643 1160.3 160.053 1160.3 160.053 1160.3 160.053 1160.3 159.401 1160.3 157.526 1164.17 157.526 1176.83 157.526 1176.83 157.526 1176.83 157.526 1180.7 157.526 1180.7 159.401 1180.7 160.053L1180.7 196.643ZM1186.46 163.231C1186.05 163.231 1185.8 163.475 1185.8 163.801 1185.8 164.209 1186.05 164.453 1186.46 164.453 1188.51 164.453 1189.58 165.92 1189.58 168.854 1189.58 189.065 1189.58 189.065 1189.58 189.065 1189.58 191.998 1188.51 193.547 1186.46 193.547 1186.05 193.547 1185.8 193.791 1185.8 194.117 1185.8 194.525 1186.05 194.769 1186.46 194.769 1189.25 194.769 1190.9 192.732 1190.9 189.065 1190.9 168.854 1190.9 168.854 1190.9 168.854 1190.9 165.268 1189.25 163.231 1186.46 163.231" fill="#ffffff" fill-rule="evenodd"/></g></svg>