<?xml version="1.0" encoding="UTF-8" standalone="no"?>
<svg
   width="52"
   height="42"
   overflow="hidden"
   version="1.1"
   id="svg1"
   sodipodi:docname="sfs.svg"
   inkscape:version="1.3.2 (091e20e, 2023-11-25, custom)"
   xmlns:inkscape="http://www.inkscape.org/namespaces/inkscape"
   xmlns:sodipodi="http://sodipodi.sourceforge.net/DTD/sodipodi-0.dtd"
   xmlns="http://www.w3.org/2000/svg"
   xmlns:svg="http://www.w3.org/2000/svg">
  <sodipodi:namedview
     id="namedview1"
     pagecolor="#ffffff"
     bordercolor="#000000"
     borderopacity="0.25"
     inkscape:showpageshadow="2"
     inkscape:pageopacity="0.0"
     inkscape:pagecheckerboard="0"
     inkscape:deskcolor="#d1d1d1"
     inkscape:zoom="27.071429"
     inkscape:cx="25.986807"
     inkscape:cy="21"
     inkscape:window-width="3440"
     inkscape:window-height="1351"
     inkscape:window-x="-9"
     inkscape:window-y="-9"
     inkscape:window-maximized="1"
     inkscape:current-layer="g1" />
  <defs
     id="defs1">
    <clipPath
       id="clip0">
      <rect
         x="792"
         y="508"
         width="52"
         height="42"
         id="rect1" />
    </clipPath>
  </defs>
  <g
     clip-path="url(#clip0)"
     transform="translate(-792 -508)"
     id="g1">
    <path
       d="M838.364 512.556C812.864 512.556 812.864 512.556 812.864 512.556 808.227 508 808.227 508 808.227 508 796.636 508 796.636 508 796.636 508 794.028 508 792 510.278 792 512.556 792 544.444 792 544.444 792 544.444 792 547.007 794.028 549 796.636 549 838.364 549 838.364 549 838.364 549 840.682 549 843 547.007 843 544.444 843 517.111 843 517.111 843 517.111 843 514.833 840.682 512.556 838.364 512.556ZM840.682 544.444C840.682 545.868 839.523 546.722 838.364 546.722 796.636 546.722 796.636 546.722 796.636 546.722 795.188 546.722 794.318 545.868 794.318 544.444 794.318 522.236 794.318 522.236 794.318 522.236 840.682 522.236 840.682 522.236 840.682 522.236L840.682 544.444ZM840.682 521.097C794.318 521.097 794.318 521.097 794.318 521.097 794.318 512.556 794.318 512.556 794.318 512.556 794.318 511.417 795.188 510.278 796.636 510.278 807.068 510.278 807.068 510.278 807.068 510.278 811.125 514.264 811.125 514.264 811.125 514.264 811.705 514.833 811.705 514.833 811.705 514.833 838.364 514.833 838.364 514.833 838.364 514.833 839.523 514.833 840.682 515.972 840.682 517.111L840.682 521.097Z"
       fill="#484848"
       fill-rule="evenodd"
       id="path1"
       style="fill:#ffffff;fill-opacity:1" />
  </g>
</svg>
