<?xml version="1.0" encoding="UTF-8" standalone="no"?>
<svg
   version="1.1"
   viewBox="-10 0 1034 1024"
   id="svg1"
   sodipodi:docname="smg.svg"
   inkscape:version="1.3.2 (091e20e, 2023-11-25, custom)"
   xmlns:inkscape="http://www.inkscape.org/namespaces/inkscape"
   xmlns:sodipodi="http://sodipodi.sourceforge.net/DTD/sodipodi-0.dtd"
   xmlns="http://www.w3.org/2000/svg"
   xmlns:svg="http://www.w3.org/2000/svg">
  <defs
     id="defs1" />
  <sodipodi:namedview
     id="namedview1"
     pagecolor="#ffffff"
     bordercolor="#000000"
     borderopacity="0.25"
     inkscape:showpageshadow="2"
     inkscape:pageopacity="0.0"
     inkscape:pagecheckerboard="0"
     inkscape:deskcolor="#d1d1d1"
     inkscape:zoom="1.1103516"
     inkscape:cx="517.40369"
     inkscape:cy="512"
     inkscape:window-width="3440"
     inkscape:window-height="1351"
     inkscape:window-x="-9"
     inkscape:window-y="-9"
     inkscape:window-maximized="1"
     inkscape:current-layer="svg1" />
  <path
     fill="currentColor"
     d="M695 448h-364q-13 0 -22.5 9.5t-9.5 22.5v213q0 13 9.5 22.5t22.5 9.5h364q13 0 21.5 -9.5t8.5 -22.5v-213q0 -13 -8.5 -22.5t-21.5 -9.5zM704 693q0 5 -2.5 8t-6.5 3h-364q-4 0 -7.5 -3t-3.5 -8v-164l188 79h1.5h2.5h2.5h1.5l188 -79v164v0zM704 506l-192 81l-192 -81 v-26q0 -5 3 -8t8 -3h364q4 0 6.5 3t2.5 8v26zM753 343q-13 -37 -36 -69t-54.5 -55t-69.5 -35q-39 -13 -81 -13t-81 13q-38 12 -69.5 35t-54.5 55t-36 69q-48 5 -90 27q-41 22 -72 56t-49 78q-17 44 -17 93q0 53 20 100q20 46 55 81t81 55q47 20 100 20h426q53 0 100 -20 q46 -20 81 -55t55 -81q20 -47 20 -100q0 -49 -17 -93q-18 -44 -49 -78t-72 -56q-42 -22 -90 -27v0zM725 811h-426q-44 0 -83 -17t-68 -46t-46 -68t-17 -83q0 -40 15 -77q14 -37 39.5 -65t60.5 -47q34 -18 75 -22q13 -1 22.5 -8.5t13.5 -19.5q23 -64 78.5 -103.5t122.5 -39.5 t122.5 39.5t78.5 103.5q4 12 13.5 19.5t22.5 8.5q41 5 75 23q35 19 60.5 47t39.5 64q15 37 15 77q0 44 -17 83t-46 68t-68 46t-83 17v0z"
     id="path1"
     style="fill:#ffffff;fill-opacity:1" />
</svg>
