<?xml version="1.0" encoding="UTF-8" standalone="no"?>
<!-- Created with Inkscape (http://www.inkscape.org/) -->

<svg
   width="12.7mm"
   height="12.700027mm"
   viewBox="0 0 12.7 12.700027"
   version="1.1"
   id="svg5"
   inkscape:version="1.3.2 (091e20e, 2023-11-25, custom)"
   sodipodi:docname="swr.svg"
   xmlns:inkscape="http://www.inkscape.org/namespaces/inkscape"
   xmlns:sodipodi="http://sodipodi.sourceforge.net/DTD/sodipodi-0.dtd"
   xmlns="http://www.w3.org/2000/svg"
   xmlns:svg="http://www.w3.org/2000/svg">
  <sodipodi:namedview
     id="namedview7"
     pagecolor="#ffffff"
     bordercolor="#666666"
     borderopacity="1.0"
     inkscape:pageshadow="2"
     inkscape:pageopacity="0.0"
     inkscape:pagecheckerboard="0"
     inkscape:document-units="mm"
     showgrid="false"
     inkscape:zoom="10.248373"
     inkscape:cx="38.542705"
     inkscape:cy="-19.954388"
     inkscape:window-width="3840"
     inkscape:window-height="2054"
     inkscape:window-x="-11"
     inkscape:window-y="-11"
     inkscape:window-maximized="1"
     inkscape:current-layer="layer1"
     inkscape:showpageshadow="2"
     inkscape:deskcolor="#d1d1d1" />
  <defs
     id="defs2" />
  <g
     inkscape:label="Layer 1"
     inkscape:groupmode="layer"
     id="layer1">
    <path
       class=""
       d="M 6.9272836,8.9477327 V 7.5045469 H 4.0409253 V 6.0613612 H 2.5977396 V 4.3295435 H 10.102287 V 6.0613612 H 8.6591013 V 8.9477194 H 6.9272836 Z M 4.040912,4.6181892 H 2.8863715 V 5.7727297 H 4.040912 Z m 1.4431858,0 H 4.3295573 v 1.1545405 h 1.1545405 z m 0,1.4431858 H 4.3295573 V 7.2159155 H 5.4840978 Z M 6.9272836,4.6181892 H 5.772743 v 1.1545405 h 1.1545406 z m 0,1.4431858 H 5.772743 V 7.2159155 H 6.9272836 Z M 8.370456,4.6181892 H 7.2159155 V 5.7727297 H 8.370456 Z m 0,1.4431858 H 7.2159155 V 7.2159155 H 8.370456 Z m 0,1.4431719 H 7.2159155 V 8.6590874 H 8.370456 Z M 9.8136418,5.7727297 V 4.6181892 H 8.6591013 v 1.1545405 z m 2.3090942,1.6740991 c 0,0.028859 0,0.028859 0,0.057732 V 8.514792 c 0,0.6927272 -0.432954,1.4431858 -1.03909,1.789549 l -3.6945486,2.135913 c -0.6061365,0.346364 -1.472045,0.346364 -2.078181,0 L 1.6163677,10.304341 C 1.0390905,9.9579777 0.57727717,9.1786598 0.57727717,8.5147919 V 7.5045607 c 0,-0.1731819 0.11545001,-0.2886319 0.28863142,-0.2886319 0.17318191,0 0.28863191,0.11545 0.28863191,0.2886319 v 1.0102312 c 0,0.4618134 0.3463634,1.0679499 0.7504586,1.2988632 l 3.6945487,2.1359129 c 0.4040953,0.230913 1.0968224,0.230913 1.5009044,0 L 10.795,9.8136551 C 11.199096,9.5827418 11.545459,9.0054779 11.545459,8.5147919 V 7.5045607 c 0,-0.028859 0,-0.028859 0,-0.057732 -0.346363,-0.11545 -0.577277,-0.4329545 -0.577277,-0.8081772 0,-0.4906859 0.375223,-0.8659086 0.865909,-0.8659086 0.490686,0 0.865909,0.3752227 0.865909,0.8659086 0,0.3752227 -0.259773,0.6927272 -0.577277,0.8081772 z M 11.834091,6.061375 c -0.317504,0 -0.577277,0.2597726 -0.577277,0.5772766 0,0.3175046 0.259773,0.5772772 0.577277,0.5772772 v 0 c 0.317504,0 0.577277,-0.2597726 0.577277,-0.5772772 0,-0.317504 -0.259773,-0.5772766 -0.577277,-0.5772766 z m 0,-0.8947817 c -0.173182,0 -0.288632,-0.1154501 -0.288632,-0.2886315 V 4.1852347 c 0,-0.4618134 -0.346363,-1.0679499 -0.750459,-1.2988632 L 7.1004522,0.75045858 c -0.4040953,-0.23091332 -1.0968224,-0.23091332 -1.5009044,0 L 1.9049991,2.9152303 C 1.5009039,3.1461441 1.1545405,3.7234075 1.1545405,4.1852347 v 0.7215859 c 0,0.028859 0,0.028859 0,0.057732 0.3463634,0.1154501 0.5772772,0.4329546 0.5772772,0.8081772 0,0.490686 -0.3752226,0.8659086 -0.86590911,0.8659086 C 0.37522264,6.6386383 0,6.2634157 0,5.7727297 0,5.3975071 0.25977263,5.0800026 0.57727717,4.9645525 c 0,-0.028859 0,-0.028859 0,-0.057732 V 4.1852347 c 0,-0.6927272 0.43295403,-1.4431858 1.03909053,-1.7895496 L 5.3109164,0.25977263 C 5.5995478,0.08659071 5.9747843,0 6.3500069,0 6.7252295,0 7.1004655,0.08659071 7.3890974,0.25977263 L 11.083646,2.3956851 c 0.577277,0.3463638 1.03909,1.1256817 1.03909,1.7895496 v 0.6927271 c 0,0.1731814 -0.11545,0.2886315 -0.288631,0.2886315 z M 0.28864523,5.7727297 c 0,0.3175041 0.25977263,0.5772767 0.57727717,0.5772767 0.317504,0 0.5772767,-0.2597726 0.5772767,-0.5772767 0,-0.3175045 -0.2597727,-0.5772771 -0.5772767,-0.5772771 -0.31750454,0 -0.57727717,0.2597726 -0.57727717,0.5772771 z"
       id="path93"
       style="stroke-width:0.0135298;fill:#ffffff;fill-opacity:1" />
  </g>
</svg>
