<?xml version="1.0" encoding="UTF-8" standalone="no"?>
<svg
   version="1.1"
   id="svg_1"
   x="0px"
   y="0px"
   viewBox="0 0 48 48"
   style="enable-background:new 0 0 48 48;"
   xml:space="preserve"
   width="132px"
   height="132px"
   sodipodi:docname="ucs.svg"
   inkscape:version="1.4 (86a8ad7, 2024-10-11)"
   xmlns:inkscape="http://www.inkscape.org/namespaces/inkscape"
   xmlns:sodipodi="http://sodipodi.sourceforge.net/DTD/sodipodi-0.dtd"
   xmlns="http://www.w3.org/2000/svg"
   xmlns:svg="http://www.w3.org/2000/svg"><defs
   id="defs1" /><sodipodi:namedview
   id="namedview1"
   pagecolor="#ffffff"
   bordercolor="#000000"
   borderopacity="0.25"
   inkscape:showpageshadow="2"
   inkscape:pageopacity="0.0"
   inkscape:pagecheckerboard="0"
   inkscape:deskcolor="#d1d1d1"
   inkscape:zoom="8.5833333"
   inkscape:cx="65.941748"
   inkscape:cy="66"
   inkscape:window-width="2560"
   inkscape:window-height="1351"
   inkscape:window-x="-11"
   inkscape:window-y="-11"
   inkscape:window-maximized="1"
   inkscape:current-layer="svg_1" />
<style
   type="text/css"
   id="style1">
	.st0{fill:#252B3A;}
</style>
<path
   class="st0"
   d="M29.8,20.1c-1.3-3.3-5-5-8.4-3.7c-1.7,0.7-3.1,2-3.7,3.7c-3.4,0.2-5.9,3.2-5.7,6.6c0.2,3.3,3.1,5.9,6.4,5.7&#10;	h10.7c3.4,0.1,6.3-2.5,6.4-5.9C35.7,23.1,33.2,20.3,29.8,20.1L29.8,20.1z M29.1,30.4H18.4c-2.4,0.1-4.3-1.8-4.4-4.2&#10;	c0.1-2.2,1.7-4,3.9-4.1c0.8-0.1,1.4-0.6,1.7-1.3c0.9-2.3,3.5-3.4,5.8-2.5c1.1,0.5,2.1,1.4,2.5,2.5c0.3,0.7,0.9,1.2,1.7,1.3&#10;	c2.2,0.2,3.9,2,3.9,4.1C33.5,28.6,31.5,30.4,29.1,30.4L29.1,30.4z M39.1,32.4c0,0-0.1,0.1-0.1,0.1l-3-1.7c-0.2-0.1-0.5,0-0.7,0.2&#10;	c-0.1,0.2,0,0.5,0.2,0.7l3,1.7c-0.4,1.3,0.3,2.7,1.6,3.2c1.3,0.4,2.7-0.3,3.2-1.6c0.3-0.9,0.1-1.9-0.6-2.6&#10;	C41.6,31.4,40.1,31.4,39.1,32.4L39.1,32.4z M41.9,35.2c-0.6,0.6-1.5,0.6-2.1,0c-0.6-0.6-0.6-1.5,0-2.1c0.6-0.6,1.5-0.6,2.1,0&#10;	S42.5,34.6,41.9,35.2C41.9,35.2,41.9,35.2,41.9,35.2z M6.7,16.9c0.7,0,1.3-0.3,1.8-0.7c0,0,0.1-0.1,0.1-0.1l5.7,3.3&#10;	c0.2,0.1,0.5,0.1,0.7-0.2c0.1-0.2,0.1-0.5-0.2-0.7l-5.7-3.3c0.3-0.9,0.1-1.9-0.6-2.6c-1-0.9-2.5-0.9-3.5,0c-1,1-1,2.6,0,3.5&#10;	C5.4,16.7,6,16.9,6.7,16.9z M5.6,13.4c0.6-0.6,1.5-0.6,2.1,0s0.6,1.5,0,2.1c0,0,0,0,0,0c-0.6,0.6-1.5,0.6-2.1,0&#10;	C5.1,14.9,5.1,13.9,5.6,13.4z M23.3,7v6.8c0,0.3,0.2,0.5,0.5,0.5s0.5-0.2,0.5-0.5V7c1.4-0.3,2.2-1.6,2-3c-0.3-1.4-1.6-2.2-3-2&#10;	s-2.2,1.6-2,3C21.5,6,22.3,6.8,23.3,7z M22.7,3.5c0.6-0.6,1.5-0.6,2.1,0c0.6,0.6,0.6,1.5,0,2.1c-0.6,0.6-1.5,0.6-2.1,0&#10;	C22.1,5,22.1,4.1,22.7,3.5C22.7,3.5,22.7,3.5,22.7,3.5z M24.3,41.6v-7.1c0-0.3-0.2-0.5-0.5-0.5s-0.5,0.2-0.5,0.5v7.1&#10;	c-0.5,0.1-0.9,0.3-1.3,0.7c-1,1-1,2.6,0,3.5s2.6,1,3.5,0s1-2.6,0-3.5c0,0,0,0,0,0C25.2,41.9,24.8,41.7,24.3,41.6L24.3,41.6z&#10;	 M24.8,45c-0.6,0.6-1.5,0.6-2.1,0c-0.6-0.6-0.6-1.5,0-2.1c0.6-0.6,1.5-0.6,2.1,0C25.4,43.5,25.4,44.5,24.8,45&#10;	C24.8,45,24.8,45,24.8,45z M33,19.4c0.1,0,0.2,0,0.3-0.1l5.7-3.3c0,0,0.1,0.1,0.1,0.1c1,1,2.5,1,3.5,0.1s1-2.5,0.1-3.5&#10;	c0,0,0,0-0.1-0.1c-1-0.9-2.5-0.9-3.5,0c-0.7,0.7-0.9,1.7-0.6,2.6l-5.7,3.3c-0.2,0.1-0.3,0.4-0.2,0.7C32.7,19.3,32.8,19.4,33,19.4&#10;	L33,19.4z M39.8,13.4c0.6-0.6,1.5-0.6,2.1,0c0.6,0.6,0.6,1.5,0,2.1c0,0,0,0,0,0c-0.6,0.6-1.5,0.6-2.1,0&#10;	C39.2,14.9,39.2,13.9,39.8,13.4z M11.5,30.8l-3,1.7c0,0-0.1-0.1-0.1-0.1c-1-0.9-2.5-0.9-3.5,0c-1,1-1,2.6,0,3.5s2.6,1,3.5,0&#10;	c0.7-0.7,0.9-1.7,0.6-2.6l3-1.7c0.2-0.1,0.3-0.4,0.2-0.7S11.8,30.6,11.5,30.8C11.6,30.8,11.5,30.8,11.5,30.8L11.5,30.8z M7.8,35.2&#10;	c-0.6,0.6-1.5,0.6-2.1,0c-0.6-0.6-0.6-1.5,0-2.1c0.6-0.6,1.5-0.6,2.1,0C8.3,33.7,8.3,34.6,7.8,35.2C7.8,35.2,7.8,35.2,7.8,35.2z"
   id="path1"
   style="fill:#ffffff;fill-opacity:1" />
</svg>
