<?xml version="1.0" encoding="UTF-8" standalone="no"?>
<svg
   width="47"
   height="51"
   overflow="hidden"
   version="1.1"
   id="svg7"
   sodipodi:docname="vbs.svg"
   inkscape:version="1.3.2 (091e20e, 2023-11-25, custom)"
   xmlns:inkscape="http://www.inkscape.org/namespaces/inkscape"
   xmlns:sodipodi="http://sodipodi.sourceforge.net/DTD/sodipodi-0.dtd"
   xmlns="http://www.w3.org/2000/svg"
   xmlns:svg="http://www.w3.org/2000/svg">
  <sodipodi:namedview
     id="namedview7"
     pagecolor="#ffffff"
     bordercolor="#000000"
     borderopacity="0.25"
     inkscape:showpageshadow="2"
     inkscape:pageopacity="0.0"
     inkscape:pagecheckerboard="0"
     inkscape:deskcolor="#d1d1d1"
     showgrid="false"
     inkscape:zoom="22.294118"
     inkscape:cx="23.48153"
     inkscape:cy="25.5"
     inkscape:window-width="3440"
     inkscape:window-height="1351"
     inkscape:window-x="-9"
     inkscape:window-y="-9"
     inkscape:window-maximized="1"
     inkscape:current-layer="g7" />
  <defs
     id="defs1">
    <clipPath
       id="clip0">
      <rect
         x="723"
         y="326"
         width="47"
         height="51"
         id="rect1" />
    </clipPath>
  </defs>
  <g
     clip-path="url(#clip0)"
     transform="translate(-723 -326)"
     id="g7">
    <path
       d="M763 332.5C763 331.672 763.672 331 764.5 331 765.328 331 766 331.672 766 332.5 766 333.328 765.328 334 764.5 334 763.672 334 763 333.328 763 332.5Z"
       fill="#484848"
       fill-rule="evenodd"
       id="path1"
       style="fill:#ffffff;fill-opacity:1" />
    <path
       d="M730 339C730 337.895 730.672 337 731.5 337 732.328 337 733 337.895 733 339 733 340.105 732.328 341 731.5 341 730.672 341 730 340.105 730 339Z"
       fill="#484848"
       fill-rule="evenodd"
       id="path2"
       style="fill:#ffffff;fill-opacity:1" />
    <path
       d="M749 339C749 337.895 749.895 337 751 337 752.105 337 753 337.895 753 339 753 340.105 752.105 341 751 341 749.895 341 749 340.105 749 339Z"
       fill="#484848"
       fill-rule="evenodd"
       id="path3"
       style="fill:#ffffff;fill-opacity:1" />
    <path
       d="M745.148 352.676C744.556 351.189 743.074 350 741 350 739.222 350 737.444 351.189 736.852 352.676 734.778 352.973 733 354.757 733 356.838 733 359.216 735.074 361 737.444 361 744.852 361 744.852 361 744.852 361 747.222 361 749 359.216 749 356.838 749 354.757 747.518 352.973 745.148 352.676ZM744.852 359.514C737.444 359.514 737.444 359.514 737.444 359.514 735.667 359.514 734.482 358.324 734.482 356.838 734.482 355.351 735.667 354.162 737.148 354.162 737.741 354.162 738.037 353.865 738.333 353.27 738.63 352.081 739.815 351.486 741 351.486 742.482 351.486 743.667 352.081 743.963 353.27 744.259 353.865 744.556 354.162 745.148 354.162 746.63 354.162 747.815 355.351 747.815 356.838 747.815 358.324 746.333 359.514 744.852 359.514Z"
       fill="#484848"
       fill-rule="evenodd"
       id="path4"
       style="fill:#ffffff;fill-opacity:1" />
    <path
       d="M752.347 332C730.364 332 730.364 332 730.364 332 726.893 332 724 334.812 724 338.188 724 370.812 724 370.812 724 370.812 724 374.188 726.893 377 730.364 377 752.347 377 752.347 377 752.347 377 756.107 377 759 374.188 759 370.812 759 338.188 759 338.188 759 338.188 759 334.812 756.107 332 752.347 332ZM756.397 370.812C756.397 372.781 754.661 374.469 752.347 374.469 730.364 374.469 730.364 374.469 730.364 374.469 728.339 374.469 726.603 372.781 726.603 370.812 726.603 338.188 726.603 338.188 726.603 338.188 726.603 336.219 728.339 334.531 730.364 334.531 752.347 334.531 752.347 334.531 752.347 334.531 754.661 334.531 756.397 336.219 756.397 338.188L756.397 370.812Z"
       fill="#484848"
       fill-rule="evenodd"
       id="path5"
       style="fill:#ffffff;fill-opacity:1" />
    <path
       d="M764.231 327C743.75 327 743.75 327 743.75 327 742.596 327 740.577 327.281 740 328.688 740 328.969 740 329.25 740.288 329.531 740.577 329.531 741.154 329.531 741.154 329.25 741.442 328.688 742.596 328.125 743.75 328.125 764.231 328.125 764.231 328.125 764.231 328.125 767.115 328.125 768.558 329.812 768.558 332.906 768.558 366.656 768.558 366.656 768.558 366.656 768.558 369.75 767.404 370.594 764.231 370.594 761.635 370.594 761.635 370.594 761.635 370.594 761.346 370.594 761.058 370.875 761.058 371.438 761.058 371.719 761.346 372 761.635 372 764.231 372 764.231 372 764.231 372 768.269 372 770 370.312 770 366.656 770 332.906 770 332.906 770 332.906 770 328.969 767.981 327 764.231 327Z"
       fill="#484848"
       fill-rule="evenodd"
       id="path6"
       style="fill:#ffffff;fill-opacity:1" />
    <path
       d="M761.429 352.571C761.214 352.571 761 352.857 761 353.429 761 353.714 761.214 354 761.429 354 762.929 354 764 352.286 764 350 764 348 762.929 346.286 761.643 346 761.214 346 761 346.286 761 346.571 761 347.143 761.214 347.429 761.429 347.429 762.286 347.429 762.929 348.857 762.929 350 762.929 351.429 762.286 352.571 761.429 352.571Z"
       fill="#484848"
       fill-rule="evenodd"
       id="path7"
       style="fill:#ffffff;fill-opacity:1" />
  </g>
</svg>
