<?xml version="1.0" encoding="UTF-8" standalone="no"?>
<svg
   viewBox="0 0 44 44"
   version="1.1"
   id="svg1"
   sodipodi:docname="vpcep.svg"
   inkscape:version="1.3.2 (091e20e, 2023-11-25, custom)"
   xmlns:inkscape="http://www.inkscape.org/namespaces/inkscape"
   xmlns:sodipodi="http://sodipodi.sourceforge.net/DTD/sodipodi-0.dtd"
   xmlns="http://www.w3.org/2000/svg"
   xmlns:svg="http://www.w3.org/2000/svg"
   xmlns:rdf="http://www.w3.org/1999/02/22-rdf-syntax-ns#"
   xmlns:cc="http://creativecommons.org/ns#"
   xmlns:dc="http://purl.org/dc/elements/1.1/">
  <sodipodi:namedview
     id="namedview1"
     pagecolor="#ffffff"
     bordercolor="#000000"
     borderopacity="0.25"
     inkscape:showpageshadow="2"
     inkscape:pageopacity="0.0"
     inkscape:pagecheckerboard="0"
     inkscape:deskcolor="#d1d1d1"
     inkscape:zoom="25.840909"
     inkscape:cx="22"
     inkscape:cy="22"
     inkscape:window-width="3440"
     inkscape:window-height="1351"
     inkscape:window-x="-9"
     inkscape:window-y="-9"
     inkscape:window-maximized="1"
     inkscape:current-layer="svg1" />
  <defs
     id="defs1">
    <style
       id="style1" />
  </defs>
  <title
     id="title1">Vpc Endpoint</title>
  <path
     d="M24,2A22,22,0,1,0,46,24,22,22,0,0,0,24,2Zm0,42A20,20,0,1,1,44,24,20,20,0,0,1,24,44ZM36.5,21A3.42,3.42,0,0,0,33,24H29.5a.5.5,0,0,0-.43.24l-.1.08-5,5V18.5a.5.5,0,0,0-.93-.26l-.1.08L17.32,24l0,0H12.93a2,2,0,1,0,0,1H17.5a.5.5,0,0,0,.43-.24l.1-.08,5-5V30.5a.5.5,0,0,0,.93.26l.1-.08L29.68,25l0,0H33a3.49,3.49,0,1,0,3.45-4Zm0,5.25a1.75,1.75,0,1,1,1.75-1.75A1.76,1.76,0,0,1,36.5,26.25Z"
     transform="translate(-2 -2)"
     id="path1"
     style="fill:#ffffff;fill-opacity:1" />
  <metadata
     id="metadata1">
    <rdf:RDF>
      <cc:Work
         rdf:about="">
        <dc:title>Vpc Endpoint</dc:title>
      </cc:Work>
    </rdf:RDF>
  </metadata>
</svg>
