<svg version="1.1" id="图层_1" xmlns="http://www.w3.org/2000/svg" xmlns:xlink="http://www.w3.org/1999/xlink" x="0px" y="0px" viewBox="0 0 48 48" style="enable-background:new 0 0 48 48;" xml:space="preserve" width="132px" height="132px">
<style type="text/css">
	.st0{fill:#454545;}
</style>
<g>
	<path class="st0" d="M47,33.2c0-1.6-1.3-3-3-3c-1.6,0-3,1.3-3,3c0,1.3,0.9,2.4,2.1,2.8H43v5.2c0,1.1-0.9,1.8-2,1.8H7&#10;&#9;&#9;c-1.1,0-2-0.7-2-1.8V24.1c0,0,0,0,0,0s0,0,0,0V24h0c-0.1-0.5-0.5-0.9-1-0.9S3,23.5,3,24h0v0.1c0,0,0,0,0,0s0,0,0,0v17.1&#10;&#9;&#9;C3,43.4,4.8,45,7,45H41c2.2,0,4-1.6,4-3.8V36h-0.1C46.1,35.6,47,34.5,47,33.2z M44,35.2c-1.1,0-2-0.9-2-2s0.9-2,2-2&#10;&#9;&#9;c1.1,0,2,0.9,2,2S45.1,35.2,44,35.2z"/>
	<path class="st0" d="M6.9,14.2c0-1.3-0.8-2.4-2-2.8V7.2C5,6.1,5.9,5,7,5H41c1.1,0,2,1.1,2,2.2V24h0c0,0,0,0.1,0,0.1&#10;&#9;&#9;c0,0.6,0.4,1,1,1c0.6,0,1-0.4,1-1c0,0,0-0.1,0-0.1h0V7.2C45,5,43.2,3,41,3H7C4.8,3,3,5,3,7.2v4.2c-1.1,0.4-2,1.5-2,2.8&#10;&#9;&#9;c0,1.6,1.3,3,3,3S6.9,15.8,6.9,14.2z M2,14.2c0-1.1,0.9-2,2-2s2,0.9,2,2s-0.9,2-2,2S2,15.2,2,14.2z"/>
	<polygon class="st0" points="36,30 37,30 37,23.5 37,22.4 37,18 37,17 36.5,17 36,17 &#9;"/>
	<path class="st0" d="M25.3,17h-0.5H24v13h1v-6h6.6c1.3,0,2.4-1.6,2.4-3v-1.4c0-1.4-1.1-2.6-2.4-2.6H25.3z M33,19.6V21&#10;&#9;&#9;c0,0.8-0.7,2-1.4,2H25v-5h6.6C32.3,18,33,18.8,33,19.6z"/>
	<path class="st0" d="M17.3,17h-1.1c-2,0-2.6,1.8-2.8,2.4L11,30h1.1l1.4-6H20v0l1.4,6h1.1l-2.3-10.6C19.9,18.8,19.3,17,17.3,17z&#10;&#9;&#9; M19.8,23h-6.1l0.7-3.3c0.4-1.2,1-1.7,2-1.7H17c1,0,1.6,0.5,2,1.8L19.8,23z"/>
</g>
</svg>