<?xml version="1.0" encoding="UTF-8" standalone="no"?>
<svg
   version="1.1"
   id="_层_1"
   x="0px"
   y="0px"
   viewBox="0 0 48 48"
   style="enable-background:new 0 0 48 48;"
   xml:space="preserve"
   width="132px"
   height="132px"
   sodipodi:docname="asm.svg"
   inkscape:version="1.3.2 (091e20e, 2023-11-25, custom)"
   xmlns:inkscape="http://www.inkscape.org/namespaces/inkscape"
   xmlns:sodipodi="http://sodipodi.sourceforge.net/DTD/sodipodi-0.dtd"
   xmlns="http://www.w3.org/2000/svg"
   xmlns:svg="http://www.w3.org/2000/svg"><defs
   id="defs1" /><sodipodi:namedview
   id="namedview1"
   pagecolor="#ffffff"
   bordercolor="#000000"
   borderopacity="0.25"
   inkscape:showpageshadow="2"
   inkscape:pageopacity="0.0"
   inkscape:pagecheckerboard="0"
   inkscape:deskcolor="#d1d1d1"
   inkscape:zoom="13.780303"
   inkscape:cx="66"
   inkscape:cy="66"
   inkscape:window-width="3840"
   inkscape:window-height="2054"
   inkscape:window-x="-11"
   inkscape:window-y="-11"
   inkscape:window-maximized="1"
   inkscape:current-layer="_层_1" />
<style
   type="text/css"
   id="style1">
	.st0{fill:#252B3A;}
</style>
<path
   class="st0"
   d="M38.9,17.8c-0.2-0.2-0.5-0.2-0.7-0.1l-5,4.1c-0.5-0.4-1.2-0.7-1.9-0.7s-1.4,0.3-1.9,0.7l-2.4-2&#10;	c0.3-0.5,0.5-1.1,0.5-1.7s-0.2-1.2-0.5-1.7l4.6-3.8c0.2-0.2,0.2-0.5,0.1-0.7c-0.2-0.2-0.5-0.2-0.7-0.1l-4.6,3.8&#10;	c-0.6-0.6-1.4-0.9-2.3-0.9s-1.7,0.4-2.3,0.9L17,11.9c-0.2-0.2-0.5-0.1-0.7,0.1c-0.2,0.2-0.1,0.5,0.1,0.7l4.6,3.8&#10;	c-0.3,0.5-0.5,1.1-0.5,1.7s0.2,1.2,0.5,1.7l-2.4,2c-0.5-0.4-1.2-0.7-1.9-0.7s-1.4,0.3-1.9,0.7l-5-4.1c-0.2-0.2-0.5-0.1-0.7,0.1&#10;	s-0.1,0.5,0.1,0.7l5,4.1C14,23,13.8,23.5,13.8,24s0.1,1,0.4,1.4l-5,4.1c-0.2,0.2-0.2,0.5-0.1,0.7c0.1,0.1,0.2,0.2,0.4,0.2&#10;	c0.1,0,0.2,0,0.3-0.1l5-4.1c0.5,0.4,1.2,0.7,1.9,0.7c0.7,0,1.4-0.3,1.9-0.7l2.4,2c-0.3,0.5-0.5,1.1-0.5,1.7s0.2,1.2,0.5,1.7&#10;	l-4.6,3.8c-0.2,0.2-0.2,0.5-0.1,0.7c0.1,0.1,0.2,0.2,0.4,0.2c0.1,0,0.2,0,0.3-0.1l4.6-3.8c0.6,0.5,1.4,0.9,2.3,0.9s1.7-0.4,2.3-0.9&#10;	l4.6,3.8c0.1,0.1,0.2,0.1,0.3,0.1c0.1,0,0.3-0.1,0.4-0.2c0.2-0.2,0.1-0.5-0.1-0.7l-4.6-3.8c0.3-0.5,0.5-1.1,0.5-1.7&#10;	s-0.2-1.2-0.5-1.7l2.4-2c0.5,0.4,1.2,0.7,1.9,0.7s1.4-0.3,1.9-0.7l5,4.1c0.1,0.1,0.2,0.1,0.3,0.1c0.2,0,0.3-0.1,0.4-0.2&#10;	c0.2-0.2,0.1-0.5-0.1-0.7l-5-4.1c0.2-0.4,0.4-0.9,0.4-1.4s-0.1-1-0.4-1.4l5-4.1C39,18.3,39,18,38.9,17.8L38.9,17.8z M24,26.5&#10;	c-0.9,0-1.7,0.4-2.3,0.9l-2.4-2c0.2-0.4,0.4-0.9,0.4-1.4s-0.1-1-0.4-1.4l2.4-2c0.6,0.5,1.4,0.9,2.3,0.9s1.7-0.4,2.3-0.9l2.4,2&#10;	c-0.2,0.4-0.4,0.9-0.4,1.4s0.1,1,0.4,1.4l-2.4,2C25.7,26.8,24.9,26.5,24,26.5z M24,16.7c0.8,0,1.4,0.6,1.4,1.4s-0.6,1.4-1.4,1.4&#10;	s-1.4-0.6-1.4-1.4S23.2,16.7,24,16.7z M16.8,25.9c-1.1,0-1.9-0.9-1.9-1.9s0.9-1.9,1.9-1.9s1.9,0.9,1.9,1.9S17.8,25.9,16.8,25.9z&#10;	 M24,31.3c-0.8,0-1.4-0.6-1.4-1.4s0.6-1.4,1.4-1.4s1.4,0.6,1.4,1.4S24.8,31.3,24,31.3z M31.2,25.9c-1,0-1.9-0.9-1.9-1.9&#10;	s0.9-1.9,1.9-1.9s1.9,0.9,1.9,1.9S32.3,25.9,31.2,25.9z M41.6,11L26.4,2.5c-1.3-0.7-3.4-0.7-4.7,0L6.4,11C5,11.8,4,13.5,4,15v18&#10;	c0,1.5,1,3.2,2.4,4l15.3,8.5c0.6,0.4,1.5,0.5,2.4,0.5s1.7-0.2,2.4-0.5L41.6,37c1.3-0.7,2.4-2.5,2.4-4V15C44,13.5,43,11.8,41.6,11&#10;	L41.6,11z M41.9,33c0,0.8-0.6,1.8-1.3,2.2l-15.3,8.5c-0.6,0.4-2,0.4-2.6,0L7.4,35.2c-0.7-0.4-1.3-1.4-1.3-2.2V15&#10;	c0-0.8,0.6-1.8,1.3-2.2l15.3-8.5C23,4.1,23.5,4,24,4s1,0.1,1.3,0.3l15.3,8.5c0.7,0.4,1.3,1.4,1.3,2.2V33L41.9,33z"
   id="path1"
   style="fill:#000000;fill-opacity:1" />
</svg>
