<svg version="1.1" id="Layer_1" xmlns="http://www.w3.org/2000/svg" xmlns:xlink="http://www.w3.org/1999/xlink" x="0px" y="0px" viewBox="0 0 44 44" style="enable-background:new 0 0 44 44;" xml:space="preserve" width="132px" height="132px">
<style type="text/css">
	.st0{fill:#070102;}
</style>
<g>
</g>
<path class="st0" d="M18.7,27.2h6.7c2.5,0,4.5-2,4.5-4.4c0-2.2-1.6-4-3.7-4.4c-0.7-1.6-2.3-2.7-4.2-2.7c-1.8,0-3.4,1.1-4.2,2.7&#10;&#9;c-2.1,0.4-3.7,2.2-3.7,4.4C14.1,25.2,16.2,27.2,18.7,27.2z M18.3,19.4l0.3,0l0.1-0.3c0.5-1.4,1.8-2.3,3.3-2.3s2.8,0.9,3.3,2.3&#10;&#9;l0.1,0.3l0.3,0c1.8,0.2,3.1,1.7,3.1,3.4c0,1.9-1.6,3.4-3.5,3.4h-6.7c-1.9,0-3.5-1.5-3.5-3.4C15.1,21,16.5,19.6,18.3,19.4z M22,1&#10;&#9;C10.4,1,1,10.4,1,22c0,11.6,9.4,21,21,21c11.6,0,21-9.4,21-21C43,10.4,33.6,1,22,1z M37,10.4h-3.5c-1.4-2.7-3.2-4.9-5.4-6.4&#10;&#9;C31.7,5.3,34.8,7.5,37,10.4z M35.2,22c0,3.9-0.8,7.5-2.2,10.6H11.1c-1.4-3-2.2-6.6-2.2-10.6s0.8-7.5,2.2-10.6H33&#10;&#9;C34.4,14.5,35.2,18.1,35.2,22z M32.4,10.4H11.6C14,5.9,17.8,3,22,3S30,5.9,32.4,10.4z M15.8,4.1c-2.1,1.5-4,3.7-5.4,6.4H7&#10;&#9;C9.2,7.5,12.3,5.3,15.8,4.1z M3,22c0-3.9,1.2-7.5,3.2-10.6H10C8.6,14.5,7.8,18.1,7.8,22s0.8,7.5,2.2,10.6H6.2C4.2,29.5,3,25.9,3,22z&#10;&#9; M7,33.6h3.5c1.4,2.7,3.2,4.9,5.4,6.4C12.3,38.7,9.2,36.5,7,33.6z M11.6,33.6h20.9C30,38.1,26.2,41,22,41S14,38.1,11.6,33.6z&#10;&#9; M28.2,39.9c2.1-1.5,4-3.7,5.4-6.4H37C34.8,36.5,31.7,38.7,28.2,39.9z M34,32.6c1.4-3.1,2.2-6.7,2.2-10.6s-0.8-7.5-2.2-10.6h3.8&#10;&#9;c2,3,3.2,6.7,3.2,10.6s-1.2,7.5-3.2,10.6H34z"/>
<g>
	<rect x="21.5" y="32.5" class="st0" width="1" height="8.4"/>
</g>
<g>
	<rect x="21.5" y="2.5" class="st0" width="1" height="8.4"/>
</g>
</svg>