<svg id="图层_1" data-name="图层 1" xmlns="http://www.w3.org/2000/svg" viewBox="0 0 40 44" width="132px" height="132px"><title>云防火墙CFW-新增</title><path id="形状结合" d="M20,0A3.46,3.46,0,0,1,22.1.63a36.51,36.51,0,0,0,7.37,4.71,84.69,84.69,0,0,0,8.39,3.14A3,3,0,0,1,40,11.62c-.37,4.47-1.47,13.39-4.21,18.85-3.16,6.28-11.07,11.2-14.2,13.08a3,3,0,0,1-3.16,0c-3.13-1.88-11-6.8-14.2-13.08C1.48,25,.38,16.09,0,11.62A3,3,0,0,1,2.14,8.48a84.69,84.69,0,0,0,8.39-3.14A36.51,36.51,0,0,0,17.9.63,3.28,3.28,0,0,1,19.75,0H20Zm.05,2H19.9a1.46,1.46,0,0,0-.79.22l-.62.48a36.45,36.45,0,0,1-7.07,4.43A72.75,72.75,0,0,1,4,10l-.42.15-.76.25A1.08,1.08,0,0,0,2,11.46C2.24,14.3,3.22,24,6,29.57c2,4,6.51,8.09,13.44,12.27A1,1,0,0,0,20,42a1,1,0,0,0,.54-.16C27.48,37.66,32,33.54,34,29.57,36.78,24,37.76,14.3,38,11.46a1.06,1.06,0,0,0-.74-1.07l0,0-.76-.25a78.27,78.27,0,0,1-7.87-3A36.45,36.45,0,0,1,21.51,2.7l-.62-.48A1.5,1.5,0,0,0,20.07,2Zm.24,10.5a6.09,6.09,0,0,1,5.77,4.07,1.48,1.48,0,0,0,1.26,1,6.16,6.16,0,0,1,5.47,6,6.17,6.17,0,0,1-6.22,5.95H13.89a6,6,0,0,1-6.08-6,5.93,5.93,0,0,1,5.44-6,1.53,1.53,0,0,0,1.29-1A6.09,6.09,0,0,1,20.31,12.5Zm11,13H14.5v3H26.59A5.12,5.12,0,0,0,31.33,25.5Zm-17.83,0H9.23a5.1,5.1,0,0,0,4.27,3Zm13-5.5H10.23a5,5,0,0,0-1.42,3.52,4.53,4.53,0,0,0,.1,1H26.5Zm3.79,0H27.5v4.5h4.17a4.52,4.52,0,0,0,.12-.75l0-.23A5,5,0,0,0,30.29,20ZM17.5,14.33a5.2,5.2,0,0,0-2,2.6,2.53,2.53,0,0,1-2.09,1.61,5.27,5.27,0,0,0-1.71.46H17.5Zm2.81-.83a5.14,5.14,0,0,0-1.81.32V19H28.87a5,5,0,0,0-1.37-.43l-.22,0a2.46,2.46,0,0,1-2.14-1.63A5.09,5.09,0,0,0,20.31,13.5Z" transform="translate(0)"/></svg>