<svg version="1.1" id="图层_1" xmlns="http://www.w3.org/2000/svg" xmlns:xlink="http://www.w3.org/1999/xlink" x="0px" y="0px" viewBox="0 0 48 48" style="enable-background:new 0 0 48 48;" xml:space="preserve" width="132px" height="132px">
<style type="text/css">
	.st0{fill:#454545;}
	.st1{fill:#454545;}
	.st2{fill:none;stroke:#000000;stroke-miterlimit:10;}
	.st3{fill:#454545;}
	.st4{fill:#454545;}
	.st5{fill:none;stroke:#000000;stroke-width:2;stroke-linecap:round;stroke-linejoin:round;stroke-miterlimit:10;}
	.st6{fill:#454545;}
</style>
<path class="st0" d="M27,24.2c0.5-0.7,0.8-1.5,0.8-2.5c0-2.1-1.7-4-4-4s-3.9,1.8-3.9,4s1.7,4,4,4c0.9,0,1.7-0.3,2.4-0.8l1.5,1.4&#10;&#9;c0.1,0.1,0.2,0.1,0.3,0.1c0.1,0,0.3-0.1,0.4-0.2c0.2-0.2,0.2-0.5,0-0.7L27,24.2z M23.9,24.7c-1.6,0-3-1.3-3-3c0-1.6,1.3-3,3-3&#10;&#9;s3,1.3,3,3C26.8,23.4,25.5,24.7,23.9,24.7z M31,18.5c-1.1-2.9-3.9-4.7-7-4.7c-3.1,0-5.9,1.8-7,4.7c-3.7,0.5-6.4,3.7-6.4,7.4&#10;&#9;c0,4.1,3.4,7.5,7.5,7.5h12.6c0.1,0,0.2,0,0.2-0.1c3.6-0.5,6.4-3.6,6.4-7.4C37.4,22,34.7,19,31,18.5z M31.2,32.1v-4.5&#10;&#9;c0-0.3-0.2-0.5-0.5-0.5c-0.3,0-0.5,0.2-0.5,0.5v4.6h-3.1v-2.6c0-0.3-0.2-0.5-0.5-0.5s-0.5,0.2-0.5,0.5v2.6H23v-4&#10;&#9;c0-0.3-0.2-0.5-0.5-0.5S22,28,22,28.2v4h-3.1v-2.8c0-0.3-0.2-0.5-0.5-0.5s-0.5,0.3-0.5,0.5v2.8c-3.4-0.2-6.2-3-6.2-6.4&#10;&#9;c0-3.3,2.5-6,5.8-6.3c0.2,0,0.4-0.2,0.4-0.3c0.9-2.6,3.4-4.3,6.2-4.3c2.8,0,5.2,1.7,6.2,4.3c0.1,0.2,0.2,0.3,0.4,0.3&#10;&#9;c3.3,0.4,5.8,3.1,5.8,6.3C36.4,28.9,34.2,31.5,31.2,32.1z M41.6,11L26.3,2.5c-1.3-0.7-3.4-0.7-4.7,0L6.4,11C5,11.8,4,13.5,4,15v18&#10;&#9;c0,1.5,1,3.2,2.4,4l15.3,8.5c0.6,0.4,1.5,0.6,2.3,0.6s1.7-0.2,2.3-0.6l15.3-8.5c1.3-0.7,2.4-2.5,2.4-4V15C44,13.5,43,11.8,41.6,11z&#10;&#9; M41.9,33c0,0.8-0.6,1.8-1.3,2.2l-15.3,8.5c-0.7,0.4-2,0.4-2.6,0L7.4,35.2c-0.7-0.4-1.3-1.4-1.3-2.2V15c0-0.8,0.6-1.8,1.3-2.2&#10;&#9;l15.3-8.5C23,4.1,23.5,4,24,4s1,0.1,1.3,0.3l15.3,8.5c0.7,0.4,1.3,1.4,1.3,2.2V33z"/>
</svg>