<?xml version="1.0" standalone="no"?>
<!DOCTYPE svg PUBLIC "-//W3C//DTD SVG 1.1//EN" "http://www.w3.org/Graphics/SVG/1.1/DTD/svg11.dtd" >
<svg xmlns="http://www.w3.org/2000/svg" xmlns:xlink="http://www.w3.org/1999/xlink" version="1.1" viewBox="-10 0 1034 1024">
   <path fill="currentColor"
d="M924 286l-203 -122q-24 -14 -59 -14t-60 14l-90 54l-90 -54q-24 -14 -58.5 -14t-60.5 14l-201 122q-25 14 -42 45t-17 62v241q0 30 16.5 60t40.5 44l203 122q24 14 59 14t60 -14l90 -54l90 54q12 6 27.5 10.5t31.5 4.5t31.5 -4.5t28.5 -10.5l201 -122q12 -8 23 -19
t19 -26q8 -14 12.5 -29.5t4.5 -29.5v-244q0 -30 -16.5 -60t-40.5 -44v0zM939 631q0 10 -3 20t-8 21q-5 10 -12.5 17.5t-15.5 12.5l-194 115h-1h-1q-18 11 -43 11t-42 -11l-203 -122q-18 -9 -25 -21.5t-7 -33.5v-245q0 -4 -1.5 -6.5t-4.5 -4.5q-4 -2 -7 -0.5t-6 4.5l-96 118
q-3 3 -2 7t4 8q3 3 7.5 2t7.5 -5l77 -93v215q0 27 10 44.5t32 32.5l86 51l-92 55q-14 8 -37 9t-38 -9l-202 -121q-16 -10 -27.5 -30.5t-11.5 -37.5v-244q0 -19 11.5 -39.5t27.5 -28.5l194 -115h1h1q17 -11 42.5 -11t42.5 11l203 122q19 9 26.5 21t7.5 34v245q0 4 1.5 6.5
t4.5 4.5h2.5h2.5q1 0 4 -1.5t4 -2.5l96 -118q3 -3 2 -7t-4 -8q-3 -3 -7.5 -2t-7.5 5l-77 93v-215q0 -27 -10 -44.5t-32 -32.5l-86 -51l92 -55q14 -8 37 -9t38 9l202 121q16 10 27.5 30.5t11.5 37.5v241h-2z" />
</svg>
