<?xml version="1.0" encoding="UTF-8" standalone="no"?>
<svg
   version="1.1"
   width="838px"
   height="965px"
   viewBox="-0.5 -0.5 838 965"
   id="svg3"
   sodipodi:docname="ed.svg"
   inkscape:version="1.3.2 (091e20e, 2023-11-25, custom)"
   xmlns:inkscape="http://www.inkscape.org/namespaces/inkscape"
   xmlns:sodipodi="http://sodipodi.sourceforge.net/DTD/sodipodi-0.dtd"
   xmlns="http://www.w3.org/2000/svg"
   xmlns:svg="http://www.w3.org/2000/svg">
  <sodipodi:namedview
     id="namedview3"
     pagecolor="#ffffff"
     bordercolor="#000000"
     borderopacity="0.25"
     inkscape:showpageshadow="2"
     inkscape:pageopacity="0.0"
     inkscape:pagecheckerboard="0"
     inkscape:deskcolor="#d1d1d1"
     inkscape:zoom="0.5957283"
     inkscape:cx="886.31008"
     inkscape:cy="435.60126"
     inkscape:window-width="1920"
     inkscape:window-height="1009"
     inkscape:window-x="-8"
     inkscape:window-y="-8"
     inkscape:window-maximized="1"
     inkscape:current-layer="g2" />
  <defs
     id="defs1">
    <clipPath
       id="mx-clippath-inset-6-57-12-6-23-13-1"
       clipPathUnits="objectBoundingBox">
      <rect
         x="0.13"
         y="0.06570000000000001"
         width="0.75"
         height="0.872"
         id="rect1" />
    </clipPath>
  </defs>
  <g
     id="g2">
    <path
       style="fill:#000000"
       d="m 103.3179,915.62734 c -13.095901,-2.77848 -22.543501,-8.0992 -33.073634,-18.62648 -7.257781,-7.25582 -10.174544,-11.12134 -13.273215,-17.59069 -7.701694,-16.07945 -7.13968,15.36803 -7.13968,-399.50069 0,-414.868707 -0.562014,-383.421226 7.13968,-399.500681 5.595916,-11.68305 19.18245,-25.265911 30.868658,-30.860313 15.993591,-7.656427 -8.019401,-7.137751 330.454421,-7.137751 338.47382,0 314.46083,-0.518676 330.45442,7.137751 11.62144,5.563396 25.29328,19.198632 30.75312,30.670783 7.86175,16.51902 7.25522,-16.894632 7.25522,399.690211 0,416.58485 0.60653,383.1712 -7.25522,399.69022 -5.42926,11.4079 -19.15256,25.12748 -30.56354,30.55527 -16.44137,7.82057 9.34488,7.26306 -331.40885,7.1652 -266.90357,-0.0767 -307.62795,-0.29606 -314.21138,-1.69283 z m 623.46924,-45.61895 c 5.50172,-2.52312 10.03328,-7.05346 12.55708,-12.55369 1.91107,-4.16488 1.9827,-17.80383 1.9827,-377.54522 0,-359.74138 -0.0716,-373.38033 -1.9827,-377.54521 -2.5238,-5.500235 -7.05536,-10.030573 -12.55708,-12.553689 -4.15997,-1.907785 -15.73474,-1.982156 -308.49301,-1.982156 -292.75827,0 -304.33304,0.07437 -308.49301,1.982156 -5.50172,2.523116 -10.033287,7.053454 -12.557086,12.553689 -1.911067,4.16488 -1.982692,17.80383 -1.982692,377.54521 0,359.74139 0.07162,373.38034 1.982692,377.54522 2.523799,5.50023 7.055366,10.03057 12.557086,12.55369 4.15997,1.90778 15.73474,1.98216 308.49301,1.98216 292.75827,0 304.33304,-0.0744 308.49301,-1.98216 z M 149.69282,801.85918 c -3.6392,-1.47729 -8.01589,-7.44959 -8.01589,-10.93822 0,-2.101 1.23713,-4.52329 3.66017,-7.16658 3.45132,-3.76501 4.09874,-4.01763 11.34563,-4.42701 l 7.68545,-0.43415 0.0237,-94.12937 c 0.0225,-89.39321 0.12463,-94.34678 2.02913,-98.45035 1.10297,-2.37653 3.64505,-5.87619 5.64908,-7.77702 6.80863,-6.45799 8.82532,-6.80875 38.99654,-6.78255 24.09292,0.0209 27.82852,0.25607 31.64038,1.99165 5.55806,2.53065 11.96416,9.6491 13.42876,14.92201 0.76721,2.76211 1.14841,34.94674 1.15245,97.2984 l 0.006,93.17103 h 22.69126 22.69125 l 0.006,-150.96407 c 0.004,-100.51232 0.379,-152.30667 1.12206,-154.98144 1.57177,-5.65788 5.98242,-10.45325 12.33446,-13.41035 5.26629,-2.45164 6.36265,-2.53604 33.07688,-2.54624 l 27.63004,-0.0106 5.85988,2.97068 c 3.83795,1.94565 6.9807,4.58682 9.10818,7.65455 l 3.2483,4.68388 0.2847,153.30178 0.28471,153.30177 h 22.67668 22.67668 l 0.006,-116.39627 c 0.004,-76.73396 0.38632,-117.7652 1.12206,-120.41364 1.57177,-5.65788 5.98242,-10.45325 12.33446,-13.41034 5.26629,-2.45165 6.36265,-2.53604 33.07688,-2.54625 l 27.63004,-0.0106 5.85988,2.97067 c 3.83782,1.94558 6.98077,4.58689 9.10818,7.65443 l 3.2483,4.68375 0.28871,118.7341 0.28871,118.7341 h 22.67268 22.67267 l 0.006,-185.53187 c 0.004,-124.29062 0.37441,-186.85795 1.12206,-189.54925 1.57177,-5.65788 5.98242,-10.45325 12.33446,-13.41034 5.26629,-2.45165 6.36266,-2.53604 33.07688,-2.54625 l 27.63004,-0.0106 5.85989,2.97067 c 3.83802,1.94569 6.98065,4.58679 9.10817,7.65462 l 3.2483,4.68395 0.2821,187.74828 0.28209,187.74829 7.67349,0.43348 c 7.23335,0.40861 7.88343,0.6625 11.33366,4.42633 4.8775,5.32083 4.86716,9.22109 -0.0386,14.57284 l -3.69882,4.03505 -267.78584,0.20498 c -147.28221,0.11273 -268.79798,-0.2059 -270.03504,-0.70807 z M 233.52248,687.3163 v -91.82073 h -22.69125 -22.69126 v 91.82073 91.82072 h 22.69126 22.69125 z m 138.3086,-57.79305 V 479.90948 h -22.69125 -22.69126 v 149.61377 149.61377 h 22.69126 22.69125 z m 138.3086,34.56781 V 549.04509 h -22.69125 -22.69126 v 115.04597 115.04596 h 22.69126 22.69125 z M 648.44829,594.95545 V 410.77388 h -22.69126 -22.69125 v 184.18157 184.18157 h 22.69125 22.69126 z M 201.10148,414.78475 c -25.32488,-7.1893 -33.04691,-39.29647 -13.86288,-57.64003 11.86757,-11.34764 27.94433,-13.13831 41.3947,-4.61065 l 4.96949,3.15071 40.60824,-23.51084 40.60824,-23.51084 0.14623,-8.08796 c 0.24809,-13.72267 7.09675,-24.13819 20.04571,-30.48575 7.44357,-3.64882 21.26723,-3.42784 28.71585,0.45905 9.61882,5.01936 16.0587,12.97533 18.82944,23.26232 1.07045,3.97426 1.73946,4.69035 5.26989,5.64074 2.22408,0.59872 18.85197,4.70865 36.95085,9.13318 l 32.90707,8.04459 5.19265,-4.8558 c 7.7198,-7.21902 13.5101,-9.46189 24.57147,-9.51773 7.34862,-0.0371 10.12995,0.42596 13.91407,2.31654 l 4.72951,2.3629 43.35434,-34.30126 c 34.08428,-26.96693 43.26794,-34.74799 42.95027,-36.39058 -0.22223,-1.14913 -0.439,-5.9782 -0.48171,-10.73128 -0.0657,-7.30992 0.35731,-9.47446 2.7443,-14.04317 3.3964,-6.5007 10.42433,-13.44965 17.05085,-16.85922 6.98218,-3.59257 21.11176,-3.59257 28.09394,0 6.62174,3.40711 13.65107,10.35468 17.05761,16.85922 2.38668,4.5572 2.83681,6.83607 2.88051,14.5833 0.0448,7.94005 -0.35905,10.01849 -2.98554,15.36565 -3.3956,6.91297 -9.65802,12.94104 -16.95258,16.31816 -7.05157,3.26464 -21.40346,3.2572 -27.95184,-0.0145 l -4.72031,-2.35835 -43.36354,34.32377 c -33.82696,26.77524 -43.27467,34.77731 -42.95947,36.38603 0.22223,1.13424 0.439,5.95114 0.48171,10.70421 0.0657,7.30992 -0.35731,9.47447 -2.7443,14.04317 -3.40209,6.51159 -10.43728,13.46163 -17.05085,16.84447 -7.36531,3.76735 -20.03735,3.63161 -28.09394,-0.30092 -10.01047,-4.88627 -17.22725,-13.22341 -19.44441,-22.46306 -0.83378,-3.47467 -1.96998,-5.55802 -3.25325,-5.96521 -1.08459,-0.34414 -17.66888,-4.71759 -36.85399,-9.71879 l -34.882,-9.09308 -5.72862,5.41642 c -12.58257,11.89685 -28.27098,13.84414 -41.90327,5.20113 l -4.97133,-3.15187 -40.60669,23.5286 -40.6067,23.52859 -0.14593,8.07137 c -0.24613,13.61305 -7.59694,24.85296 -19.89126,30.41515 -5.86483,2.65336 -17.6326,3.46276 -24.01253,1.6516 z"
       id="path3" />
  </g>
</svg>
