<svg version="1.1" id="图层_1" xmlns="http://www.w3.org/2000/svg" xmlns:xlink="http://www.w3.org/1999/xlink" x="0px" y="0px" viewBox="0 0 48 48" style="enable-background:new 0 0 48 48;" xml:space="preserve" width="132px" height="132px">
<style type="text/css">
	.st0{fill:#060001;}
	.st1{fill:#040000;}
	.st2{fill:none;stroke:#000000;stroke-miterlimit:10;}
	.st3{fill:#221815;}
	.st4{fill:#080102;}
	.st5{fill:none;stroke:#000000;stroke-width:2;stroke-linecap:round;stroke-linejoin:round;stroke-miterlimit:10;}
	.st6{fill:#070001;}
</style>
<g>
	<path d="M42.5,2H5.5C3.6,2,2,3.6,2,5.5v25.8c0,1.7,1.1,3.6,2.6,4.5l16.8,9.6C22.1,45.8,23,46,24,46s1.9-0.2,2.6-0.6l16.8-9.6&#10;&#9;&#9;c1.5-0.8,2.6-2.8,2.6-4.5V5.5C46,3.6,44.4,2,42.5,2z M43.7,31.3c0,0.9-0.7,2-1.4,2.5l-16.8,9.6c-0.7,0.4-2.2,0.4-2.9,0L5.7,33.8&#10;&#9;&#9;c-0.7-0.4-1.4-1.6-1.4-2.5V5.5c0-0.6,0.5-1.2,1.2-1.2h37.1c0.6,0,1.2,0.5,1.2,1.2V31.3z"/>
	<path d="M36.4,13H20.2c-0.3,0-0.6,0.3-0.6,0.6c0,0.3,0.3,0.6,0.6,0.6h16.2c0.3,0,0.6-0.3,0.6-0.6C37,13.3,36.8,13,36.4,13z"/>
	<path d="M36.4,16.5H20.2c-0.3,0-0.6,0.3-0.6,0.6c0,0.3,0.3,0.6,0.6,0.6h16.2c0.3,0,0.6-0.3,0.6-0.6C37,16.8,36.8,16.5,36.4,16.5z"/>
	<path d="M15.4,11.9h-1.9c-1.4,0-2.5,1.1-2.5,2.5v1.9c0,1.4,1.1,2.5,2.5,2.5h1.9c1.4,0,2.5-1.1,2.5-2.5v-1.9&#10;&#9;&#9;C17.9,13,16.8,11.9,15.4,11.9z M16.8,16.3c0,0.7-0.6,1.4-1.4,1.4h-1.9c-0.7,0-1.4-0.6-1.4-1.4v-1.9c0-0.7,0.6-1.4,1.4-1.4h1.9&#10;&#9;&#9;c0.7,0,1.4,0.6,1.4,1.4V16.3z"/>
	<path d="M36.4,23.5H20.2c-0.3,0-0.6,0.3-0.6,0.6c0,0.3,0.3,0.6,0.6,0.6h16.2c0.3,0,0.6-0.3,0.6-0.6C37,23.7,36.8,23.5,36.4,23.5z"/>
	<path d="M36.4,26.9H20.2c-0.3,0-0.6,0.3-0.6,0.6s0.3,0.6,0.6,0.6h16.2c0.3,0,0.6-0.3,0.6-0.6S36.8,26.9,36.4,26.9z"/>
	<path d="M15.4,22.3h-1.9c-1.4,0-2.5,1.1-2.5,2.5v1.9c0,1.4,1.1,2.5,2.5,2.5h1.9c1.4,0,2.5-1.1,2.5-2.5v-1.9&#10;&#9;&#9;C17.9,23.4,16.8,22.3,15.4,22.3z M16.8,26.8c0,0.7-0.6,1.4-1.4,1.4h-1.9c-0.7,0-1.4-0.6-1.4-1.4v-1.9c0-0.7,0.6-1.4,1.4-1.4h1.9&#10;&#9;&#9;c0.7,0,1.4,0.6,1.4,1.4V26.8z"/>
</g>
</svg>