<?xml version="1.0" encoding="UTF-8" standalone="no"?>
<svg
   viewBox="0 0 40 44.12"
   version="1.1"
   id="svg8"
   sodipodi:docname="gaussdb_nosql.svg"
   inkscape:version="1.3.2 (091e20e, 2023-11-25, custom)"
   xmlns:inkscape="http://www.inkscape.org/namespaces/inkscape"
   xmlns:sodipodi="http://sodipodi.sourceforge.net/DTD/sodipodi-0.dtd"
   xmlns="http://www.w3.org/2000/svg"
   xmlns:svg="http://www.w3.org/2000/svg"
   xmlns:rdf="http://www.w3.org/1999/02/22-rdf-syntax-ns#"
   xmlns:cc="http://creativecommons.org/ns#"
   xmlns:dc="http://purl.org/dc/elements/1.1/">
  <sodipodi:namedview
     id="namedview8"
     pagecolor="#ffffff"
     bordercolor="#000000"
     borderopacity="0.25"
     inkscape:showpageshadow="2"
     inkscape:pageopacity="0.0"
     inkscape:pagecheckerboard="0"
     inkscape:deskcolor="#d1d1d1"
     inkscape:zoom="41.228469"
     inkscape:cx="19.998317"
     inkscape:cy="22.059999"
     inkscape:window-width="3840"
     inkscape:window-height="2054"
     inkscape:window-x="-11"
     inkscape:window-y="-11"
     inkscape:window-maximized="1"
     inkscape:current-layer="gdb_1-2" />
  <defs
     id="defs1">
    <style
       id="style1">.cls-1{fill:none;}.cls-2{fill:#666666;}.cls-3{fill:#666666;}</style>
  </defs>
  <title
     id="title1">GaussDB nosql</title>
  <g
     id="dsb_nosql_2"
     data-name="gdb_nosql 2">
    <g
       id="gdb_1-2"
       data-name="gdb 1">
      <path
         class="cls-1"
         d="M20.42,15.7a7.1,7.1,0,0,0-1.19,3.95v.23a5.09,5.09,0,0,0,0,.55l.53-.32h0a8.24,8.24,0,0,1,1.27-.61h0a8.16,8.16,0,0,1,10.67,5,7.23,7.23,0,0,0,1.85-4.82,7.15,7.15,0,0,0-6.5-7.15c-.22,0-.45,0-.68,0A7.15,7.15,0,0,0,20.42,15.7Z"
         id="path1" />
      <path
         class="cls-1"
         d="M20.53,21.47c-.16-.11-.31-.23-.47-.33a5.61,5.61,0,0,0-.55.41,6,6,0,0,0,.19.6c.2,0,.41,0,.61,0C20.39,21.93,20.47,21.71,20.53,21.47Z"
         id="path2" />
      <path
         class="cls-1"
         d="M12.88,15a7.13,7.13,0,0,0,1.53,4.43,7.25,7.25,0,0,0,3.69,2.48l.46.11-.12-.53h0a7.92,7.92,0,0,1-.2-1.55h0v-.26a8.18,8.18,0,0,1,8.1-8.18A7.19,7.19,0,0,0,12.88,15Z"
         id="path3" />
      <path
         class="cls-1"
         d="M23.31,27.13V26.9a7.12,7.12,0,0,0-1.52-4.2c-.13-.16-.26-.31-.4-.46l-.26.62a8.6,8.6,0,0,1-.7,1.3h0a8.16,8.16,0,0,1-3.9,3.13l-.18-.46.18.46A8.27,8.27,0,0,1,9,26.41q0,.36,0,.72a7.19,7.19,0,0,0,14.37,0Z"
         id="path4" />
      <path
         class="cls-1"
         d="M16.16,26.36h0a7.12,7.12,0,0,0,3.42-2.75l.42.27-.42-.27.25-.41-.54-.05h0a8.18,8.18,0,0,1-1.46-.28A8.22,8.22,0,0,1,11.88,15,9.81,9.81,0,0,1,12,13.91c0-.09,0-.18,0-.27a6.86,6.86,0,0,1,.22-1,.09.09,0,0,0,0-.05,7.19,7.19,0,1,0,3.92,13.77Z"
         id="path5" />
      <path
         class="cls-1"
         d="M31.51,25.41l-.49.11a7.19,7.19,0,0,0-9.58-5.1L21.26,20l.18.47-.38.16.36.31a8.62,8.62,0,0,1,1.15,1.19,8.08,8.08,0,0,1,1.73,4.79v.26A8.26,8.26,0,0,1,21,33.67a7.17,7.17,0,0,0,10-8.15Z"
         id="path6" />
      <path
         class="cls-2"
         d="M34.6,19.65a8.14,8.14,0,0,0-7.12-8.11,8.17,8.17,0,0,0-14.81,0,8.17,8.17,0,0,0-4.6,14.16,8.66,8.66,0,0,0-.13,1.44,8.16,8.16,0,0,0,12.13,7.15,8.17,8.17,0,0,0,12.14-7.15,9,9,0,0,0-.16-1.55A8.18,8.18,0,0,0,34.6,19.65ZM27.1,12.5a7.15,7.15,0,0,1,6.5,7.15,7.23,7.23,0,0,1-1.85,4.82,8.16,8.16,0,0,0-10.67-5h0a8.24,8.24,0,0,0-1.27.61h0l-.53.32a5.09,5.09,0,0,1,0-.55v-.23a7.19,7.19,0,0,1,7.19-7.18C26.65,12.47,26.88,12.48,27.1,12.5Zm-7.4,9.65a6,6,0,0,1-.19-.6,5.61,5.61,0,0,1,.55-.41c.16.1.31.22.47.33-.06.24-.14.46-.22.69C20.11,22.17,19.9,22.16,19.7,22.15Zm.37-14.34a7.16,7.16,0,0,1,6.26,3.66,8.18,8.18,0,0,0-8.1,8.18v.26h0a7.92,7.92,0,0,0,.2,1.55h0l.12.53-.46-.11a7.25,7.25,0,0,1-3.69-2.48A7.19,7.19,0,0,1,20.07,7.81ZM6.4,19.65a7.23,7.23,0,0,1,5.84-7.06.09.09,0,0,1,0,.05,6.86,6.86,0,0,0-.22,1c0,.09,0,.18,0,.27A9.81,9.81,0,0,0,11.88,15a8.22,8.22,0,0,0,5.95,7.87,8.18,8.18,0,0,0,1.46.28h0l.54.05-.25.41.42.27-.42-.27a7.12,7.12,0,0,1-3.42,2.75h0a7.3,7.3,0,0,1-7.23-1.23A7.19,7.19,0,0,1,6.4,19.65Zm2.54,7.48q0-.36,0-.72a8.27,8.27,0,0,0,7.55.88l-.18-.46.18.46a8.16,8.16,0,0,0,3.9-3.13h0a8.6,8.6,0,0,0,.7-1.3l.26-.62c.14.15.27.3.4.46a7.12,7.12,0,0,1,1.52,4.2v.23a7.19,7.19,0,0,1-14.37,0ZM24,34.31a7.26,7.26,0,0,1-3-.64,8.26,8.26,0,0,0,3.27-6.54v-.26a8.08,8.08,0,0,0-1.73-4.79,8.62,8.62,0,0,0-1.15-1.19l-.36-.31.38-.16L21.26,20l.18.47A7.19,7.19,0,0,1,31,25.52l.49-.11-.49.11a7.3,7.3,0,0,1,.19,1.61A7.2,7.2,0,0,1,24,34.31Z"
         id="path7"
         style="fill:#000000;fill-opacity:1" />
      <path
         class="cls-3"
         d="M37.6,9,22.3.53a5.45,5.45,0,0,0-4.7,0L2.4,9A4.94,4.94,0,0,0,0,13V31a4.94,4.94,0,0,0,2.4,4l15.3,8.5a4.38,4.38,0,0,0,2.3.59,4.47,4.47,0,0,0,2.3-.59L37.6,35A5.05,5.05,0,0,0,40,31V13A4.94,4.94,0,0,0,37.6,9Zm.3,22a2.88,2.88,0,0,1-1.3,2.2l-15.3,8.5a3,3,0,0,1-2.6,0L3.4,33.23A2.88,2.88,0,0,1,2.1,31V13a2.82,2.82,0,0,1,1.3-2.2l15.3-8.5A2.41,2.41,0,0,1,20,2a2.41,2.41,0,0,1,1.3.3l15.3,8.5A2.82,2.82,0,0,1,37.9,13Z"
         id="path8"
         style="fill:#000000;fill-opacity:1" />
    </g>
  </g>
  <metadata
     id="metadata8">
    <rdf:RDF>
      <cc:Work
         rdf:about="">
        <dc:title>GaussDB nosql</dc:title>
      </cc:Work>
    </rdf:RDF>
  </metadata>
</svg>
