<svg version="1.1" id="图层_1" xmlns="http://www.w3.org/2000/svg" xmlns:xlink="http://www.w3.org/1999/xlink" x="0px" y="0px" viewBox="0 0 48 48" style="enable-background:new 0 0 48 48;" xml:space="preserve" width="132px" height="132px">
<style type="text/css">
	.st0{fill:#060001;}
	.st1{fill:#040000;}
	.st2{fill:none;stroke:#000000;stroke-miterlimit:10;}
	.st3{fill:#221815;}
	.st4{fill:#080102;}
	.st5{fill:none;stroke:#000000;stroke-width:2;stroke-linecap:round;stroke-linejoin:round;stroke-miterlimit:10;}
	.st6{fill:#070001;}
</style>
<path class="st3" d="M24,26c-1.7,0-3,1.3-3,3s1.3,3,3,3s3-1.3,3-3S25.7,26,24,26z M24,31c-1.1,0-2-0.9-2-2s0.9-2,2-2s2,0.9,2,2&#10;&#9;S25.1,31,24,31z M18,21h12v-1H18V21z M18,18h12v-1H18V18z M41.9,10.5c-2.1-0.7-6.3-2.1-8.4-3.1c-4.2-2.1-5.8-3.5-7.4-4.7&#10;&#9;C25.5,2.2,24.8,2,24,2c0,0,0,0,0,0c0,0,0,0,0,0c-0.8,0-1.5,0.2-2.1,0.6c-1.6,1.2-3.2,2.6-7.4,4.7c-2.1,1-6.3,2.4-8.4,3.1&#10;&#9;c-1.4,0.5-2.2,1.7-2.1,3.1C4.4,18.1,5.5,27,8.2,32.5c3.2,6.3,11.1,11.2,14.2,13.1c0.5,0.3,1,0.4,1.6,0.4s1.1-0.1,1.6-0.4&#10;&#9;c3.1-1.9,11-6.8,14.2-13.1c2.7-5.5,3.8-14.4,4.2-18.8C44.1,12.2,43.2,10.9,41.9,10.5z M38,31.6c-2,4-6.5,8.1-13.4,12.3&#10;&#9;C24.4,43.9,24.2,44,24,44s-0.4-0.1-0.5-0.2C16.5,39.7,12,35.5,10,31.6C7.2,26,6.2,16.3,6,13.5c-0.1-0.7,0.6-1,0.8-1.1l0.8-0.3&#10;&#9;c2.3-0.8,5.9-2,7.9-3c3.8-1.9,5.6-3.3,7.1-4.4c0.2-0.2,0.4-0.3,0.6-0.5C23.2,4.1,23.5,4,23.9,4l0,0L24,4l0.1,0&#10;&#9;c0.4,0,0.7,0.1,0.8,0.2c0.2,0.2,0.4,0.3,0.6,0.5c1.4,1.1,3.2,2.5,7.1,4.4c2,1,5.5,2.2,7.9,3l0.8,0.3c0.2,0.1,0.8,0.3,0.8,1.1&#10;&#9;C41.8,16.3,40.8,26,38,31.6z M31,12H17c-1.1,0-2,0.9-2,2v20c0,1.1,0.9,2,2,2h14c1.1,0,2-0.9,2-2V14C33,12.9,32.1,12,31,12z M32,34&#10;&#9;c0,0.6-0.4,1-1,1H17c-0.6,0-1-0.4-1-1V14c0-0.6,0.4-1,1-1h14c0.6,0,1,0.4,1,1V34z"/>
</svg>