<svg width="50" height="36" xmlns="http://www.w3.org/2000/svg" xmlns:xlink="http://www.w3.org/1999/xlink" overflow="hidden"><defs><clipPath id="clip0"><rect x="145" y="159" width="50" height="36"/></clipPath></defs><g clip-path="url(#clip0)" transform="translate(-145 -159)"><path d="M187.433 171C171.567 171 171.567 171 171.567 171 171.283 171 171 171.25 171 171.5 171 171.75 171.283 172 171.567 172 187.433 172 187.433 172 187.433 172 187.717 172 188 171.75 188 171.5 188 171.25 187.717 171 187.433 171Z" fill="#454545" fill-rule="evenodd"/><path d="M187.433 176C171.567 176 171.567 176 171.567 176 171.283 176 171 176.25 171 176.5 171 176.75 171.283 177 171.567 177 187.433 177 187.433 177 187.433 177 187.717 177 188 176.75 188 176.5 188 176.25 187.717 176 187.433 176Z" fill="#454545" fill-rule="evenodd"/><path d="M187.433 182C171.567 182 171.567 182 171.567 182 171.283 182 171 182.25 171 182.5 171 182.75 171.283 183 171.567 183 187.433 183 187.433 183 187.433 183 187.717 183 188 182.75 188 182.5 188 182.25 187.717 182 187.433 182Z" fill="#454545" fill-rule="evenodd"/><path d="M164.781 181.167C164.219 180.889 163.656 180.889 163.375 180.611 163.375 180.056 163.375 180.056 163.375 180.056 164.5 179.222 165.344 177.556 165.344 176.167 165.344 172.278 165.344 172.278 165.344 172.278 165.344 169.5 162.812 167 160 167 157.188 167 154.656 169.5 154.656 172.278 154.656 176.167 154.656 176.167 154.656 176.167 154.656 177.556 155.5 179.222 156.625 180.056 156.625 180.611 156.625 180.611 156.625 180.611 156.344 180.889 155.781 180.889 155.219 181.167 153.531 181.722 151 182.278 151 184.5 151 186.444 151 186.444 151 186.444 151 186.722 151.281 187 151.562 187 168.438 187 168.438 187 168.438 187 168.719 187 169 186.722 169 186.444 169 184.5 169 184.5 169 184.5 169 182.278 166.469 181.722 164.781 181.167ZM167.875 185.889C152.125 185.889 152.125 185.889 152.125 185.889 152.125 184.5 152.125 184.5 152.125 184.5 152.125 183.111 154.094 182.556 155.5 182.278 156.906 181.722 157.75 181.444 157.75 180.889 157.75 179.778 157.75 179.778 157.75 179.778 157.75 179.778 157.75 179.5 157.469 179.5 156.344 178.667 155.781 177.278 155.781 176.167 155.781 172.278 155.781 172.278 155.781 172.278 155.781 170.056 157.75 168.111 160 168.111 162.25 168.111 164.219 170.056 164.219 172.278 164.219 176.167 164.219 176.167 164.219 176.167 164.219 177.278 163.656 178.667 162.531 179.5 162.25 179.5 162.25 179.778 162.25 179.778 162.25 180.889 162.25 180.889 162.25 180.889 162.25 181.444 163.094 181.722 164.5 182.278 165.906 182.556 167.875 183.111 167.875 184.5L167.875 185.889Z" fill="#454545" fill-rule="evenodd"/><path d="M191.659 160C149.341 160 149.341 160 149.341 160 147.392 160 146 161.367 146 163.281 146 191.719 146 191.719 146 191.719 146 193.633 147.392 195 149.341 195 191.659 195 191.659 195 191.659 195 193.608 195 195 193.633 195 191.719 195 163.281 195 163.281 195 163.281 195 161.367 193.608 160 191.659 160ZM192.773 191.719C192.773 192.266 192.216 192.812 191.659 192.812 149.341 192.812 149.341 192.812 149.341 192.812 148.784 192.812 148.227 192.266 148.227 191.719 148.227 163.281 148.227 163.281 148.227 163.281 148.227 162.734 148.784 162.188 149.341 162.188 191.659 162.188 191.659 162.188 191.659 162.188 192.216 162.188 192.773 162.734 192.773 163.281L192.773 191.719Z" fill="#454545" fill-rule="evenodd"/></g></svg>