<svg width="40" height="47" xmlns="http://www.w3.org/2000/svg" xmlns:xlink="http://www.w3.org/1999/xlink" overflow="hidden"><defs><clipPath id="clip0"><rect x="462" y="164" width="40" height="47"/></clipPath></defs><g clip-path="url(#clip0)" transform="translate(-462 -164)"><path d="M484.054 165C466.595 165 466.595 165 466.595 165 464.541 165 463 166.534 463 168.58 463 206.42 463 206.42 463 206.42 463 208.466 464.541 210 466.595 210 492.27 210 492.27 210 492.27 210 492.784 210 493.554 209.744 494.068 209.489 498.176 208.466 498.176 208.466 498.176 208.466 499.716 207.955 501 206.165 501 204.375 501 182.131 501 182.131 501 182.131 501 172.67 493.297 165 484.054 165ZM493.297 206.42C493.297 207.188 492.784 207.699 492.27 207.699 466.595 207.699 466.595 207.699 466.595 207.699 465.824 207.699 465.311 207.188 465.311 206.42 465.311 168.58 465.311 168.58 465.311 168.58 465.311 167.812 465.824 167.301 466.595 167.301 479.432 167.301 479.432 167.301 479.432 167.301 487.135 167.301 493.297 173.693 493.297 181.619L493.297 206.42ZM499.973 204.375C499.973 205.653 498.946 206.932 497.662 207.188 495.351 207.955 495.351 207.955 495.351 207.955 495.608 207.443 495.865 206.932 495.865 206.42 495.865 181.619 495.865 181.619 495.865 181.619 495.865 174.716 491.5 168.835 485.595 166.278 493.554 167.045 499.973 173.949 499.973 182.131L499.973 204.375ZM483.541 185.71C483.027 184.176 481.23 182.898 479.432 182.898 477.378 182.898 475.838 184.176 475.068 185.71 473.014 185.966 471.216 188.011 471.216 190.312 471.216 192.614 473.27 194.659 475.581 194.659 483.027 194.659 483.027 194.659 483.027 194.659 485.595 194.659 487.649 192.614 487.649 190.312 487.649 188.011 485.851 185.966 483.541 185.71ZM483.027 193.381C475.581 193.381 475.581 193.381 475.581 193.381 473.784 193.381 472.5 192.102 472.5 190.312 472.5 188.523 473.527 187.244 475.324 186.989 475.838 186.989 476.095 186.733 476.351 186.222 476.865 184.943 477.892 183.92 479.432 183.92 480.716 183.92 482 184.943 482.514 186.222 482.77 186.733 483.027 186.989 483.541 186.989 485.081 187.244 486.365 188.523 486.365 190.312 486.365 192.102 484.824 193.381 483.027 193.381Z" fill="#454545" fill-rule="evenodd"/></g></svg>