<svg version="1.1" xmlns="http://www.w3.org/2000/svg" xmlns:xlink="http://www.w3.org/1999/xlink" x="0px" y="0px" viewBox="0 0 48 48" style="enable-background:new 0 0 48 48;" xml:space="preserve"><path class="" d="M45.1,35.4c-1.6-5.5-3.9-13.5-6.9-24c0.4-0.4,0.6-1,0.6-1.6c0-1.3-1-2.3-2.3-2.3s-2.3,1.1-2.3,2.3 c0,0.5,0.2,1,0.5,1.4l-10.3,8.6L14,11c0.2-0.3,0.3-0.7,0.3-1.1c0-1.3-1-2.3-2.3-2.3S9.7,8.6,9.7,9.8c0,0.7,0.3,1.4,0.8,1.8 C7.4,22,5.1,29.9,3.4,35.4c-1.1,0.2-1.9,1.1-1.9,2.3c0,1.3,1,2.3,2.3,2.3s2.3-1.1,2.3-2.3c0-0.4-0.1-0.8-0.3-1.1l12.3-10.2c1.9,4.3,3.3,7.7,4.3,10c-0.3,0.4-0.4,0.9-0.4,1.4c0,1.3,1,2.3,2.3,2.3s2.3-1.1,2.3-2.3c0-0.6-0.2-1.2-0.6-1.6c1-2.3,2.5-5.6,4.3-9.9l12.3,10.5c-0.1,0.3-0.2,0.6-0.2,0.9c0,1.3,1,2.3,2.3,2.3S47,39,47,37.7C47,36.5,46.2,35.6,45.1,35.4z M36.5,8.5c0.7,0,1.3,0.6,1.3,1.3c0,0.7-0.6,1.3-1.3,1.3s-1.3-0.6-1.3-1.3C35.2,9.1,35.8,8.5,36.5,8.5z M12,8.5c0.7,0,1.3,0.6,1.3,1.3c0,0.7-0.6,1.3-1.3,1.3c-0.7,0-1.3-0.6-1.3-1.3C10.7,9.1,11.3,8.5,12,8.5z M3.8,39.1c-0.7,0-1.3-0.6-1.3-1.3s0.6-1.3,1.3-1.3c0.7,0,1.3,0.6,1.3,1.3S4.5,39.1,3.8,39.1z M5.4,35.7l6.9-22.9l5.4,12.6L5.4,35.7z M14.4,12.6l9.2,7.9l-4.3,3.6L14.4,12.6z M24.3,39.1c-0.7,0-1.3-0.6-1.3-1.3s0.6-1.3,1.3-1.3c0.7,0,1.3,0.6,1.3,1.3S25,39.1,24.3,39.1z M24.1,35.3l-4.4-10.3l4.6-3.9l4.3,3.7L24.1,35.3z M29.1,23.9l-4-3.4l8.7-7.2L29.1,23.9z M36.4,12.4l6.8,23.6L30.7,25.3L36.4,12.4z M44.7,39.1 c-0.7,0-1.3-0.6-1.3-1.3s0.6-1.3,1.3-1.3S46,37,46,37.7S45.4,39.1,44.7,39.1z"></path></svg>
