<svg width="61" height="46" xmlns="http://www.w3.org/2000/svg" xmlns:xlink="http://www.w3.org/1999/xlink" overflow="hidden"><defs><clipPath id="clip0"><rect x="858" y="329" width="61" height="46"/></clipPath></defs><g clip-path="url(#clip0)" transform="translate(-858 -329)"><path d="M903.341 341C900.955 334.812 895.159 330 888 330 880.841 330 874.705 334.812 872.318 341 864.136 342.031 858 348.906 858 357.5 858 366.781 865.159 374 874.364 374 901.636 374 901.636 374 901.636 374 910.5 374 918 366.781 918 357.5 918 348.906 911.523 342.031 903.341 341ZM883.227 360.25C883.227 359.562 883.227 359.562 883.227 359.562 875.727 359.562 875.727 359.562 875.727 359.562 875.045 359.562 875.045 359.562 874.705 359.562 874.705 359.562 875.045 359.219 875.386 358.875 886.295 347.531 886.295 347.531 886.295 347.531 886.636 347.188 887.318 346.844 888 346.844 888.341 346.844 889.023 347.188 889.364 347.531 900.273 358.875 900.273 358.875 900.273 358.875 900.614 359.219 900.614 359.562 900.614 359.562 900.614 359.562 900.273 359.562 899.932 359.562 892.773 359.562 892.773 359.562 892.773 359.562 892.773 360.25 892.773 360.25 892.773 360.25 892.773 360.938 892.773 360.938 892.773 360.938 892.773 371.25 892.773 371.25 892.773 371.25 883.227 371.25 883.227 371.25 883.227 371.25 883.227 360.938 883.227 360.938 883.227 360.938L883.227 360.25ZM901.636 371.25C894.136 371.25 894.136 371.25 894.136 371.25 894.136 360.938 894.136 360.938 894.136 360.938 899.932 360.938 899.932 360.938 899.932 360.938 901.295 360.938 901.636 360.25 901.636 359.906 901.977 359.562 901.977 358.875 900.955 357.844 890.386 346.5 890.386 346.5 890.386 346.5 889.705 346.156 888.682 345.469 888 345.469 888 345.469 888 345.469 887.659 345.469 886.977 345.469 885.955 346.156 885.273 346.5 874.364 357.844 874.364 357.844 874.364 357.844 873.341 358.875 873.341 359.562 873.682 359.906 873.682 360.25 874.364 360.938 875.727 360.938 881.864 360.938 881.864 360.938 881.864 360.938 881.864 371.25 881.864 371.25 881.864 371.25 874.364 371.25 874.364 371.25 874.364 371.25 866.864 371.25 860.727 365.062 860.727 357.5 860.727 350.625 865.841 344.781 872.659 343.75 873.682 343.75 874.705 343.062 875.045 342.031 876.75 336.531 882.205 332.75 888 332.75 893.795 332.75 898.909 336.531 900.614 342.031 900.955 343.062 901.977 343.75 903 343.75 909.818 344.781 915.273 350.625 915.273 357.5 915.273 365.062 909.136 371.25 901.636 371.25Z" fill="#484848" fill-rule="evenodd"/></g></svg>