<?xml version="1.0" encoding="UTF-8" standalone="no"?>
<!-- Generator: Adobe Illustrator 21.0.0, SVG Export Plug-In . SVG Version: 6.00 Build 0)  -->

<svg
   version="1.1"
   id="图层_1"
   x="0px"
   y="0px"
   viewBox="0 0 48 48"
   style="enable-background:new 0 0 48 48;"
   xml:space="preserve"
   sodipodi:docname="calculator.svg"
   inkscape:export-filename="postgre.png"
   inkscape:export-xdpi="96"
   inkscape:export-ydpi="96"
   inkscape:version="1.4 (86a8ad7, 2024-10-11)"
   xmlns:inkscape="http://www.inkscape.org/namespaces/inkscape"
   xmlns:sodipodi="http://sodipodi.sourceforge.net/DTD/sodipodi-0.dtd"
   xmlns="http://www.w3.org/2000/svg"
   xmlns:svg="http://www.w3.org/2000/svg"><defs
   id="defs1" /><sodipodi:namedview
   id="namedview1"
   pagecolor="#ffffff"
   bordercolor="#666666"
   borderopacity="1.0"
   inkscape:showpageshadow="2"
   inkscape:pageopacity="0.0"
   inkscape:pagecheckerboard="0"
   inkscape:deskcolor="#d1d1d1"
   inkscape:zoom="31.99063"
   inkscape:cx="21.709482"
   inkscape:cy="21.615704"
   inkscape:window-width="3840"
   inkscape:window-height="2054"
   inkscape:window-x="-11"
   inkscape:window-y="-11"
   inkscape:window-maximized="1"
   inkscape:current-layer="图层_1" />
<style
   type="text/css"
   id="style1">
	.st0{fill:#040000;}
</style>
<path
   class="st0"
   d="M 40.8,10.6 27.3,2.8 C 26.3,2.3 25.2,2 24,2 22.8,2 21.7,2.3 20.7,2.8 L 7.2,10.6 C 5.4,11.6 4,14.1 4,16.2 v 15.6 c 0,2.1 1.4,4.5 3.2,5.6 l 13.5,7.8 c 0.9,0.5 2.1,0.8 3.3,0.8 1.2,0 2.3,-0.3 3.3,-0.8 L 40.8,37.4 C 42.6,36.3 44,33.9 44,31.8 V 16.2 c 0,-2.1 -1.4,-4.6 -3.2,-5.6 z M 42,31.8 c 0,1.4 -1.1,3.2 -2.3,3.9 L 26.2,43.5 C 25.7,43.8 24.9,44 24,44 23.1,44 22.3,43.8 21.7,43.5 L 8.3,35.7 C 7.1,35 6,33.2 6,31.8 V 16.2 C 6,14.8 7.1,13 8.3,12.3 L 21.8,4.5 C 22.3,4.2 23.1,4 24,4 c 0.9,0 1.7,0.2 2.3,0.5 l 13.5,7.8 c 1.2,0.7 2.3,2.5 2.3,3.9 z"
   id="path1"
   sodipodi:nodetypes="ccsccssccsccssccccsccssccscccc" />
<text
   xml:space="preserve"
   style="font-style:normal;font-weight:normal;font-size:32.9086px;line-height:1.25;font-family:sans-serif;fill:#000000;fill-opacity:1;stroke:none;stroke-width:0.822714"
   x="13.539281"
   y="35.165123"
   id="text1"
   transform="scale(0.97430305,1.0263747)"><tspan
     sodipodi:role="line"
     id="tspan1"
     x="13.539281"
     y="35.165123"
     style="font-style:normal;font-variant:normal;font-weight:normal;font-stretch:normal;font-size:32.9086px;font-family:Arial;-inkscape-font-specification:'Arial, Normal';font-variant-ligatures:normal;font-variant-caps:normal;font-variant-numeric:normal;font-variant-east-asian:normal;stroke-width:0.822714">€</tspan></text></svg>
