<svg width="132.000000" height="132.000000" viewBox="0 0 132 132" fill="none" xmlns="http://www.w3.org/2000/svg" xmlns:xlink="http://www.w3.org/1999/xlink">
	<desc>
			Created with Pixso.
	</desc>
	<defs>
		<clipPath id="clip4_21875">
			<rect id="RFS" width="132.000000" height="132.000000" fill="white" fill-opacity="0"/>
		</clipPath>
	</defs>
	<g clip-path="url(#clip4_21875)">
		<mask id="mask4_21878" mask-type="alpha" maskUnits="userSpaceOnUse" x="0.000000" y="0.000000" width="132.000000" height="132.000000">
			<rect id="RFS" width="132.000000" height="132.000000" fill="#000000" fill-opacity="1.000000"/>
		</mask>
		<g mask="url(#mask4_21878)">
			<path id="path" d="M79.47 109.72C78.91 110 78.37 110 77.82 110C76.16 105.05 71.5 101.75 66 101.75C59.12 101.75 53.35 107.25 53.35 114.12C53.35 121 59.12 126.5 66 126.5C72.6 126.5 77.82 121.55 78.37 115.22C79.18 114.95 80.01 114.95 80.85 114.67C105.05 108.07 122.1 86.07 122.1 61.05L116.6 61.05C116.87 83.87 101.47 103.67 79.47 109.72ZM66 121.27C62.13 121.27 58.85 118.25 58.85 114.4C58.85 110.55 62.13 107.52 66 107.52C69.85 107.52 73.13 110.55 73.13 114.4C73.13 118.25 69.85 121.27 66 121.27ZM15.12 61.05C15.12 57.75 15.38 54.16 16.21 50.87C16.5 50.05 16.77 49.22 16.77 48.38C17.04 48.38 17.6 48.38 17.87 48.38C24.75 48.38 30.52 42.88 30.52 36.02C30.52 29.13 25.02 23.63 18.13 23.63C11.27 23.63 5.5 29.13 5.5 36.02C5.5 40.7 7.96 44.55 11.55 46.75C11.27 47.85 11 48.95 11 50.05C10.16 53.62 9.88 57.47 9.88 61.32C9.88 82.5 21.72 101.47 40.97 111.1L43.45 106.15C25.85 97.62 15.12 80.57 15.12 61.05ZM11 36.02C11 32.16 14.3 29.13 18.13 29.13C22 29.13 25.3 32.16 25.3 36.02C25.3 39.87 22 43.16 18.13 43.16C17.6 43.16 17.04 43.16 16.5 42.88L14.85 42.35C12.63 40.97 11 38.77 11 36.02ZM113.85 23.63C111.92 23.63 110.27 24.2 108.62 24.75C97.88 12.63 82.5 5.5 66 5.5C53.88 5.5 42.35 9.35 32.45 16.5L35.75 20.88C44.55 14.3 55 11 66 11C80.57 11 94.6 17.32 104.22 28.05C102.3 30.25 101.2 33 101.2 36.02C101.2 42.88 106.97 48.38 113.85 48.38C120.72 48.38 126.5 42.88 126.5 36.02C126.5 29.13 120.72 23.63 113.85 23.63ZM113.85 43.16C110 43.16 106.7 40.13 106.7 36.3C106.7 34.37 107.52 33 108.62 31.62L111.1 29.97C111.92 29.7 113.02 29.41 113.85 29.41C117.7 29.41 121 32.45 121 36.3C121 40.13 117.7 43.16 113.85 43.16Z" fill="#080102" fill-opacity="1.000000" fill-rule="nonzero"/>
			<path id="Combined-Shape" d="M89.09 68.49L97.06 72.88C97.89 73.43 97.89 74.82 97.06 75.36L66.81 91.86C66.54 92.13 66 92.13 65.44 91.86L35.2 75.36C34.36 74.82 34.36 73.43 35.2 72.88L43.16 68.49L35.2 64.08C34.36 63.54 34.36 62.16 35.2 61.61L43.16 57.22L35.2 52.82C34.36 52.27 34.36 50.88 35.2 50.33L65.44 33.83C65.72 33.57 66.26 33.57 66.81 33.83L97.06 50.33C97.89 50.88 97.89 52.27 97.06 52.82L89.09 57.49L97.06 61.88C97.89 62.43 97.89 63.82 97.06 64.36L89.09 68.49ZM86.06 70.13L66.54 80.86C66.26 81.13 65.72 81.13 65.16 80.86L45.64 70.13L38.5 73.99L66 88.83L93.5 73.99L86.06 70.13ZM45.91 59.13L38.5 62.99L66 77.83L93.5 62.99L86.34 59.13L66.81 69.86C66.54 70.13 66 70.13 65.44 69.86L45.91 59.13ZM93.5 51.99L66 37.13L38.5 51.99L66 66.83L93.5 51.99Z" fill="#000000" fill-opacity="1.000000" fill-rule="nonzero"/>
		</g>
	</g>
</svg>
