<svg version="1.1" xmlns="http://www.w3.org/2000/svg" xmlns:xlink="http://www.w3.org/1999/xlink" x="0px" y="0px" viewBox="0 0 48 48" style="enable-background:new 0 0 48 48;" xml:space="preserve"><g><path d="M40.4,10.3L27.6,2.9c-2-1.2-5.1-1.2-7.2,0L7.6,10.3c-2,1.2-3.6,3.9-3.6,6.2l0,14.9c0,2.4,1.5,5,3.6,6.2l12.8,7.4 c1,0.6,2.3,0.9,3.6,0.9c1.3,0,2.6-0.3,3.6-0.9l12.8-7.4c2-1.2,3.6-3.9,3.6-6.2l0-14.9C44,14.2,42.5,11.5,40.4,10.3z M6,31.5l0-14.9 c0-1.6,1.2-3.7,2.6-4.5l2.8-1.6l5.9,3.5c1.1,0.6,1.7,1.8,1.7,3l0,14.1c0,1.2-0.7,2.4-1.7,3l-5.9,3.5l-2.8-1.6 C7.2,35.1,6,33.1,6,31.5z M42,31.5c0,1.6-1.2,3.7-2.6,4.5l-2.8,1.6L35.8,37c-0.2-0.1-0.5-0.1-0.7,0.2c-0.1,0.2-0.1,0.5,0.2,0.7 l0.4,0.2l-9.1,5.2c-1.4,0.8-3.8,0.8-5.2,0l-9-5.2l5.4-3.2c1.4-0.8,2.2-2.3,2.2-3.9l0-14.1c0-1.6-0.9-3.1-2.2-3.9l-5.4-3.2l9.1-5.2 C22.1,4.2,23.1,4,24,4c0.9,0,1.9,0.2,2.6,0.6l9,5.2l-0.5,0.3c-0.2,0.1-0.3,0.4-0.2,0.7c0.1,0.2,0.3,0.2,0.4,0.2 c0.1,0,0.2,0,0.3-0.1l1-0.6l2.8,1.6c1.4,0.8,2.6,2.8,2.6,4.5L42,31.5z"></path><path d="M28.5,23.6c0.3,0,0.5-0.2,0.5-0.5l0-2c0-0.3-0.2-0.5-0.5-0.5S28,20.8,28,21.1l0,2C28,23.3,28.2,23.6,28.5,23.6z"></path><path d="M28.5,19.6c0.3,0,0.5-0.2,0.5-0.5l0-2c0-0.3-0.2-0.5-0.5-0.5S28,16.8,28,17.1l0,2C28,19.3,28.2,19.6,28.5,19.6z"></path><path d="M28.7,15.6c0.1,0,0.1,0.1,0.2,0.1c0.2,0,0.4-0.1,0.4-0.3c0.3-0.5,0.7-1,1.1-1.3c0.2-0.2,0.3-0.5,0.1-0.7 c-0.2-0.2-0.5-0.3-0.7-0.1c-0.6,0.4-1.1,1-1.5,1.7C28.4,15.2,28.5,15.5,28.7,15.6z"></path><path d="M29,31.1l0-2c0-0.3-0.2-0.5-0.5-0.5S28,28.8,28,29.1l0,2c0,0.3,0.2,0.5,0.5,0.5S29,31.3,29,31.1z"></path><path d="M34,36l-1.7-1c-0.2-0.1-0.5-0.1-0.7,0.2c-0.1,0.2-0.1,0.5,0.2,0.7l1.7,1c0.1,0,0.2,0.1,0.3,0.1c0.2,0,0.3-0.1,0.4-0.2 C34.4,36.5,34.3,36.2,34,36z"></path><path d="M32.2,13l1.7-1c0.2-0.1,0.3-0.4,0.2-0.7c-0.1-0.2-0.5-0.3-0.7-0.2l-1.7,1c-0.2,0.1-0.3,0.4-0.2,0.7 c0.1,0.2,0.3,0.2,0.4,0.2C32,13.1,32.1,13.1,32.2,13z"></path><path d="M30.6,34c-0.5-0.3-0.9-0.8-1.2-1.3c-0.1-0.2-0.4-0.3-0.7-0.2c-0.2,0.1-0.3,0.4-0.2,0.7c0.4,0.7,0.9,1.2,1.5,1.6 c0.1,0.1,0.2,0.1,0.3,0.1c0.2,0,0.3-0.1,0.4-0.2C30.9,34.5,30.8,34.2,30.6,34z"></path><path d="M28.5,27.6c0.3,0,0.5-0.2,0.5-0.5l0-2c0-0.3-0.2-0.5-0.5-0.5S28,24.8,28,25.1l0,2C28,27.3,28.2,27.6,28.5,27.6z"></path></g></svg>
