<?xml version="1.0" standalone="no"?>
<!DOCTYPE svg PUBLIC "-//W3C//DTD SVG 1.1//EN" "http://www.w3.org/Graphics/SVG/1.1/DTD/svg11.dtd" >
<svg xmlns="http://www.w3.org/2000/svg" xmlns:xlink="http://www.w3.org/1999/xlink" version="1.1" viewBox="-10 0 1034 1024">
   <path fill="currentColor"
d="M695 448h-364q-13 0 -22.5 9.5t-9.5 22.5v213q0 13 9.5 22.5t22.5 9.5h364q13 0 21.5 -9.5t8.5 -22.5v-213q0 -13 -8.5 -22.5t-21.5 -9.5zM704 693q0 5 -2.5 8t-6.5 3h-364q-4 0 -7.5 -3t-3.5 -8v-164l188 79h1.5h2.5h2.5h1.5l188 -79v164v0zM704 506l-192 81l-192 -81
v-26q0 -5 3 -8t8 -3h364q4 0 6.5 3t2.5 8v26zM753 343q-13 -37 -36 -69t-54.5 -55t-69.5 -35q-39 -13 -81 -13t-81 13q-38 12 -69.5 35t-54.5 55t-36 69q-48 5 -90 27q-41 22 -72 56t-49 78q-17 44 -17 93q0 53 20 100q20 46 55 81t81 55q47 20 100 20h426q53 0 100 -20
q46 -20 81 -55t55 -81q20 -47 20 -100q0 -49 -17 -93q-18 -44 -49 -78t-72 -56q-42 -22 -90 -27v0zM725 811h-426q-44 0 -83 -17t-68 -46t-46 -68t-17 -83q0 -40 15 -77q14 -37 39.5 -65t60.5 -47q34 -18 75 -22q13 -1 22.5 -8.5t13.5 -19.5q23 -64 78.5 -103.5t122.5 -39.5
t122.5 39.5t78.5 103.5q4 12 13.5 19.5t22.5 8.5q41 5 75 23q35 19 60.5 47t39.5 64q15 37 15 77q0 44 -17 83t-46 68t-68 46t-83 17v0z" />
</svg>
